M48
; DRILL file {KiCad (5.1.10)-1} date 12/09/21 15:30:04
; FORMAT={-:-/ absolute / inch / decimal}
; #@! TF.CreationDate,2021-12-09T15:30:04+01:00
; #@! TF.GenerationSoftware,Kicad,Pcbnew,(5.1.10)-1
FMAT,2
INCH
T1C0.0300
T2C0.0354
T3C0.0394
T4C0.0472
T5C0.1260
%
G90
G05
T1
X4.97Y-3.5
X4.985Y-4.405
X5.07Y-3.4
X5.07Y-3.5
X5.0825Y-3.9125
X5.085Y-4.305
X5.085Y-4.405
X5.17Y-3.4
X5.17Y-3.5
X5.1825Y-3.9125
X5.185Y-4.305
X5.185Y-4.405
X5.27Y-3.5
X5.2825Y-3.9125
X5.2825Y-4.0125
X5.285Y-4.405
X5.6Y-3.25
X5.6Y-4.05
X5.7Y-3.25
X5.7Y-4.05
X5.8Y-3.25
X5.8Y-4.05
X5.9Y-3.25
X5.9Y-4.05
X6.0Y-3.25
X6.0Y-4.05
X6.1Y-3.25
X6.1Y-4.05
X6.2Y-3.25
X6.2Y-4.05
X6.3Y-3.25
X6.3Y-4.05
T2
X5.6Y-5.55
X5.6Y-5.65
X5.85Y-5.55
X5.85Y-5.65
X6.1Y-5.55
X6.1Y-5.65
X6.35Y-5.55
X6.35Y-5.65
T3
X4.4225Y-2.67
X4.425Y-5.325
X4.5225Y-2.67
X4.525Y-5.325
X4.6225Y-2.67
X4.625Y-5.325
X4.65Y-3.2
X4.65Y-3.3
X4.65Y-3.4
X4.65Y-3.5
X4.65Y-3.6
X4.65Y-3.7
X4.65Y-4.15
X4.65Y-4.25
X4.65Y-4.35
X4.65Y-4.45
X4.65Y-4.75
X4.65Y-4.85
X4.65Y-4.95
X4.8225Y-2.67
X4.825Y-5.325
X4.9225Y-2.67
X4.925Y-5.325
X5.65Y-2.7
X6.85Y-3.05
X6.85Y-3.15
X6.85Y-3.25
X6.85Y-3.35
X6.85Y-3.45
X6.85Y-3.55
X6.85Y-3.65
X6.85Y-3.75
X6.85Y-3.85
X6.85Y-3.95
X6.85Y-4.05
X6.85Y-4.15
X6.85Y-4.25
X6.85Y-4.35
X6.85Y-4.45
X6.85Y-4.55
X6.85Y-4.65
X6.85Y-4.75
X6.85Y-4.85
X6.85Y-4.95
X6.975Y-5.325
X6.98Y-2.67
X7.075Y-5.325
X7.08Y-2.67
X7.275Y-5.325
X7.28Y-2.67
X7.375Y-5.325
X7.38Y-2.67
X7.45Y-3.05
X7.45Y-3.15
X7.45Y-3.25
X7.45Y-3.35
X7.45Y-3.45
X7.45Y-3.55
X7.45Y-3.65
X7.45Y-3.75
X7.45Y-3.85
X7.45Y-3.95
X7.45Y-4.05
X7.45Y-4.15
X7.45Y-4.25
X7.45Y-4.35
X7.45Y-4.45
X7.45Y-4.55
X7.45Y-4.65
X7.45Y-4.75
X7.45Y-4.85
X7.45Y-4.95
X7.475Y-5.325
X7.48Y-2.67
T4
X5.6Y-4.9
X5.6Y-5.4
X5.85Y-4.9
X5.85Y-5.4
X5.9Y-2.7
X5.9Y-2.9
X6.1Y-4.9
X6.1Y-5.4
X6.35Y-4.9
X6.35Y-5.4
X6.4Y-2.7
X6.4Y-2.9
T5
X5.175Y-2.75
X5.175Y-5.225
X6.75Y-5.225
X6.7525Y-2.75
T0
M30
