%TF.GenerationSoftware,KiCad,Pcbnew,(5.1.10)-1*%
%TF.CreationDate,2021-12-09T15:29:57+01:00*%
%TF.ProjectId,flight controller,666c6967-6874-4206-936f-6e74726f6c6c,rev?*%
%TF.SameCoordinates,Original*%
%TF.FileFunction,Copper,L4,Bot*%
%TF.FilePolarity,Positive*%
%FSLAX46Y46*%
G04 Gerber Fmt 4.6, Leading zero omitted, Abs format (unit mm)*
G04 Created by KiCad (PCBNEW (5.1.10)-1) date 2021-12-09 15:29:57*
%MOMM*%
%LPD*%
G01*
G04 APERTURE LIST*
%TA.AperFunction,ComponentPad*%
%ADD10C,1.524000*%
%TD*%
%TA.AperFunction,ComponentPad*%
%ADD11R,1.524000X1.524000*%
%TD*%
%TA.AperFunction,ComponentPad*%
%ADD12C,5.600000*%
%TD*%
%TA.AperFunction,ComponentPad*%
%ADD13C,1.800000*%
%TD*%
%TA.AperFunction,ComponentPad*%
%ADD14R,1.800000X1.800000*%
%TD*%
%TA.AperFunction,ComponentPad*%
%ADD15O,1.700000X1.700000*%
%TD*%
%TA.AperFunction,ComponentPad*%
%ADD16R,1.700000X1.700000*%
%TD*%
%TA.AperFunction,ComponentPad*%
%ADD17O,2.400000X2.400000*%
%TD*%
%TA.AperFunction,ComponentPad*%
%ADD18C,2.400000*%
%TD*%
%TA.AperFunction,ComponentPad*%
%ADD19C,1.700000*%
%TD*%
%TA.AperFunction,Conductor*%
%ADD20C,0.250000*%
%TD*%
G04 APERTURE END LIST*
D10*
%TO.P,U5,6*%
%TO.N,Net-(U5-Pad6)*%
X131318000Y-86360000D03*
%TO.P,U5,5*%
%TO.N,Net-(U5-Pad5)*%
X128778000Y-86360000D03*
D11*
%TO.P,U5,4*%
%TO.N,Earth*%
X133858000Y-88900000D03*
D10*
%TO.P,U5,3*%
%TO.N,/TX*%
X131318000Y-88900000D03*
%TO.P,U5,2*%
%TO.N,/RX*%
X128778000Y-88900000D03*
%TO.P,U5,1*%
%TO.N,/5V*%
X126238000Y-88900000D03*
%TD*%
%TO.P,U4,6*%
%TO.N,/SDA*%
X131699000Y-109347000D03*
%TO.P,U4,5*%
%TO.N,/SCL*%
X129159000Y-109347000D03*
D11*
%TO.P,U4,4*%
%TO.N,Earth*%
X134239000Y-111887000D03*
D10*
%TO.P,U4,3*%
%TO.N,/TX2*%
X131699000Y-111887000D03*
%TO.P,U4,2*%
%TO.N,/RX2*%
X129159000Y-111887000D03*
%TO.P,U4,1*%
%TO.N,/5V*%
X126619000Y-111887000D03*
%TD*%
D12*
%TO.P,REF\u002A\u002A,1*%
%TO.N,N/C*%
X171450000Y-132715000D03*
%TD*%
%TO.P,REF\u002A\u002A,1*%
%TO.N,N/C*%
X131445000Y-132715000D03*
%TD*%
%TO.P,REF\u002A\u002A,1*%
%TO.N,N/C*%
X171513500Y-69850000D03*
%TD*%
%TO.P,REF\u002A\u002A,1*%
%TO.N,N/C*%
X131445000Y-69850000D03*
%TD*%
D11*
%TO.P,U6,1*%
%TO.N,Earth*%
X134175500Y-101917500D03*
D10*
%TO.P,U6,2*%
%TO.N,/3V3*%
X134175500Y-99377500D03*
%TO.P,U6,3*%
%TO.N,/SDA*%
X131635500Y-99377500D03*
%TO.P,U6,4*%
%TO.N,/SCL*%
X129095500Y-99377500D03*
%TD*%
D13*
%TO.P,D1,2*%
%TO.N,Net-(D1-Pad2)*%
X148590000Y-140970000D03*
D14*
%TO.P,D1,1*%
%TO.N,Earth*%
X148590000Y-143510000D03*
%TD*%
D13*
%TO.P,D2,2*%
%TO.N,Net-(D2-Pad2)*%
X142240000Y-140970000D03*
D14*
%TO.P,D2,1*%
%TO.N,Earth*%
X142240000Y-143510000D03*
%TD*%
D13*
%TO.P,D3,2*%
%TO.N,Net-(D3-Pad2)*%
X154940000Y-140970000D03*
D14*
%TO.P,D3,1*%
%TO.N,Earth*%
X154940000Y-143510000D03*
%TD*%
D13*
%TO.P,D4,2*%
%TO.N,Net-(D4-Pad2)*%
X161290000Y-140970000D03*
D14*
%TO.P,D4,1*%
%TO.N,Earth*%
X161290000Y-143510000D03*
%TD*%
D15*
%TO.P,J1,3*%
%TO.N,/ESC3*%
X112395000Y-135255000D03*
%TO.P,J1,2*%
%TO.N,Net-(J1-Pad2)*%
X114935000Y-135255000D03*
D16*
%TO.P,J1,1*%
%TO.N,Earth*%
X117475000Y-135255000D03*
%TD*%
D15*
%TO.P,J2,3*%
%TO.N,/ESC4*%
X117411500Y-67818000D03*
%TO.P,J2,2*%
%TO.N,Net-(J2-Pad2)*%
X114871500Y-67818000D03*
D16*
%TO.P,J2,1*%
%TO.N,Earth*%
X112331500Y-67818000D03*
%TD*%
D15*
%TO.P,J3,2*%
%TO.N,Net-(J2-Pad2)*%
X125031500Y-67818000D03*
D16*
%TO.P,J3,1*%
%TO.N,Earth*%
X122491500Y-67818000D03*
%TD*%
D15*
%TO.P,J4,2*%
%TO.N,Net-(J1-Pad2)*%
X122555000Y-135255000D03*
D16*
%TO.P,J4,1*%
%TO.N,Earth*%
X125095000Y-135255000D03*
%TD*%
D15*
%TO.P,J5,2*%
%TO.N,/5V*%
X179832000Y-67818000D03*
D16*
%TO.P,J5,1*%
%TO.N,Earth*%
X177292000Y-67818000D03*
%TD*%
D15*
%TO.P,J6,3*%
%TO.N,/ESC1*%
X189992000Y-67818000D03*
%TO.P,J6,2*%
%TO.N,/5V*%
X187452000Y-67818000D03*
D16*
%TO.P,J6,1*%
%TO.N,Earth*%
X184912000Y-67818000D03*
%TD*%
D15*
%TO.P,J7,2*%
%TO.N,Net-(J7-Pad2)*%
X177165000Y-135255000D03*
D16*
%TO.P,J7,1*%
%TO.N,Earth*%
X179705000Y-135255000D03*
%TD*%
D15*
%TO.P,J8,3*%
%TO.N,/ESC2*%
X184785000Y-135255000D03*
%TO.P,J8,2*%
%TO.N,Net-(J7-Pad2)*%
X187325000Y-135255000D03*
D16*
%TO.P,J8,1*%
%TO.N,Earth*%
X189865000Y-135255000D03*
%TD*%
D15*
%TO.P,J9,4*%
%TO.N,/SDA*%
X118110000Y-105410000D03*
%TO.P,J9,3*%
%TO.N,/SCL*%
X118110000Y-107950000D03*
%TO.P,J9,2*%
%TO.N,/5V*%
X118110000Y-110490000D03*
D16*
%TO.P,J9,1*%
%TO.N,Earth*%
X118110000Y-113030000D03*
%TD*%
D15*
%TO.P,J10,3*%
%TO.N,/PPM*%
X118110000Y-120650000D03*
%TO.P,J10,2*%
%TO.N,/5V*%
X118110000Y-123190000D03*
D16*
%TO.P,J10,1*%
%TO.N,Earth*%
X118110000Y-125730000D03*
%TD*%
%TO.P,J11,1*%
%TO.N,Net-(J11-Pad1)*%
X143510000Y-68580000D03*
%TD*%
D17*
%TO.P,R1,2*%
%TO.N,Net-(D1-Pad2)*%
X148590000Y-137160000D03*
D18*
%TO.P,R1,1*%
%TO.N,/RED_LED*%
X148590000Y-124460000D03*
%TD*%
D17*
%TO.P,R2,2*%
%TO.N,Net-(D2-Pad2)*%
X142240000Y-137160000D03*
D18*
%TO.P,R2,1*%
%TO.N,/GREEN_LED*%
X142240000Y-124460000D03*
%TD*%
D17*
%TO.P,R3,2*%
%TO.N,Net-(D3-Pad2)*%
X154940000Y-137160000D03*
D18*
%TO.P,R3,1*%
%TO.N,/YELLOW_LED*%
X154940000Y-124460000D03*
%TD*%
D17*
%TO.P,R4,2*%
%TO.N,Net-(D4-Pad2)*%
X161290000Y-137160000D03*
D18*
%TO.P,R4,1*%
%TO.N,/BLUE_LED*%
X161290000Y-124460000D03*
%TD*%
D17*
%TO.P,R5,2*%
%TO.N,Earth*%
X149860000Y-73660000D03*
D18*
%TO.P,R5,1*%
%TO.N,/VOLTAGE*%
X162560000Y-73660000D03*
%TD*%
D17*
%TO.P,R6,2*%
%TO.N,Net-(J11-Pad1)*%
X149860000Y-68580000D03*
D18*
%TO.P,R6,1*%
%TO.N,/VOLTAGE*%
X162560000Y-68580000D03*
%TD*%
D19*
%TO.P,U1,20*%
%TO.N,/3V3*%
X173990000Y-125730000D03*
%TO.P,U1,21*%
%TO.N,Net-(U1-Pad21)*%
X189230000Y-125730000D03*
%TO.P,U1,19*%
%TO.N,Earth*%
X173990000Y-123190000D03*
%TO.P,U1,22*%
%TO.N,Net-(U1-Pad22)*%
X189230000Y-123190000D03*
%TO.P,U1,18*%
%TO.N,/5V*%
X173990000Y-120650000D03*
%TO.P,U1,23*%
%TO.N,Net-(U1-Pad23)*%
X189230000Y-120650000D03*
%TO.P,U1,17*%
%TO.N,/ESC4*%
X173990000Y-118110000D03*
%TO.P,U1,24*%
%TO.N,Net-(U1-Pad24)*%
X189230000Y-118110000D03*
%TO.P,U1,16*%
%TO.N,/ESC3*%
X173990000Y-115570000D03*
%TO.P,U1,25*%
%TO.N,/PPM*%
X189230000Y-115570000D03*
%TO.P,U1,15*%
%TO.N,/ESC2*%
X173990000Y-113030000D03*
%TO.P,U1,26*%
%TO.N,Net-(U1-Pad26)*%
X189230000Y-113030000D03*
%TO.P,U1,14*%
%TO.N,/ESC1*%
X173990000Y-110490000D03*
%TO.P,U1,27*%
%TO.N,/RX2*%
X189230000Y-110490000D03*
%TO.P,U1,13*%
%TO.N,Net-(U1-Pad13)*%
X173990000Y-107950000D03*
%TO.P,U1,28*%
%TO.N,/TX2*%
X189230000Y-107950000D03*
%TO.P,U1,12*%
%TO.N,Net-(U1-Pad12)*%
X173990000Y-105410000D03*
%TO.P,U1,29*%
%TO.N,/VOLTAGE*%
X189230000Y-105410000D03*
%TO.P,U1,11*%
%TO.N,/BLUE_LED*%
X173990000Y-102870000D03*
%TO.P,U1,30*%
%TO.N,Net-(U1-Pad30)*%
X189230000Y-102870000D03*
%TO.P,U1,10*%
%TO.N,/YELLOW_LED*%
X173990000Y-100330000D03*
%TO.P,U1,31*%
%TO.N,Net-(U1-Pad31)*%
X189230000Y-100330000D03*
%TO.P,U1,9*%
%TO.N,/RED_LED*%
X173990000Y-97790000D03*
%TO.P,U1,32*%
%TO.N,Net-(U1-Pad32)*%
X189230000Y-97790000D03*
%TO.P,U1,8*%
%TO.N,/GREEN_LED*%
X173990000Y-95250000D03*
%TO.P,U1,33*%
%TO.N,Net-(U1-Pad33)*%
X189230000Y-95250000D03*
%TO.P,U1,7*%
%TO.N,/TX*%
X173990000Y-92710000D03*
%TO.P,U1,34*%
%TO.N,Net-(U1-Pad34)*%
X189230000Y-92710000D03*
%TO.P,U1,6*%
%TO.N,/RX*%
X173990000Y-90170000D03*
%TO.P,U1,35*%
%TO.N,/SCL*%
X189230000Y-90170000D03*
%TO.P,U1,5*%
%TO.N,Net-(U1-Pad5)*%
X173990000Y-87630000D03*
%TO.P,U1,36*%
%TO.N,/SDA*%
X189230000Y-87630000D03*
%TO.P,U1,4*%
%TO.N,Net-(U1-Pad4)*%
X173990000Y-85090000D03*
%TO.P,U1,37*%
%TO.N,Net-(U1-Pad37)*%
X189230000Y-85090000D03*
%TO.P,U1,3*%
%TO.N,Net-(U1-Pad3)*%
X173990000Y-82550000D03*
%TO.P,U1,38*%
%TO.N,Net-(U1-Pad38)*%
X189230000Y-82550000D03*
%TO.P,U1,2*%
%TO.N,Net-(U1-Pad2)*%
X173990000Y-80010000D03*
%TO.P,U1,39*%
%TO.N,Earth*%
X189230000Y-80010000D03*
D16*
%TO.P,U1,1*%
%TO.N,Net-(U1-Pad1)*%
X173990000Y-77470000D03*
D19*
%TO.P,U1,40*%
%TO.N,Earth*%
X189230000Y-77470000D03*
%TD*%
D10*
%TO.P,U2,1*%
%TO.N,/5V*%
X160020000Y-82550000D03*
D11*
%TO.P,U2,2*%
%TO.N,Earth*%
X157480000Y-82550000D03*
D10*
%TO.P,U2,3*%
%TO.N,/SCL*%
X154940000Y-82550000D03*
%TO.P,U2,8*%
%TO.N,Net-(U2-Pad8)*%
X142240000Y-82550000D03*
%TO.P,U2,7*%
%TO.N,Net-(U2-Pad7)*%
X144780000Y-82550000D03*
%TO.P,U2,6*%
%TO.N,Net-(U2-Pad6)*%
X147320000Y-82550000D03*
%TO.P,U2,5*%
%TO.N,Net-(U2-Pad5)*%
X149860000Y-82550000D03*
%TO.P,U2,4*%
%TO.N,/SDA*%
X152400000Y-82550000D03*
%TD*%
D15*
%TO.P,U3,6*%
%TO.N,Net-(U3-Pad6)*%
X118110000Y-93980000D03*
%TO.P,U3,5*%
%TO.N,/RX*%
X118110000Y-91440000D03*
%TO.P,U3,4*%
%TO.N,/TX*%
X118110000Y-88900000D03*
%TO.P,U3,3*%
%TO.N,/5V*%
X118110000Y-86360000D03*
%TO.P,U3,2*%
%TO.N,Net-(U3-Pad2)*%
X118110000Y-83820000D03*
D16*
%TO.P,U3,1*%
%TO.N,Earth*%
X118110000Y-81280000D03*
%TD*%
D10*
%TO.P,U7,1*%
%TO.N,/5V*%
X160020000Y-102870000D03*
D11*
%TO.P,U7,2*%
%TO.N,Earth*%
X157480000Y-102870000D03*
D10*
%TO.P,U7,3*%
%TO.N,/SCL*%
X154940000Y-102870000D03*
%TO.P,U7,8*%
%TO.N,Net-(U7-Pad8)*%
X142240000Y-102870000D03*
%TO.P,U7,7*%
%TO.N,/3V3*%
X144780000Y-102870000D03*
%TO.P,U7,6*%
%TO.N,Net-(U7-Pad6)*%
X147320000Y-102870000D03*
%TO.P,U7,5*%
%TO.N,Net-(U7-Pad5)*%
X149860000Y-102870000D03*
%TO.P,U7,4*%
%TO.N,/SDA*%
X152400000Y-102870000D03*
%TD*%
D20*
%TO.N,/SDA*%
X152400000Y-81472370D02*
X152409371Y-81462999D01*
X152400000Y-82550000D02*
X152400000Y-81472370D01*
X170973999Y-81462999D02*
X173425999Y-83914999D01*
X185514999Y-83914999D02*
X189230000Y-87630000D01*
X152409371Y-81462999D02*
X170973999Y-81462999D01*
X173425999Y-83914999D02*
X185514999Y-83914999D01*
X127762000Y-105410000D02*
X118110000Y-105410000D01*
X131699000Y-109347000D02*
X127762000Y-105410000D01*
X133088499Y-100830499D02*
X131635500Y-99377500D01*
X150360499Y-100830499D02*
X133088499Y-100830499D01*
X152400000Y-102870000D02*
X150360499Y-100830499D01*
%TO.N,/SCL*%
X154940000Y-82550000D02*
X158655001Y-86265001D01*
X158655001Y-86265001D02*
X185325001Y-86265001D01*
X185325001Y-86265001D02*
X189230000Y-90170000D01*
X129159000Y-109347000D02*
X128016000Y-108204000D01*
X118364000Y-108204000D02*
X118110000Y-107950000D01*
X128016000Y-108204000D02*
X118364000Y-108204000D01*
X133675001Y-103957001D02*
X129095500Y-99377500D01*
X153852999Y-103957001D02*
X133675001Y-103957001D01*
X154940000Y-102870000D02*
X153852999Y-103957001D01*
%TO.N,/PPM*%
X189230000Y-115570000D02*
X186031893Y-115570000D01*
X186031893Y-115570000D02*
X182126894Y-119474999D01*
X182126894Y-119474999D02*
X119285001Y-119474999D01*
X119285001Y-119474999D02*
X118110000Y-120650000D01*
%TO.N,Net-(J11-Pad1)*%
X149860000Y-68580000D02*
X143510000Y-68580000D01*
%TO.N,/VOLTAGE*%
X190405001Y-104234999D02*
X190405001Y-76905999D01*
X189230000Y-105410000D02*
X190405001Y-104234999D01*
X187159002Y-73660000D02*
X162560000Y-73660000D01*
X190405001Y-76905999D02*
X187159002Y-73660000D01*
%TO.N,/RX*%
X173990000Y-90170000D02*
X171450000Y-90170000D01*
X129865001Y-87812999D02*
X128778000Y-88900000D01*
X169092999Y-87812999D02*
X129865001Y-87812999D01*
X171450000Y-90170000D02*
X169092999Y-87812999D01*
X121737001Y-87812999D02*
X118110000Y-91440000D01*
X127690999Y-87812999D02*
X121737001Y-87812999D01*
X128778000Y-88900000D02*
X127690999Y-87812999D01*
%TO.N,/TX*%
X131748998Y-88900000D02*
X131318000Y-88900000D01*
X135558998Y-92710000D02*
X131748998Y-88900000D01*
X173990000Y-92710000D02*
X135558998Y-92710000D01*
X116934999Y-90075001D02*
X118110000Y-88900000D01*
X116934999Y-92004001D02*
X116934999Y-90075001D01*
X117545999Y-92615001D02*
X116934999Y-92004001D01*
X127602999Y-92615001D02*
X117545999Y-92615001D01*
X131318000Y-88900000D02*
X127602999Y-92615001D01*
%TO.N,/TX2*%
X188054999Y-109125001D02*
X189230000Y-107950000D01*
X173425999Y-109125001D02*
X188054999Y-109125001D01*
X169576999Y-112974001D02*
X173425999Y-109125001D01*
X132786001Y-112974001D02*
X169576999Y-112974001D01*
X131699000Y-111887000D02*
X132786001Y-112974001D01*
%TO.N,/RX2*%
X185514999Y-114205001D02*
X189230000Y-110490000D01*
X131477001Y-114205001D02*
X185514999Y-114205001D01*
X129159000Y-111887000D02*
X131477001Y-114205001D01*
%TD*%
M02*
