%TF.GenerationSoftware,KiCad,Pcbnew,(5.1.10)-1*%
%TF.CreationDate,2021-12-09T15:29:57+01:00*%
%TF.ProjectId,flight controller,666c6967-6874-4206-936f-6e74726f6c6c,rev?*%
%TF.SameCoordinates,Original*%
%TF.FileFunction,Soldermask,Bot*%
%TF.FilePolarity,Negative*%
%FSLAX46Y46*%
G04 Gerber Fmt 4.6, Leading zero omitted, Abs format (unit mm)*
G04 Created by KiCad (PCBNEW (5.1.10)-1) date 2021-12-09 15:29:57*
%MOMM*%
%LPD*%
G01*
G04 APERTURE LIST*
%ADD10C,1.524000*%
%ADD11R,1.524000X1.524000*%
%ADD12C,5.600000*%
%ADD13C,1.800000*%
%ADD14R,1.800000X1.800000*%
%ADD15O,1.700000X1.700000*%
%ADD16R,1.700000X1.700000*%
%ADD17O,2.400000X2.400000*%
%ADD18C,2.400000*%
%ADD19C,1.700000*%
G04 APERTURE END LIST*
D10*
%TO.C,U5*%
X131318000Y-86360000D03*
X128778000Y-86360000D03*
D11*
X133858000Y-88900000D03*
D10*
X131318000Y-88900000D03*
X128778000Y-88900000D03*
X126238000Y-88900000D03*
%TD*%
%TO.C,U4*%
X131699000Y-109347000D03*
X129159000Y-109347000D03*
D11*
X134239000Y-111887000D03*
D10*
X131699000Y-111887000D03*
X129159000Y-111887000D03*
X126619000Y-111887000D03*
%TD*%
D12*
%TO.C,REF\u002A\u002A*%
X171450000Y-132715000D03*
%TD*%
%TO.C,REF\u002A\u002A*%
X131445000Y-132715000D03*
%TD*%
%TO.C,REF\u002A\u002A*%
X171513500Y-69850000D03*
%TD*%
%TO.C,REF\u002A\u002A*%
X131445000Y-69850000D03*
%TD*%
D11*
%TO.C,U6*%
X134175500Y-101917500D03*
D10*
X134175500Y-99377500D03*
X131635500Y-99377500D03*
X129095500Y-99377500D03*
%TD*%
D13*
%TO.C,D1*%
X148590000Y-140970000D03*
D14*
X148590000Y-143510000D03*
%TD*%
D13*
%TO.C,D2*%
X142240000Y-140970000D03*
D14*
X142240000Y-143510000D03*
%TD*%
D13*
%TO.C,D3*%
X154940000Y-140970000D03*
D14*
X154940000Y-143510000D03*
%TD*%
D13*
%TO.C,D4*%
X161290000Y-140970000D03*
D14*
X161290000Y-143510000D03*
%TD*%
D15*
%TO.C,J1*%
X112395000Y-135255000D03*
X114935000Y-135255000D03*
D16*
X117475000Y-135255000D03*
%TD*%
D15*
%TO.C,J2*%
X117411500Y-67818000D03*
X114871500Y-67818000D03*
D16*
X112331500Y-67818000D03*
%TD*%
D15*
%TO.C,J3*%
X125031500Y-67818000D03*
D16*
X122491500Y-67818000D03*
%TD*%
D15*
%TO.C,J4*%
X122555000Y-135255000D03*
D16*
X125095000Y-135255000D03*
%TD*%
D15*
%TO.C,J5*%
X179832000Y-67818000D03*
D16*
X177292000Y-67818000D03*
%TD*%
D15*
%TO.C,J6*%
X189992000Y-67818000D03*
X187452000Y-67818000D03*
D16*
X184912000Y-67818000D03*
%TD*%
D15*
%TO.C,J7*%
X177165000Y-135255000D03*
D16*
X179705000Y-135255000D03*
%TD*%
D15*
%TO.C,J8*%
X184785000Y-135255000D03*
X187325000Y-135255000D03*
D16*
X189865000Y-135255000D03*
%TD*%
D15*
%TO.C,J9*%
X118110000Y-105410000D03*
X118110000Y-107950000D03*
X118110000Y-110490000D03*
D16*
X118110000Y-113030000D03*
%TD*%
D15*
%TO.C,J10*%
X118110000Y-120650000D03*
X118110000Y-123190000D03*
D16*
X118110000Y-125730000D03*
%TD*%
%TO.C,J11*%
X143510000Y-68580000D03*
%TD*%
D17*
%TO.C,R1*%
X148590000Y-137160000D03*
D18*
X148590000Y-124460000D03*
%TD*%
D17*
%TO.C,R2*%
X142240000Y-137160000D03*
D18*
X142240000Y-124460000D03*
%TD*%
D17*
%TO.C,R3*%
X154940000Y-137160000D03*
D18*
X154940000Y-124460000D03*
%TD*%
D17*
%TO.C,R4*%
X161290000Y-137160000D03*
D18*
X161290000Y-124460000D03*
%TD*%
D17*
%TO.C,R5*%
X149860000Y-73660000D03*
D18*
X162560000Y-73660000D03*
%TD*%
D17*
%TO.C,R6*%
X149860000Y-68580000D03*
D18*
X162560000Y-68580000D03*
%TD*%
D19*
%TO.C,U1*%
X173990000Y-125730000D03*
X189230000Y-125730000D03*
X173990000Y-123190000D03*
X189230000Y-123190000D03*
X173990000Y-120650000D03*
X189230000Y-120650000D03*
X173990000Y-118110000D03*
X189230000Y-118110000D03*
X173990000Y-115570000D03*
X189230000Y-115570000D03*
X173990000Y-113030000D03*
X189230000Y-113030000D03*
X173990000Y-110490000D03*
X189230000Y-110490000D03*
X173990000Y-107950000D03*
X189230000Y-107950000D03*
X173990000Y-105410000D03*
X189230000Y-105410000D03*
X173990000Y-102870000D03*
X189230000Y-102870000D03*
X173990000Y-100330000D03*
X189230000Y-100330000D03*
X173990000Y-97790000D03*
X189230000Y-97790000D03*
X173990000Y-95250000D03*
X189230000Y-95250000D03*
X173990000Y-92710000D03*
X189230000Y-92710000D03*
X173990000Y-90170000D03*
X189230000Y-90170000D03*
X173990000Y-87630000D03*
X189230000Y-87630000D03*
X173990000Y-85090000D03*
X189230000Y-85090000D03*
X173990000Y-82550000D03*
X189230000Y-82550000D03*
X173990000Y-80010000D03*
X189230000Y-80010000D03*
D16*
X173990000Y-77470000D03*
D19*
X189230000Y-77470000D03*
%TD*%
D10*
%TO.C,U2*%
X160020000Y-82550000D03*
D11*
X157480000Y-82550000D03*
D10*
X154940000Y-82550000D03*
X142240000Y-82550000D03*
X144780000Y-82550000D03*
X147320000Y-82550000D03*
X149860000Y-82550000D03*
X152400000Y-82550000D03*
%TD*%
D15*
%TO.C,U3*%
X118110000Y-93980000D03*
X118110000Y-91440000D03*
X118110000Y-88900000D03*
X118110000Y-86360000D03*
X118110000Y-83820000D03*
D16*
X118110000Y-81280000D03*
%TD*%
D10*
%TO.C,U7*%
X160020000Y-102870000D03*
D11*
X157480000Y-102870000D03*
D10*
X154940000Y-102870000D03*
X142240000Y-102870000D03*
X144780000Y-102870000D03*
X147320000Y-102870000D03*
X149860000Y-102870000D03*
X152400000Y-102870000D03*
%TD*%
M02*
