%TF.GenerationSoftware,KiCad,Pcbnew,(5.1.10)-1*%
%TF.CreationDate,2021-12-09T15:29:57+01:00*%
%TF.ProjectId,flight controller,666c6967-6874-4206-936f-6e74726f6c6c,rev?*%
%TF.SameCoordinates,Original*%
%TF.FileFunction,Other,Fab,Top*%
%FSLAX46Y46*%
G04 Gerber Fmt 4.6, Leading zero omitted, Abs format (unit mm)*
G04 Created by KiCad (PCBNEW (5.1.10)-1) date 2021-12-09 15:29:57*
%MOMM*%
%LPD*%
G01*
G04 APERTURE LIST*
%ADD10C,0.120000*%
%ADD11C,0.100000*%
%ADD12C,0.150000*%
G04 APERTURE END LIST*
D10*
%TO.C,U5*%
X124968000Y-90170000D02*
X135128000Y-90170000D01*
X124968000Y-87630000D02*
X124968000Y-90170000D01*
X127508000Y-87630000D02*
X124968000Y-87630000D01*
X127508000Y-85090000D02*
X127508000Y-87630000D01*
X132588000Y-85090000D02*
X127508000Y-85090000D01*
X132588000Y-87630000D02*
X132588000Y-85090000D01*
X135128000Y-87630000D02*
X132588000Y-87630000D01*
X135128000Y-90170000D02*
X135128000Y-87630000D01*
%TO.C,U4*%
X125349000Y-113157000D02*
X135509000Y-113157000D01*
X125349000Y-110617000D02*
X125349000Y-113157000D01*
X127889000Y-110617000D02*
X125349000Y-110617000D01*
X127889000Y-108077000D02*
X127889000Y-110617000D01*
X132969000Y-108077000D02*
X127889000Y-108077000D01*
X132969000Y-110617000D02*
X132969000Y-108077000D01*
X135509000Y-110617000D02*
X132969000Y-110617000D01*
X135509000Y-113157000D02*
X135509000Y-110617000D01*
%TO.C,U6*%
X135445500Y-98107500D02*
X127825500Y-98107500D01*
X135445500Y-103187500D02*
X135445500Y-98107500D01*
X132905500Y-103187500D02*
X135445500Y-103187500D01*
X132905500Y-100647500D02*
X132905500Y-103187500D01*
X127825500Y-100647500D02*
X132905500Y-100647500D01*
X127825500Y-98107500D02*
X127825500Y-100647500D01*
D11*
%TO.C,D1*%
X150590000Y-142240000D02*
G75*
G03*
X150590000Y-142240000I-2000000J0D01*
G01*
X147263350Y-144240000D02*
X149916650Y-144240000D01*
X149916139Y-144240338D02*
G75*
G03*
X147263350Y-144240000I-1326139J2000338D01*
G01*
%TO.C,D2*%
X144240000Y-142240000D02*
G75*
G03*
X144240000Y-142240000I-2000000J0D01*
G01*
X140913350Y-144240000D02*
X143566650Y-144240000D01*
X143566139Y-144240338D02*
G75*
G03*
X140913350Y-144240000I-1326139J2000338D01*
G01*
%TO.C,D3*%
X156940000Y-142240000D02*
G75*
G03*
X156940000Y-142240000I-2000000J0D01*
G01*
X153613350Y-144240000D02*
X156266650Y-144240000D01*
X156266139Y-144240338D02*
G75*
G03*
X153613350Y-144240000I-1326139J2000338D01*
G01*
%TO.C,D4*%
X163290000Y-142240000D02*
G75*
G03*
X163290000Y-142240000I-2000000J0D01*
G01*
X159963350Y-144240000D02*
X162616650Y-144240000D01*
X162616139Y-144240338D02*
G75*
G03*
X159963350Y-144240000I-1326139J2000338D01*
G01*
%TO.C,J1*%
X118745000Y-137390000D02*
X118745000Y-139295000D01*
X118745000Y-139295000D02*
X111125000Y-139295000D01*
X111125000Y-139295000D02*
X111125000Y-136755000D01*
X111125000Y-136755000D02*
X118110000Y-136755000D01*
X118110000Y-136755000D02*
X118745000Y-137390000D01*
X117795000Y-134935000D02*
X117795000Y-136755000D01*
X117795000Y-134935000D02*
X117155000Y-134935000D01*
X117155000Y-134935000D02*
X117155000Y-136755000D01*
X117795000Y-139295000D02*
X117795000Y-145295000D01*
X117795000Y-145295000D02*
X117155000Y-145295000D01*
X117155000Y-139295000D02*
X117155000Y-145295000D01*
X115255000Y-134935000D02*
X115255000Y-136755000D01*
X115255000Y-134935000D02*
X114615000Y-134935000D01*
X114615000Y-134935000D02*
X114615000Y-136755000D01*
X115255000Y-139295000D02*
X115255000Y-145295000D01*
X115255000Y-145295000D02*
X114615000Y-145295000D01*
X114615000Y-139295000D02*
X114615000Y-145295000D01*
X112715000Y-134935000D02*
X112715000Y-136755000D01*
X112715000Y-134935000D02*
X112075000Y-134935000D01*
X112075000Y-134935000D02*
X112075000Y-136755000D01*
X112715000Y-139295000D02*
X112715000Y-145295000D01*
X112715000Y-145295000D02*
X112075000Y-145295000D01*
X112075000Y-139295000D02*
X112075000Y-145295000D01*
%TO.C,J2*%
X111061500Y-65683000D02*
X111061500Y-63778000D01*
X111061500Y-63778000D02*
X118681500Y-63778000D01*
X118681500Y-63778000D02*
X118681500Y-66318000D01*
X118681500Y-66318000D02*
X111696500Y-66318000D01*
X111696500Y-66318000D02*
X111061500Y-65683000D01*
X112011500Y-68138000D02*
X112011500Y-66318000D01*
X112011500Y-68138000D02*
X112651500Y-68138000D01*
X112651500Y-68138000D02*
X112651500Y-66318000D01*
X112011500Y-63778000D02*
X112011500Y-57778000D01*
X112011500Y-57778000D02*
X112651500Y-57778000D01*
X112651500Y-63778000D02*
X112651500Y-57778000D01*
X114551500Y-68138000D02*
X114551500Y-66318000D01*
X114551500Y-68138000D02*
X115191500Y-68138000D01*
X115191500Y-68138000D02*
X115191500Y-66318000D01*
X114551500Y-63778000D02*
X114551500Y-57778000D01*
X114551500Y-57778000D02*
X115191500Y-57778000D01*
X115191500Y-63778000D02*
X115191500Y-57778000D01*
X117091500Y-68138000D02*
X117091500Y-66318000D01*
X117091500Y-68138000D02*
X117731500Y-68138000D01*
X117731500Y-68138000D02*
X117731500Y-66318000D01*
X117091500Y-63778000D02*
X117091500Y-57778000D01*
X117091500Y-57778000D02*
X117731500Y-57778000D01*
X117731500Y-63778000D02*
X117731500Y-57778000D01*
%TO.C,J3*%
X121221500Y-65683000D02*
X121221500Y-63778000D01*
X121221500Y-63778000D02*
X126301500Y-63778000D01*
X126301500Y-63778000D02*
X126301500Y-66318000D01*
X126301500Y-66318000D02*
X121856500Y-66318000D01*
X121856500Y-66318000D02*
X121221500Y-65683000D01*
X122171500Y-68138000D02*
X122171500Y-66318000D01*
X122171500Y-68138000D02*
X122811500Y-68138000D01*
X122811500Y-68138000D02*
X122811500Y-66318000D01*
X122171500Y-63778000D02*
X122171500Y-57778000D01*
X122171500Y-57778000D02*
X122811500Y-57778000D01*
X122811500Y-63778000D02*
X122811500Y-57778000D01*
X124711500Y-68138000D02*
X124711500Y-66318000D01*
X124711500Y-68138000D02*
X125351500Y-68138000D01*
X125351500Y-68138000D02*
X125351500Y-66318000D01*
X124711500Y-63778000D02*
X124711500Y-57778000D01*
X124711500Y-57778000D02*
X125351500Y-57778000D01*
X125351500Y-63778000D02*
X125351500Y-57778000D01*
%TO.C,J4*%
X126365000Y-137390000D02*
X126365000Y-139295000D01*
X126365000Y-139295000D02*
X121285000Y-139295000D01*
X121285000Y-139295000D02*
X121285000Y-136755000D01*
X121285000Y-136755000D02*
X125730000Y-136755000D01*
X125730000Y-136755000D02*
X126365000Y-137390000D01*
X125415000Y-134935000D02*
X125415000Y-136755000D01*
X125415000Y-134935000D02*
X124775000Y-134935000D01*
X124775000Y-134935000D02*
X124775000Y-136755000D01*
X125415000Y-139295000D02*
X125415000Y-145295000D01*
X125415000Y-145295000D02*
X124775000Y-145295000D01*
X124775000Y-139295000D02*
X124775000Y-145295000D01*
X122875000Y-134935000D02*
X122875000Y-136755000D01*
X122875000Y-134935000D02*
X122235000Y-134935000D01*
X122235000Y-134935000D02*
X122235000Y-136755000D01*
X122875000Y-139295000D02*
X122875000Y-145295000D01*
X122875000Y-145295000D02*
X122235000Y-145295000D01*
X122235000Y-139295000D02*
X122235000Y-145295000D01*
%TO.C,J5*%
X176022000Y-65683000D02*
X176022000Y-63778000D01*
X176022000Y-63778000D02*
X181102000Y-63778000D01*
X181102000Y-63778000D02*
X181102000Y-66318000D01*
X181102000Y-66318000D02*
X176657000Y-66318000D01*
X176657000Y-66318000D02*
X176022000Y-65683000D01*
X176972000Y-68138000D02*
X176972000Y-66318000D01*
X176972000Y-68138000D02*
X177612000Y-68138000D01*
X177612000Y-68138000D02*
X177612000Y-66318000D01*
X176972000Y-63778000D02*
X176972000Y-57778000D01*
X176972000Y-57778000D02*
X177612000Y-57778000D01*
X177612000Y-63778000D02*
X177612000Y-57778000D01*
X179512000Y-68138000D02*
X179512000Y-66318000D01*
X179512000Y-68138000D02*
X180152000Y-68138000D01*
X180152000Y-68138000D02*
X180152000Y-66318000D01*
X179512000Y-63778000D02*
X179512000Y-57778000D01*
X179512000Y-57778000D02*
X180152000Y-57778000D01*
X180152000Y-63778000D02*
X180152000Y-57778000D01*
%TO.C,J6*%
X183642000Y-65683000D02*
X183642000Y-63778000D01*
X183642000Y-63778000D02*
X191262000Y-63778000D01*
X191262000Y-63778000D02*
X191262000Y-66318000D01*
X191262000Y-66318000D02*
X184277000Y-66318000D01*
X184277000Y-66318000D02*
X183642000Y-65683000D01*
X184592000Y-68138000D02*
X184592000Y-66318000D01*
X184592000Y-68138000D02*
X185232000Y-68138000D01*
X185232000Y-68138000D02*
X185232000Y-66318000D01*
X184592000Y-63778000D02*
X184592000Y-57778000D01*
X184592000Y-57778000D02*
X185232000Y-57778000D01*
X185232000Y-63778000D02*
X185232000Y-57778000D01*
X187132000Y-68138000D02*
X187132000Y-66318000D01*
X187132000Y-68138000D02*
X187772000Y-68138000D01*
X187772000Y-68138000D02*
X187772000Y-66318000D01*
X187132000Y-63778000D02*
X187132000Y-57778000D01*
X187132000Y-57778000D02*
X187772000Y-57778000D01*
X187772000Y-63778000D02*
X187772000Y-57778000D01*
X189672000Y-68138000D02*
X189672000Y-66318000D01*
X189672000Y-68138000D02*
X190312000Y-68138000D01*
X190312000Y-68138000D02*
X190312000Y-66318000D01*
X189672000Y-63778000D02*
X189672000Y-57778000D01*
X189672000Y-57778000D02*
X190312000Y-57778000D01*
X190312000Y-63778000D02*
X190312000Y-57778000D01*
%TO.C,J7*%
X180975000Y-137390000D02*
X180975000Y-139295000D01*
X180975000Y-139295000D02*
X175895000Y-139295000D01*
X175895000Y-139295000D02*
X175895000Y-136755000D01*
X175895000Y-136755000D02*
X180340000Y-136755000D01*
X180340000Y-136755000D02*
X180975000Y-137390000D01*
X180025000Y-134935000D02*
X180025000Y-136755000D01*
X180025000Y-134935000D02*
X179385000Y-134935000D01*
X179385000Y-134935000D02*
X179385000Y-136755000D01*
X180025000Y-139295000D02*
X180025000Y-145295000D01*
X180025000Y-145295000D02*
X179385000Y-145295000D01*
X179385000Y-139295000D02*
X179385000Y-145295000D01*
X177485000Y-134935000D02*
X177485000Y-136755000D01*
X177485000Y-134935000D02*
X176845000Y-134935000D01*
X176845000Y-134935000D02*
X176845000Y-136755000D01*
X177485000Y-139295000D02*
X177485000Y-145295000D01*
X177485000Y-145295000D02*
X176845000Y-145295000D01*
X176845000Y-139295000D02*
X176845000Y-145295000D01*
%TO.C,J8*%
X191135000Y-137390000D02*
X191135000Y-139295000D01*
X191135000Y-139295000D02*
X183515000Y-139295000D01*
X183515000Y-139295000D02*
X183515000Y-136755000D01*
X183515000Y-136755000D02*
X190500000Y-136755000D01*
X190500000Y-136755000D02*
X191135000Y-137390000D01*
X190185000Y-134935000D02*
X190185000Y-136755000D01*
X190185000Y-134935000D02*
X189545000Y-134935000D01*
X189545000Y-134935000D02*
X189545000Y-136755000D01*
X190185000Y-139295000D02*
X190185000Y-145295000D01*
X190185000Y-145295000D02*
X189545000Y-145295000D01*
X189545000Y-139295000D02*
X189545000Y-145295000D01*
X187645000Y-134935000D02*
X187645000Y-136755000D01*
X187645000Y-134935000D02*
X187005000Y-134935000D01*
X187005000Y-134935000D02*
X187005000Y-136755000D01*
X187645000Y-139295000D02*
X187645000Y-145295000D01*
X187645000Y-145295000D02*
X187005000Y-145295000D01*
X187005000Y-139295000D02*
X187005000Y-145295000D01*
X185105000Y-134935000D02*
X185105000Y-136755000D01*
X185105000Y-134935000D02*
X184465000Y-134935000D01*
X184465000Y-134935000D02*
X184465000Y-136755000D01*
X185105000Y-139295000D02*
X185105000Y-145295000D01*
X185105000Y-145295000D02*
X184465000Y-145295000D01*
X184465000Y-139295000D02*
X184465000Y-145295000D01*
%TO.C,J9*%
X115975000Y-114300000D02*
X114070000Y-114300000D01*
X114070000Y-114300000D02*
X114070000Y-104140000D01*
X114070000Y-104140000D02*
X116610000Y-104140000D01*
X116610000Y-104140000D02*
X116610000Y-113665000D01*
X116610000Y-113665000D02*
X115975000Y-114300000D01*
X118430000Y-113350000D02*
X116610000Y-113350000D01*
X118430000Y-113350000D02*
X118430000Y-112710000D01*
X118430000Y-112710000D02*
X116610000Y-112710000D01*
X114070000Y-113350000D02*
X108070000Y-113350000D01*
X108070000Y-113350000D02*
X108070000Y-112710000D01*
X114070000Y-112710000D02*
X108070000Y-112710000D01*
X118430000Y-110810000D02*
X116610000Y-110810000D01*
X118430000Y-110810000D02*
X118430000Y-110170000D01*
X118430000Y-110170000D02*
X116610000Y-110170000D01*
X114070000Y-110810000D02*
X108070000Y-110810000D01*
X108070000Y-110810000D02*
X108070000Y-110170000D01*
X114070000Y-110170000D02*
X108070000Y-110170000D01*
X118430000Y-108270000D02*
X116610000Y-108270000D01*
X118430000Y-108270000D02*
X118430000Y-107630000D01*
X118430000Y-107630000D02*
X116610000Y-107630000D01*
X114070000Y-108270000D02*
X108070000Y-108270000D01*
X108070000Y-108270000D02*
X108070000Y-107630000D01*
X114070000Y-107630000D02*
X108070000Y-107630000D01*
X118430000Y-105730000D02*
X116610000Y-105730000D01*
X118430000Y-105730000D02*
X118430000Y-105090000D01*
X118430000Y-105090000D02*
X116610000Y-105090000D01*
X114070000Y-105730000D02*
X108070000Y-105730000D01*
X108070000Y-105730000D02*
X108070000Y-105090000D01*
X114070000Y-105090000D02*
X108070000Y-105090000D01*
%TO.C,J10*%
X115975000Y-127000000D02*
X114070000Y-127000000D01*
X114070000Y-127000000D02*
X114070000Y-119380000D01*
X114070000Y-119380000D02*
X116610000Y-119380000D01*
X116610000Y-119380000D02*
X116610000Y-126365000D01*
X116610000Y-126365000D02*
X115975000Y-127000000D01*
X118430000Y-126050000D02*
X116610000Y-126050000D01*
X118430000Y-126050000D02*
X118430000Y-125410000D01*
X118430000Y-125410000D02*
X116610000Y-125410000D01*
X114070000Y-126050000D02*
X108070000Y-126050000D01*
X108070000Y-126050000D02*
X108070000Y-125410000D01*
X114070000Y-125410000D02*
X108070000Y-125410000D01*
X118430000Y-123510000D02*
X116610000Y-123510000D01*
X118430000Y-123510000D02*
X118430000Y-122870000D01*
X118430000Y-122870000D02*
X116610000Y-122870000D01*
X114070000Y-123510000D02*
X108070000Y-123510000D01*
X108070000Y-123510000D02*
X108070000Y-122870000D01*
X114070000Y-122870000D02*
X108070000Y-122870000D01*
X118430000Y-120970000D02*
X116610000Y-120970000D01*
X118430000Y-120970000D02*
X118430000Y-120330000D01*
X118430000Y-120330000D02*
X116610000Y-120330000D01*
X114070000Y-120970000D02*
X108070000Y-120970000D01*
X108070000Y-120970000D02*
X108070000Y-120330000D01*
X114070000Y-120330000D02*
X108070000Y-120330000D01*
%TO.C,J11*%
X142240000Y-66445000D02*
X142240000Y-64540000D01*
X142240000Y-64540000D02*
X144780000Y-64540000D01*
X144780000Y-64540000D02*
X144780000Y-67080000D01*
X144780000Y-67080000D02*
X142875000Y-67080000D01*
X142875000Y-67080000D02*
X142240000Y-66445000D01*
X143190000Y-68900000D02*
X143190000Y-67080000D01*
X143190000Y-68900000D02*
X143830000Y-68900000D01*
X143830000Y-68900000D02*
X143830000Y-67080000D01*
X143190000Y-64540000D02*
X143190000Y-58540000D01*
X143190000Y-58540000D02*
X143830000Y-58540000D01*
X143830000Y-64540000D02*
X143830000Y-58540000D01*
%TO.C,R1*%
X150390000Y-125860000D02*
X146790000Y-125860000D01*
X146790000Y-125860000D02*
X146790000Y-135760000D01*
X146790000Y-135760000D02*
X150390000Y-135760000D01*
X150390000Y-135760000D02*
X150390000Y-125860000D01*
X148590000Y-124460000D02*
X148590000Y-125860000D01*
X148590000Y-137160000D02*
X148590000Y-135760000D01*
%TO.C,R2*%
X144040000Y-125860000D02*
X140440000Y-125860000D01*
X140440000Y-125860000D02*
X140440000Y-135760000D01*
X140440000Y-135760000D02*
X144040000Y-135760000D01*
X144040000Y-135760000D02*
X144040000Y-125860000D01*
X142240000Y-124460000D02*
X142240000Y-125860000D01*
X142240000Y-137160000D02*
X142240000Y-135760000D01*
%TO.C,R3*%
X156740000Y-125860000D02*
X153140000Y-125860000D01*
X153140000Y-125860000D02*
X153140000Y-135760000D01*
X153140000Y-135760000D02*
X156740000Y-135760000D01*
X156740000Y-135760000D02*
X156740000Y-125860000D01*
X154940000Y-124460000D02*
X154940000Y-125860000D01*
X154940000Y-137160000D02*
X154940000Y-135760000D01*
%TO.C,R4*%
X163090000Y-125860000D02*
X159490000Y-125860000D01*
X159490000Y-125860000D02*
X159490000Y-135760000D01*
X159490000Y-135760000D02*
X163090000Y-135760000D01*
X163090000Y-135760000D02*
X163090000Y-125860000D01*
X161290000Y-124460000D02*
X161290000Y-125860000D01*
X161290000Y-137160000D02*
X161290000Y-135760000D01*
%TO.C,R5*%
X161160000Y-75460000D02*
X161160000Y-71860000D01*
X161160000Y-71860000D02*
X151260000Y-71860000D01*
X151260000Y-71860000D02*
X151260000Y-75460000D01*
X151260000Y-75460000D02*
X161160000Y-75460000D01*
X162560000Y-73660000D02*
X161160000Y-73660000D01*
X149860000Y-73660000D02*
X151260000Y-73660000D01*
%TO.C,R6*%
X161160000Y-70380000D02*
X161160000Y-66780000D01*
X161160000Y-66780000D02*
X151260000Y-66780000D01*
X151260000Y-66780000D02*
X151260000Y-70380000D01*
X151260000Y-70380000D02*
X161160000Y-70380000D01*
X162560000Y-68580000D02*
X161160000Y-68580000D01*
X149860000Y-68580000D02*
X151260000Y-68580000D01*
D10*
%TO.C,U1*%
X170310000Y-75100000D02*
X192910000Y-75100000D01*
X170310000Y-128100000D02*
X170310000Y-75150000D01*
X170310000Y-128100000D02*
X192910000Y-128100000D01*
X192910000Y-75100000D02*
X192910000Y-128100000D01*
D11*
X177710000Y-80950000D02*
X185510000Y-80950000D01*
X177710000Y-80950000D02*
X177710000Y-75150000D01*
X185510000Y-80950000D02*
X185510000Y-75150000D01*
X172720000Y-76835000D02*
X173355000Y-76200000D01*
X173355000Y-76200000D02*
X175260000Y-76200000D01*
X175260000Y-76200000D02*
X175260000Y-127000000D01*
X175260000Y-127000000D02*
X172720000Y-127000000D01*
X172720000Y-127000000D02*
X172720000Y-76835000D01*
X187960000Y-76200000D02*
X190500000Y-76200000D01*
X190500000Y-76200000D02*
X190500000Y-127000000D01*
X190500000Y-127000000D02*
X187960000Y-127000000D01*
X187960000Y-127000000D02*
X187960000Y-76200000D01*
D10*
%TO.C,U2*%
X161290000Y-97790000D02*
X161290000Y-81280000D01*
X140970000Y-97790000D02*
X161290000Y-97790000D01*
X140970000Y-81280000D02*
X140970000Y-97790000D01*
X161290000Y-81280000D02*
X140970000Y-81280000D01*
D11*
%TO.C,U3*%
X116590000Y-80010000D02*
X116590000Y-82550000D01*
X116590000Y-82550000D02*
X108080000Y-82550000D01*
X108080000Y-82550000D02*
X108080000Y-80010000D01*
X108080000Y-80010000D02*
X116590000Y-80010000D01*
X118110000Y-80960000D02*
X118110000Y-81600000D01*
X118110000Y-81600000D02*
X116590000Y-81600000D01*
X116590000Y-81600000D02*
X116590000Y-80960000D01*
X116590000Y-80960000D02*
X118110000Y-80960000D01*
X116590000Y-82550000D02*
X116590000Y-85090000D01*
X116590000Y-85090000D02*
X108080000Y-85090000D01*
X108080000Y-85090000D02*
X108080000Y-82550000D01*
X108080000Y-82550000D02*
X116590000Y-82550000D01*
X118110000Y-83500000D02*
X118110000Y-84140000D01*
X118110000Y-84140000D02*
X116590000Y-84140000D01*
X116590000Y-84140000D02*
X116590000Y-83500000D01*
X116590000Y-83500000D02*
X118110000Y-83500000D01*
X116590000Y-85090000D02*
X116590000Y-87630000D01*
X116590000Y-87630000D02*
X108080000Y-87630000D01*
X108080000Y-87630000D02*
X108080000Y-85090000D01*
X108080000Y-85090000D02*
X116590000Y-85090000D01*
X118110000Y-86040000D02*
X118110000Y-86680000D01*
X118110000Y-86680000D02*
X116590000Y-86680000D01*
X116590000Y-86680000D02*
X116590000Y-86040000D01*
X116590000Y-86040000D02*
X118110000Y-86040000D01*
X116590000Y-87630000D02*
X116590000Y-90170000D01*
X116590000Y-90170000D02*
X108080000Y-90170000D01*
X108080000Y-90170000D02*
X108080000Y-87630000D01*
X108080000Y-87630000D02*
X116590000Y-87630000D01*
X118110000Y-88580000D02*
X118110000Y-89220000D01*
X118110000Y-89220000D02*
X116590000Y-89220000D01*
X116590000Y-89220000D02*
X116590000Y-88580000D01*
X116590000Y-88580000D02*
X118110000Y-88580000D01*
X116590000Y-90170000D02*
X116590000Y-92710000D01*
X116590000Y-92710000D02*
X108080000Y-92710000D01*
X108080000Y-92710000D02*
X108080000Y-90170000D01*
X108080000Y-90170000D02*
X116590000Y-90170000D01*
X118110000Y-91120000D02*
X118110000Y-91760000D01*
X118110000Y-91760000D02*
X116590000Y-91760000D01*
X116590000Y-91760000D02*
X116590000Y-91120000D01*
X116590000Y-91120000D02*
X118110000Y-91120000D01*
X116590000Y-92710000D02*
X116590000Y-95250000D01*
X116590000Y-95250000D02*
X108080000Y-95250000D01*
X108080000Y-95250000D02*
X108080000Y-92710000D01*
X108080000Y-92710000D02*
X116590000Y-92710000D01*
X118110000Y-93660000D02*
X118110000Y-94300000D01*
X118110000Y-94300000D02*
X116590000Y-94300000D01*
X116590000Y-94300000D02*
X116590000Y-93660000D01*
X116590000Y-93660000D02*
X118110000Y-93660000D01*
D10*
%TO.C,U7*%
X161290000Y-118110000D02*
X161290000Y-101600000D01*
X140970000Y-118110000D02*
X161290000Y-118110000D01*
X140970000Y-101600000D02*
X140970000Y-118110000D01*
X161290000Y-101600000D02*
X140970000Y-101600000D01*
%TD*%
%TO.C,U5*%
D12*
X129405142Y-91225714D02*
X129405142Y-92035238D01*
X129357523Y-92130476D01*
X129309904Y-92178095D01*
X129214666Y-92225714D01*
X129071809Y-92225714D01*
X128976571Y-92178095D01*
X129405142Y-91844761D02*
X129309904Y-91892380D01*
X129119428Y-91892380D01*
X129024190Y-91844761D01*
X128976571Y-91797142D01*
X128928952Y-91701904D01*
X128928952Y-91416190D01*
X128976571Y-91320952D01*
X129024190Y-91273333D01*
X129119428Y-91225714D01*
X129309904Y-91225714D01*
X129405142Y-91273333D01*
X129881333Y-91225714D02*
X129881333Y-92225714D01*
X129881333Y-91273333D02*
X129976571Y-91225714D01*
X130167047Y-91225714D01*
X130262285Y-91273333D01*
X130309904Y-91320952D01*
X130357523Y-91416190D01*
X130357523Y-91701904D01*
X130309904Y-91797142D01*
X130262285Y-91844761D01*
X130167047Y-91892380D01*
X129976571Y-91892380D01*
X129881333Y-91844761D01*
X130738476Y-91844761D02*
X130833714Y-91892380D01*
X131024190Y-91892380D01*
X131119428Y-91844761D01*
X131167047Y-91749523D01*
X131167047Y-91701904D01*
X131119428Y-91606666D01*
X131024190Y-91559047D01*
X130881333Y-91559047D01*
X130786095Y-91511428D01*
X130738476Y-91416190D01*
X130738476Y-91368571D01*
X130786095Y-91273333D01*
X130881333Y-91225714D01*
X131024190Y-91225714D01*
X131119428Y-91273333D01*
%TO.C,U4*%
X129786142Y-114212714D02*
X129786142Y-115022238D01*
X129738523Y-115117476D01*
X129690904Y-115165095D01*
X129595666Y-115212714D01*
X129452809Y-115212714D01*
X129357571Y-115165095D01*
X129786142Y-114831761D02*
X129690904Y-114879380D01*
X129500428Y-114879380D01*
X129405190Y-114831761D01*
X129357571Y-114784142D01*
X129309952Y-114688904D01*
X129309952Y-114403190D01*
X129357571Y-114307952D01*
X129405190Y-114260333D01*
X129500428Y-114212714D01*
X129690904Y-114212714D01*
X129786142Y-114260333D01*
X130262333Y-114212714D02*
X130262333Y-115212714D01*
X130262333Y-114260333D02*
X130357571Y-114212714D01*
X130548047Y-114212714D01*
X130643285Y-114260333D01*
X130690904Y-114307952D01*
X130738523Y-114403190D01*
X130738523Y-114688904D01*
X130690904Y-114784142D01*
X130643285Y-114831761D01*
X130548047Y-114879380D01*
X130357571Y-114879380D01*
X130262333Y-114831761D01*
X131119476Y-114831761D02*
X131214714Y-114879380D01*
X131405190Y-114879380D01*
X131500428Y-114831761D01*
X131548047Y-114736523D01*
X131548047Y-114688904D01*
X131500428Y-114593666D01*
X131405190Y-114546047D01*
X131262333Y-114546047D01*
X131167095Y-114498428D01*
X131119476Y-114403190D01*
X131119476Y-114355571D01*
X131167095Y-114260333D01*
X131262333Y-114212714D01*
X131405190Y-114212714D01*
X131500428Y-114260333D01*
%TO.C,REF\u002A\u002A*%
X157473809Y-136967380D02*
X157473809Y-135967380D01*
X157807142Y-136681666D01*
X158140476Y-135967380D01*
X158140476Y-136967380D01*
X158759523Y-136967380D02*
X158664285Y-136919761D01*
X158616666Y-136872142D01*
X158569047Y-136776904D01*
X158569047Y-136491190D01*
X158616666Y-136395952D01*
X158664285Y-136348333D01*
X158759523Y-136300714D01*
X158902380Y-136300714D01*
X158997619Y-136348333D01*
X159045238Y-136395952D01*
X159092857Y-136491190D01*
X159092857Y-136776904D01*
X159045238Y-136872142D01*
X158997619Y-136919761D01*
X158902380Y-136967380D01*
X158759523Y-136967380D01*
X159950000Y-136300714D02*
X159950000Y-136967380D01*
X159521428Y-136300714D02*
X159521428Y-136824523D01*
X159569047Y-136919761D01*
X159664285Y-136967380D01*
X159807142Y-136967380D01*
X159902380Y-136919761D01*
X159950000Y-136872142D01*
X160426190Y-136300714D02*
X160426190Y-136967380D01*
X160426190Y-136395952D02*
X160473809Y-136348333D01*
X160569047Y-136300714D01*
X160711904Y-136300714D01*
X160807142Y-136348333D01*
X160854761Y-136443571D01*
X160854761Y-136967380D01*
X161188095Y-136300714D02*
X161569047Y-136300714D01*
X161330952Y-135967380D02*
X161330952Y-136824523D01*
X161378571Y-136919761D01*
X161473809Y-136967380D01*
X161569047Y-136967380D01*
X161902380Y-136967380D02*
X161902380Y-136300714D01*
X161902380Y-135967380D02*
X161854761Y-136015000D01*
X161902380Y-136062619D01*
X161950000Y-136015000D01*
X161902380Y-135967380D01*
X161902380Y-136062619D01*
X162378571Y-136300714D02*
X162378571Y-136967380D01*
X162378571Y-136395952D02*
X162426190Y-136348333D01*
X162521428Y-136300714D01*
X162664285Y-136300714D01*
X162759523Y-136348333D01*
X162807142Y-136443571D01*
X162807142Y-136967380D01*
X163711904Y-136300714D02*
X163711904Y-137110238D01*
X163664285Y-137205476D01*
X163616666Y-137253095D01*
X163521428Y-137300714D01*
X163378571Y-137300714D01*
X163283333Y-137253095D01*
X163711904Y-136919761D02*
X163616666Y-136967380D01*
X163426190Y-136967380D01*
X163330952Y-136919761D01*
X163283333Y-136872142D01*
X163235714Y-136776904D01*
X163235714Y-136491190D01*
X163283333Y-136395952D01*
X163330952Y-136348333D01*
X163426190Y-136300714D01*
X163616666Y-136300714D01*
X163711904Y-136348333D01*
X164188095Y-136967380D02*
X164188095Y-135967380D01*
X164188095Y-136443571D02*
X164759523Y-136443571D01*
X164759523Y-136967380D02*
X164759523Y-135967380D01*
X165378571Y-136967380D02*
X165283333Y-136919761D01*
X165235714Y-136872142D01*
X165188095Y-136776904D01*
X165188095Y-136491190D01*
X165235714Y-136395952D01*
X165283333Y-136348333D01*
X165378571Y-136300714D01*
X165521428Y-136300714D01*
X165616666Y-136348333D01*
X165664285Y-136395952D01*
X165711904Y-136491190D01*
X165711904Y-136776904D01*
X165664285Y-136872142D01*
X165616666Y-136919761D01*
X165521428Y-136967380D01*
X165378571Y-136967380D01*
X166283333Y-136967380D02*
X166188095Y-136919761D01*
X166140476Y-136824523D01*
X166140476Y-135967380D01*
X167045238Y-136919761D02*
X166950000Y-136967380D01*
X166759523Y-136967380D01*
X166664285Y-136919761D01*
X166616666Y-136824523D01*
X166616666Y-136443571D01*
X166664285Y-136348333D01*
X166759523Y-136300714D01*
X166950000Y-136300714D01*
X167045238Y-136348333D01*
X167092857Y-136443571D01*
X167092857Y-136538809D01*
X166616666Y-136634047D01*
X167283333Y-137062619D02*
X168045238Y-137062619D01*
X168188095Y-135967380D02*
X168807142Y-135967380D01*
X168473809Y-136348333D01*
X168616666Y-136348333D01*
X168711904Y-136395952D01*
X168759523Y-136443571D01*
X168807142Y-136538809D01*
X168807142Y-136776904D01*
X168759523Y-136872142D01*
X168711904Y-136919761D01*
X168616666Y-136967380D01*
X168330952Y-136967380D01*
X168235714Y-136919761D01*
X168188095Y-136872142D01*
X169235714Y-136872142D02*
X169283333Y-136919761D01*
X169235714Y-136967380D01*
X169188095Y-136919761D01*
X169235714Y-136872142D01*
X169235714Y-136967380D01*
X169664285Y-136062619D02*
X169711904Y-136015000D01*
X169807142Y-135967380D01*
X170045238Y-135967380D01*
X170140476Y-136015000D01*
X170188095Y-136062619D01*
X170235714Y-136157857D01*
X170235714Y-136253095D01*
X170188095Y-136395952D01*
X169616666Y-136967380D01*
X170235714Y-136967380D01*
X170664285Y-136967380D02*
X170664285Y-136300714D01*
X170664285Y-136395952D02*
X170711904Y-136348333D01*
X170807142Y-136300714D01*
X170950000Y-136300714D01*
X171045238Y-136348333D01*
X171092857Y-136443571D01*
X171092857Y-136967380D01*
X171092857Y-136443571D02*
X171140476Y-136348333D01*
X171235714Y-136300714D01*
X171378571Y-136300714D01*
X171473809Y-136348333D01*
X171521428Y-136443571D01*
X171521428Y-136967380D01*
X171997619Y-136967380D02*
X171997619Y-136300714D01*
X171997619Y-136395952D02*
X172045238Y-136348333D01*
X172140476Y-136300714D01*
X172283333Y-136300714D01*
X172378571Y-136348333D01*
X172426190Y-136443571D01*
X172426190Y-136967380D01*
X172426190Y-136443571D02*
X172473809Y-136348333D01*
X172569047Y-136300714D01*
X172711904Y-136300714D01*
X172807142Y-136348333D01*
X172854761Y-136443571D01*
X172854761Y-136967380D01*
X173092857Y-137062619D02*
X173854761Y-137062619D01*
X174092857Y-136967380D02*
X174092857Y-135967380D01*
X174426190Y-136681666D01*
X174759523Y-135967380D01*
X174759523Y-136967380D01*
X175140476Y-135967380D02*
X175759523Y-135967380D01*
X175426190Y-136348333D01*
X175569047Y-136348333D01*
X175664285Y-136395952D01*
X175711904Y-136443571D01*
X175759523Y-136538809D01*
X175759523Y-136776904D01*
X175711904Y-136872142D01*
X175664285Y-136919761D01*
X175569047Y-136967380D01*
X175283333Y-136967380D01*
X175188095Y-136919761D01*
X175140476Y-136872142D01*
X175950000Y-137062619D02*
X176711904Y-137062619D01*
X176950000Y-136967380D02*
X176950000Y-135967380D01*
X177188095Y-135967380D01*
X177330952Y-136015000D01*
X177426190Y-136110238D01*
X177473809Y-136205476D01*
X177521428Y-136395952D01*
X177521428Y-136538809D01*
X177473809Y-136729285D01*
X177426190Y-136824523D01*
X177330952Y-136919761D01*
X177188095Y-136967380D01*
X176950000Y-136967380D01*
X177950000Y-136967380D02*
X177950000Y-135967380D01*
X178426190Y-136967380D02*
X178426190Y-135967380D01*
X178997619Y-136967380D01*
X178997619Y-135967380D01*
X179521428Y-136967380D02*
X179711904Y-136967380D01*
X179807142Y-136919761D01*
X179854761Y-136872142D01*
X179950000Y-136729285D01*
X179997619Y-136538809D01*
X179997619Y-136157857D01*
X179950000Y-136062619D01*
X179902380Y-136015000D01*
X179807142Y-135967380D01*
X179616666Y-135967380D01*
X179521428Y-136015000D01*
X179473809Y-136062619D01*
X179426190Y-136157857D01*
X179426190Y-136395952D01*
X179473809Y-136491190D01*
X179521428Y-136538809D01*
X179616666Y-136586428D01*
X179807142Y-136586428D01*
X179902380Y-136538809D01*
X179950000Y-136491190D01*
X179997619Y-136395952D01*
X180854761Y-135967380D02*
X180664285Y-135967380D01*
X180569047Y-136015000D01*
X180521428Y-136062619D01*
X180426190Y-136205476D01*
X180378571Y-136395952D01*
X180378571Y-136776904D01*
X180426190Y-136872142D01*
X180473809Y-136919761D01*
X180569047Y-136967380D01*
X180759523Y-136967380D01*
X180854761Y-136919761D01*
X180902380Y-136872142D01*
X180950000Y-136776904D01*
X180950000Y-136538809D01*
X180902380Y-136443571D01*
X180854761Y-136395952D01*
X180759523Y-136348333D01*
X180569047Y-136348333D01*
X180473809Y-136395952D01*
X180426190Y-136443571D01*
X180378571Y-136538809D01*
X181854761Y-135967380D02*
X181378571Y-135967380D01*
X181330952Y-136443571D01*
X181378571Y-136395952D01*
X181473809Y-136348333D01*
X181711904Y-136348333D01*
X181807142Y-136395952D01*
X181854761Y-136443571D01*
X181902380Y-136538809D01*
X181902380Y-136776904D01*
X181854761Y-136872142D01*
X181807142Y-136919761D01*
X181711904Y-136967380D01*
X181473809Y-136967380D01*
X181378571Y-136919761D01*
X181330952Y-136872142D01*
X182092857Y-137062619D02*
X182854761Y-137062619D01*
X183092857Y-136967380D02*
X183092857Y-135967380D01*
X183473809Y-135967380D01*
X183569047Y-136015000D01*
X183616666Y-136062619D01*
X183664285Y-136157857D01*
X183664285Y-136300714D01*
X183616666Y-136395952D01*
X183569047Y-136443571D01*
X183473809Y-136491190D01*
X183092857Y-136491190D01*
X184521428Y-136967380D02*
X184521428Y-136443571D01*
X184473809Y-136348333D01*
X184378571Y-136300714D01*
X184188095Y-136300714D01*
X184092857Y-136348333D01*
X184521428Y-136919761D02*
X184426190Y-136967380D01*
X184188095Y-136967380D01*
X184092857Y-136919761D01*
X184045238Y-136824523D01*
X184045238Y-136729285D01*
X184092857Y-136634047D01*
X184188095Y-136586428D01*
X184426190Y-136586428D01*
X184521428Y-136538809D01*
X185426190Y-136967380D02*
X185426190Y-135967380D01*
X185426190Y-136919761D02*
X185330952Y-136967380D01*
X185140476Y-136967380D01*
X185045238Y-136919761D01*
X184997619Y-136872142D01*
X184950000Y-136776904D01*
X184950000Y-136491190D01*
X184997619Y-136395952D01*
X185045238Y-136348333D01*
X185140476Y-136300714D01*
X185330952Y-136300714D01*
X185426190Y-136348333D01*
X170416666Y-133167380D02*
X170083333Y-132691190D01*
X169845238Y-133167380D02*
X169845238Y-132167380D01*
X170226190Y-132167380D01*
X170321428Y-132215000D01*
X170369047Y-132262619D01*
X170416666Y-132357857D01*
X170416666Y-132500714D01*
X170369047Y-132595952D01*
X170321428Y-132643571D01*
X170226190Y-132691190D01*
X169845238Y-132691190D01*
X170845238Y-132643571D02*
X171178571Y-132643571D01*
X171321428Y-133167380D02*
X170845238Y-133167380D01*
X170845238Y-132167380D01*
X171321428Y-132167380D01*
X172083333Y-132643571D02*
X171750000Y-132643571D01*
X171750000Y-133167380D02*
X171750000Y-132167380D01*
X172226190Y-132167380D01*
X172750000Y-132167380D02*
X172750000Y-132405476D01*
X172511904Y-132310238D02*
X172750000Y-132405476D01*
X172988095Y-132310238D01*
X172607142Y-132595952D02*
X172750000Y-132405476D01*
X172892857Y-132595952D01*
X173511904Y-132167380D02*
X173511904Y-132405476D01*
X173273809Y-132310238D02*
X173511904Y-132405476D01*
X173750000Y-132310238D01*
X173369047Y-132595952D02*
X173511904Y-132405476D01*
X173654761Y-132595952D01*
X117468809Y-136967380D02*
X117468809Y-135967380D01*
X117802142Y-136681666D01*
X118135476Y-135967380D01*
X118135476Y-136967380D01*
X118754523Y-136967380D02*
X118659285Y-136919761D01*
X118611666Y-136872142D01*
X118564047Y-136776904D01*
X118564047Y-136491190D01*
X118611666Y-136395952D01*
X118659285Y-136348333D01*
X118754523Y-136300714D01*
X118897380Y-136300714D01*
X118992619Y-136348333D01*
X119040238Y-136395952D01*
X119087857Y-136491190D01*
X119087857Y-136776904D01*
X119040238Y-136872142D01*
X118992619Y-136919761D01*
X118897380Y-136967380D01*
X118754523Y-136967380D01*
X119945000Y-136300714D02*
X119945000Y-136967380D01*
X119516428Y-136300714D02*
X119516428Y-136824523D01*
X119564047Y-136919761D01*
X119659285Y-136967380D01*
X119802142Y-136967380D01*
X119897380Y-136919761D01*
X119945000Y-136872142D01*
X120421190Y-136300714D02*
X120421190Y-136967380D01*
X120421190Y-136395952D02*
X120468809Y-136348333D01*
X120564047Y-136300714D01*
X120706904Y-136300714D01*
X120802142Y-136348333D01*
X120849761Y-136443571D01*
X120849761Y-136967380D01*
X121183095Y-136300714D02*
X121564047Y-136300714D01*
X121325952Y-135967380D02*
X121325952Y-136824523D01*
X121373571Y-136919761D01*
X121468809Y-136967380D01*
X121564047Y-136967380D01*
X121897380Y-136967380D02*
X121897380Y-136300714D01*
X121897380Y-135967380D02*
X121849761Y-136015000D01*
X121897380Y-136062619D01*
X121945000Y-136015000D01*
X121897380Y-135967380D01*
X121897380Y-136062619D01*
X122373571Y-136300714D02*
X122373571Y-136967380D01*
X122373571Y-136395952D02*
X122421190Y-136348333D01*
X122516428Y-136300714D01*
X122659285Y-136300714D01*
X122754523Y-136348333D01*
X122802142Y-136443571D01*
X122802142Y-136967380D01*
X123706904Y-136300714D02*
X123706904Y-137110238D01*
X123659285Y-137205476D01*
X123611666Y-137253095D01*
X123516428Y-137300714D01*
X123373571Y-137300714D01*
X123278333Y-137253095D01*
X123706904Y-136919761D02*
X123611666Y-136967380D01*
X123421190Y-136967380D01*
X123325952Y-136919761D01*
X123278333Y-136872142D01*
X123230714Y-136776904D01*
X123230714Y-136491190D01*
X123278333Y-136395952D01*
X123325952Y-136348333D01*
X123421190Y-136300714D01*
X123611666Y-136300714D01*
X123706904Y-136348333D01*
X124183095Y-136967380D02*
X124183095Y-135967380D01*
X124183095Y-136443571D02*
X124754523Y-136443571D01*
X124754523Y-136967380D02*
X124754523Y-135967380D01*
X125373571Y-136967380D02*
X125278333Y-136919761D01*
X125230714Y-136872142D01*
X125183095Y-136776904D01*
X125183095Y-136491190D01*
X125230714Y-136395952D01*
X125278333Y-136348333D01*
X125373571Y-136300714D01*
X125516428Y-136300714D01*
X125611666Y-136348333D01*
X125659285Y-136395952D01*
X125706904Y-136491190D01*
X125706904Y-136776904D01*
X125659285Y-136872142D01*
X125611666Y-136919761D01*
X125516428Y-136967380D01*
X125373571Y-136967380D01*
X126278333Y-136967380D02*
X126183095Y-136919761D01*
X126135476Y-136824523D01*
X126135476Y-135967380D01*
X127040238Y-136919761D02*
X126945000Y-136967380D01*
X126754523Y-136967380D01*
X126659285Y-136919761D01*
X126611666Y-136824523D01*
X126611666Y-136443571D01*
X126659285Y-136348333D01*
X126754523Y-136300714D01*
X126945000Y-136300714D01*
X127040238Y-136348333D01*
X127087857Y-136443571D01*
X127087857Y-136538809D01*
X126611666Y-136634047D01*
X127278333Y-137062619D02*
X128040238Y-137062619D01*
X128183095Y-135967380D02*
X128802142Y-135967380D01*
X128468809Y-136348333D01*
X128611666Y-136348333D01*
X128706904Y-136395952D01*
X128754523Y-136443571D01*
X128802142Y-136538809D01*
X128802142Y-136776904D01*
X128754523Y-136872142D01*
X128706904Y-136919761D01*
X128611666Y-136967380D01*
X128325952Y-136967380D01*
X128230714Y-136919761D01*
X128183095Y-136872142D01*
X129230714Y-136872142D02*
X129278333Y-136919761D01*
X129230714Y-136967380D01*
X129183095Y-136919761D01*
X129230714Y-136872142D01*
X129230714Y-136967380D01*
X129659285Y-136062619D02*
X129706904Y-136015000D01*
X129802142Y-135967380D01*
X130040238Y-135967380D01*
X130135476Y-136015000D01*
X130183095Y-136062619D01*
X130230714Y-136157857D01*
X130230714Y-136253095D01*
X130183095Y-136395952D01*
X129611666Y-136967380D01*
X130230714Y-136967380D01*
X130659285Y-136967380D02*
X130659285Y-136300714D01*
X130659285Y-136395952D02*
X130706904Y-136348333D01*
X130802142Y-136300714D01*
X130945000Y-136300714D01*
X131040238Y-136348333D01*
X131087857Y-136443571D01*
X131087857Y-136967380D01*
X131087857Y-136443571D02*
X131135476Y-136348333D01*
X131230714Y-136300714D01*
X131373571Y-136300714D01*
X131468809Y-136348333D01*
X131516428Y-136443571D01*
X131516428Y-136967380D01*
X131992619Y-136967380D02*
X131992619Y-136300714D01*
X131992619Y-136395952D02*
X132040238Y-136348333D01*
X132135476Y-136300714D01*
X132278333Y-136300714D01*
X132373571Y-136348333D01*
X132421190Y-136443571D01*
X132421190Y-136967380D01*
X132421190Y-136443571D02*
X132468809Y-136348333D01*
X132564047Y-136300714D01*
X132706904Y-136300714D01*
X132802142Y-136348333D01*
X132849761Y-136443571D01*
X132849761Y-136967380D01*
X133087857Y-137062619D02*
X133849761Y-137062619D01*
X134087857Y-136967380D02*
X134087857Y-135967380D01*
X134421190Y-136681666D01*
X134754523Y-135967380D01*
X134754523Y-136967380D01*
X135135476Y-135967380D02*
X135754523Y-135967380D01*
X135421190Y-136348333D01*
X135564047Y-136348333D01*
X135659285Y-136395952D01*
X135706904Y-136443571D01*
X135754523Y-136538809D01*
X135754523Y-136776904D01*
X135706904Y-136872142D01*
X135659285Y-136919761D01*
X135564047Y-136967380D01*
X135278333Y-136967380D01*
X135183095Y-136919761D01*
X135135476Y-136872142D01*
X135945000Y-137062619D02*
X136706904Y-137062619D01*
X136945000Y-136967380D02*
X136945000Y-135967380D01*
X137183095Y-135967380D01*
X137325952Y-136015000D01*
X137421190Y-136110238D01*
X137468809Y-136205476D01*
X137516428Y-136395952D01*
X137516428Y-136538809D01*
X137468809Y-136729285D01*
X137421190Y-136824523D01*
X137325952Y-136919761D01*
X137183095Y-136967380D01*
X136945000Y-136967380D01*
X137945000Y-136967380D02*
X137945000Y-135967380D01*
X138421190Y-136967380D02*
X138421190Y-135967380D01*
X138992619Y-136967380D01*
X138992619Y-135967380D01*
X139516428Y-136967380D02*
X139706904Y-136967380D01*
X139802142Y-136919761D01*
X139849761Y-136872142D01*
X139945000Y-136729285D01*
X139992619Y-136538809D01*
X139992619Y-136157857D01*
X139945000Y-136062619D01*
X139897380Y-136015000D01*
X139802142Y-135967380D01*
X139611666Y-135967380D01*
X139516428Y-136015000D01*
X139468809Y-136062619D01*
X139421190Y-136157857D01*
X139421190Y-136395952D01*
X139468809Y-136491190D01*
X139516428Y-136538809D01*
X139611666Y-136586428D01*
X139802142Y-136586428D01*
X139897380Y-136538809D01*
X139945000Y-136491190D01*
X139992619Y-136395952D01*
X140849761Y-135967380D02*
X140659285Y-135967380D01*
X140564047Y-136015000D01*
X140516428Y-136062619D01*
X140421190Y-136205476D01*
X140373571Y-136395952D01*
X140373571Y-136776904D01*
X140421190Y-136872142D01*
X140468809Y-136919761D01*
X140564047Y-136967380D01*
X140754523Y-136967380D01*
X140849761Y-136919761D01*
X140897380Y-136872142D01*
X140945000Y-136776904D01*
X140945000Y-136538809D01*
X140897380Y-136443571D01*
X140849761Y-136395952D01*
X140754523Y-136348333D01*
X140564047Y-136348333D01*
X140468809Y-136395952D01*
X140421190Y-136443571D01*
X140373571Y-136538809D01*
X141849761Y-135967380D02*
X141373571Y-135967380D01*
X141325952Y-136443571D01*
X141373571Y-136395952D01*
X141468809Y-136348333D01*
X141706904Y-136348333D01*
X141802142Y-136395952D01*
X141849761Y-136443571D01*
X141897380Y-136538809D01*
X141897380Y-136776904D01*
X141849761Y-136872142D01*
X141802142Y-136919761D01*
X141706904Y-136967380D01*
X141468809Y-136967380D01*
X141373571Y-136919761D01*
X141325952Y-136872142D01*
X142087857Y-137062619D02*
X142849761Y-137062619D01*
X143087857Y-136967380D02*
X143087857Y-135967380D01*
X143468809Y-135967380D01*
X143564047Y-136015000D01*
X143611666Y-136062619D01*
X143659285Y-136157857D01*
X143659285Y-136300714D01*
X143611666Y-136395952D01*
X143564047Y-136443571D01*
X143468809Y-136491190D01*
X143087857Y-136491190D01*
X144516428Y-136967380D02*
X144516428Y-136443571D01*
X144468809Y-136348333D01*
X144373571Y-136300714D01*
X144183095Y-136300714D01*
X144087857Y-136348333D01*
X144516428Y-136919761D02*
X144421190Y-136967380D01*
X144183095Y-136967380D01*
X144087857Y-136919761D01*
X144040238Y-136824523D01*
X144040238Y-136729285D01*
X144087857Y-136634047D01*
X144183095Y-136586428D01*
X144421190Y-136586428D01*
X144516428Y-136538809D01*
X145421190Y-136967380D02*
X145421190Y-135967380D01*
X145421190Y-136919761D02*
X145325952Y-136967380D01*
X145135476Y-136967380D01*
X145040238Y-136919761D01*
X144992619Y-136872142D01*
X144945000Y-136776904D01*
X144945000Y-136491190D01*
X144992619Y-136395952D01*
X145040238Y-136348333D01*
X145135476Y-136300714D01*
X145325952Y-136300714D01*
X145421190Y-136348333D01*
X130411666Y-133167380D02*
X130078333Y-132691190D01*
X129840238Y-133167380D02*
X129840238Y-132167380D01*
X130221190Y-132167380D01*
X130316428Y-132215000D01*
X130364047Y-132262619D01*
X130411666Y-132357857D01*
X130411666Y-132500714D01*
X130364047Y-132595952D01*
X130316428Y-132643571D01*
X130221190Y-132691190D01*
X129840238Y-132691190D01*
X130840238Y-132643571D02*
X131173571Y-132643571D01*
X131316428Y-133167380D02*
X130840238Y-133167380D01*
X130840238Y-132167380D01*
X131316428Y-132167380D01*
X132078333Y-132643571D02*
X131745000Y-132643571D01*
X131745000Y-133167380D02*
X131745000Y-132167380D01*
X132221190Y-132167380D01*
X132745000Y-132167380D02*
X132745000Y-132405476D01*
X132506904Y-132310238D02*
X132745000Y-132405476D01*
X132983095Y-132310238D01*
X132602142Y-132595952D02*
X132745000Y-132405476D01*
X132887857Y-132595952D01*
X133506904Y-132167380D02*
X133506904Y-132405476D01*
X133268809Y-132310238D02*
X133506904Y-132405476D01*
X133745000Y-132310238D01*
X133364047Y-132595952D02*
X133506904Y-132405476D01*
X133649761Y-132595952D01*
X157537309Y-74102380D02*
X157537309Y-73102380D01*
X157870642Y-73816666D01*
X158203976Y-73102380D01*
X158203976Y-74102380D01*
X158823023Y-74102380D02*
X158727785Y-74054761D01*
X158680166Y-74007142D01*
X158632547Y-73911904D01*
X158632547Y-73626190D01*
X158680166Y-73530952D01*
X158727785Y-73483333D01*
X158823023Y-73435714D01*
X158965880Y-73435714D01*
X159061119Y-73483333D01*
X159108738Y-73530952D01*
X159156357Y-73626190D01*
X159156357Y-73911904D01*
X159108738Y-74007142D01*
X159061119Y-74054761D01*
X158965880Y-74102380D01*
X158823023Y-74102380D01*
X160013500Y-73435714D02*
X160013500Y-74102380D01*
X159584928Y-73435714D02*
X159584928Y-73959523D01*
X159632547Y-74054761D01*
X159727785Y-74102380D01*
X159870642Y-74102380D01*
X159965880Y-74054761D01*
X160013500Y-74007142D01*
X160489690Y-73435714D02*
X160489690Y-74102380D01*
X160489690Y-73530952D02*
X160537309Y-73483333D01*
X160632547Y-73435714D01*
X160775404Y-73435714D01*
X160870642Y-73483333D01*
X160918261Y-73578571D01*
X160918261Y-74102380D01*
X161251595Y-73435714D02*
X161632547Y-73435714D01*
X161394452Y-73102380D02*
X161394452Y-73959523D01*
X161442071Y-74054761D01*
X161537309Y-74102380D01*
X161632547Y-74102380D01*
X161965880Y-74102380D02*
X161965880Y-73435714D01*
X161965880Y-73102380D02*
X161918261Y-73150000D01*
X161965880Y-73197619D01*
X162013500Y-73150000D01*
X161965880Y-73102380D01*
X161965880Y-73197619D01*
X162442071Y-73435714D02*
X162442071Y-74102380D01*
X162442071Y-73530952D02*
X162489690Y-73483333D01*
X162584928Y-73435714D01*
X162727785Y-73435714D01*
X162823023Y-73483333D01*
X162870642Y-73578571D01*
X162870642Y-74102380D01*
X163775404Y-73435714D02*
X163775404Y-74245238D01*
X163727785Y-74340476D01*
X163680166Y-74388095D01*
X163584928Y-74435714D01*
X163442071Y-74435714D01*
X163346833Y-74388095D01*
X163775404Y-74054761D02*
X163680166Y-74102380D01*
X163489690Y-74102380D01*
X163394452Y-74054761D01*
X163346833Y-74007142D01*
X163299214Y-73911904D01*
X163299214Y-73626190D01*
X163346833Y-73530952D01*
X163394452Y-73483333D01*
X163489690Y-73435714D01*
X163680166Y-73435714D01*
X163775404Y-73483333D01*
X164251595Y-74102380D02*
X164251595Y-73102380D01*
X164251595Y-73578571D02*
X164823023Y-73578571D01*
X164823023Y-74102380D02*
X164823023Y-73102380D01*
X165442071Y-74102380D02*
X165346833Y-74054761D01*
X165299214Y-74007142D01*
X165251595Y-73911904D01*
X165251595Y-73626190D01*
X165299214Y-73530952D01*
X165346833Y-73483333D01*
X165442071Y-73435714D01*
X165584928Y-73435714D01*
X165680166Y-73483333D01*
X165727785Y-73530952D01*
X165775404Y-73626190D01*
X165775404Y-73911904D01*
X165727785Y-74007142D01*
X165680166Y-74054761D01*
X165584928Y-74102380D01*
X165442071Y-74102380D01*
X166346833Y-74102380D02*
X166251595Y-74054761D01*
X166203976Y-73959523D01*
X166203976Y-73102380D01*
X167108738Y-74054761D02*
X167013500Y-74102380D01*
X166823023Y-74102380D01*
X166727785Y-74054761D01*
X166680166Y-73959523D01*
X166680166Y-73578571D01*
X166727785Y-73483333D01*
X166823023Y-73435714D01*
X167013500Y-73435714D01*
X167108738Y-73483333D01*
X167156357Y-73578571D01*
X167156357Y-73673809D01*
X166680166Y-73769047D01*
X167346833Y-74197619D02*
X168108738Y-74197619D01*
X168251595Y-73102380D02*
X168870642Y-73102380D01*
X168537309Y-73483333D01*
X168680166Y-73483333D01*
X168775404Y-73530952D01*
X168823023Y-73578571D01*
X168870642Y-73673809D01*
X168870642Y-73911904D01*
X168823023Y-74007142D01*
X168775404Y-74054761D01*
X168680166Y-74102380D01*
X168394452Y-74102380D01*
X168299214Y-74054761D01*
X168251595Y-74007142D01*
X169299214Y-74007142D02*
X169346833Y-74054761D01*
X169299214Y-74102380D01*
X169251595Y-74054761D01*
X169299214Y-74007142D01*
X169299214Y-74102380D01*
X169727785Y-73197619D02*
X169775404Y-73150000D01*
X169870642Y-73102380D01*
X170108738Y-73102380D01*
X170203976Y-73150000D01*
X170251595Y-73197619D01*
X170299214Y-73292857D01*
X170299214Y-73388095D01*
X170251595Y-73530952D01*
X169680166Y-74102380D01*
X170299214Y-74102380D01*
X170727785Y-74102380D02*
X170727785Y-73435714D01*
X170727785Y-73530952D02*
X170775404Y-73483333D01*
X170870642Y-73435714D01*
X171013500Y-73435714D01*
X171108738Y-73483333D01*
X171156357Y-73578571D01*
X171156357Y-74102380D01*
X171156357Y-73578571D02*
X171203976Y-73483333D01*
X171299214Y-73435714D01*
X171442071Y-73435714D01*
X171537309Y-73483333D01*
X171584928Y-73578571D01*
X171584928Y-74102380D01*
X172061119Y-74102380D02*
X172061119Y-73435714D01*
X172061119Y-73530952D02*
X172108738Y-73483333D01*
X172203976Y-73435714D01*
X172346833Y-73435714D01*
X172442071Y-73483333D01*
X172489690Y-73578571D01*
X172489690Y-74102380D01*
X172489690Y-73578571D02*
X172537309Y-73483333D01*
X172632547Y-73435714D01*
X172775404Y-73435714D01*
X172870642Y-73483333D01*
X172918261Y-73578571D01*
X172918261Y-74102380D01*
X173156357Y-74197619D02*
X173918261Y-74197619D01*
X174156357Y-74102380D02*
X174156357Y-73102380D01*
X174489690Y-73816666D01*
X174823023Y-73102380D01*
X174823023Y-74102380D01*
X175203976Y-73102380D02*
X175823023Y-73102380D01*
X175489690Y-73483333D01*
X175632547Y-73483333D01*
X175727785Y-73530952D01*
X175775404Y-73578571D01*
X175823023Y-73673809D01*
X175823023Y-73911904D01*
X175775404Y-74007142D01*
X175727785Y-74054761D01*
X175632547Y-74102380D01*
X175346833Y-74102380D01*
X175251595Y-74054761D01*
X175203976Y-74007142D01*
X176013500Y-74197619D02*
X176775404Y-74197619D01*
X177013500Y-74102380D02*
X177013500Y-73102380D01*
X177251595Y-73102380D01*
X177394452Y-73150000D01*
X177489690Y-73245238D01*
X177537309Y-73340476D01*
X177584928Y-73530952D01*
X177584928Y-73673809D01*
X177537309Y-73864285D01*
X177489690Y-73959523D01*
X177394452Y-74054761D01*
X177251595Y-74102380D01*
X177013500Y-74102380D01*
X178013500Y-74102380D02*
X178013500Y-73102380D01*
X178489690Y-74102380D02*
X178489690Y-73102380D01*
X179061119Y-74102380D01*
X179061119Y-73102380D01*
X179584928Y-74102380D02*
X179775404Y-74102380D01*
X179870642Y-74054761D01*
X179918261Y-74007142D01*
X180013500Y-73864285D01*
X180061119Y-73673809D01*
X180061119Y-73292857D01*
X180013500Y-73197619D01*
X179965880Y-73150000D01*
X179870642Y-73102380D01*
X179680166Y-73102380D01*
X179584928Y-73150000D01*
X179537309Y-73197619D01*
X179489690Y-73292857D01*
X179489690Y-73530952D01*
X179537309Y-73626190D01*
X179584928Y-73673809D01*
X179680166Y-73721428D01*
X179870642Y-73721428D01*
X179965880Y-73673809D01*
X180013500Y-73626190D01*
X180061119Y-73530952D01*
X180918261Y-73102380D02*
X180727785Y-73102380D01*
X180632547Y-73150000D01*
X180584928Y-73197619D01*
X180489690Y-73340476D01*
X180442071Y-73530952D01*
X180442071Y-73911904D01*
X180489690Y-74007142D01*
X180537309Y-74054761D01*
X180632547Y-74102380D01*
X180823023Y-74102380D01*
X180918261Y-74054761D01*
X180965880Y-74007142D01*
X181013500Y-73911904D01*
X181013500Y-73673809D01*
X180965880Y-73578571D01*
X180918261Y-73530952D01*
X180823023Y-73483333D01*
X180632547Y-73483333D01*
X180537309Y-73530952D01*
X180489690Y-73578571D01*
X180442071Y-73673809D01*
X181918261Y-73102380D02*
X181442071Y-73102380D01*
X181394452Y-73578571D01*
X181442071Y-73530952D01*
X181537309Y-73483333D01*
X181775404Y-73483333D01*
X181870642Y-73530952D01*
X181918261Y-73578571D01*
X181965880Y-73673809D01*
X181965880Y-73911904D01*
X181918261Y-74007142D01*
X181870642Y-74054761D01*
X181775404Y-74102380D01*
X181537309Y-74102380D01*
X181442071Y-74054761D01*
X181394452Y-74007142D01*
X182156357Y-74197619D02*
X182918261Y-74197619D01*
X183156357Y-74102380D02*
X183156357Y-73102380D01*
X183537309Y-73102380D01*
X183632547Y-73150000D01*
X183680166Y-73197619D01*
X183727785Y-73292857D01*
X183727785Y-73435714D01*
X183680166Y-73530952D01*
X183632547Y-73578571D01*
X183537309Y-73626190D01*
X183156357Y-73626190D01*
X184584928Y-74102380D02*
X184584928Y-73578571D01*
X184537309Y-73483333D01*
X184442071Y-73435714D01*
X184251595Y-73435714D01*
X184156357Y-73483333D01*
X184584928Y-74054761D02*
X184489690Y-74102380D01*
X184251595Y-74102380D01*
X184156357Y-74054761D01*
X184108738Y-73959523D01*
X184108738Y-73864285D01*
X184156357Y-73769047D01*
X184251595Y-73721428D01*
X184489690Y-73721428D01*
X184584928Y-73673809D01*
X185489690Y-74102380D02*
X185489690Y-73102380D01*
X185489690Y-74054761D02*
X185394452Y-74102380D01*
X185203976Y-74102380D01*
X185108738Y-74054761D01*
X185061119Y-74007142D01*
X185013500Y-73911904D01*
X185013500Y-73626190D01*
X185061119Y-73530952D01*
X185108738Y-73483333D01*
X185203976Y-73435714D01*
X185394452Y-73435714D01*
X185489690Y-73483333D01*
X170480166Y-70302380D02*
X170146833Y-69826190D01*
X169908738Y-70302380D02*
X169908738Y-69302380D01*
X170289690Y-69302380D01*
X170384928Y-69350000D01*
X170432547Y-69397619D01*
X170480166Y-69492857D01*
X170480166Y-69635714D01*
X170432547Y-69730952D01*
X170384928Y-69778571D01*
X170289690Y-69826190D01*
X169908738Y-69826190D01*
X170908738Y-69778571D02*
X171242071Y-69778571D01*
X171384928Y-70302380D02*
X170908738Y-70302380D01*
X170908738Y-69302380D01*
X171384928Y-69302380D01*
X172146833Y-69778571D02*
X171813500Y-69778571D01*
X171813500Y-70302380D02*
X171813500Y-69302380D01*
X172289690Y-69302380D01*
X172813500Y-69302380D02*
X172813500Y-69540476D01*
X172575404Y-69445238D02*
X172813500Y-69540476D01*
X173051595Y-69445238D01*
X172670642Y-69730952D02*
X172813500Y-69540476D01*
X172956357Y-69730952D01*
X173575404Y-69302380D02*
X173575404Y-69540476D01*
X173337309Y-69445238D02*
X173575404Y-69540476D01*
X173813500Y-69445238D01*
X173432547Y-69730952D02*
X173575404Y-69540476D01*
X173718261Y-69730952D01*
X117468809Y-74102380D02*
X117468809Y-73102380D01*
X117802142Y-73816666D01*
X118135476Y-73102380D01*
X118135476Y-74102380D01*
X118754523Y-74102380D02*
X118659285Y-74054761D01*
X118611666Y-74007142D01*
X118564047Y-73911904D01*
X118564047Y-73626190D01*
X118611666Y-73530952D01*
X118659285Y-73483333D01*
X118754523Y-73435714D01*
X118897380Y-73435714D01*
X118992619Y-73483333D01*
X119040238Y-73530952D01*
X119087857Y-73626190D01*
X119087857Y-73911904D01*
X119040238Y-74007142D01*
X118992619Y-74054761D01*
X118897380Y-74102380D01*
X118754523Y-74102380D01*
X119945000Y-73435714D02*
X119945000Y-74102380D01*
X119516428Y-73435714D02*
X119516428Y-73959523D01*
X119564047Y-74054761D01*
X119659285Y-74102380D01*
X119802142Y-74102380D01*
X119897380Y-74054761D01*
X119945000Y-74007142D01*
X120421190Y-73435714D02*
X120421190Y-74102380D01*
X120421190Y-73530952D02*
X120468809Y-73483333D01*
X120564047Y-73435714D01*
X120706904Y-73435714D01*
X120802142Y-73483333D01*
X120849761Y-73578571D01*
X120849761Y-74102380D01*
X121183095Y-73435714D02*
X121564047Y-73435714D01*
X121325952Y-73102380D02*
X121325952Y-73959523D01*
X121373571Y-74054761D01*
X121468809Y-74102380D01*
X121564047Y-74102380D01*
X121897380Y-74102380D02*
X121897380Y-73435714D01*
X121897380Y-73102380D02*
X121849761Y-73150000D01*
X121897380Y-73197619D01*
X121945000Y-73150000D01*
X121897380Y-73102380D01*
X121897380Y-73197619D01*
X122373571Y-73435714D02*
X122373571Y-74102380D01*
X122373571Y-73530952D02*
X122421190Y-73483333D01*
X122516428Y-73435714D01*
X122659285Y-73435714D01*
X122754523Y-73483333D01*
X122802142Y-73578571D01*
X122802142Y-74102380D01*
X123706904Y-73435714D02*
X123706904Y-74245238D01*
X123659285Y-74340476D01*
X123611666Y-74388095D01*
X123516428Y-74435714D01*
X123373571Y-74435714D01*
X123278333Y-74388095D01*
X123706904Y-74054761D02*
X123611666Y-74102380D01*
X123421190Y-74102380D01*
X123325952Y-74054761D01*
X123278333Y-74007142D01*
X123230714Y-73911904D01*
X123230714Y-73626190D01*
X123278333Y-73530952D01*
X123325952Y-73483333D01*
X123421190Y-73435714D01*
X123611666Y-73435714D01*
X123706904Y-73483333D01*
X124183095Y-74102380D02*
X124183095Y-73102380D01*
X124183095Y-73578571D02*
X124754523Y-73578571D01*
X124754523Y-74102380D02*
X124754523Y-73102380D01*
X125373571Y-74102380D02*
X125278333Y-74054761D01*
X125230714Y-74007142D01*
X125183095Y-73911904D01*
X125183095Y-73626190D01*
X125230714Y-73530952D01*
X125278333Y-73483333D01*
X125373571Y-73435714D01*
X125516428Y-73435714D01*
X125611666Y-73483333D01*
X125659285Y-73530952D01*
X125706904Y-73626190D01*
X125706904Y-73911904D01*
X125659285Y-74007142D01*
X125611666Y-74054761D01*
X125516428Y-74102380D01*
X125373571Y-74102380D01*
X126278333Y-74102380D02*
X126183095Y-74054761D01*
X126135476Y-73959523D01*
X126135476Y-73102380D01*
X127040238Y-74054761D02*
X126945000Y-74102380D01*
X126754523Y-74102380D01*
X126659285Y-74054761D01*
X126611666Y-73959523D01*
X126611666Y-73578571D01*
X126659285Y-73483333D01*
X126754523Y-73435714D01*
X126945000Y-73435714D01*
X127040238Y-73483333D01*
X127087857Y-73578571D01*
X127087857Y-73673809D01*
X126611666Y-73769047D01*
X127278333Y-74197619D02*
X128040238Y-74197619D01*
X128183095Y-73102380D02*
X128802142Y-73102380D01*
X128468809Y-73483333D01*
X128611666Y-73483333D01*
X128706904Y-73530952D01*
X128754523Y-73578571D01*
X128802142Y-73673809D01*
X128802142Y-73911904D01*
X128754523Y-74007142D01*
X128706904Y-74054761D01*
X128611666Y-74102380D01*
X128325952Y-74102380D01*
X128230714Y-74054761D01*
X128183095Y-74007142D01*
X129230714Y-74007142D02*
X129278333Y-74054761D01*
X129230714Y-74102380D01*
X129183095Y-74054761D01*
X129230714Y-74007142D01*
X129230714Y-74102380D01*
X129659285Y-73197619D02*
X129706904Y-73150000D01*
X129802142Y-73102380D01*
X130040238Y-73102380D01*
X130135476Y-73150000D01*
X130183095Y-73197619D01*
X130230714Y-73292857D01*
X130230714Y-73388095D01*
X130183095Y-73530952D01*
X129611666Y-74102380D01*
X130230714Y-74102380D01*
X130659285Y-74102380D02*
X130659285Y-73435714D01*
X130659285Y-73530952D02*
X130706904Y-73483333D01*
X130802142Y-73435714D01*
X130945000Y-73435714D01*
X131040238Y-73483333D01*
X131087857Y-73578571D01*
X131087857Y-74102380D01*
X131087857Y-73578571D02*
X131135476Y-73483333D01*
X131230714Y-73435714D01*
X131373571Y-73435714D01*
X131468809Y-73483333D01*
X131516428Y-73578571D01*
X131516428Y-74102380D01*
X131992619Y-74102380D02*
X131992619Y-73435714D01*
X131992619Y-73530952D02*
X132040238Y-73483333D01*
X132135476Y-73435714D01*
X132278333Y-73435714D01*
X132373571Y-73483333D01*
X132421190Y-73578571D01*
X132421190Y-74102380D01*
X132421190Y-73578571D02*
X132468809Y-73483333D01*
X132564047Y-73435714D01*
X132706904Y-73435714D01*
X132802142Y-73483333D01*
X132849761Y-73578571D01*
X132849761Y-74102380D01*
X133087857Y-74197619D02*
X133849761Y-74197619D01*
X134087857Y-74102380D02*
X134087857Y-73102380D01*
X134421190Y-73816666D01*
X134754523Y-73102380D01*
X134754523Y-74102380D01*
X135135476Y-73102380D02*
X135754523Y-73102380D01*
X135421190Y-73483333D01*
X135564047Y-73483333D01*
X135659285Y-73530952D01*
X135706904Y-73578571D01*
X135754523Y-73673809D01*
X135754523Y-73911904D01*
X135706904Y-74007142D01*
X135659285Y-74054761D01*
X135564047Y-74102380D01*
X135278333Y-74102380D01*
X135183095Y-74054761D01*
X135135476Y-74007142D01*
X135945000Y-74197619D02*
X136706904Y-74197619D01*
X136945000Y-74102380D02*
X136945000Y-73102380D01*
X137183095Y-73102380D01*
X137325952Y-73150000D01*
X137421190Y-73245238D01*
X137468809Y-73340476D01*
X137516428Y-73530952D01*
X137516428Y-73673809D01*
X137468809Y-73864285D01*
X137421190Y-73959523D01*
X137325952Y-74054761D01*
X137183095Y-74102380D01*
X136945000Y-74102380D01*
X137945000Y-74102380D02*
X137945000Y-73102380D01*
X138421190Y-74102380D02*
X138421190Y-73102380D01*
X138992619Y-74102380D01*
X138992619Y-73102380D01*
X139516428Y-74102380D02*
X139706904Y-74102380D01*
X139802142Y-74054761D01*
X139849761Y-74007142D01*
X139945000Y-73864285D01*
X139992619Y-73673809D01*
X139992619Y-73292857D01*
X139945000Y-73197619D01*
X139897380Y-73150000D01*
X139802142Y-73102380D01*
X139611666Y-73102380D01*
X139516428Y-73150000D01*
X139468809Y-73197619D01*
X139421190Y-73292857D01*
X139421190Y-73530952D01*
X139468809Y-73626190D01*
X139516428Y-73673809D01*
X139611666Y-73721428D01*
X139802142Y-73721428D01*
X139897380Y-73673809D01*
X139945000Y-73626190D01*
X139992619Y-73530952D01*
X140849761Y-73102380D02*
X140659285Y-73102380D01*
X140564047Y-73150000D01*
X140516428Y-73197619D01*
X140421190Y-73340476D01*
X140373571Y-73530952D01*
X140373571Y-73911904D01*
X140421190Y-74007142D01*
X140468809Y-74054761D01*
X140564047Y-74102380D01*
X140754523Y-74102380D01*
X140849761Y-74054761D01*
X140897380Y-74007142D01*
X140945000Y-73911904D01*
X140945000Y-73673809D01*
X140897380Y-73578571D01*
X140849761Y-73530952D01*
X140754523Y-73483333D01*
X140564047Y-73483333D01*
X140468809Y-73530952D01*
X140421190Y-73578571D01*
X140373571Y-73673809D01*
X141849761Y-73102380D02*
X141373571Y-73102380D01*
X141325952Y-73578571D01*
X141373571Y-73530952D01*
X141468809Y-73483333D01*
X141706904Y-73483333D01*
X141802142Y-73530952D01*
X141849761Y-73578571D01*
X141897380Y-73673809D01*
X141897380Y-73911904D01*
X141849761Y-74007142D01*
X141802142Y-74054761D01*
X141706904Y-74102380D01*
X141468809Y-74102380D01*
X141373571Y-74054761D01*
X141325952Y-74007142D01*
X142087857Y-74197619D02*
X142849761Y-74197619D01*
X143087857Y-74102380D02*
X143087857Y-73102380D01*
X143468809Y-73102380D01*
X143564047Y-73150000D01*
X143611666Y-73197619D01*
X143659285Y-73292857D01*
X143659285Y-73435714D01*
X143611666Y-73530952D01*
X143564047Y-73578571D01*
X143468809Y-73626190D01*
X143087857Y-73626190D01*
X144516428Y-74102380D02*
X144516428Y-73578571D01*
X144468809Y-73483333D01*
X144373571Y-73435714D01*
X144183095Y-73435714D01*
X144087857Y-73483333D01*
X144516428Y-74054761D02*
X144421190Y-74102380D01*
X144183095Y-74102380D01*
X144087857Y-74054761D01*
X144040238Y-73959523D01*
X144040238Y-73864285D01*
X144087857Y-73769047D01*
X144183095Y-73721428D01*
X144421190Y-73721428D01*
X144516428Y-73673809D01*
X145421190Y-74102380D02*
X145421190Y-73102380D01*
X145421190Y-74054761D02*
X145325952Y-74102380D01*
X145135476Y-74102380D01*
X145040238Y-74054761D01*
X144992619Y-74007142D01*
X144945000Y-73911904D01*
X144945000Y-73626190D01*
X144992619Y-73530952D01*
X145040238Y-73483333D01*
X145135476Y-73435714D01*
X145325952Y-73435714D01*
X145421190Y-73483333D01*
X130411666Y-70302380D02*
X130078333Y-69826190D01*
X129840238Y-70302380D02*
X129840238Y-69302380D01*
X130221190Y-69302380D01*
X130316428Y-69350000D01*
X130364047Y-69397619D01*
X130411666Y-69492857D01*
X130411666Y-69635714D01*
X130364047Y-69730952D01*
X130316428Y-69778571D01*
X130221190Y-69826190D01*
X129840238Y-69826190D01*
X130840238Y-69778571D02*
X131173571Y-69778571D01*
X131316428Y-70302380D02*
X130840238Y-70302380D01*
X130840238Y-69302380D01*
X131316428Y-69302380D01*
X132078333Y-69778571D02*
X131745000Y-69778571D01*
X131745000Y-70302380D02*
X131745000Y-69302380D01*
X132221190Y-69302380D01*
X132745000Y-69302380D02*
X132745000Y-69540476D01*
X132506904Y-69445238D02*
X132745000Y-69540476D01*
X132983095Y-69445238D01*
X132602142Y-69730952D02*
X132745000Y-69540476D01*
X132887857Y-69730952D01*
X133506904Y-69302380D02*
X133506904Y-69540476D01*
X133268809Y-69445238D02*
X133506904Y-69540476D01*
X133745000Y-69445238D01*
X133364047Y-69730952D02*
X133506904Y-69540476D01*
X133649761Y-69730952D01*
%TO.C,U6*%
X127357595Y-97909071D02*
X127500452Y-97956690D01*
X127548071Y-98004309D01*
X127595690Y-98099547D01*
X127595690Y-98242404D01*
X127548071Y-98337642D01*
X127500452Y-98385261D01*
X127405214Y-98432880D01*
X127024261Y-98432880D01*
X127024261Y-97432880D01*
X127357595Y-97432880D01*
X127452833Y-97480500D01*
X127500452Y-97528119D01*
X127548071Y-97623357D01*
X127548071Y-97718595D01*
X127500452Y-97813833D01*
X127452833Y-97861452D01*
X127357595Y-97909071D01*
X127024261Y-97909071D01*
X128452833Y-98432880D02*
X128452833Y-97909071D01*
X128405214Y-97813833D01*
X128309976Y-97766214D01*
X128119500Y-97766214D01*
X128024261Y-97813833D01*
X128452833Y-98385261D02*
X128357595Y-98432880D01*
X128119500Y-98432880D01*
X128024261Y-98385261D01*
X127976642Y-98290023D01*
X127976642Y-98194785D01*
X128024261Y-98099547D01*
X128119500Y-98051928D01*
X128357595Y-98051928D01*
X128452833Y-98004309D01*
X128929023Y-98432880D02*
X128929023Y-97766214D01*
X128929023Y-97956690D02*
X128976642Y-97861452D01*
X129024261Y-97813833D01*
X129119500Y-97766214D01*
X129214738Y-97766214D01*
X129690928Y-98432880D02*
X129595690Y-98385261D01*
X129548071Y-98337642D01*
X129500452Y-98242404D01*
X129500452Y-97956690D01*
X129548071Y-97861452D01*
X129595690Y-97813833D01*
X129690928Y-97766214D01*
X129833785Y-97766214D01*
X129929023Y-97813833D01*
X129976642Y-97861452D01*
X130024261Y-97956690D01*
X130024261Y-98242404D01*
X129976642Y-98337642D01*
X129929023Y-98385261D01*
X129833785Y-98432880D01*
X129690928Y-98432880D01*
X130452833Y-98432880D02*
X130452833Y-97766214D01*
X130452833Y-97861452D02*
X130500452Y-97813833D01*
X130595690Y-97766214D01*
X130738547Y-97766214D01*
X130833785Y-97813833D01*
X130881404Y-97909071D01*
X130881404Y-98432880D01*
X130881404Y-97909071D02*
X130929023Y-97813833D01*
X131024261Y-97766214D01*
X131167119Y-97766214D01*
X131262357Y-97813833D01*
X131309976Y-97909071D01*
X131309976Y-98432880D01*
X132167119Y-98385261D02*
X132071880Y-98432880D01*
X131881404Y-98432880D01*
X131786166Y-98385261D01*
X131738547Y-98290023D01*
X131738547Y-97909071D01*
X131786166Y-97813833D01*
X131881404Y-97766214D01*
X132071880Y-97766214D01*
X132167119Y-97813833D01*
X132214738Y-97909071D01*
X132214738Y-98004309D01*
X131738547Y-98099547D01*
X132500452Y-97766214D02*
X132881404Y-97766214D01*
X132643309Y-97432880D02*
X132643309Y-98290023D01*
X132690928Y-98385261D01*
X132786166Y-98432880D01*
X132881404Y-98432880D01*
X133595690Y-98385261D02*
X133500452Y-98432880D01*
X133309976Y-98432880D01*
X133214738Y-98385261D01*
X133167119Y-98290023D01*
X133167119Y-97909071D01*
X133214738Y-97813833D01*
X133309976Y-97766214D01*
X133500452Y-97766214D01*
X133595690Y-97813833D01*
X133643309Y-97909071D01*
X133643309Y-98004309D01*
X133167119Y-98099547D01*
X134071880Y-98432880D02*
X134071880Y-97766214D01*
X134071880Y-97956690D02*
X134119500Y-97861452D01*
X134167119Y-97813833D01*
X134262357Y-97766214D01*
X134357595Y-97766214D01*
%TO.C,D1*%
X152502380Y-142882857D02*
X152502380Y-143359047D01*
X151502380Y-143359047D01*
X151978571Y-142549523D02*
X151978571Y-142216190D01*
X152502380Y-142073333D02*
X152502380Y-142549523D01*
X151502380Y-142549523D01*
X151502380Y-142073333D01*
X152502380Y-141644761D02*
X151502380Y-141644761D01*
X151502380Y-141406666D01*
X151550000Y-141263809D01*
X151645238Y-141168571D01*
X151740476Y-141120952D01*
X151930952Y-141073333D01*
X152073809Y-141073333D01*
X152264285Y-141120952D01*
X152359523Y-141168571D01*
X152454761Y-141263809D01*
X152502380Y-141406666D01*
X152502380Y-141644761D01*
%TO.C,D2*%
X146152380Y-142882857D02*
X146152380Y-143359047D01*
X145152380Y-143359047D01*
X145628571Y-142549523D02*
X145628571Y-142216190D01*
X146152380Y-142073333D02*
X146152380Y-142549523D01*
X145152380Y-142549523D01*
X145152380Y-142073333D01*
X146152380Y-141644761D02*
X145152380Y-141644761D01*
X145152380Y-141406666D01*
X145200000Y-141263809D01*
X145295238Y-141168571D01*
X145390476Y-141120952D01*
X145580952Y-141073333D01*
X145723809Y-141073333D01*
X145914285Y-141120952D01*
X146009523Y-141168571D01*
X146104761Y-141263809D01*
X146152380Y-141406666D01*
X146152380Y-141644761D01*
%TO.C,D3*%
X158852380Y-142882857D02*
X158852380Y-143359047D01*
X157852380Y-143359047D01*
X158328571Y-142549523D02*
X158328571Y-142216190D01*
X158852380Y-142073333D02*
X158852380Y-142549523D01*
X157852380Y-142549523D01*
X157852380Y-142073333D01*
X158852380Y-141644761D02*
X157852380Y-141644761D01*
X157852380Y-141406666D01*
X157900000Y-141263809D01*
X157995238Y-141168571D01*
X158090476Y-141120952D01*
X158280952Y-141073333D01*
X158423809Y-141073333D01*
X158614285Y-141120952D01*
X158709523Y-141168571D01*
X158804761Y-141263809D01*
X158852380Y-141406666D01*
X158852380Y-141644761D01*
%TO.C,D4*%
X165202380Y-142882857D02*
X165202380Y-143359047D01*
X164202380Y-143359047D01*
X164678571Y-142549523D02*
X164678571Y-142216190D01*
X165202380Y-142073333D02*
X165202380Y-142549523D01*
X164202380Y-142549523D01*
X164202380Y-142073333D01*
X165202380Y-141644761D02*
X164202380Y-141644761D01*
X164202380Y-141406666D01*
X164250000Y-141263809D01*
X164345238Y-141168571D01*
X164440476Y-141120952D01*
X164630952Y-141073333D01*
X164773809Y-141073333D01*
X164964285Y-141120952D01*
X165059523Y-141168571D01*
X165154761Y-141263809D01*
X165202380Y-141406666D01*
X165202380Y-141644761D01*
%TO.C,J1*%
X110053571Y-141306666D02*
X110053571Y-140973333D01*
X110577380Y-140830476D02*
X110577380Y-141306666D01*
X109577380Y-141306666D01*
X109577380Y-140830476D01*
X110529761Y-140449523D02*
X110577380Y-140306666D01*
X110577380Y-140068571D01*
X110529761Y-139973333D01*
X110482142Y-139925714D01*
X110386904Y-139878095D01*
X110291666Y-139878095D01*
X110196428Y-139925714D01*
X110148809Y-139973333D01*
X110101190Y-140068571D01*
X110053571Y-140259047D01*
X110005952Y-140354285D01*
X109958333Y-140401904D01*
X109863095Y-140449523D01*
X109767857Y-140449523D01*
X109672619Y-140401904D01*
X109625000Y-140354285D01*
X109577380Y-140259047D01*
X109577380Y-140020952D01*
X109625000Y-139878095D01*
X110482142Y-138878095D02*
X110529761Y-138925714D01*
X110577380Y-139068571D01*
X110577380Y-139163809D01*
X110529761Y-139306666D01*
X110434523Y-139401904D01*
X110339285Y-139449523D01*
X110148809Y-139497142D01*
X110005952Y-139497142D01*
X109815476Y-139449523D01*
X109720238Y-139401904D01*
X109625000Y-139306666D01*
X109577380Y-139163809D01*
X109577380Y-139068571D01*
X109625000Y-138925714D01*
X109672619Y-138878095D01*
X109577380Y-138544761D02*
X109577380Y-137925714D01*
X109958333Y-138259047D01*
X109958333Y-138116190D01*
X110005952Y-138020952D01*
X110053571Y-137973333D01*
X110148809Y-137925714D01*
X110386904Y-137925714D01*
X110482142Y-137973333D01*
X110529761Y-138020952D01*
X110577380Y-138116190D01*
X110577380Y-138401904D01*
X110529761Y-138497142D01*
X110482142Y-138544761D01*
X114601666Y-137477380D02*
X114601666Y-138191666D01*
X114554047Y-138334523D01*
X114458809Y-138429761D01*
X114315952Y-138477380D01*
X114220714Y-138477380D01*
X115601666Y-138477380D02*
X115030238Y-138477380D01*
X115315952Y-138477380D02*
X115315952Y-137477380D01*
X115220714Y-137620238D01*
X115125476Y-137715476D01*
X115030238Y-137763095D01*
%TO.C,J2*%
X119610071Y-65099666D02*
X119610071Y-64766333D01*
X120133880Y-64623476D02*
X120133880Y-65099666D01*
X119133880Y-65099666D01*
X119133880Y-64623476D01*
X120086261Y-64242523D02*
X120133880Y-64099666D01*
X120133880Y-63861571D01*
X120086261Y-63766333D01*
X120038642Y-63718714D01*
X119943404Y-63671095D01*
X119848166Y-63671095D01*
X119752928Y-63718714D01*
X119705309Y-63766333D01*
X119657690Y-63861571D01*
X119610071Y-64052047D01*
X119562452Y-64147285D01*
X119514833Y-64194904D01*
X119419595Y-64242523D01*
X119324357Y-64242523D01*
X119229119Y-64194904D01*
X119181500Y-64147285D01*
X119133880Y-64052047D01*
X119133880Y-63813952D01*
X119181500Y-63671095D01*
X120038642Y-62671095D02*
X120086261Y-62718714D01*
X120133880Y-62861571D01*
X120133880Y-62956809D01*
X120086261Y-63099666D01*
X119991023Y-63194904D01*
X119895785Y-63242523D01*
X119705309Y-63290142D01*
X119562452Y-63290142D01*
X119371976Y-63242523D01*
X119276738Y-63194904D01*
X119181500Y-63099666D01*
X119133880Y-62956809D01*
X119133880Y-62861571D01*
X119181500Y-62718714D01*
X119229119Y-62671095D01*
X119467214Y-61813952D02*
X120133880Y-61813952D01*
X119086261Y-62052047D02*
X119800547Y-62290142D01*
X119800547Y-61671095D01*
X114538166Y-64500380D02*
X114538166Y-65214666D01*
X114490547Y-65357523D01*
X114395309Y-65452761D01*
X114252452Y-65500380D01*
X114157214Y-65500380D01*
X114966738Y-64595619D02*
X115014357Y-64548000D01*
X115109595Y-64500380D01*
X115347690Y-64500380D01*
X115442928Y-64548000D01*
X115490547Y-64595619D01*
X115538166Y-64690857D01*
X115538166Y-64786095D01*
X115490547Y-64928952D01*
X114919119Y-65500380D01*
X115538166Y-65500380D01*
%TO.C,J3*%
X127753880Y-64552047D02*
X127753880Y-65028238D01*
X126753880Y-65028238D01*
X127230071Y-64218714D02*
X127230071Y-63885380D01*
X127753880Y-63742523D02*
X127753880Y-64218714D01*
X126753880Y-64218714D01*
X126753880Y-63742523D01*
X127753880Y-63313952D02*
X126753880Y-63313952D01*
X126753880Y-63075857D01*
X126801500Y-62933000D01*
X126896738Y-62837761D01*
X126991976Y-62790142D01*
X127182452Y-62742523D01*
X127325309Y-62742523D01*
X127515785Y-62790142D01*
X127611023Y-62837761D01*
X127706261Y-62933000D01*
X127753880Y-63075857D01*
X127753880Y-63313952D01*
X127087214Y-61885380D02*
X127753880Y-61885380D01*
X126706261Y-62123476D02*
X127420547Y-62361571D01*
X127420547Y-61742523D01*
X123428166Y-64500380D02*
X123428166Y-65214666D01*
X123380547Y-65357523D01*
X123285309Y-65452761D01*
X123142452Y-65500380D01*
X123047214Y-65500380D01*
X123809119Y-64500380D02*
X124428166Y-64500380D01*
X124094833Y-64881333D01*
X124237690Y-64881333D01*
X124332928Y-64928952D01*
X124380547Y-64976571D01*
X124428166Y-65071809D01*
X124428166Y-65309904D01*
X124380547Y-65405142D01*
X124332928Y-65452761D01*
X124237690Y-65500380D01*
X123951976Y-65500380D01*
X123856738Y-65452761D01*
X123809119Y-65405142D01*
%TO.C,J4*%
X120737380Y-140759047D02*
X120737380Y-141235238D01*
X119737380Y-141235238D01*
X120213571Y-140425714D02*
X120213571Y-140092380D01*
X120737380Y-139949523D02*
X120737380Y-140425714D01*
X119737380Y-140425714D01*
X119737380Y-139949523D01*
X120737380Y-139520952D02*
X119737380Y-139520952D01*
X119737380Y-139282857D01*
X119785000Y-139140000D01*
X119880238Y-139044761D01*
X119975476Y-138997142D01*
X120165952Y-138949523D01*
X120308809Y-138949523D01*
X120499285Y-138997142D01*
X120594523Y-139044761D01*
X120689761Y-139140000D01*
X120737380Y-139282857D01*
X120737380Y-139520952D01*
X119737380Y-138616190D02*
X119737380Y-137997142D01*
X120118333Y-138330476D01*
X120118333Y-138187619D01*
X120165952Y-138092380D01*
X120213571Y-138044761D01*
X120308809Y-137997142D01*
X120546904Y-137997142D01*
X120642142Y-138044761D01*
X120689761Y-138092380D01*
X120737380Y-138187619D01*
X120737380Y-138473333D01*
X120689761Y-138568571D01*
X120642142Y-138616190D01*
X123491666Y-137477380D02*
X123491666Y-138191666D01*
X123444047Y-138334523D01*
X123348809Y-138429761D01*
X123205952Y-138477380D01*
X123110714Y-138477380D01*
X124396428Y-137810714D02*
X124396428Y-138477380D01*
X124158333Y-137429761D02*
X123920238Y-138144047D01*
X124539285Y-138144047D01*
%TO.C,J5*%
X182554380Y-64552047D02*
X182554380Y-65028238D01*
X181554380Y-65028238D01*
X182030571Y-64218714D02*
X182030571Y-63885380D01*
X182554380Y-63742523D02*
X182554380Y-64218714D01*
X181554380Y-64218714D01*
X181554380Y-63742523D01*
X182554380Y-63313952D02*
X181554380Y-63313952D01*
X181554380Y-63075857D01*
X181602000Y-62933000D01*
X181697238Y-62837761D01*
X181792476Y-62790142D01*
X181982952Y-62742523D01*
X182125809Y-62742523D01*
X182316285Y-62790142D01*
X182411523Y-62837761D01*
X182506761Y-62933000D01*
X182554380Y-63075857D01*
X182554380Y-63313952D01*
X182554380Y-61790142D02*
X182554380Y-62361571D01*
X182554380Y-62075857D02*
X181554380Y-62075857D01*
X181697238Y-62171095D01*
X181792476Y-62266333D01*
X181840095Y-62361571D01*
X178228666Y-64500380D02*
X178228666Y-65214666D01*
X178181047Y-65357523D01*
X178085809Y-65452761D01*
X177942952Y-65500380D01*
X177847714Y-65500380D01*
X179181047Y-64500380D02*
X178704857Y-64500380D01*
X178657238Y-64976571D01*
X178704857Y-64928952D01*
X178800095Y-64881333D01*
X179038190Y-64881333D01*
X179133428Y-64928952D01*
X179181047Y-64976571D01*
X179228666Y-65071809D01*
X179228666Y-65309904D01*
X179181047Y-65405142D01*
X179133428Y-65452761D01*
X179038190Y-65500380D01*
X178800095Y-65500380D01*
X178704857Y-65452761D01*
X178657238Y-65405142D01*
%TO.C,J6*%
X192190571Y-65099666D02*
X192190571Y-64766333D01*
X192714380Y-64623476D02*
X192714380Y-65099666D01*
X191714380Y-65099666D01*
X191714380Y-64623476D01*
X192666761Y-64242523D02*
X192714380Y-64099666D01*
X192714380Y-63861571D01*
X192666761Y-63766333D01*
X192619142Y-63718714D01*
X192523904Y-63671095D01*
X192428666Y-63671095D01*
X192333428Y-63718714D01*
X192285809Y-63766333D01*
X192238190Y-63861571D01*
X192190571Y-64052047D01*
X192142952Y-64147285D01*
X192095333Y-64194904D01*
X192000095Y-64242523D01*
X191904857Y-64242523D01*
X191809619Y-64194904D01*
X191762000Y-64147285D01*
X191714380Y-64052047D01*
X191714380Y-63813952D01*
X191762000Y-63671095D01*
X192619142Y-62671095D02*
X192666761Y-62718714D01*
X192714380Y-62861571D01*
X192714380Y-62956809D01*
X192666761Y-63099666D01*
X192571523Y-63194904D01*
X192476285Y-63242523D01*
X192285809Y-63290142D01*
X192142952Y-63290142D01*
X191952476Y-63242523D01*
X191857238Y-63194904D01*
X191762000Y-63099666D01*
X191714380Y-62956809D01*
X191714380Y-62861571D01*
X191762000Y-62718714D01*
X191809619Y-62671095D01*
X192714380Y-61718714D02*
X192714380Y-62290142D01*
X192714380Y-62004428D02*
X191714380Y-62004428D01*
X191857238Y-62099666D01*
X191952476Y-62194904D01*
X192000095Y-62290142D01*
X187118666Y-64500380D02*
X187118666Y-65214666D01*
X187071047Y-65357523D01*
X186975809Y-65452761D01*
X186832952Y-65500380D01*
X186737714Y-65500380D01*
X188023428Y-64500380D02*
X187832952Y-64500380D01*
X187737714Y-64548000D01*
X187690095Y-64595619D01*
X187594857Y-64738476D01*
X187547238Y-64928952D01*
X187547238Y-65309904D01*
X187594857Y-65405142D01*
X187642476Y-65452761D01*
X187737714Y-65500380D01*
X187928190Y-65500380D01*
X188023428Y-65452761D01*
X188071047Y-65405142D01*
X188118666Y-65309904D01*
X188118666Y-65071809D01*
X188071047Y-64976571D01*
X188023428Y-64928952D01*
X187928190Y-64881333D01*
X187737714Y-64881333D01*
X187642476Y-64928952D01*
X187594857Y-64976571D01*
X187547238Y-65071809D01*
%TO.C,J7*%
X175347380Y-140759047D02*
X175347380Y-141235238D01*
X174347380Y-141235238D01*
X174823571Y-140425714D02*
X174823571Y-140092380D01*
X175347380Y-139949523D02*
X175347380Y-140425714D01*
X174347380Y-140425714D01*
X174347380Y-139949523D01*
X175347380Y-139520952D02*
X174347380Y-139520952D01*
X174347380Y-139282857D01*
X174395000Y-139140000D01*
X174490238Y-139044761D01*
X174585476Y-138997142D01*
X174775952Y-138949523D01*
X174918809Y-138949523D01*
X175109285Y-138997142D01*
X175204523Y-139044761D01*
X175299761Y-139140000D01*
X175347380Y-139282857D01*
X175347380Y-139520952D01*
X174442619Y-138568571D02*
X174395000Y-138520952D01*
X174347380Y-138425714D01*
X174347380Y-138187619D01*
X174395000Y-138092380D01*
X174442619Y-138044761D01*
X174537857Y-137997142D01*
X174633095Y-137997142D01*
X174775952Y-138044761D01*
X175347380Y-138616190D01*
X175347380Y-137997142D01*
X177296667Y-138372379D02*
X177296667Y-139086665D01*
X177249048Y-139229522D01*
X177153810Y-139324760D01*
X177010953Y-139372379D01*
X176915715Y-139372379D01*
X177677620Y-138372379D02*
X178344286Y-138372379D01*
X177915715Y-139372379D01*
%TO.C,J8*%
X182443571Y-141306666D02*
X182443571Y-140973333D01*
X182967380Y-140830476D02*
X182967380Y-141306666D01*
X181967380Y-141306666D01*
X181967380Y-140830476D01*
X182919761Y-140449523D02*
X182967380Y-140306666D01*
X182967380Y-140068571D01*
X182919761Y-139973333D01*
X182872142Y-139925714D01*
X182776904Y-139878095D01*
X182681666Y-139878095D01*
X182586428Y-139925714D01*
X182538809Y-139973333D01*
X182491190Y-140068571D01*
X182443571Y-140259047D01*
X182395952Y-140354285D01*
X182348333Y-140401904D01*
X182253095Y-140449523D01*
X182157857Y-140449523D01*
X182062619Y-140401904D01*
X182015000Y-140354285D01*
X181967380Y-140259047D01*
X181967380Y-140020952D01*
X182015000Y-139878095D01*
X182872142Y-138878095D02*
X182919761Y-138925714D01*
X182967380Y-139068571D01*
X182967380Y-139163809D01*
X182919761Y-139306666D01*
X182824523Y-139401904D01*
X182729285Y-139449523D01*
X182538809Y-139497142D01*
X182395952Y-139497142D01*
X182205476Y-139449523D01*
X182110238Y-139401904D01*
X182015000Y-139306666D01*
X181967380Y-139163809D01*
X181967380Y-139068571D01*
X182015000Y-138925714D01*
X182062619Y-138878095D01*
X182062619Y-138497142D02*
X182015000Y-138449523D01*
X181967380Y-138354285D01*
X181967380Y-138116190D01*
X182015000Y-138020952D01*
X182062619Y-137973333D01*
X182157857Y-137925714D01*
X182253095Y-137925714D01*
X182395952Y-137973333D01*
X182967380Y-138544761D01*
X182967380Y-137925714D01*
X186991666Y-137477380D02*
X186991666Y-138191666D01*
X186944047Y-138334523D01*
X186848809Y-138429761D01*
X186705952Y-138477380D01*
X186610714Y-138477380D01*
X187610714Y-137905952D02*
X187515476Y-137858333D01*
X187467857Y-137810714D01*
X187420238Y-137715476D01*
X187420238Y-137667857D01*
X187467857Y-137572619D01*
X187515476Y-137525000D01*
X187610714Y-137477380D01*
X187801190Y-137477380D01*
X187896428Y-137525000D01*
X187944047Y-137572619D01*
X187991666Y-137667857D01*
X187991666Y-137715476D01*
X187944047Y-137810714D01*
X187896428Y-137858333D01*
X187801190Y-137905952D01*
X187610714Y-137905952D01*
X187515476Y-137953571D01*
X187467857Y-138001190D01*
X187420238Y-138096428D01*
X187420238Y-138286904D01*
X187467857Y-138382142D01*
X187515476Y-138429761D01*
X187610714Y-138477380D01*
X187801190Y-138477380D01*
X187896428Y-138429761D01*
X187944047Y-138382142D01*
X187991666Y-138286904D01*
X187991666Y-138096428D01*
X187944047Y-138001190D01*
X187896428Y-137953571D01*
X187801190Y-137905952D01*
%TO.C,J9*%
X112582142Y-103592380D02*
X112105952Y-103592380D01*
X112105952Y-102592380D01*
X112915476Y-103592380D02*
X112915476Y-102925714D01*
X112915476Y-102592380D02*
X112867857Y-102640000D01*
X112915476Y-102687619D01*
X112963095Y-102640000D01*
X112915476Y-102592380D01*
X112915476Y-102687619D01*
X113820238Y-103592380D02*
X113820238Y-102592380D01*
X113820238Y-103544761D02*
X113725000Y-103592380D01*
X113534523Y-103592380D01*
X113439285Y-103544761D01*
X113391666Y-103497142D01*
X113344047Y-103401904D01*
X113344047Y-103116190D01*
X113391666Y-103020952D01*
X113439285Y-102973333D01*
X113534523Y-102925714D01*
X113725000Y-102925714D01*
X113820238Y-102973333D01*
X114725000Y-103592380D02*
X114725000Y-103068571D01*
X114677380Y-102973333D01*
X114582142Y-102925714D01*
X114391666Y-102925714D01*
X114296428Y-102973333D01*
X114725000Y-103544761D02*
X114629761Y-103592380D01*
X114391666Y-103592380D01*
X114296428Y-103544761D01*
X114248809Y-103449523D01*
X114248809Y-103354285D01*
X114296428Y-103259047D01*
X114391666Y-103211428D01*
X114629761Y-103211428D01*
X114725000Y-103163809D01*
X115201190Y-103592380D02*
X115201190Y-102925714D01*
X115201190Y-103116190D02*
X115248809Y-103020952D01*
X115296428Y-102973333D01*
X115391666Y-102925714D01*
X115486904Y-102925714D01*
X114792380Y-109553333D02*
X115506666Y-109553333D01*
X115649523Y-109600952D01*
X115744761Y-109696190D01*
X115792380Y-109839047D01*
X115792380Y-109934285D01*
X115792380Y-109029523D02*
X115792380Y-108839047D01*
X115744761Y-108743809D01*
X115697142Y-108696190D01*
X115554285Y-108600952D01*
X115363809Y-108553333D01*
X114982857Y-108553333D01*
X114887619Y-108600952D01*
X114840000Y-108648571D01*
X114792380Y-108743809D01*
X114792380Y-108934285D01*
X114840000Y-109029523D01*
X114887619Y-109077142D01*
X114982857Y-109124761D01*
X115220952Y-109124761D01*
X115316190Y-109077142D01*
X115363809Y-109029523D01*
X115411428Y-108934285D01*
X115411428Y-108743809D01*
X115363809Y-108648571D01*
X115316190Y-108600952D01*
X115220952Y-108553333D01*
%TO.C,J10*%
X113558333Y-118832380D02*
X113225000Y-118356190D01*
X112986904Y-118832380D02*
X112986904Y-117832380D01*
X113367857Y-117832380D01*
X113463095Y-117880000D01*
X113510714Y-117927619D01*
X113558333Y-118022857D01*
X113558333Y-118165714D01*
X113510714Y-118260952D01*
X113463095Y-118308571D01*
X113367857Y-118356190D01*
X112986904Y-118356190D01*
X113891666Y-117832380D02*
X114558333Y-118832380D01*
X114558333Y-117832380D02*
X113891666Y-118832380D01*
X114792380Y-123999523D02*
X115506666Y-123999523D01*
X115649523Y-124047142D01*
X115744761Y-124142380D01*
X115792380Y-124285238D01*
X115792380Y-124380476D01*
X115792380Y-122999523D02*
X115792380Y-123570952D01*
X115792380Y-123285238D02*
X114792380Y-123285238D01*
X114935238Y-123380476D01*
X115030476Y-123475714D01*
X115078095Y-123570952D01*
X114792380Y-122380476D02*
X114792380Y-122285238D01*
X114840000Y-122190000D01*
X114887619Y-122142380D01*
X114982857Y-122094761D01*
X115173333Y-122047142D01*
X115411428Y-122047142D01*
X115601904Y-122094761D01*
X115697142Y-122142380D01*
X115744761Y-122190000D01*
X115792380Y-122285238D01*
X115792380Y-122380476D01*
X115744761Y-122475714D01*
X115697142Y-122523333D01*
X115601904Y-122570952D01*
X115411428Y-122618571D01*
X115173333Y-122618571D01*
X114982857Y-122570952D01*
X114887619Y-122523333D01*
X114840000Y-122475714D01*
X114792380Y-122380476D01*
%TO.C,J11*%
X145232380Y-66599761D02*
X146232380Y-66266428D01*
X145232380Y-65933095D01*
X146327619Y-65837857D02*
X146327619Y-65075952D01*
X145708571Y-64504523D02*
X145756190Y-64361666D01*
X145803809Y-64314047D01*
X145899047Y-64266428D01*
X146041904Y-64266428D01*
X146137142Y-64314047D01*
X146184761Y-64361666D01*
X146232380Y-64456904D01*
X146232380Y-64837857D01*
X145232380Y-64837857D01*
X145232380Y-64504523D01*
X145280000Y-64409285D01*
X145327619Y-64361666D01*
X145422857Y-64314047D01*
X145518095Y-64314047D01*
X145613333Y-64361666D01*
X145660952Y-64409285D01*
X145708571Y-64504523D01*
X145708571Y-64837857D01*
X145946666Y-63885476D02*
X145946666Y-63409285D01*
X146232380Y-63980714D02*
X145232380Y-63647380D01*
X146232380Y-63314047D01*
X145232380Y-63123571D02*
X145232380Y-62552142D01*
X146232380Y-62837857D02*
X145232380Y-62837857D01*
X145232380Y-62361666D02*
X145232380Y-61790238D01*
X146232380Y-62075952D02*
X145232380Y-62075952D01*
X142700476Y-65262380D02*
X142700476Y-65976666D01*
X142652857Y-66119523D01*
X142557619Y-66214761D01*
X142414761Y-66262380D01*
X142319523Y-66262380D01*
X143700476Y-66262380D02*
X143129047Y-66262380D01*
X143414761Y-66262380D02*
X143414761Y-65262380D01*
X143319523Y-65405238D01*
X143224285Y-65500476D01*
X143129047Y-65548095D01*
X144652857Y-66262380D02*
X144081428Y-66262380D01*
X144367142Y-66262380D02*
X144367142Y-65262380D01*
X144271904Y-65405238D01*
X144176666Y-65500476D01*
X144081428Y-65548095D01*
%TO.C,R1*%
X146122380Y-131476666D02*
X146122380Y-132048095D01*
X146122380Y-131762380D02*
X145122380Y-131762380D01*
X145265238Y-131857619D01*
X145360476Y-131952857D01*
X145408095Y-132048095D01*
X145122380Y-130857619D02*
X145122380Y-130762380D01*
X145170000Y-130667142D01*
X145217619Y-130619523D01*
X145312857Y-130571904D01*
X145503333Y-130524285D01*
X145741428Y-130524285D01*
X145931904Y-130571904D01*
X146027142Y-130619523D01*
X146074761Y-130667142D01*
X146122380Y-130762380D01*
X146122380Y-130857619D01*
X146074761Y-130952857D01*
X146027142Y-131000476D01*
X145931904Y-131048095D01*
X145741428Y-131095714D01*
X145503333Y-131095714D01*
X145312857Y-131048095D01*
X145217619Y-131000476D01*
X145170000Y-130952857D01*
X145122380Y-130857619D01*
X145122380Y-129905238D02*
X145122380Y-129810000D01*
X145170000Y-129714761D01*
X145217619Y-129667142D01*
X145312857Y-129619523D01*
X145503333Y-129571904D01*
X145741428Y-129571904D01*
X145931904Y-129619523D01*
X146027142Y-129667142D01*
X146074761Y-129714761D01*
X146122380Y-129810000D01*
X146122380Y-129905238D01*
X146074761Y-130000476D01*
X146027142Y-130048095D01*
X145931904Y-130095714D01*
X145741428Y-130143333D01*
X145503333Y-130143333D01*
X145312857Y-130095714D01*
X145217619Y-130048095D01*
X145170000Y-130000476D01*
X145122380Y-129905238D01*
X149042380Y-130976666D02*
X148566190Y-131310000D01*
X149042380Y-131548095D02*
X148042380Y-131548095D01*
X148042380Y-131167142D01*
X148090000Y-131071904D01*
X148137619Y-131024285D01*
X148232857Y-130976666D01*
X148375714Y-130976666D01*
X148470952Y-131024285D01*
X148518571Y-131071904D01*
X148566190Y-131167142D01*
X148566190Y-131548095D01*
X149042380Y-130024285D02*
X149042380Y-130595714D01*
X149042380Y-130310000D02*
X148042380Y-130310000D01*
X148185238Y-130405238D01*
X148280476Y-130500476D01*
X148328095Y-130595714D01*
%TO.C,R2*%
X139772380Y-131476666D02*
X139772380Y-132048095D01*
X139772380Y-131762380D02*
X138772380Y-131762380D01*
X138915238Y-131857619D01*
X139010476Y-131952857D01*
X139058095Y-132048095D01*
X138772380Y-130857619D02*
X138772380Y-130762380D01*
X138820000Y-130667142D01*
X138867619Y-130619523D01*
X138962857Y-130571904D01*
X139153333Y-130524285D01*
X139391428Y-130524285D01*
X139581904Y-130571904D01*
X139677142Y-130619523D01*
X139724761Y-130667142D01*
X139772380Y-130762380D01*
X139772380Y-130857619D01*
X139724761Y-130952857D01*
X139677142Y-131000476D01*
X139581904Y-131048095D01*
X139391428Y-131095714D01*
X139153333Y-131095714D01*
X138962857Y-131048095D01*
X138867619Y-131000476D01*
X138820000Y-130952857D01*
X138772380Y-130857619D01*
X138772380Y-129905238D02*
X138772380Y-129810000D01*
X138820000Y-129714761D01*
X138867619Y-129667142D01*
X138962857Y-129619523D01*
X139153333Y-129571904D01*
X139391428Y-129571904D01*
X139581904Y-129619523D01*
X139677142Y-129667142D01*
X139724761Y-129714761D01*
X139772380Y-129810000D01*
X139772380Y-129905238D01*
X139724761Y-130000476D01*
X139677142Y-130048095D01*
X139581904Y-130095714D01*
X139391428Y-130143333D01*
X139153333Y-130143333D01*
X138962857Y-130095714D01*
X138867619Y-130048095D01*
X138820000Y-130000476D01*
X138772380Y-129905238D01*
X142692380Y-130976666D02*
X142216190Y-131310000D01*
X142692380Y-131548095D02*
X141692380Y-131548095D01*
X141692380Y-131167142D01*
X141740000Y-131071904D01*
X141787619Y-131024285D01*
X141882857Y-130976666D01*
X142025714Y-130976666D01*
X142120952Y-131024285D01*
X142168571Y-131071904D01*
X142216190Y-131167142D01*
X142216190Y-131548095D01*
X141787619Y-130595714D02*
X141740000Y-130548095D01*
X141692380Y-130452857D01*
X141692380Y-130214761D01*
X141740000Y-130119523D01*
X141787619Y-130071904D01*
X141882857Y-130024285D01*
X141978095Y-130024285D01*
X142120952Y-130071904D01*
X142692380Y-130643333D01*
X142692380Y-130024285D01*
%TO.C,R3*%
X152472380Y-131476666D02*
X152472380Y-132048095D01*
X152472380Y-131762380D02*
X151472380Y-131762380D01*
X151615238Y-131857619D01*
X151710476Y-131952857D01*
X151758095Y-132048095D01*
X151472380Y-130857619D02*
X151472380Y-130762380D01*
X151520000Y-130667142D01*
X151567619Y-130619523D01*
X151662857Y-130571904D01*
X151853333Y-130524285D01*
X152091428Y-130524285D01*
X152281904Y-130571904D01*
X152377142Y-130619523D01*
X152424761Y-130667142D01*
X152472380Y-130762380D01*
X152472380Y-130857619D01*
X152424761Y-130952857D01*
X152377142Y-131000476D01*
X152281904Y-131048095D01*
X152091428Y-131095714D01*
X151853333Y-131095714D01*
X151662857Y-131048095D01*
X151567619Y-131000476D01*
X151520000Y-130952857D01*
X151472380Y-130857619D01*
X151472380Y-129905238D02*
X151472380Y-129810000D01*
X151520000Y-129714761D01*
X151567619Y-129667142D01*
X151662857Y-129619523D01*
X151853333Y-129571904D01*
X152091428Y-129571904D01*
X152281904Y-129619523D01*
X152377142Y-129667142D01*
X152424761Y-129714761D01*
X152472380Y-129810000D01*
X152472380Y-129905238D01*
X152424761Y-130000476D01*
X152377142Y-130048095D01*
X152281904Y-130095714D01*
X152091428Y-130143333D01*
X151853333Y-130143333D01*
X151662857Y-130095714D01*
X151567619Y-130048095D01*
X151520000Y-130000476D01*
X151472380Y-129905238D01*
X155392380Y-130976666D02*
X154916190Y-131310000D01*
X155392380Y-131548095D02*
X154392380Y-131548095D01*
X154392380Y-131167142D01*
X154440000Y-131071904D01*
X154487619Y-131024285D01*
X154582857Y-130976666D01*
X154725714Y-130976666D01*
X154820952Y-131024285D01*
X154868571Y-131071904D01*
X154916190Y-131167142D01*
X154916190Y-131548095D01*
X154392380Y-130643333D02*
X154392380Y-130024285D01*
X154773333Y-130357619D01*
X154773333Y-130214761D01*
X154820952Y-130119523D01*
X154868571Y-130071904D01*
X154963809Y-130024285D01*
X155201904Y-130024285D01*
X155297142Y-130071904D01*
X155344761Y-130119523D01*
X155392380Y-130214761D01*
X155392380Y-130500476D01*
X155344761Y-130595714D01*
X155297142Y-130643333D01*
%TO.C,R4*%
X158822380Y-131476666D02*
X158822380Y-132048095D01*
X158822380Y-131762380D02*
X157822380Y-131762380D01*
X157965238Y-131857619D01*
X158060476Y-131952857D01*
X158108095Y-132048095D01*
X157822380Y-130857619D02*
X157822380Y-130762380D01*
X157870000Y-130667142D01*
X157917619Y-130619523D01*
X158012857Y-130571904D01*
X158203333Y-130524285D01*
X158441428Y-130524285D01*
X158631904Y-130571904D01*
X158727142Y-130619523D01*
X158774761Y-130667142D01*
X158822380Y-130762380D01*
X158822380Y-130857619D01*
X158774761Y-130952857D01*
X158727142Y-131000476D01*
X158631904Y-131048095D01*
X158441428Y-131095714D01*
X158203333Y-131095714D01*
X158012857Y-131048095D01*
X157917619Y-131000476D01*
X157870000Y-130952857D01*
X157822380Y-130857619D01*
X157822380Y-129905238D02*
X157822380Y-129810000D01*
X157870000Y-129714761D01*
X157917619Y-129667142D01*
X158012857Y-129619523D01*
X158203333Y-129571904D01*
X158441428Y-129571904D01*
X158631904Y-129619523D01*
X158727142Y-129667142D01*
X158774761Y-129714761D01*
X158822380Y-129810000D01*
X158822380Y-129905238D01*
X158774761Y-130000476D01*
X158727142Y-130048095D01*
X158631904Y-130095714D01*
X158441428Y-130143333D01*
X158203333Y-130143333D01*
X158012857Y-130095714D01*
X157917619Y-130048095D01*
X157870000Y-130000476D01*
X157822380Y-129905238D01*
X161742380Y-130976666D02*
X161266190Y-131310000D01*
X161742380Y-131548095D02*
X160742380Y-131548095D01*
X160742380Y-131167142D01*
X160790000Y-131071904D01*
X160837619Y-131024285D01*
X160932857Y-130976666D01*
X161075714Y-130976666D01*
X161170952Y-131024285D01*
X161218571Y-131071904D01*
X161266190Y-131167142D01*
X161266190Y-131548095D01*
X161075714Y-130119523D02*
X161742380Y-130119523D01*
X160694761Y-130357619D02*
X161409047Y-130595714D01*
X161409047Y-129976666D01*
%TO.C,R5*%
X156090952Y-71192380D02*
X155519523Y-71192380D01*
X155805238Y-71192380D02*
X155805238Y-70192380D01*
X155710000Y-70335238D01*
X155614761Y-70430476D01*
X155519523Y-70478095D01*
X156519523Y-71192380D02*
X156519523Y-70192380D01*
X156614761Y-70811428D02*
X156900476Y-71192380D01*
X156900476Y-70525714D02*
X156519523Y-70906666D01*
X156043333Y-74112380D02*
X155710000Y-73636190D01*
X155471904Y-74112380D02*
X155471904Y-73112380D01*
X155852857Y-73112380D01*
X155948095Y-73160000D01*
X155995714Y-73207619D01*
X156043333Y-73302857D01*
X156043333Y-73445714D01*
X155995714Y-73540952D01*
X155948095Y-73588571D01*
X155852857Y-73636190D01*
X155471904Y-73636190D01*
X156948095Y-73112380D02*
X156471904Y-73112380D01*
X156424285Y-73588571D01*
X156471904Y-73540952D01*
X156567142Y-73493333D01*
X156805238Y-73493333D01*
X156900476Y-73540952D01*
X156948095Y-73588571D01*
X156995714Y-73683809D01*
X156995714Y-73921904D01*
X156948095Y-74017142D01*
X156900476Y-74064761D01*
X156805238Y-74112380D01*
X156567142Y-74112380D01*
X156471904Y-74064761D01*
X156424285Y-74017142D01*
%TO.C,R6*%
X155614761Y-66112380D02*
X155043333Y-66112380D01*
X155329047Y-66112380D02*
X155329047Y-65112380D01*
X155233809Y-65255238D01*
X155138571Y-65350476D01*
X155043333Y-65398095D01*
X156233809Y-65112380D02*
X156329047Y-65112380D01*
X156424285Y-65160000D01*
X156471904Y-65207619D01*
X156519523Y-65302857D01*
X156567142Y-65493333D01*
X156567142Y-65731428D01*
X156519523Y-65921904D01*
X156471904Y-66017142D01*
X156424285Y-66064761D01*
X156329047Y-66112380D01*
X156233809Y-66112380D01*
X156138571Y-66064761D01*
X156090952Y-66017142D01*
X156043333Y-65921904D01*
X155995714Y-65731428D01*
X155995714Y-65493333D01*
X156043333Y-65302857D01*
X156090952Y-65207619D01*
X156138571Y-65160000D01*
X156233809Y-65112380D01*
X156995714Y-66112380D02*
X156995714Y-65112380D01*
X157090952Y-65731428D02*
X157376666Y-66112380D01*
X157376666Y-65445714D02*
X156995714Y-65826666D01*
X156043333Y-69032380D02*
X155710000Y-68556190D01*
X155471904Y-69032380D02*
X155471904Y-68032380D01*
X155852857Y-68032380D01*
X155948095Y-68080000D01*
X155995714Y-68127619D01*
X156043333Y-68222857D01*
X156043333Y-68365714D01*
X155995714Y-68460952D01*
X155948095Y-68508571D01*
X155852857Y-68556190D01*
X155471904Y-68556190D01*
X156900476Y-68032380D02*
X156710000Y-68032380D01*
X156614761Y-68080000D01*
X156567142Y-68127619D01*
X156471904Y-68270476D01*
X156424285Y-68460952D01*
X156424285Y-68841904D01*
X156471904Y-68937142D01*
X156519523Y-68984761D01*
X156614761Y-69032380D01*
X156805238Y-69032380D01*
X156900476Y-68984761D01*
X156948095Y-68937142D01*
X156995714Y-68841904D01*
X156995714Y-68603809D01*
X156948095Y-68508571D01*
X156900476Y-68460952D01*
X156805238Y-68413333D01*
X156614761Y-68413333D01*
X156519523Y-68460952D01*
X156471904Y-68508571D01*
X156424285Y-68603809D01*
%TO.C,U1*%
X182062380Y-102933333D02*
X181586190Y-103266666D01*
X182062380Y-103504761D02*
X181062380Y-103504761D01*
X181062380Y-103123809D01*
X181110000Y-103028571D01*
X181157619Y-102980952D01*
X181252857Y-102933333D01*
X181395714Y-102933333D01*
X181490952Y-102980952D01*
X181538571Y-103028571D01*
X181586190Y-103123809D01*
X181586190Y-103504761D01*
X181538571Y-102504761D02*
X181538571Y-102171428D01*
X182062380Y-102028571D02*
X182062380Y-102504761D01*
X181062380Y-102504761D01*
X181062380Y-102028571D01*
X181538571Y-101266666D02*
X181538571Y-101600000D01*
X182062380Y-101600000D02*
X181062380Y-101600000D01*
X181062380Y-101123809D01*
X181062380Y-100600000D02*
X181300476Y-100600000D01*
X181205238Y-100838095D02*
X181300476Y-100600000D01*
X181205238Y-100361904D01*
X181490952Y-100742857D02*
X181300476Y-100600000D01*
X181490952Y-100457142D01*
X181062380Y-99838095D02*
X181300476Y-99838095D01*
X181205238Y-100076190D02*
X181300476Y-99838095D01*
X181205238Y-99600000D01*
X181490952Y-99980952D02*
X181300476Y-99838095D01*
X181490952Y-99695238D01*
%TO.C,U2*%
X146558571Y-86812380D02*
X146558571Y-86145714D01*
X146558571Y-86240952D02*
X146606190Y-86193333D01*
X146701428Y-86145714D01*
X146844285Y-86145714D01*
X146939523Y-86193333D01*
X146987142Y-86288571D01*
X146987142Y-86812380D01*
X146987142Y-86288571D02*
X147034761Y-86193333D01*
X147130000Y-86145714D01*
X147272857Y-86145714D01*
X147368095Y-86193333D01*
X147415714Y-86288571D01*
X147415714Y-86812380D01*
X147891904Y-86145714D02*
X147891904Y-87145714D01*
X147891904Y-86193333D02*
X147987142Y-86145714D01*
X148177619Y-86145714D01*
X148272857Y-86193333D01*
X148320476Y-86240952D01*
X148368095Y-86336190D01*
X148368095Y-86621904D01*
X148320476Y-86717142D01*
X148272857Y-86764761D01*
X148177619Y-86812380D01*
X147987142Y-86812380D01*
X147891904Y-86764761D01*
X149225238Y-86145714D02*
X149225238Y-86812380D01*
X148796666Y-86145714D02*
X148796666Y-86669523D01*
X148844285Y-86764761D01*
X148939523Y-86812380D01*
X149082380Y-86812380D01*
X149177619Y-86764761D01*
X149225238Y-86717142D01*
X150130000Y-85812380D02*
X149939523Y-85812380D01*
X149844285Y-85860000D01*
X149796666Y-85907619D01*
X149701428Y-86050476D01*
X149653809Y-86240952D01*
X149653809Y-86621904D01*
X149701428Y-86717142D01*
X149749047Y-86764761D01*
X149844285Y-86812380D01*
X150034761Y-86812380D01*
X150130000Y-86764761D01*
X150177619Y-86717142D01*
X150225238Y-86621904D01*
X150225238Y-86383809D01*
X150177619Y-86288571D01*
X150130000Y-86240952D01*
X150034761Y-86193333D01*
X149844285Y-86193333D01*
X149749047Y-86240952D01*
X149701428Y-86288571D01*
X149653809Y-86383809D01*
X150844285Y-85812380D02*
X150939523Y-85812380D01*
X151034761Y-85860000D01*
X151082380Y-85907619D01*
X151130000Y-86002857D01*
X151177619Y-86193333D01*
X151177619Y-86431428D01*
X151130000Y-86621904D01*
X151082380Y-86717142D01*
X151034761Y-86764761D01*
X150939523Y-86812380D01*
X150844285Y-86812380D01*
X150749047Y-86764761D01*
X150701428Y-86717142D01*
X150653809Y-86621904D01*
X150606190Y-86431428D01*
X150606190Y-86193333D01*
X150653809Y-86002857D01*
X150701428Y-85907619D01*
X150749047Y-85860000D01*
X150844285Y-85812380D01*
X152082380Y-85812380D02*
X151606190Y-85812380D01*
X151558571Y-86288571D01*
X151606190Y-86240952D01*
X151701428Y-86193333D01*
X151939523Y-86193333D01*
X152034761Y-86240952D01*
X152082380Y-86288571D01*
X152130000Y-86383809D01*
X152130000Y-86621904D01*
X152082380Y-86717142D01*
X152034761Y-86764761D01*
X151939523Y-86812380D01*
X151701428Y-86812380D01*
X151606190Y-86764761D01*
X151558571Y-86717142D01*
X152749047Y-85812380D02*
X152844285Y-85812380D01*
X152939523Y-85860000D01*
X152987142Y-85907619D01*
X153034761Y-86002857D01*
X153082380Y-86193333D01*
X153082380Y-86431428D01*
X153034761Y-86621904D01*
X152987142Y-86717142D01*
X152939523Y-86764761D01*
X152844285Y-86812380D01*
X152749047Y-86812380D01*
X152653809Y-86764761D01*
X152606190Y-86717142D01*
X152558571Y-86621904D01*
X152510952Y-86431428D01*
X152510952Y-86193333D01*
X152558571Y-86002857D01*
X152606190Y-85907619D01*
X152653809Y-85860000D01*
X152749047Y-85812380D01*
X153510952Y-86145714D02*
X153510952Y-87145714D01*
X153510952Y-86193333D02*
X153606190Y-86145714D01*
X153796666Y-86145714D01*
X153891904Y-86193333D01*
X153939523Y-86240952D01*
X153987142Y-86336190D01*
X153987142Y-86621904D01*
X153939523Y-86717142D01*
X153891904Y-86764761D01*
X153796666Y-86812380D01*
X153606190Y-86812380D01*
X153510952Y-86764761D01*
X154844285Y-86764761D02*
X154749047Y-86812380D01*
X154558571Y-86812380D01*
X154463333Y-86764761D01*
X154415714Y-86717142D01*
X154368095Y-86621904D01*
X154368095Y-86336190D01*
X154415714Y-86240952D01*
X154463333Y-86193333D01*
X154558571Y-86145714D01*
X154749047Y-86145714D01*
X154844285Y-86193333D01*
X155272857Y-86812380D02*
X155272857Y-85812380D01*
X155272857Y-86193333D02*
X155368095Y-86145714D01*
X155558571Y-86145714D01*
X155653809Y-86193333D01*
X155701428Y-86240952D01*
X155749047Y-86336190D01*
X155749047Y-86621904D01*
X155701428Y-86717142D01*
X155653809Y-86764761D01*
X155558571Y-86812380D01*
X155368095Y-86812380D01*
X155272857Y-86764761D01*
%TO.C,U3*%
X112753809Y-96178571D02*
X112420476Y-96178571D01*
X112420476Y-96702380D02*
X112420476Y-95702380D01*
X112896666Y-95702380D01*
X113134761Y-95702380D02*
X113706190Y-95702380D01*
X113420476Y-96702380D02*
X113420476Y-95702380D01*
X114039523Y-96702380D02*
X114039523Y-95702380D01*
X114277619Y-95702380D01*
X114420476Y-95750000D01*
X114515714Y-95845238D01*
X114563333Y-95940476D01*
X114610952Y-96130952D01*
X114610952Y-96273809D01*
X114563333Y-96464285D01*
X114515714Y-96559523D01*
X114420476Y-96654761D01*
X114277619Y-96702380D01*
X114039523Y-96702380D01*
X115039523Y-96702380D02*
X115039523Y-95702380D01*
X112968095Y-78462380D02*
X112968095Y-79271904D01*
X113015714Y-79367142D01*
X113063333Y-79414761D01*
X113158571Y-79462380D01*
X113349047Y-79462380D01*
X113444285Y-79414761D01*
X113491904Y-79367142D01*
X113539523Y-79271904D01*
X113539523Y-78462380D01*
X113920476Y-78462380D02*
X114539523Y-78462380D01*
X114206190Y-78843333D01*
X114349047Y-78843333D01*
X114444285Y-78890952D01*
X114491904Y-78938571D01*
X114539523Y-79033809D01*
X114539523Y-79271904D01*
X114491904Y-79367142D01*
X114444285Y-79414761D01*
X114349047Y-79462380D01*
X114063333Y-79462380D01*
X113968095Y-79414761D01*
X113920476Y-79367142D01*
%TO.C,U7*%
X146558571Y-107132380D02*
X146558571Y-106465714D01*
X146558571Y-106560952D02*
X146606190Y-106513333D01*
X146701428Y-106465714D01*
X146844285Y-106465714D01*
X146939523Y-106513333D01*
X146987142Y-106608571D01*
X146987142Y-107132380D01*
X146987142Y-106608571D02*
X147034761Y-106513333D01*
X147130000Y-106465714D01*
X147272857Y-106465714D01*
X147368095Y-106513333D01*
X147415714Y-106608571D01*
X147415714Y-107132380D01*
X147891904Y-106465714D02*
X147891904Y-107465714D01*
X147891904Y-106513333D02*
X147987142Y-106465714D01*
X148177619Y-106465714D01*
X148272857Y-106513333D01*
X148320476Y-106560952D01*
X148368095Y-106656190D01*
X148368095Y-106941904D01*
X148320476Y-107037142D01*
X148272857Y-107084761D01*
X148177619Y-107132380D01*
X147987142Y-107132380D01*
X147891904Y-107084761D01*
X149225238Y-106465714D02*
X149225238Y-107132380D01*
X148796666Y-106465714D02*
X148796666Y-106989523D01*
X148844285Y-107084761D01*
X148939523Y-107132380D01*
X149082380Y-107132380D01*
X149177619Y-107084761D01*
X149225238Y-107037142D01*
X150130000Y-106132380D02*
X149939523Y-106132380D01*
X149844285Y-106180000D01*
X149796666Y-106227619D01*
X149701428Y-106370476D01*
X149653809Y-106560952D01*
X149653809Y-106941904D01*
X149701428Y-107037142D01*
X149749047Y-107084761D01*
X149844285Y-107132380D01*
X150034761Y-107132380D01*
X150130000Y-107084761D01*
X150177619Y-107037142D01*
X150225238Y-106941904D01*
X150225238Y-106703809D01*
X150177619Y-106608571D01*
X150130000Y-106560952D01*
X150034761Y-106513333D01*
X149844285Y-106513333D01*
X149749047Y-106560952D01*
X149701428Y-106608571D01*
X149653809Y-106703809D01*
X150844285Y-106132380D02*
X150939523Y-106132380D01*
X151034761Y-106180000D01*
X151082380Y-106227619D01*
X151130000Y-106322857D01*
X151177619Y-106513333D01*
X151177619Y-106751428D01*
X151130000Y-106941904D01*
X151082380Y-107037142D01*
X151034761Y-107084761D01*
X150939523Y-107132380D01*
X150844285Y-107132380D01*
X150749047Y-107084761D01*
X150701428Y-107037142D01*
X150653809Y-106941904D01*
X150606190Y-106751428D01*
X150606190Y-106513333D01*
X150653809Y-106322857D01*
X150701428Y-106227619D01*
X150749047Y-106180000D01*
X150844285Y-106132380D01*
X152082380Y-106132380D02*
X151606190Y-106132380D01*
X151558571Y-106608571D01*
X151606190Y-106560952D01*
X151701428Y-106513333D01*
X151939523Y-106513333D01*
X152034761Y-106560952D01*
X152082380Y-106608571D01*
X152130000Y-106703809D01*
X152130000Y-106941904D01*
X152082380Y-107037142D01*
X152034761Y-107084761D01*
X151939523Y-107132380D01*
X151701428Y-107132380D01*
X151606190Y-107084761D01*
X151558571Y-107037142D01*
X152749047Y-106132380D02*
X152844285Y-106132380D01*
X152939523Y-106180000D01*
X152987142Y-106227619D01*
X153034761Y-106322857D01*
X153082380Y-106513333D01*
X153082380Y-106751428D01*
X153034761Y-106941904D01*
X152987142Y-107037142D01*
X152939523Y-107084761D01*
X152844285Y-107132380D01*
X152749047Y-107132380D01*
X152653809Y-107084761D01*
X152606190Y-107037142D01*
X152558571Y-106941904D01*
X152510952Y-106751428D01*
X152510952Y-106513333D01*
X152558571Y-106322857D01*
X152606190Y-106227619D01*
X152653809Y-106180000D01*
X152749047Y-106132380D01*
X153510952Y-106465714D02*
X153510952Y-107465714D01*
X153510952Y-106513333D02*
X153606190Y-106465714D01*
X153796666Y-106465714D01*
X153891904Y-106513333D01*
X153939523Y-106560952D01*
X153987142Y-106656190D01*
X153987142Y-106941904D01*
X153939523Y-107037142D01*
X153891904Y-107084761D01*
X153796666Y-107132380D01*
X153606190Y-107132380D01*
X153510952Y-107084761D01*
X154844285Y-107084761D02*
X154749047Y-107132380D01*
X154558571Y-107132380D01*
X154463333Y-107084761D01*
X154415714Y-107037142D01*
X154368095Y-106941904D01*
X154368095Y-106656190D01*
X154415714Y-106560952D01*
X154463333Y-106513333D01*
X154558571Y-106465714D01*
X154749047Y-106465714D01*
X154844285Y-106513333D01*
X155272857Y-107132380D02*
X155272857Y-106132380D01*
X155272857Y-106513333D02*
X155368095Y-106465714D01*
X155558571Y-106465714D01*
X155653809Y-106513333D01*
X155701428Y-106560952D01*
X155749047Y-106656190D01*
X155749047Y-106941904D01*
X155701428Y-107037142D01*
X155653809Y-107084761D01*
X155558571Y-107132380D01*
X155368095Y-107132380D01*
X155272857Y-107084761D01*
%TD*%
M02*
