%TF.GenerationSoftware,KiCad,Pcbnew,(5.1.10)-1*%
%TF.CreationDate,2021-12-09T02:28:18+01:00*%
%TF.ProjectId,flight controller,666c6967-6874-4206-936f-6e74726f6c6c,rev?*%
%TF.SameCoordinates,Original*%
%TF.FileFunction,Copper,L2,Inr*%
%TF.FilePolarity,Positive*%
%FSLAX46Y46*%
G04 Gerber Fmt 4.6, Leading zero omitted, Abs format (unit mm)*
G04 Created by KiCad (PCBNEW (5.1.10)-1) date 2021-12-09 02:28:18*
%MOMM*%
%LPD*%
G01*
G04 APERTURE LIST*
%TA.AperFunction,ComponentPad*%
%ADD10R,1.524000X1.524000*%
%TD*%
%TA.AperFunction,ComponentPad*%
%ADD11C,1.524000*%
%TD*%
%TA.AperFunction,ComponentPad*%
%ADD12C,1.800000*%
%TD*%
%TA.AperFunction,ComponentPad*%
%ADD13R,1.800000X1.800000*%
%TD*%
%TA.AperFunction,ComponentPad*%
%ADD14O,1.700000X1.700000*%
%TD*%
%TA.AperFunction,ComponentPad*%
%ADD15R,1.700000X1.700000*%
%TD*%
%TA.AperFunction,ComponentPad*%
%ADD16O,2.400000X2.400000*%
%TD*%
%TA.AperFunction,ComponentPad*%
%ADD17C,2.400000*%
%TD*%
%TA.AperFunction,ComponentPad*%
%ADD18C,1.700000*%
%TD*%
%TA.AperFunction,Conductor*%
%ADD19C,0.250000*%
%TD*%
%TA.AperFunction,Conductor*%
%ADD20C,0.254000*%
%TD*%
%TA.AperFunction,Conductor*%
%ADD21C,0.100000*%
%TD*%
G04 APERTURE END LIST*
D10*
%TO.N,Earth*%
%TO.C,U6*%
X134747000Y-108458000D03*
D11*
%TO.N,/3V3*%
X134747000Y-105918000D03*
%TO.N,/SDA*%
X132207000Y-105918000D03*
%TO.N,/SCL*%
X129667000Y-105918000D03*
%TD*%
D12*
%TO.N,Net-(D1-Pad2)*%
%TO.C,D1*%
X148590000Y-140970000D03*
D13*
%TO.N,Earth*%
X148590000Y-143510000D03*
%TD*%
D12*
%TO.N,Net-(D2-Pad2)*%
%TO.C,D2*%
X142240000Y-140970000D03*
D13*
%TO.N,Earth*%
X142240000Y-143510000D03*
%TD*%
D12*
%TO.N,Net-(D3-Pad2)*%
%TO.C,D3*%
X154940000Y-140970000D03*
D13*
%TO.N,Earth*%
X154940000Y-143510000D03*
%TD*%
D12*
%TO.N,Net-(D4-Pad2)*%
%TO.C,D4*%
X161290000Y-140970000D03*
D13*
%TO.N,Earth*%
X161290000Y-143510000D03*
%TD*%
D14*
%TO.N,/ESC3*%
%TO.C,J1*%
X113030000Y-134620000D03*
%TO.N,Net-(J1-Pad2)*%
X115570000Y-134620000D03*
D15*
%TO.N,Earth*%
X118110000Y-134620000D03*
%TD*%
D14*
%TO.N,/ESC4*%
%TO.C,J2*%
X119380000Y-68580000D03*
%TO.N,Net-(J2-Pad2)*%
X116840000Y-68580000D03*
D15*
%TO.N,Earth*%
X114300000Y-68580000D03*
%TD*%
D14*
%TO.N,Net-(J2-Pad2)*%
%TO.C,J3*%
X127000000Y-68580000D03*
D15*
%TO.N,Earth*%
X124460000Y-68580000D03*
%TD*%
D14*
%TO.N,Net-(J1-Pad2)*%
%TO.C,J4*%
X123190000Y-134620000D03*
D15*
%TO.N,Earth*%
X125730000Y-134620000D03*
%TD*%
D14*
%TO.N,/5V*%
%TO.C,J5*%
X179070000Y-68580000D03*
D15*
%TO.N,Earth*%
X176530000Y-68580000D03*
%TD*%
D14*
%TO.N,/ESC1*%
%TO.C,J6*%
X189230000Y-68580000D03*
%TO.N,/5V*%
X186690000Y-68580000D03*
D15*
%TO.N,Earth*%
X184150000Y-68580000D03*
%TD*%
D14*
%TO.N,Net-(J7-Pad2)*%
%TO.C,J7*%
X176530000Y-134620000D03*
D15*
%TO.N,Earth*%
X179070000Y-134620000D03*
%TD*%
D14*
%TO.N,/ESC2*%
%TO.C,J8*%
X184150000Y-134620000D03*
%TO.N,Net-(J7-Pad2)*%
X186690000Y-134620000D03*
D15*
%TO.N,Earth*%
X189230000Y-134620000D03*
%TD*%
D14*
%TO.N,/SDA*%
%TO.C,J9*%
X118110000Y-105410000D03*
%TO.N,/SCL*%
X118110000Y-107950000D03*
%TO.N,/5V*%
X118110000Y-110490000D03*
D15*
%TO.N,Earth*%
X118110000Y-113030000D03*
%TD*%
D14*
%TO.N,/PPM*%
%TO.C,J10*%
X118110000Y-120650000D03*
%TO.N,/5V*%
X118110000Y-123190000D03*
D15*
%TO.N,Earth*%
X118110000Y-125730000D03*
%TD*%
%TO.N,Net-(J11-Pad1)*%
%TO.C,J11*%
X143510000Y-68580000D03*
%TD*%
D16*
%TO.N,Net-(D1-Pad2)*%
%TO.C,R1*%
X148590000Y-137160000D03*
D17*
%TO.N,/RED_LED*%
X148590000Y-124460000D03*
%TD*%
D16*
%TO.N,Net-(D2-Pad2)*%
%TO.C,R2*%
X142240000Y-137160000D03*
D17*
%TO.N,/GREEN_LED*%
X142240000Y-124460000D03*
%TD*%
D16*
%TO.N,Net-(D3-Pad2)*%
%TO.C,R3*%
X154940000Y-137160000D03*
D17*
%TO.N,/YELLOW_LED*%
X154940000Y-124460000D03*
%TD*%
D16*
%TO.N,Net-(D4-Pad2)*%
%TO.C,R4*%
X161290000Y-137160000D03*
D17*
%TO.N,/BLUE_LED*%
X161290000Y-124460000D03*
%TD*%
D16*
%TO.N,Earth*%
%TO.C,R5*%
X149860000Y-73660000D03*
D17*
%TO.N,/VOLTAGE*%
X162560000Y-73660000D03*
%TD*%
D16*
%TO.N,Net-(J11-Pad1)*%
%TO.C,R6*%
X149860000Y-68580000D03*
D17*
%TO.N,/VOLTAGE*%
X162560000Y-68580000D03*
%TD*%
D18*
%TO.N,/3V3*%
%TO.C,U1*%
X173990000Y-125730000D03*
%TO.N,Net-(U1-Pad21)*%
X189230000Y-125730000D03*
%TO.N,Earth*%
X173990000Y-123190000D03*
%TO.N,Net-(U1-Pad22)*%
X189230000Y-123190000D03*
%TO.N,/5V*%
X173990000Y-120650000D03*
%TO.N,Net-(U1-Pad23)*%
X189230000Y-120650000D03*
%TO.N,/ESC4*%
X173990000Y-118110000D03*
%TO.N,Net-(U1-Pad24)*%
X189230000Y-118110000D03*
%TO.N,/ESC3*%
X173990000Y-115570000D03*
%TO.N,/PPM*%
X189230000Y-115570000D03*
%TO.N,/ESC2*%
X173990000Y-113030000D03*
%TO.N,Net-(U1-Pad26)*%
X189230000Y-113030000D03*
%TO.N,/ESC1*%
X173990000Y-110490000D03*
%TO.N,/RX2*%
X189230000Y-110490000D03*
%TO.N,Net-(U1-Pad13)*%
X173990000Y-107950000D03*
%TO.N,/TX2*%
X189230000Y-107950000D03*
%TO.N,Net-(U1-Pad12)*%
X173990000Y-105410000D03*
%TO.N,/VOLTAGE*%
X189230000Y-105410000D03*
%TO.N,/BLUE_LED*%
X173990000Y-102870000D03*
%TO.N,Net-(U1-Pad30)*%
X189230000Y-102870000D03*
%TO.N,/YELLOW_LED*%
X173990000Y-100330000D03*
%TO.N,Net-(U1-Pad31)*%
X189230000Y-100330000D03*
%TO.N,/RED_LED*%
X173990000Y-97790000D03*
%TO.N,Net-(U1-Pad32)*%
X189230000Y-97790000D03*
%TO.N,/GREEN_LED*%
X173990000Y-95250000D03*
%TO.N,Net-(U1-Pad33)*%
X189230000Y-95250000D03*
%TO.N,/TX*%
X173990000Y-92710000D03*
%TO.N,Net-(U1-Pad34)*%
X189230000Y-92710000D03*
%TO.N,/RX*%
X173990000Y-90170000D03*
%TO.N,/SCL*%
X189230000Y-90170000D03*
%TO.N,Net-(U1-Pad5)*%
X173990000Y-87630000D03*
%TO.N,/SDA*%
X189230000Y-87630000D03*
%TO.N,Net-(U1-Pad4)*%
X173990000Y-85090000D03*
%TO.N,Net-(U1-Pad37)*%
X189230000Y-85090000D03*
%TO.N,Net-(U1-Pad3)*%
X173990000Y-82550000D03*
%TO.N,Net-(U1-Pad38)*%
X189230000Y-82550000D03*
%TO.N,Net-(U1-Pad2)*%
X173990000Y-80010000D03*
%TO.N,Earth*%
X189230000Y-80010000D03*
D15*
%TO.N,Net-(U1-Pad1)*%
X173990000Y-77470000D03*
D18*
%TO.N,Earth*%
X189230000Y-77470000D03*
%TD*%
D11*
%TO.N,/5V*%
%TO.C,U2*%
X160020000Y-82550000D03*
D10*
%TO.N,Earth*%
X157480000Y-82550000D03*
D11*
%TO.N,/SCL*%
X154940000Y-82550000D03*
%TO.N,Net-(U2-Pad8)*%
X142240000Y-82550000D03*
%TO.N,Net-(U2-Pad7)*%
X144780000Y-82550000D03*
%TO.N,Net-(U2-Pad6)*%
X147320000Y-82550000D03*
%TO.N,Net-(U2-Pad5)*%
X149860000Y-82550000D03*
%TO.N,/SDA*%
X152400000Y-82550000D03*
%TD*%
D14*
%TO.N,Net-(U3-Pad6)*%
%TO.C,U3*%
X118110000Y-93980000D03*
%TO.N,/RX*%
X118110000Y-91440000D03*
%TO.N,/TX*%
X118110000Y-88900000D03*
%TO.N,/5V*%
X118110000Y-86360000D03*
%TO.N,Net-(U3-Pad2)*%
X118110000Y-83820000D03*
D15*
%TO.N,Earth*%
X118110000Y-81280000D03*
%TD*%
D11*
%TO.N,/SCL*%
%TO.C,U4*%
X129667000Y-97282000D03*
%TO.N,/SDA*%
X132207000Y-97282000D03*
%TO.N,/5V*%
X127127000Y-94742000D03*
%TO.N,/RX2*%
X129667000Y-94742000D03*
%TO.N,/TX2*%
X132207000Y-94742000D03*
D10*
%TO.N,Earth*%
X134747000Y-94742000D03*
%TD*%
D11*
%TO.N,Net-(U5-Pad6)*%
%TO.C,U5*%
X129794000Y-85852000D03*
%TO.N,Net-(U5-Pad5)*%
X132334000Y-85852000D03*
%TO.N,/5V*%
X127254000Y-83312000D03*
%TO.N,/RX*%
X129794000Y-83312000D03*
%TO.N,/TX*%
X132334000Y-83312000D03*
D10*
%TO.N,Earth*%
X134874000Y-83312000D03*
%TD*%
D11*
%TO.N,/5V*%
%TO.C,U7*%
X160020000Y-102870000D03*
D10*
%TO.N,Earth*%
X157480000Y-102870000D03*
D11*
%TO.N,/SCL*%
X154940000Y-102870000D03*
%TO.N,Net-(U7-Pad8)*%
X142240000Y-102870000D03*
%TO.N,/3V3*%
X144780000Y-102870000D03*
%TO.N,Net-(U7-Pad6)*%
X147320000Y-102870000D03*
%TO.N,Net-(U7-Pad5)*%
X149860000Y-102870000D03*
%TO.N,/SDA*%
X152400000Y-102870000D03*
%TD*%
D19*
%TO.N,Net-(J1-Pad2)*%
X122014999Y-135795001D02*
X123190000Y-134620000D01*
X116745001Y-135795001D02*
X122014999Y-135795001D01*
X115570000Y-134620000D02*
X116745001Y-135795001D01*
%TO.N,Net-(J2-Pad2)*%
X118015001Y-67404999D02*
X116840000Y-68580000D01*
X125824999Y-67404999D02*
X118015001Y-67404999D01*
X127000000Y-68580000D02*
X125824999Y-67404999D01*
%TO.N,/3V3*%
X167640000Y-125730000D02*
X144780000Y-102870000D01*
X173990000Y-125730000D02*
X167640000Y-125730000D01*
X141732000Y-105918000D02*
X134747000Y-105918000D01*
X144780000Y-102870000D02*
X141732000Y-105918000D01*
%TO.N,Net-(J7-Pad2)*%
X185514999Y-135795001D02*
X186690000Y-134620000D01*
X177705001Y-135795001D02*
X185514999Y-135795001D01*
X176530000Y-134620000D02*
X177705001Y-135795001D01*
%TD*%
D20*
%TO.N,/5V*%
X194920000Y-61233381D02*
X194920001Y-141966618D01*
X191496620Y-145390000D01*
X110763381Y-145390000D01*
X107983381Y-142610000D01*
X140701928Y-142610000D01*
X140701928Y-144410000D01*
X140714188Y-144534482D01*
X140750498Y-144654180D01*
X140809463Y-144764494D01*
X140888815Y-144861185D01*
X140985506Y-144940537D01*
X141095820Y-144999502D01*
X141215518Y-145035812D01*
X141340000Y-145048072D01*
X143140000Y-145048072D01*
X143264482Y-145035812D01*
X143384180Y-144999502D01*
X143494494Y-144940537D01*
X143591185Y-144861185D01*
X143670537Y-144764494D01*
X143729502Y-144654180D01*
X143765812Y-144534482D01*
X143778072Y-144410000D01*
X143778072Y-142610000D01*
X147051928Y-142610000D01*
X147051928Y-144410000D01*
X147064188Y-144534482D01*
X147100498Y-144654180D01*
X147159463Y-144764494D01*
X147238815Y-144861185D01*
X147335506Y-144940537D01*
X147445820Y-144999502D01*
X147565518Y-145035812D01*
X147690000Y-145048072D01*
X149490000Y-145048072D01*
X149614482Y-145035812D01*
X149734180Y-144999502D01*
X149844494Y-144940537D01*
X149941185Y-144861185D01*
X150020537Y-144764494D01*
X150079502Y-144654180D01*
X150115812Y-144534482D01*
X150128072Y-144410000D01*
X150128072Y-142610000D01*
X153401928Y-142610000D01*
X153401928Y-144410000D01*
X153414188Y-144534482D01*
X153450498Y-144654180D01*
X153509463Y-144764494D01*
X153588815Y-144861185D01*
X153685506Y-144940537D01*
X153795820Y-144999502D01*
X153915518Y-145035812D01*
X154040000Y-145048072D01*
X155840000Y-145048072D01*
X155964482Y-145035812D01*
X156084180Y-144999502D01*
X156194494Y-144940537D01*
X156291185Y-144861185D01*
X156370537Y-144764494D01*
X156429502Y-144654180D01*
X156465812Y-144534482D01*
X156478072Y-144410000D01*
X156478072Y-142610000D01*
X159751928Y-142610000D01*
X159751928Y-144410000D01*
X159764188Y-144534482D01*
X159800498Y-144654180D01*
X159859463Y-144764494D01*
X159938815Y-144861185D01*
X160035506Y-144940537D01*
X160145820Y-144999502D01*
X160265518Y-145035812D01*
X160390000Y-145048072D01*
X162190000Y-145048072D01*
X162314482Y-145035812D01*
X162434180Y-144999502D01*
X162544494Y-144940537D01*
X162641185Y-144861185D01*
X162720537Y-144764494D01*
X162779502Y-144654180D01*
X162815812Y-144534482D01*
X162828072Y-144410000D01*
X162828072Y-142610000D01*
X162815812Y-142485518D01*
X162779502Y-142365820D01*
X162720537Y-142255506D01*
X162641185Y-142158815D01*
X162544494Y-142079463D01*
X162434180Y-142020498D01*
X162415873Y-142014944D01*
X162482312Y-141948505D01*
X162650299Y-141697095D01*
X162766011Y-141417743D01*
X162825000Y-141121184D01*
X162825000Y-140818816D01*
X162766011Y-140522257D01*
X162650299Y-140242905D01*
X162482312Y-139991495D01*
X162268505Y-139777688D01*
X162017095Y-139609701D01*
X161737743Y-139493989D01*
X161441184Y-139435000D01*
X161138816Y-139435000D01*
X160842257Y-139493989D01*
X160562905Y-139609701D01*
X160311495Y-139777688D01*
X160097688Y-139991495D01*
X159929701Y-140242905D01*
X159813989Y-140522257D01*
X159755000Y-140818816D01*
X159755000Y-141121184D01*
X159813989Y-141417743D01*
X159929701Y-141697095D01*
X160097688Y-141948505D01*
X160164127Y-142014944D01*
X160145820Y-142020498D01*
X160035506Y-142079463D01*
X159938815Y-142158815D01*
X159859463Y-142255506D01*
X159800498Y-142365820D01*
X159764188Y-142485518D01*
X159751928Y-142610000D01*
X156478072Y-142610000D01*
X156465812Y-142485518D01*
X156429502Y-142365820D01*
X156370537Y-142255506D01*
X156291185Y-142158815D01*
X156194494Y-142079463D01*
X156084180Y-142020498D01*
X156065873Y-142014944D01*
X156132312Y-141948505D01*
X156300299Y-141697095D01*
X156416011Y-141417743D01*
X156475000Y-141121184D01*
X156475000Y-140818816D01*
X156416011Y-140522257D01*
X156300299Y-140242905D01*
X156132312Y-139991495D01*
X155918505Y-139777688D01*
X155667095Y-139609701D01*
X155387743Y-139493989D01*
X155091184Y-139435000D01*
X154788816Y-139435000D01*
X154492257Y-139493989D01*
X154212905Y-139609701D01*
X153961495Y-139777688D01*
X153747688Y-139991495D01*
X153579701Y-140242905D01*
X153463989Y-140522257D01*
X153405000Y-140818816D01*
X153405000Y-141121184D01*
X153463989Y-141417743D01*
X153579701Y-141697095D01*
X153747688Y-141948505D01*
X153814127Y-142014944D01*
X153795820Y-142020498D01*
X153685506Y-142079463D01*
X153588815Y-142158815D01*
X153509463Y-142255506D01*
X153450498Y-142365820D01*
X153414188Y-142485518D01*
X153401928Y-142610000D01*
X150128072Y-142610000D01*
X150115812Y-142485518D01*
X150079502Y-142365820D01*
X150020537Y-142255506D01*
X149941185Y-142158815D01*
X149844494Y-142079463D01*
X149734180Y-142020498D01*
X149715873Y-142014944D01*
X149782312Y-141948505D01*
X149950299Y-141697095D01*
X150066011Y-141417743D01*
X150125000Y-141121184D01*
X150125000Y-140818816D01*
X150066011Y-140522257D01*
X149950299Y-140242905D01*
X149782312Y-139991495D01*
X149568505Y-139777688D01*
X149317095Y-139609701D01*
X149037743Y-139493989D01*
X148741184Y-139435000D01*
X148438816Y-139435000D01*
X148142257Y-139493989D01*
X147862905Y-139609701D01*
X147611495Y-139777688D01*
X147397688Y-139991495D01*
X147229701Y-140242905D01*
X147113989Y-140522257D01*
X147055000Y-140818816D01*
X147055000Y-141121184D01*
X147113989Y-141417743D01*
X147229701Y-141697095D01*
X147397688Y-141948505D01*
X147464127Y-142014944D01*
X147445820Y-142020498D01*
X147335506Y-142079463D01*
X147238815Y-142158815D01*
X147159463Y-142255506D01*
X147100498Y-142365820D01*
X147064188Y-142485518D01*
X147051928Y-142610000D01*
X143778072Y-142610000D01*
X143765812Y-142485518D01*
X143729502Y-142365820D01*
X143670537Y-142255506D01*
X143591185Y-142158815D01*
X143494494Y-142079463D01*
X143384180Y-142020498D01*
X143365873Y-142014944D01*
X143432312Y-141948505D01*
X143600299Y-141697095D01*
X143716011Y-141417743D01*
X143775000Y-141121184D01*
X143775000Y-140818816D01*
X143716011Y-140522257D01*
X143600299Y-140242905D01*
X143432312Y-139991495D01*
X143218505Y-139777688D01*
X142967095Y-139609701D01*
X142687743Y-139493989D01*
X142391184Y-139435000D01*
X142088816Y-139435000D01*
X141792257Y-139493989D01*
X141512905Y-139609701D01*
X141261495Y-139777688D01*
X141047688Y-139991495D01*
X140879701Y-140242905D01*
X140763989Y-140522257D01*
X140705000Y-140818816D01*
X140705000Y-141121184D01*
X140763989Y-141417743D01*
X140879701Y-141697095D01*
X141047688Y-141948505D01*
X141114127Y-142014944D01*
X141095820Y-142020498D01*
X140985506Y-142079463D01*
X140888815Y-142158815D01*
X140809463Y-142255506D01*
X140750498Y-142365820D01*
X140714188Y-142485518D01*
X140701928Y-142610000D01*
X107983381Y-142610000D01*
X107340000Y-141966620D01*
X107340000Y-136979268D01*
X140405000Y-136979268D01*
X140405000Y-137340732D01*
X140475518Y-137695250D01*
X140613844Y-138029199D01*
X140814662Y-138329744D01*
X141070256Y-138585338D01*
X141370801Y-138786156D01*
X141704750Y-138924482D01*
X142059268Y-138995000D01*
X142420732Y-138995000D01*
X142775250Y-138924482D01*
X143109199Y-138786156D01*
X143409744Y-138585338D01*
X143665338Y-138329744D01*
X143866156Y-138029199D01*
X144004482Y-137695250D01*
X144075000Y-137340732D01*
X144075000Y-136979268D01*
X146755000Y-136979268D01*
X146755000Y-137340732D01*
X146825518Y-137695250D01*
X146963844Y-138029199D01*
X147164662Y-138329744D01*
X147420256Y-138585338D01*
X147720801Y-138786156D01*
X148054750Y-138924482D01*
X148409268Y-138995000D01*
X148770732Y-138995000D01*
X149125250Y-138924482D01*
X149459199Y-138786156D01*
X149759744Y-138585338D01*
X150015338Y-138329744D01*
X150216156Y-138029199D01*
X150354482Y-137695250D01*
X150425000Y-137340732D01*
X150425000Y-136979268D01*
X153105000Y-136979268D01*
X153105000Y-137340732D01*
X153175518Y-137695250D01*
X153313844Y-138029199D01*
X153514662Y-138329744D01*
X153770256Y-138585338D01*
X154070801Y-138786156D01*
X154404750Y-138924482D01*
X154759268Y-138995000D01*
X155120732Y-138995000D01*
X155475250Y-138924482D01*
X155809199Y-138786156D01*
X156109744Y-138585338D01*
X156365338Y-138329744D01*
X156566156Y-138029199D01*
X156704482Y-137695250D01*
X156775000Y-137340732D01*
X156775000Y-136979268D01*
X159455000Y-136979268D01*
X159455000Y-137340732D01*
X159525518Y-137695250D01*
X159663844Y-138029199D01*
X159864662Y-138329744D01*
X160120256Y-138585338D01*
X160420801Y-138786156D01*
X160754750Y-138924482D01*
X161109268Y-138995000D01*
X161470732Y-138995000D01*
X161825250Y-138924482D01*
X162159199Y-138786156D01*
X162459744Y-138585338D01*
X162715338Y-138329744D01*
X162916156Y-138029199D01*
X163054482Y-137695250D01*
X163125000Y-137340732D01*
X163125000Y-136979268D01*
X163054482Y-136624750D01*
X162916156Y-136290801D01*
X162715338Y-135990256D01*
X162459744Y-135734662D01*
X162159199Y-135533844D01*
X161825250Y-135395518D01*
X161470732Y-135325000D01*
X161109268Y-135325000D01*
X160754750Y-135395518D01*
X160420801Y-135533844D01*
X160120256Y-135734662D01*
X159864662Y-135990256D01*
X159663844Y-136290801D01*
X159525518Y-136624750D01*
X159455000Y-136979268D01*
X156775000Y-136979268D01*
X156704482Y-136624750D01*
X156566156Y-136290801D01*
X156365338Y-135990256D01*
X156109744Y-135734662D01*
X155809199Y-135533844D01*
X155475250Y-135395518D01*
X155120732Y-135325000D01*
X154759268Y-135325000D01*
X154404750Y-135395518D01*
X154070801Y-135533844D01*
X153770256Y-135734662D01*
X153514662Y-135990256D01*
X153313844Y-136290801D01*
X153175518Y-136624750D01*
X153105000Y-136979268D01*
X150425000Y-136979268D01*
X150354482Y-136624750D01*
X150216156Y-136290801D01*
X150015338Y-135990256D01*
X149759744Y-135734662D01*
X149459199Y-135533844D01*
X149125250Y-135395518D01*
X148770732Y-135325000D01*
X148409268Y-135325000D01*
X148054750Y-135395518D01*
X147720801Y-135533844D01*
X147420256Y-135734662D01*
X147164662Y-135990256D01*
X146963844Y-136290801D01*
X146825518Y-136624750D01*
X146755000Y-136979268D01*
X144075000Y-136979268D01*
X144004482Y-136624750D01*
X143866156Y-136290801D01*
X143665338Y-135990256D01*
X143409744Y-135734662D01*
X143109199Y-135533844D01*
X142775250Y-135395518D01*
X142420732Y-135325000D01*
X142059268Y-135325000D01*
X141704750Y-135395518D01*
X141370801Y-135533844D01*
X141070256Y-135734662D01*
X140814662Y-135990256D01*
X140613844Y-136290801D01*
X140475518Y-136624750D01*
X140405000Y-136979268D01*
X107340000Y-136979268D01*
X107340000Y-134473740D01*
X111545000Y-134473740D01*
X111545000Y-134766260D01*
X111602068Y-135053158D01*
X111714010Y-135323411D01*
X111876525Y-135566632D01*
X112083368Y-135773475D01*
X112326589Y-135935990D01*
X112596842Y-136047932D01*
X112883740Y-136105000D01*
X113176260Y-136105000D01*
X113463158Y-136047932D01*
X113733411Y-135935990D01*
X113976632Y-135773475D01*
X114183475Y-135566632D01*
X114300000Y-135392240D01*
X114416525Y-135566632D01*
X114623368Y-135773475D01*
X114866589Y-135935990D01*
X115136842Y-136047932D01*
X115423740Y-136105000D01*
X115716260Y-136105000D01*
X115936408Y-136061210D01*
X116181202Y-136306004D01*
X116205000Y-136335002D01*
X116320725Y-136429975D01*
X116452754Y-136500547D01*
X116596015Y-136544004D01*
X116707668Y-136555001D01*
X116707677Y-136555001D01*
X116745000Y-136558677D01*
X116782323Y-136555001D01*
X121977677Y-136555001D01*
X122014999Y-136558677D01*
X122052321Y-136555001D01*
X122052332Y-136555001D01*
X122163985Y-136544004D01*
X122307246Y-136500547D01*
X122439275Y-136429975D01*
X122555000Y-136335002D01*
X122578803Y-136305998D01*
X122823592Y-136061209D01*
X123043740Y-136105000D01*
X123336260Y-136105000D01*
X123623158Y-136047932D01*
X123893411Y-135935990D01*
X124136632Y-135773475D01*
X124268487Y-135641620D01*
X124290498Y-135714180D01*
X124349463Y-135824494D01*
X124428815Y-135921185D01*
X124525506Y-136000537D01*
X124635820Y-136059502D01*
X124755518Y-136095812D01*
X124880000Y-136108072D01*
X126580000Y-136108072D01*
X126704482Y-136095812D01*
X126824180Y-136059502D01*
X126934494Y-136000537D01*
X127031185Y-135921185D01*
X127110537Y-135824494D01*
X127169502Y-135714180D01*
X127205812Y-135594482D01*
X127218072Y-135470000D01*
X127218072Y-133770000D01*
X127205812Y-133645518D01*
X127169502Y-133525820D01*
X127110537Y-133415506D01*
X127031185Y-133318815D01*
X126934494Y-133239463D01*
X126824180Y-133180498D01*
X126704482Y-133144188D01*
X126580000Y-133131928D01*
X124880000Y-133131928D01*
X124755518Y-133144188D01*
X124635820Y-133180498D01*
X124525506Y-133239463D01*
X124428815Y-133318815D01*
X124349463Y-133415506D01*
X124290498Y-133525820D01*
X124268487Y-133598380D01*
X124136632Y-133466525D01*
X123893411Y-133304010D01*
X123623158Y-133192068D01*
X123336260Y-133135000D01*
X123043740Y-133135000D01*
X122756842Y-133192068D01*
X122486589Y-133304010D01*
X122243368Y-133466525D01*
X122036525Y-133673368D01*
X121874010Y-133916589D01*
X121762068Y-134186842D01*
X121705000Y-134473740D01*
X121705000Y-134766260D01*
X121748791Y-134986408D01*
X121700198Y-135035001D01*
X119598072Y-135035001D01*
X119598072Y-133770000D01*
X119585812Y-133645518D01*
X119549502Y-133525820D01*
X119490537Y-133415506D01*
X119411185Y-133318815D01*
X119314494Y-133239463D01*
X119204180Y-133180498D01*
X119084482Y-133144188D01*
X118960000Y-133131928D01*
X117260000Y-133131928D01*
X117135518Y-133144188D01*
X117015820Y-133180498D01*
X116905506Y-133239463D01*
X116808815Y-133318815D01*
X116729463Y-133415506D01*
X116670498Y-133525820D01*
X116648487Y-133598380D01*
X116516632Y-133466525D01*
X116273411Y-133304010D01*
X116003158Y-133192068D01*
X115716260Y-133135000D01*
X115423740Y-133135000D01*
X115136842Y-133192068D01*
X114866589Y-133304010D01*
X114623368Y-133466525D01*
X114416525Y-133673368D01*
X114300000Y-133847760D01*
X114183475Y-133673368D01*
X113976632Y-133466525D01*
X113733411Y-133304010D01*
X113463158Y-133192068D01*
X113176260Y-133135000D01*
X112883740Y-133135000D01*
X112596842Y-133192068D01*
X112326589Y-133304010D01*
X112083368Y-133466525D01*
X111876525Y-133673368D01*
X111714010Y-133916589D01*
X111602068Y-134186842D01*
X111545000Y-134473740D01*
X107340000Y-134473740D01*
X107340000Y-132617890D01*
X129125010Y-132617890D01*
X129125010Y-133066110D01*
X129212453Y-133505718D01*
X129383980Y-133919819D01*
X129632997Y-134292500D01*
X129949937Y-134609440D01*
X130322618Y-134858457D01*
X130736719Y-135029984D01*
X131176327Y-135117427D01*
X131624547Y-135117427D01*
X132064155Y-135029984D01*
X132478256Y-134858457D01*
X132850937Y-134609440D01*
X133167877Y-134292500D01*
X133416894Y-133919819D01*
X133588421Y-133505718D01*
X133675864Y-133066110D01*
X133675864Y-132617890D01*
X169257010Y-132617890D01*
X169257010Y-133066110D01*
X169344453Y-133505718D01*
X169515980Y-133919819D01*
X169764997Y-134292500D01*
X170081937Y-134609440D01*
X170454618Y-134858457D01*
X170868719Y-135029984D01*
X171308327Y-135117427D01*
X171756547Y-135117427D01*
X172196155Y-135029984D01*
X172610256Y-134858457D01*
X172982937Y-134609440D01*
X173118637Y-134473740D01*
X175045000Y-134473740D01*
X175045000Y-134766260D01*
X175102068Y-135053158D01*
X175214010Y-135323411D01*
X175376525Y-135566632D01*
X175583368Y-135773475D01*
X175826589Y-135935990D01*
X176096842Y-136047932D01*
X176383740Y-136105000D01*
X176676260Y-136105000D01*
X176896408Y-136061210D01*
X177141202Y-136306004D01*
X177165000Y-136335002D01*
X177280725Y-136429975D01*
X177412754Y-136500547D01*
X177556015Y-136544004D01*
X177667668Y-136555001D01*
X177667677Y-136555001D01*
X177705000Y-136558677D01*
X177742323Y-136555001D01*
X185477677Y-136555001D01*
X185514999Y-136558677D01*
X185552321Y-136555001D01*
X185552332Y-136555001D01*
X185663985Y-136544004D01*
X185807246Y-136500547D01*
X185939275Y-136429975D01*
X186055000Y-136335002D01*
X186078803Y-136305998D01*
X186323592Y-136061209D01*
X186543740Y-136105000D01*
X186836260Y-136105000D01*
X187123158Y-136047932D01*
X187393411Y-135935990D01*
X187636632Y-135773475D01*
X187768487Y-135641620D01*
X187790498Y-135714180D01*
X187849463Y-135824494D01*
X187928815Y-135921185D01*
X188025506Y-136000537D01*
X188135820Y-136059502D01*
X188255518Y-136095812D01*
X188380000Y-136108072D01*
X190080000Y-136108072D01*
X190204482Y-136095812D01*
X190324180Y-136059502D01*
X190434494Y-136000537D01*
X190531185Y-135921185D01*
X190610537Y-135824494D01*
X190669502Y-135714180D01*
X190705812Y-135594482D01*
X190718072Y-135470000D01*
X190718072Y-133770000D01*
X190705812Y-133645518D01*
X190669502Y-133525820D01*
X190610537Y-133415506D01*
X190531185Y-133318815D01*
X190434494Y-133239463D01*
X190324180Y-133180498D01*
X190204482Y-133144188D01*
X190080000Y-133131928D01*
X188380000Y-133131928D01*
X188255518Y-133144188D01*
X188135820Y-133180498D01*
X188025506Y-133239463D01*
X187928815Y-133318815D01*
X187849463Y-133415506D01*
X187790498Y-133525820D01*
X187768487Y-133598380D01*
X187636632Y-133466525D01*
X187393411Y-133304010D01*
X187123158Y-133192068D01*
X186836260Y-133135000D01*
X186543740Y-133135000D01*
X186256842Y-133192068D01*
X185986589Y-133304010D01*
X185743368Y-133466525D01*
X185536525Y-133673368D01*
X185420000Y-133847760D01*
X185303475Y-133673368D01*
X185096632Y-133466525D01*
X184853411Y-133304010D01*
X184583158Y-133192068D01*
X184296260Y-133135000D01*
X184003740Y-133135000D01*
X183716842Y-133192068D01*
X183446589Y-133304010D01*
X183203368Y-133466525D01*
X182996525Y-133673368D01*
X182834010Y-133916589D01*
X182722068Y-134186842D01*
X182665000Y-134473740D01*
X182665000Y-134766260D01*
X182718456Y-135035001D01*
X180558072Y-135035001D01*
X180558072Y-133770000D01*
X180545812Y-133645518D01*
X180509502Y-133525820D01*
X180450537Y-133415506D01*
X180371185Y-133318815D01*
X180274494Y-133239463D01*
X180164180Y-133180498D01*
X180044482Y-133144188D01*
X179920000Y-133131928D01*
X178220000Y-133131928D01*
X178095518Y-133144188D01*
X177975820Y-133180498D01*
X177865506Y-133239463D01*
X177768815Y-133318815D01*
X177689463Y-133415506D01*
X177630498Y-133525820D01*
X177608487Y-133598380D01*
X177476632Y-133466525D01*
X177233411Y-133304010D01*
X176963158Y-133192068D01*
X176676260Y-133135000D01*
X176383740Y-133135000D01*
X176096842Y-133192068D01*
X175826589Y-133304010D01*
X175583368Y-133466525D01*
X175376525Y-133673368D01*
X175214010Y-133916589D01*
X175102068Y-134186842D01*
X175045000Y-134473740D01*
X173118637Y-134473740D01*
X173299877Y-134292500D01*
X173548894Y-133919819D01*
X173720421Y-133505718D01*
X173807864Y-133066110D01*
X173807864Y-132617890D01*
X173720421Y-132178282D01*
X173548894Y-131764181D01*
X173299877Y-131391500D01*
X172982937Y-131074560D01*
X172610256Y-130825543D01*
X172196155Y-130654016D01*
X171756547Y-130566573D01*
X171308327Y-130566573D01*
X170868719Y-130654016D01*
X170454618Y-130825543D01*
X170081937Y-131074560D01*
X169764997Y-131391500D01*
X169515980Y-131764181D01*
X169344453Y-132178282D01*
X169257010Y-132617890D01*
X133675864Y-132617890D01*
X133588421Y-132178282D01*
X133416894Y-131764181D01*
X133167877Y-131391500D01*
X132850937Y-131074560D01*
X132478256Y-130825543D01*
X132064155Y-130654016D01*
X131624547Y-130566573D01*
X131176327Y-130566573D01*
X130736719Y-130654016D01*
X130322618Y-130825543D01*
X129949937Y-131074560D01*
X129632997Y-131391500D01*
X129383980Y-131764181D01*
X129212453Y-132178282D01*
X129125010Y-132617890D01*
X107340000Y-132617890D01*
X107340000Y-124880000D01*
X116621928Y-124880000D01*
X116621928Y-126580000D01*
X116634188Y-126704482D01*
X116670498Y-126824180D01*
X116729463Y-126934494D01*
X116808815Y-127031185D01*
X116905506Y-127110537D01*
X117015820Y-127169502D01*
X117135518Y-127205812D01*
X117260000Y-127218072D01*
X118960000Y-127218072D01*
X119084482Y-127205812D01*
X119204180Y-127169502D01*
X119314494Y-127110537D01*
X119411185Y-127031185D01*
X119490537Y-126934494D01*
X119549502Y-126824180D01*
X119585812Y-126704482D01*
X119598072Y-126580000D01*
X119598072Y-124880000D01*
X119585812Y-124755518D01*
X119549502Y-124635820D01*
X119490537Y-124525506D01*
X119411185Y-124428815D01*
X119314494Y-124349463D01*
X119204180Y-124290498D01*
X119167161Y-124279268D01*
X140405000Y-124279268D01*
X140405000Y-124640732D01*
X140475518Y-124995250D01*
X140613844Y-125329199D01*
X140814662Y-125629744D01*
X141070256Y-125885338D01*
X141370801Y-126086156D01*
X141704750Y-126224482D01*
X142059268Y-126295000D01*
X142420732Y-126295000D01*
X142775250Y-126224482D01*
X143109199Y-126086156D01*
X143409744Y-125885338D01*
X143665338Y-125629744D01*
X143866156Y-125329199D01*
X144004482Y-124995250D01*
X144075000Y-124640732D01*
X144075000Y-124279268D01*
X146755000Y-124279268D01*
X146755000Y-124640732D01*
X146825518Y-124995250D01*
X146963844Y-125329199D01*
X147164662Y-125629744D01*
X147420256Y-125885338D01*
X147720801Y-126086156D01*
X148054750Y-126224482D01*
X148409268Y-126295000D01*
X148770732Y-126295000D01*
X149125250Y-126224482D01*
X149459199Y-126086156D01*
X149759744Y-125885338D01*
X150015338Y-125629744D01*
X150216156Y-125329199D01*
X150354482Y-124995250D01*
X150425000Y-124640732D01*
X150425000Y-124279268D01*
X153105000Y-124279268D01*
X153105000Y-124640732D01*
X153175518Y-124995250D01*
X153313844Y-125329199D01*
X153514662Y-125629744D01*
X153770256Y-125885338D01*
X154070801Y-126086156D01*
X154404750Y-126224482D01*
X154759268Y-126295000D01*
X155120732Y-126295000D01*
X155475250Y-126224482D01*
X155809199Y-126086156D01*
X156109744Y-125885338D01*
X156365338Y-125629744D01*
X156566156Y-125329199D01*
X156704482Y-124995250D01*
X156775000Y-124640732D01*
X156775000Y-124279268D01*
X159455000Y-124279268D01*
X159455000Y-124640732D01*
X159525518Y-124995250D01*
X159663844Y-125329199D01*
X159864662Y-125629744D01*
X160120256Y-125885338D01*
X160420801Y-126086156D01*
X160754750Y-126224482D01*
X161109268Y-126295000D01*
X161470732Y-126295000D01*
X161825250Y-126224482D01*
X162159199Y-126086156D01*
X162459744Y-125885338D01*
X162715338Y-125629744D01*
X162916156Y-125329199D01*
X163054482Y-124995250D01*
X163125000Y-124640732D01*
X163125000Y-124279268D01*
X163054482Y-123924750D01*
X162916156Y-123590801D01*
X162715338Y-123290256D01*
X162459744Y-123034662D01*
X162159199Y-122833844D01*
X161825250Y-122695518D01*
X161470732Y-122625000D01*
X161109268Y-122625000D01*
X160754750Y-122695518D01*
X160420801Y-122833844D01*
X160120256Y-123034662D01*
X159864662Y-123290256D01*
X159663844Y-123590801D01*
X159525518Y-123924750D01*
X159455000Y-124279268D01*
X156775000Y-124279268D01*
X156704482Y-123924750D01*
X156566156Y-123590801D01*
X156365338Y-123290256D01*
X156109744Y-123034662D01*
X155809199Y-122833844D01*
X155475250Y-122695518D01*
X155120732Y-122625000D01*
X154759268Y-122625000D01*
X154404750Y-122695518D01*
X154070801Y-122833844D01*
X153770256Y-123034662D01*
X153514662Y-123290256D01*
X153313844Y-123590801D01*
X153175518Y-123924750D01*
X153105000Y-124279268D01*
X150425000Y-124279268D01*
X150354482Y-123924750D01*
X150216156Y-123590801D01*
X150015338Y-123290256D01*
X149759744Y-123034662D01*
X149459199Y-122833844D01*
X149125250Y-122695518D01*
X148770732Y-122625000D01*
X148409268Y-122625000D01*
X148054750Y-122695518D01*
X147720801Y-122833844D01*
X147420256Y-123034662D01*
X147164662Y-123290256D01*
X146963844Y-123590801D01*
X146825518Y-123924750D01*
X146755000Y-124279268D01*
X144075000Y-124279268D01*
X144004482Y-123924750D01*
X143866156Y-123590801D01*
X143665338Y-123290256D01*
X143409744Y-123034662D01*
X143109199Y-122833844D01*
X142775250Y-122695518D01*
X142420732Y-122625000D01*
X142059268Y-122625000D01*
X141704750Y-122695518D01*
X141370801Y-122833844D01*
X141070256Y-123034662D01*
X140814662Y-123290256D01*
X140613844Y-123590801D01*
X140475518Y-123924750D01*
X140405000Y-124279268D01*
X119167161Y-124279268D01*
X119123534Y-124266034D01*
X119207588Y-124190269D01*
X119381641Y-123956920D01*
X119506825Y-123694099D01*
X119551476Y-123546890D01*
X119430155Y-123317000D01*
X118237000Y-123317000D01*
X118237000Y-123337000D01*
X117983000Y-123337000D01*
X117983000Y-123317000D01*
X116789845Y-123317000D01*
X116668524Y-123546890D01*
X116713175Y-123694099D01*
X116838359Y-123956920D01*
X117012412Y-124190269D01*
X117096466Y-124266034D01*
X117015820Y-124290498D01*
X116905506Y-124349463D01*
X116808815Y-124428815D01*
X116729463Y-124525506D01*
X116670498Y-124635820D01*
X116634188Y-124755518D01*
X116621928Y-124880000D01*
X107340000Y-124880000D01*
X107340000Y-120503740D01*
X116625000Y-120503740D01*
X116625000Y-120796260D01*
X116682068Y-121083158D01*
X116794010Y-121353411D01*
X116956525Y-121596632D01*
X117163368Y-121803475D01*
X117345534Y-121925195D01*
X117228645Y-121994822D01*
X117012412Y-122189731D01*
X116838359Y-122423080D01*
X116713175Y-122685901D01*
X116668524Y-122833110D01*
X116789845Y-123063000D01*
X117983000Y-123063000D01*
X117983000Y-123043000D01*
X118237000Y-123043000D01*
X118237000Y-123063000D01*
X119430155Y-123063000D01*
X119551476Y-122833110D01*
X119506825Y-122685901D01*
X119381641Y-122423080D01*
X119207588Y-122189731D01*
X118991355Y-121994822D01*
X118874466Y-121925195D01*
X119056632Y-121803475D01*
X119263475Y-121596632D01*
X119425990Y-121353411D01*
X119537932Y-121083158D01*
X119595000Y-120796260D01*
X119595000Y-120503740D01*
X119537932Y-120216842D01*
X119425990Y-119946589D01*
X119263475Y-119703368D01*
X119056632Y-119496525D01*
X118813411Y-119334010D01*
X118543158Y-119222068D01*
X118256260Y-119165000D01*
X117963740Y-119165000D01*
X117676842Y-119222068D01*
X117406589Y-119334010D01*
X117163368Y-119496525D01*
X116956525Y-119703368D01*
X116794010Y-119946589D01*
X116682068Y-120216842D01*
X116625000Y-120503740D01*
X107340000Y-120503740D01*
X107340000Y-112180000D01*
X116621928Y-112180000D01*
X116621928Y-113880000D01*
X116634188Y-114004482D01*
X116670498Y-114124180D01*
X116729463Y-114234494D01*
X116808815Y-114331185D01*
X116905506Y-114410537D01*
X117015820Y-114469502D01*
X117135518Y-114505812D01*
X117260000Y-114518072D01*
X118960000Y-114518072D01*
X119084482Y-114505812D01*
X119204180Y-114469502D01*
X119314494Y-114410537D01*
X119411185Y-114331185D01*
X119490537Y-114234494D01*
X119549502Y-114124180D01*
X119585812Y-114004482D01*
X119598072Y-113880000D01*
X119598072Y-112180000D01*
X119585812Y-112055518D01*
X119549502Y-111935820D01*
X119490537Y-111825506D01*
X119411185Y-111728815D01*
X119314494Y-111649463D01*
X119204180Y-111590498D01*
X119123534Y-111566034D01*
X119207588Y-111490269D01*
X119381641Y-111256920D01*
X119506825Y-110994099D01*
X119551476Y-110846890D01*
X119430155Y-110617000D01*
X118237000Y-110617000D01*
X118237000Y-110637000D01*
X117983000Y-110637000D01*
X117983000Y-110617000D01*
X116789845Y-110617000D01*
X116668524Y-110846890D01*
X116713175Y-110994099D01*
X116838359Y-111256920D01*
X117012412Y-111490269D01*
X117096466Y-111566034D01*
X117015820Y-111590498D01*
X116905506Y-111649463D01*
X116808815Y-111728815D01*
X116729463Y-111825506D01*
X116670498Y-111935820D01*
X116634188Y-112055518D01*
X116621928Y-112180000D01*
X107340000Y-112180000D01*
X107340000Y-105263740D01*
X116625000Y-105263740D01*
X116625000Y-105556260D01*
X116682068Y-105843158D01*
X116794010Y-106113411D01*
X116956525Y-106356632D01*
X117163368Y-106563475D01*
X117337760Y-106680000D01*
X117163368Y-106796525D01*
X116956525Y-107003368D01*
X116794010Y-107246589D01*
X116682068Y-107516842D01*
X116625000Y-107803740D01*
X116625000Y-108096260D01*
X116682068Y-108383158D01*
X116794010Y-108653411D01*
X116956525Y-108896632D01*
X117163368Y-109103475D01*
X117345534Y-109225195D01*
X117228645Y-109294822D01*
X117012412Y-109489731D01*
X116838359Y-109723080D01*
X116713175Y-109985901D01*
X116668524Y-110133110D01*
X116789845Y-110363000D01*
X117983000Y-110363000D01*
X117983000Y-110343000D01*
X118237000Y-110343000D01*
X118237000Y-110363000D01*
X119430155Y-110363000D01*
X119551476Y-110133110D01*
X119506825Y-109985901D01*
X119381641Y-109723080D01*
X119207588Y-109489731D01*
X118991355Y-109294822D01*
X118874466Y-109225195D01*
X119056632Y-109103475D01*
X119263475Y-108896632D01*
X119425990Y-108653411D01*
X119537932Y-108383158D01*
X119595000Y-108096260D01*
X119595000Y-107803740D01*
X119537932Y-107516842D01*
X119425990Y-107246589D01*
X119263475Y-107003368D01*
X119056632Y-106796525D01*
X118882240Y-106680000D01*
X119056632Y-106563475D01*
X119263475Y-106356632D01*
X119425990Y-106113411D01*
X119537932Y-105843158D01*
X119550413Y-105780408D01*
X128270000Y-105780408D01*
X128270000Y-106055592D01*
X128323686Y-106325490D01*
X128428995Y-106579727D01*
X128581880Y-106808535D01*
X128776465Y-107003120D01*
X129005273Y-107156005D01*
X129259510Y-107261314D01*
X129529408Y-107315000D01*
X129804592Y-107315000D01*
X130074490Y-107261314D01*
X130328727Y-107156005D01*
X130557535Y-107003120D01*
X130752120Y-106808535D01*
X130905005Y-106579727D01*
X130937000Y-106502485D01*
X130968995Y-106579727D01*
X131121880Y-106808535D01*
X131316465Y-107003120D01*
X131545273Y-107156005D01*
X131799510Y-107261314D01*
X132069408Y-107315000D01*
X132344592Y-107315000D01*
X132614490Y-107261314D01*
X132868727Y-107156005D01*
X133097535Y-107003120D01*
X133292120Y-106808535D01*
X133445005Y-106579727D01*
X133477000Y-106502485D01*
X133508995Y-106579727D01*
X133661880Y-106808535D01*
X133856465Y-107003120D01*
X133944465Y-107061920D01*
X133860518Y-107070188D01*
X133740820Y-107106498D01*
X133630506Y-107165463D01*
X133533815Y-107244815D01*
X133454463Y-107341506D01*
X133395498Y-107451820D01*
X133359188Y-107571518D01*
X133346928Y-107696000D01*
X133346928Y-109220000D01*
X133359188Y-109344482D01*
X133395498Y-109464180D01*
X133454463Y-109574494D01*
X133533815Y-109671185D01*
X133630506Y-109750537D01*
X133740820Y-109809502D01*
X133860518Y-109845812D01*
X133985000Y-109858072D01*
X135509000Y-109858072D01*
X135633482Y-109845812D01*
X135753180Y-109809502D01*
X135863494Y-109750537D01*
X135960185Y-109671185D01*
X136039537Y-109574494D01*
X136098502Y-109464180D01*
X136134812Y-109344482D01*
X136147072Y-109220000D01*
X136147072Y-107696000D01*
X136134812Y-107571518D01*
X136098502Y-107451820D01*
X136039537Y-107341506D01*
X135960185Y-107244815D01*
X135863494Y-107165463D01*
X135753180Y-107106498D01*
X135633482Y-107070188D01*
X135549535Y-107061920D01*
X135637535Y-107003120D01*
X135832120Y-106808535D01*
X135919341Y-106678000D01*
X141694678Y-106678000D01*
X141732000Y-106681676D01*
X141769322Y-106678000D01*
X141769333Y-106678000D01*
X141880986Y-106667003D01*
X142024247Y-106623546D01*
X142156276Y-106552974D01*
X142272001Y-106458001D01*
X142295804Y-106428997D01*
X144488430Y-104236372D01*
X144642408Y-104267000D01*
X144917592Y-104267000D01*
X145071571Y-104236372D01*
X167076201Y-126241003D01*
X167099999Y-126270001D01*
X167128997Y-126293799D01*
X167215723Y-126364974D01*
X167343759Y-126433411D01*
X167347753Y-126435546D01*
X167491014Y-126479003D01*
X167602667Y-126490000D01*
X167602676Y-126490000D01*
X167639999Y-126493676D01*
X167677322Y-126490000D01*
X172711822Y-126490000D01*
X172836525Y-126676632D01*
X173043368Y-126883475D01*
X173286589Y-127045990D01*
X173556842Y-127157932D01*
X173843740Y-127215000D01*
X174136260Y-127215000D01*
X174423158Y-127157932D01*
X174693411Y-127045990D01*
X174936632Y-126883475D01*
X175143475Y-126676632D01*
X175305990Y-126433411D01*
X175417932Y-126163158D01*
X175475000Y-125876260D01*
X175475000Y-125583740D01*
X175417932Y-125296842D01*
X175305990Y-125026589D01*
X175143475Y-124783368D01*
X174936632Y-124576525D01*
X174762240Y-124460000D01*
X174936632Y-124343475D01*
X175143475Y-124136632D01*
X175305990Y-123893411D01*
X175417932Y-123623158D01*
X175475000Y-123336260D01*
X175475000Y-123043740D01*
X175417932Y-122756842D01*
X175305990Y-122486589D01*
X175143475Y-122243368D01*
X174936632Y-122036525D01*
X174763271Y-121920689D01*
X174838792Y-121678397D01*
X173990000Y-120829605D01*
X173141208Y-121678397D01*
X173216729Y-121920689D01*
X173043368Y-122036525D01*
X172836525Y-122243368D01*
X172674010Y-122486589D01*
X172562068Y-122756842D01*
X172505000Y-123043740D01*
X172505000Y-123336260D01*
X172562068Y-123623158D01*
X172674010Y-123893411D01*
X172836525Y-124136632D01*
X173043368Y-124343475D01*
X173217760Y-124460000D01*
X173043368Y-124576525D01*
X172836525Y-124783368D01*
X172711822Y-124970000D01*
X167954802Y-124970000D01*
X163703333Y-120718531D01*
X172499389Y-120718531D01*
X172541401Y-121008019D01*
X172639081Y-121283747D01*
X172712528Y-121421157D01*
X172961603Y-121498792D01*
X173810395Y-120650000D01*
X174169605Y-120650000D01*
X175018397Y-121498792D01*
X175267472Y-121421157D01*
X175393371Y-121157117D01*
X175465339Y-120873589D01*
X175480611Y-120581469D01*
X175438599Y-120291981D01*
X175340919Y-120016253D01*
X175267472Y-119878843D01*
X175018397Y-119801208D01*
X174169605Y-120650000D01*
X173810395Y-120650000D01*
X172961603Y-119801208D01*
X172712528Y-119878843D01*
X172586629Y-120142883D01*
X172514661Y-120426411D01*
X172499389Y-120718531D01*
X163703333Y-120718531D01*
X147251801Y-104267000D01*
X147457592Y-104267000D01*
X147727490Y-104213314D01*
X147981727Y-104108005D01*
X148210535Y-103955120D01*
X148405120Y-103760535D01*
X148558005Y-103531727D01*
X148590000Y-103454485D01*
X148621995Y-103531727D01*
X148774880Y-103760535D01*
X148969465Y-103955120D01*
X149198273Y-104108005D01*
X149452510Y-104213314D01*
X149722408Y-104267000D01*
X149997592Y-104267000D01*
X150267490Y-104213314D01*
X150521727Y-104108005D01*
X150750535Y-103955120D01*
X150945120Y-103760535D01*
X151098005Y-103531727D01*
X151130000Y-103454485D01*
X151161995Y-103531727D01*
X151314880Y-103760535D01*
X151509465Y-103955120D01*
X151738273Y-104108005D01*
X151992510Y-104213314D01*
X152262408Y-104267000D01*
X152537592Y-104267000D01*
X152807490Y-104213314D01*
X153061727Y-104108005D01*
X153290535Y-103955120D01*
X153485120Y-103760535D01*
X153638005Y-103531727D01*
X153670000Y-103454485D01*
X153701995Y-103531727D01*
X153854880Y-103760535D01*
X154049465Y-103955120D01*
X154278273Y-104108005D01*
X154532510Y-104213314D01*
X154802408Y-104267000D01*
X155077592Y-104267000D01*
X155347490Y-104213314D01*
X155601727Y-104108005D01*
X155830535Y-103955120D01*
X156025120Y-103760535D01*
X156083920Y-103672535D01*
X156092188Y-103756482D01*
X156128498Y-103876180D01*
X156187463Y-103986494D01*
X156266815Y-104083185D01*
X156363506Y-104162537D01*
X156473820Y-104221502D01*
X156593518Y-104257812D01*
X156718000Y-104270072D01*
X158242000Y-104270072D01*
X158366482Y-104257812D01*
X158486180Y-104221502D01*
X158596494Y-104162537D01*
X158693185Y-104083185D01*
X158772537Y-103986494D01*
X158831502Y-103876180D01*
X158843822Y-103835565D01*
X159234040Y-103835565D01*
X159301020Y-104075656D01*
X159550048Y-104192756D01*
X159817135Y-104259023D01*
X160092017Y-104271910D01*
X160364133Y-104230922D01*
X160623023Y-104137636D01*
X160738980Y-104075656D01*
X160805960Y-103835565D01*
X160020000Y-103049605D01*
X159234040Y-103835565D01*
X158843822Y-103835565D01*
X158867812Y-103756482D01*
X158880072Y-103632000D01*
X158880072Y-103607317D01*
X159054435Y-103655960D01*
X159840395Y-102870000D01*
X160199605Y-102870000D01*
X160985565Y-103655960D01*
X161225656Y-103588980D01*
X161342756Y-103339952D01*
X161409023Y-103072865D01*
X161421910Y-102797983D01*
X161380922Y-102525867D01*
X161287636Y-102266977D01*
X161225656Y-102151020D01*
X160985565Y-102084040D01*
X160199605Y-102870000D01*
X159840395Y-102870000D01*
X159054435Y-102084040D01*
X158880072Y-102132683D01*
X158880072Y-102108000D01*
X158867812Y-101983518D01*
X158843823Y-101904435D01*
X159234040Y-101904435D01*
X160020000Y-102690395D01*
X160805960Y-101904435D01*
X160738980Y-101664344D01*
X160489952Y-101547244D01*
X160222865Y-101480977D01*
X159947983Y-101468090D01*
X159675867Y-101509078D01*
X159416977Y-101602364D01*
X159301020Y-101664344D01*
X159234040Y-101904435D01*
X158843823Y-101904435D01*
X158831502Y-101863820D01*
X158772537Y-101753506D01*
X158693185Y-101656815D01*
X158596494Y-101577463D01*
X158486180Y-101518498D01*
X158366482Y-101482188D01*
X158242000Y-101469928D01*
X156718000Y-101469928D01*
X156593518Y-101482188D01*
X156473820Y-101518498D01*
X156363506Y-101577463D01*
X156266815Y-101656815D01*
X156187463Y-101753506D01*
X156128498Y-101863820D01*
X156092188Y-101983518D01*
X156083920Y-102067465D01*
X156025120Y-101979465D01*
X155830535Y-101784880D01*
X155601727Y-101631995D01*
X155347490Y-101526686D01*
X155077592Y-101473000D01*
X154802408Y-101473000D01*
X154532510Y-101526686D01*
X154278273Y-101631995D01*
X154049465Y-101784880D01*
X153854880Y-101979465D01*
X153701995Y-102208273D01*
X153670000Y-102285515D01*
X153638005Y-102208273D01*
X153485120Y-101979465D01*
X153290535Y-101784880D01*
X153061727Y-101631995D01*
X152807490Y-101526686D01*
X152537592Y-101473000D01*
X152262408Y-101473000D01*
X151992510Y-101526686D01*
X151738273Y-101631995D01*
X151509465Y-101784880D01*
X151314880Y-101979465D01*
X151161995Y-102208273D01*
X151130000Y-102285515D01*
X151098005Y-102208273D01*
X150945120Y-101979465D01*
X150750535Y-101784880D01*
X150521727Y-101631995D01*
X150267490Y-101526686D01*
X149997592Y-101473000D01*
X149722408Y-101473000D01*
X149452510Y-101526686D01*
X149198273Y-101631995D01*
X148969465Y-101784880D01*
X148774880Y-101979465D01*
X148621995Y-102208273D01*
X148590000Y-102285515D01*
X148558005Y-102208273D01*
X148405120Y-101979465D01*
X148210535Y-101784880D01*
X147981727Y-101631995D01*
X147727490Y-101526686D01*
X147457592Y-101473000D01*
X147182408Y-101473000D01*
X146912510Y-101526686D01*
X146658273Y-101631995D01*
X146429465Y-101784880D01*
X146234880Y-101979465D01*
X146081995Y-102208273D01*
X146050000Y-102285515D01*
X146018005Y-102208273D01*
X145865120Y-101979465D01*
X145670535Y-101784880D01*
X145441727Y-101631995D01*
X145187490Y-101526686D01*
X144917592Y-101473000D01*
X144642408Y-101473000D01*
X144372510Y-101526686D01*
X144118273Y-101631995D01*
X143889465Y-101784880D01*
X143694880Y-101979465D01*
X143541995Y-102208273D01*
X143510000Y-102285515D01*
X143478005Y-102208273D01*
X143325120Y-101979465D01*
X143130535Y-101784880D01*
X142901727Y-101631995D01*
X142647490Y-101526686D01*
X142377592Y-101473000D01*
X142102408Y-101473000D01*
X141832510Y-101526686D01*
X141578273Y-101631995D01*
X141349465Y-101784880D01*
X141154880Y-101979465D01*
X141001995Y-102208273D01*
X140896686Y-102462510D01*
X140843000Y-102732408D01*
X140843000Y-103007592D01*
X140896686Y-103277490D01*
X141001995Y-103531727D01*
X141154880Y-103760535D01*
X141349465Y-103955120D01*
X141578273Y-104108005D01*
X141832510Y-104213314D01*
X142102408Y-104267000D01*
X142308199Y-104267000D01*
X141417199Y-105158000D01*
X135919341Y-105158000D01*
X135832120Y-105027465D01*
X135637535Y-104832880D01*
X135408727Y-104679995D01*
X135154490Y-104574686D01*
X134884592Y-104521000D01*
X134609408Y-104521000D01*
X134339510Y-104574686D01*
X134085273Y-104679995D01*
X133856465Y-104832880D01*
X133661880Y-105027465D01*
X133508995Y-105256273D01*
X133477000Y-105333515D01*
X133445005Y-105256273D01*
X133292120Y-105027465D01*
X133097535Y-104832880D01*
X132868727Y-104679995D01*
X132614490Y-104574686D01*
X132344592Y-104521000D01*
X132069408Y-104521000D01*
X131799510Y-104574686D01*
X131545273Y-104679995D01*
X131316465Y-104832880D01*
X131121880Y-105027465D01*
X130968995Y-105256273D01*
X130937000Y-105333515D01*
X130905005Y-105256273D01*
X130752120Y-105027465D01*
X130557535Y-104832880D01*
X130328727Y-104679995D01*
X130074490Y-104574686D01*
X129804592Y-104521000D01*
X129529408Y-104521000D01*
X129259510Y-104574686D01*
X129005273Y-104679995D01*
X128776465Y-104832880D01*
X128581880Y-105027465D01*
X128428995Y-105256273D01*
X128323686Y-105510510D01*
X128270000Y-105780408D01*
X119550413Y-105780408D01*
X119595000Y-105556260D01*
X119595000Y-105263740D01*
X119537932Y-104976842D01*
X119425990Y-104706589D01*
X119263475Y-104463368D01*
X119056632Y-104256525D01*
X118813411Y-104094010D01*
X118543158Y-103982068D01*
X118256260Y-103925000D01*
X117963740Y-103925000D01*
X117676842Y-103982068D01*
X117406589Y-104094010D01*
X117163368Y-104256525D01*
X116956525Y-104463368D01*
X116794010Y-104706589D01*
X116682068Y-104976842D01*
X116625000Y-105263740D01*
X107340000Y-105263740D01*
X107340000Y-95707565D01*
X126341040Y-95707565D01*
X126408020Y-95947656D01*
X126657048Y-96064756D01*
X126924135Y-96131023D01*
X127199017Y-96143910D01*
X127471133Y-96102922D01*
X127730023Y-96009636D01*
X127845980Y-95947656D01*
X127912960Y-95707565D01*
X127127000Y-94921605D01*
X126341040Y-95707565D01*
X107340000Y-95707565D01*
X107340000Y-88753740D01*
X116625000Y-88753740D01*
X116625000Y-89046260D01*
X116682068Y-89333158D01*
X116794010Y-89603411D01*
X116956525Y-89846632D01*
X117163368Y-90053475D01*
X117337760Y-90170000D01*
X117163368Y-90286525D01*
X116956525Y-90493368D01*
X116794010Y-90736589D01*
X116682068Y-91006842D01*
X116625000Y-91293740D01*
X116625000Y-91586260D01*
X116682068Y-91873158D01*
X116794010Y-92143411D01*
X116956525Y-92386632D01*
X117163368Y-92593475D01*
X117337760Y-92710000D01*
X117163368Y-92826525D01*
X116956525Y-93033368D01*
X116794010Y-93276589D01*
X116682068Y-93546842D01*
X116625000Y-93833740D01*
X116625000Y-94126260D01*
X116682068Y-94413158D01*
X116794010Y-94683411D01*
X116956525Y-94926632D01*
X117163368Y-95133475D01*
X117406589Y-95295990D01*
X117676842Y-95407932D01*
X117963740Y-95465000D01*
X118256260Y-95465000D01*
X118543158Y-95407932D01*
X118813411Y-95295990D01*
X119056632Y-95133475D01*
X119263475Y-94926632D01*
X119338721Y-94814017D01*
X125725090Y-94814017D01*
X125766078Y-95086133D01*
X125859364Y-95345023D01*
X125921344Y-95460980D01*
X126161435Y-95527960D01*
X126947395Y-94742000D01*
X127306605Y-94742000D01*
X128092565Y-95527960D01*
X128332656Y-95460980D01*
X128396485Y-95325240D01*
X128428995Y-95403727D01*
X128581880Y-95632535D01*
X128776465Y-95827120D01*
X129005273Y-95980005D01*
X129082515Y-96012000D01*
X129005273Y-96043995D01*
X128776465Y-96196880D01*
X128581880Y-96391465D01*
X128428995Y-96620273D01*
X128323686Y-96874510D01*
X128270000Y-97144408D01*
X128270000Y-97419592D01*
X128323686Y-97689490D01*
X128428995Y-97943727D01*
X128581880Y-98172535D01*
X128776465Y-98367120D01*
X129005273Y-98520005D01*
X129259510Y-98625314D01*
X129529408Y-98679000D01*
X129804592Y-98679000D01*
X130074490Y-98625314D01*
X130328727Y-98520005D01*
X130557535Y-98367120D01*
X130752120Y-98172535D01*
X130905005Y-97943727D01*
X130937000Y-97866485D01*
X130968995Y-97943727D01*
X131121880Y-98172535D01*
X131316465Y-98367120D01*
X131545273Y-98520005D01*
X131799510Y-98625314D01*
X132069408Y-98679000D01*
X132344592Y-98679000D01*
X132614490Y-98625314D01*
X132868727Y-98520005D01*
X133097535Y-98367120D01*
X133292120Y-98172535D01*
X133445005Y-97943727D01*
X133550314Y-97689490D01*
X133604000Y-97419592D01*
X133604000Y-97144408D01*
X133550314Y-96874510D01*
X133445005Y-96620273D01*
X133292120Y-96391465D01*
X133097535Y-96196880D01*
X132868727Y-96043995D01*
X132791485Y-96012000D01*
X132868727Y-95980005D01*
X133097535Y-95827120D01*
X133292120Y-95632535D01*
X133350920Y-95544535D01*
X133359188Y-95628482D01*
X133395498Y-95748180D01*
X133454463Y-95858494D01*
X133533815Y-95955185D01*
X133630506Y-96034537D01*
X133740820Y-96093502D01*
X133860518Y-96129812D01*
X133985000Y-96142072D01*
X135509000Y-96142072D01*
X135633482Y-96129812D01*
X135753180Y-96093502D01*
X135863494Y-96034537D01*
X135960185Y-95955185D01*
X136039537Y-95858494D01*
X136098502Y-95748180D01*
X136134812Y-95628482D01*
X136147072Y-95504000D01*
X136147072Y-93980000D01*
X136134812Y-93855518D01*
X136098502Y-93735820D01*
X136039537Y-93625506D01*
X135960185Y-93528815D01*
X135863494Y-93449463D01*
X135753180Y-93390498D01*
X135633482Y-93354188D01*
X135509000Y-93341928D01*
X133985000Y-93341928D01*
X133860518Y-93354188D01*
X133740820Y-93390498D01*
X133630506Y-93449463D01*
X133533815Y-93528815D01*
X133454463Y-93625506D01*
X133395498Y-93735820D01*
X133359188Y-93855518D01*
X133350920Y-93939465D01*
X133292120Y-93851465D01*
X133097535Y-93656880D01*
X132868727Y-93503995D01*
X132614490Y-93398686D01*
X132344592Y-93345000D01*
X132069408Y-93345000D01*
X131799510Y-93398686D01*
X131545273Y-93503995D01*
X131316465Y-93656880D01*
X131121880Y-93851465D01*
X130968995Y-94080273D01*
X130937000Y-94157515D01*
X130905005Y-94080273D01*
X130752120Y-93851465D01*
X130557535Y-93656880D01*
X130328727Y-93503995D01*
X130074490Y-93398686D01*
X129804592Y-93345000D01*
X129529408Y-93345000D01*
X129259510Y-93398686D01*
X129005273Y-93503995D01*
X128776465Y-93656880D01*
X128581880Y-93851465D01*
X128428995Y-94080273D01*
X128399308Y-94151943D01*
X128394636Y-94138977D01*
X128332656Y-94023020D01*
X128092565Y-93956040D01*
X127306605Y-94742000D01*
X126947395Y-94742000D01*
X126161435Y-93956040D01*
X125921344Y-94023020D01*
X125804244Y-94272048D01*
X125737977Y-94539135D01*
X125725090Y-94814017D01*
X119338721Y-94814017D01*
X119425990Y-94683411D01*
X119537932Y-94413158D01*
X119595000Y-94126260D01*
X119595000Y-93833740D01*
X119583602Y-93776435D01*
X126341040Y-93776435D01*
X127127000Y-94562395D01*
X127912960Y-93776435D01*
X127845980Y-93536344D01*
X127596952Y-93419244D01*
X127329865Y-93352977D01*
X127054983Y-93340090D01*
X126782867Y-93381078D01*
X126523977Y-93474364D01*
X126408020Y-93536344D01*
X126341040Y-93776435D01*
X119583602Y-93776435D01*
X119537932Y-93546842D01*
X119425990Y-93276589D01*
X119263475Y-93033368D01*
X119056632Y-92826525D01*
X118882240Y-92710000D01*
X119056632Y-92593475D01*
X119263475Y-92386632D01*
X119425990Y-92143411D01*
X119537932Y-91873158D01*
X119595000Y-91586260D01*
X119595000Y-91293740D01*
X119537932Y-91006842D01*
X119425990Y-90736589D01*
X119263475Y-90493368D01*
X119056632Y-90286525D01*
X118882240Y-90170000D01*
X119056632Y-90053475D01*
X119263475Y-89846632D01*
X119425990Y-89603411D01*
X119537932Y-89333158D01*
X119595000Y-89046260D01*
X119595000Y-88753740D01*
X119537932Y-88466842D01*
X119425990Y-88196589D01*
X119263475Y-87953368D01*
X119056632Y-87746525D01*
X118874466Y-87624805D01*
X118991355Y-87555178D01*
X119207588Y-87360269D01*
X119381641Y-87126920D01*
X119506825Y-86864099D01*
X119551476Y-86716890D01*
X119430155Y-86487000D01*
X118237000Y-86487000D01*
X118237000Y-86507000D01*
X117983000Y-86507000D01*
X117983000Y-86487000D01*
X116789845Y-86487000D01*
X116668524Y-86716890D01*
X116713175Y-86864099D01*
X116838359Y-87126920D01*
X117012412Y-87360269D01*
X117228645Y-87555178D01*
X117345534Y-87624805D01*
X117163368Y-87746525D01*
X116956525Y-87953368D01*
X116794010Y-88196589D01*
X116682068Y-88466842D01*
X116625000Y-88753740D01*
X107340000Y-88753740D01*
X107340000Y-80430000D01*
X116621928Y-80430000D01*
X116621928Y-82130000D01*
X116634188Y-82254482D01*
X116670498Y-82374180D01*
X116729463Y-82484494D01*
X116808815Y-82581185D01*
X116905506Y-82660537D01*
X117015820Y-82719502D01*
X117088380Y-82741513D01*
X116956525Y-82873368D01*
X116794010Y-83116589D01*
X116682068Y-83386842D01*
X116625000Y-83673740D01*
X116625000Y-83966260D01*
X116682068Y-84253158D01*
X116794010Y-84523411D01*
X116956525Y-84766632D01*
X117163368Y-84973475D01*
X117345534Y-85095195D01*
X117228645Y-85164822D01*
X117012412Y-85359731D01*
X116838359Y-85593080D01*
X116713175Y-85855901D01*
X116668524Y-86003110D01*
X116789845Y-86233000D01*
X117983000Y-86233000D01*
X117983000Y-86213000D01*
X118237000Y-86213000D01*
X118237000Y-86233000D01*
X119430155Y-86233000D01*
X119551476Y-86003110D01*
X119506825Y-85855901D01*
X119381641Y-85593080D01*
X119207588Y-85359731D01*
X118991355Y-85164822D01*
X118874466Y-85095195D01*
X119056632Y-84973475D01*
X119263475Y-84766632D01*
X119425990Y-84523411D01*
X119527822Y-84277565D01*
X126468040Y-84277565D01*
X126535020Y-84517656D01*
X126784048Y-84634756D01*
X127051135Y-84701023D01*
X127326017Y-84713910D01*
X127598133Y-84672922D01*
X127857023Y-84579636D01*
X127972980Y-84517656D01*
X128039960Y-84277565D01*
X127254000Y-83491605D01*
X126468040Y-84277565D01*
X119527822Y-84277565D01*
X119537932Y-84253158D01*
X119595000Y-83966260D01*
X119595000Y-83673740D01*
X119537932Y-83386842D01*
X119536762Y-83384017D01*
X125852090Y-83384017D01*
X125893078Y-83656133D01*
X125986364Y-83915023D01*
X126048344Y-84030980D01*
X126288435Y-84097960D01*
X127074395Y-83312000D01*
X127433605Y-83312000D01*
X128219565Y-84097960D01*
X128459656Y-84030980D01*
X128523485Y-83895240D01*
X128555995Y-83973727D01*
X128708880Y-84202535D01*
X128903465Y-84397120D01*
X129132273Y-84550005D01*
X129209515Y-84582000D01*
X129132273Y-84613995D01*
X128903465Y-84766880D01*
X128708880Y-84961465D01*
X128555995Y-85190273D01*
X128450686Y-85444510D01*
X128397000Y-85714408D01*
X128397000Y-85989592D01*
X128450686Y-86259490D01*
X128555995Y-86513727D01*
X128708880Y-86742535D01*
X128903465Y-86937120D01*
X129132273Y-87090005D01*
X129386510Y-87195314D01*
X129656408Y-87249000D01*
X129931592Y-87249000D01*
X130201490Y-87195314D01*
X130455727Y-87090005D01*
X130684535Y-86937120D01*
X130879120Y-86742535D01*
X131032005Y-86513727D01*
X131064000Y-86436485D01*
X131095995Y-86513727D01*
X131248880Y-86742535D01*
X131443465Y-86937120D01*
X131672273Y-87090005D01*
X131926510Y-87195314D01*
X132196408Y-87249000D01*
X132471592Y-87249000D01*
X132741490Y-87195314D01*
X132995727Y-87090005D01*
X133224535Y-86937120D01*
X133419120Y-86742535D01*
X133572005Y-86513727D01*
X133677314Y-86259490D01*
X133731000Y-85989592D01*
X133731000Y-85714408D01*
X133677314Y-85444510D01*
X133572005Y-85190273D01*
X133419120Y-84961465D01*
X133224535Y-84766880D01*
X132995727Y-84613995D01*
X132918485Y-84582000D01*
X132995727Y-84550005D01*
X133224535Y-84397120D01*
X133419120Y-84202535D01*
X133477920Y-84114535D01*
X133486188Y-84198482D01*
X133522498Y-84318180D01*
X133581463Y-84428494D01*
X133660815Y-84525185D01*
X133757506Y-84604537D01*
X133867820Y-84663502D01*
X133987518Y-84699812D01*
X134112000Y-84712072D01*
X135636000Y-84712072D01*
X135760482Y-84699812D01*
X135880180Y-84663502D01*
X135990494Y-84604537D01*
X136087185Y-84525185D01*
X136166537Y-84428494D01*
X136225502Y-84318180D01*
X136261812Y-84198482D01*
X136274072Y-84074000D01*
X136274072Y-82550000D01*
X136261812Y-82425518D01*
X136257836Y-82412408D01*
X140843000Y-82412408D01*
X140843000Y-82687592D01*
X140896686Y-82957490D01*
X141001995Y-83211727D01*
X141154880Y-83440535D01*
X141349465Y-83635120D01*
X141578273Y-83788005D01*
X141832510Y-83893314D01*
X142102408Y-83947000D01*
X142377592Y-83947000D01*
X142647490Y-83893314D01*
X142901727Y-83788005D01*
X143130535Y-83635120D01*
X143325120Y-83440535D01*
X143478005Y-83211727D01*
X143510000Y-83134485D01*
X143541995Y-83211727D01*
X143694880Y-83440535D01*
X143889465Y-83635120D01*
X144118273Y-83788005D01*
X144372510Y-83893314D01*
X144642408Y-83947000D01*
X144917592Y-83947000D01*
X145187490Y-83893314D01*
X145441727Y-83788005D01*
X145670535Y-83635120D01*
X145865120Y-83440535D01*
X146018005Y-83211727D01*
X146050000Y-83134485D01*
X146081995Y-83211727D01*
X146234880Y-83440535D01*
X146429465Y-83635120D01*
X146658273Y-83788005D01*
X146912510Y-83893314D01*
X147182408Y-83947000D01*
X147457592Y-83947000D01*
X147727490Y-83893314D01*
X147981727Y-83788005D01*
X148210535Y-83635120D01*
X148405120Y-83440535D01*
X148558005Y-83211727D01*
X148590000Y-83134485D01*
X148621995Y-83211727D01*
X148774880Y-83440535D01*
X148969465Y-83635120D01*
X149198273Y-83788005D01*
X149452510Y-83893314D01*
X149722408Y-83947000D01*
X149997592Y-83947000D01*
X150267490Y-83893314D01*
X150521727Y-83788005D01*
X150750535Y-83635120D01*
X150945120Y-83440535D01*
X151098005Y-83211727D01*
X151130000Y-83134485D01*
X151161995Y-83211727D01*
X151314880Y-83440535D01*
X151509465Y-83635120D01*
X151738273Y-83788005D01*
X151992510Y-83893314D01*
X152262408Y-83947000D01*
X152537592Y-83947000D01*
X152807490Y-83893314D01*
X153061727Y-83788005D01*
X153290535Y-83635120D01*
X153485120Y-83440535D01*
X153638005Y-83211727D01*
X153670000Y-83134485D01*
X153701995Y-83211727D01*
X153854880Y-83440535D01*
X154049465Y-83635120D01*
X154278273Y-83788005D01*
X154532510Y-83893314D01*
X154802408Y-83947000D01*
X155077592Y-83947000D01*
X155347490Y-83893314D01*
X155601727Y-83788005D01*
X155830535Y-83635120D01*
X156025120Y-83440535D01*
X156083920Y-83352535D01*
X156092188Y-83436482D01*
X156128498Y-83556180D01*
X156187463Y-83666494D01*
X156266815Y-83763185D01*
X156363506Y-83842537D01*
X156473820Y-83901502D01*
X156593518Y-83937812D01*
X156718000Y-83950072D01*
X158242000Y-83950072D01*
X158366482Y-83937812D01*
X158486180Y-83901502D01*
X158596494Y-83842537D01*
X158693185Y-83763185D01*
X158772537Y-83666494D01*
X158831502Y-83556180D01*
X158843822Y-83515565D01*
X159234040Y-83515565D01*
X159301020Y-83755656D01*
X159550048Y-83872756D01*
X159817135Y-83939023D01*
X160092017Y-83951910D01*
X160364133Y-83910922D01*
X160623023Y-83817636D01*
X160738980Y-83755656D01*
X160805960Y-83515565D01*
X160020000Y-82729605D01*
X159234040Y-83515565D01*
X158843822Y-83515565D01*
X158867812Y-83436482D01*
X158880072Y-83312000D01*
X158880072Y-83287317D01*
X159054435Y-83335960D01*
X159840395Y-82550000D01*
X160199605Y-82550000D01*
X160985565Y-83335960D01*
X161225656Y-83268980D01*
X161342756Y-83019952D01*
X161409023Y-82752865D01*
X161421910Y-82477983D01*
X161380922Y-82205867D01*
X161287636Y-81946977D01*
X161225656Y-81831020D01*
X160985565Y-81764040D01*
X160199605Y-82550000D01*
X159840395Y-82550000D01*
X159054435Y-81764040D01*
X158880072Y-81812683D01*
X158880072Y-81788000D01*
X158867812Y-81663518D01*
X158843823Y-81584435D01*
X159234040Y-81584435D01*
X160020000Y-82370395D01*
X160805960Y-81584435D01*
X160738980Y-81344344D01*
X160489952Y-81227244D01*
X160222865Y-81160977D01*
X159947983Y-81148090D01*
X159675867Y-81189078D01*
X159416977Y-81282364D01*
X159301020Y-81344344D01*
X159234040Y-81584435D01*
X158843823Y-81584435D01*
X158831502Y-81543820D01*
X158772537Y-81433506D01*
X158693185Y-81336815D01*
X158596494Y-81257463D01*
X158486180Y-81198498D01*
X158366482Y-81162188D01*
X158242000Y-81149928D01*
X156718000Y-81149928D01*
X156593518Y-81162188D01*
X156473820Y-81198498D01*
X156363506Y-81257463D01*
X156266815Y-81336815D01*
X156187463Y-81433506D01*
X156128498Y-81543820D01*
X156092188Y-81663518D01*
X156083920Y-81747465D01*
X156025120Y-81659465D01*
X155830535Y-81464880D01*
X155601727Y-81311995D01*
X155347490Y-81206686D01*
X155077592Y-81153000D01*
X154802408Y-81153000D01*
X154532510Y-81206686D01*
X154278273Y-81311995D01*
X154049465Y-81464880D01*
X153854880Y-81659465D01*
X153701995Y-81888273D01*
X153670000Y-81965515D01*
X153638005Y-81888273D01*
X153485120Y-81659465D01*
X153290535Y-81464880D01*
X153061727Y-81311995D01*
X152807490Y-81206686D01*
X152537592Y-81153000D01*
X152262408Y-81153000D01*
X151992510Y-81206686D01*
X151738273Y-81311995D01*
X151509465Y-81464880D01*
X151314880Y-81659465D01*
X151161995Y-81888273D01*
X151130000Y-81965515D01*
X151098005Y-81888273D01*
X150945120Y-81659465D01*
X150750535Y-81464880D01*
X150521727Y-81311995D01*
X150267490Y-81206686D01*
X149997592Y-81153000D01*
X149722408Y-81153000D01*
X149452510Y-81206686D01*
X149198273Y-81311995D01*
X148969465Y-81464880D01*
X148774880Y-81659465D01*
X148621995Y-81888273D01*
X148590000Y-81965515D01*
X148558005Y-81888273D01*
X148405120Y-81659465D01*
X148210535Y-81464880D01*
X147981727Y-81311995D01*
X147727490Y-81206686D01*
X147457592Y-81153000D01*
X147182408Y-81153000D01*
X146912510Y-81206686D01*
X146658273Y-81311995D01*
X146429465Y-81464880D01*
X146234880Y-81659465D01*
X146081995Y-81888273D01*
X146050000Y-81965515D01*
X146018005Y-81888273D01*
X145865120Y-81659465D01*
X145670535Y-81464880D01*
X145441727Y-81311995D01*
X145187490Y-81206686D01*
X144917592Y-81153000D01*
X144642408Y-81153000D01*
X144372510Y-81206686D01*
X144118273Y-81311995D01*
X143889465Y-81464880D01*
X143694880Y-81659465D01*
X143541995Y-81888273D01*
X143510000Y-81965515D01*
X143478005Y-81888273D01*
X143325120Y-81659465D01*
X143130535Y-81464880D01*
X142901727Y-81311995D01*
X142647490Y-81206686D01*
X142377592Y-81153000D01*
X142102408Y-81153000D01*
X141832510Y-81206686D01*
X141578273Y-81311995D01*
X141349465Y-81464880D01*
X141154880Y-81659465D01*
X141001995Y-81888273D01*
X140896686Y-82142510D01*
X140843000Y-82412408D01*
X136257836Y-82412408D01*
X136225502Y-82305820D01*
X136166537Y-82195506D01*
X136087185Y-82098815D01*
X135990494Y-82019463D01*
X135880180Y-81960498D01*
X135760482Y-81924188D01*
X135636000Y-81911928D01*
X134112000Y-81911928D01*
X133987518Y-81924188D01*
X133867820Y-81960498D01*
X133757506Y-82019463D01*
X133660815Y-82098815D01*
X133581463Y-82195506D01*
X133522498Y-82305820D01*
X133486188Y-82425518D01*
X133477920Y-82509465D01*
X133419120Y-82421465D01*
X133224535Y-82226880D01*
X132995727Y-82073995D01*
X132741490Y-81968686D01*
X132471592Y-81915000D01*
X132196408Y-81915000D01*
X131926510Y-81968686D01*
X131672273Y-82073995D01*
X131443465Y-82226880D01*
X131248880Y-82421465D01*
X131095995Y-82650273D01*
X131064000Y-82727515D01*
X131032005Y-82650273D01*
X130879120Y-82421465D01*
X130684535Y-82226880D01*
X130455727Y-82073995D01*
X130201490Y-81968686D01*
X129931592Y-81915000D01*
X129656408Y-81915000D01*
X129386510Y-81968686D01*
X129132273Y-82073995D01*
X128903465Y-82226880D01*
X128708880Y-82421465D01*
X128555995Y-82650273D01*
X128526308Y-82721943D01*
X128521636Y-82708977D01*
X128459656Y-82593020D01*
X128219565Y-82526040D01*
X127433605Y-83312000D01*
X127074395Y-83312000D01*
X126288435Y-82526040D01*
X126048344Y-82593020D01*
X125931244Y-82842048D01*
X125864977Y-83109135D01*
X125852090Y-83384017D01*
X119536762Y-83384017D01*
X119425990Y-83116589D01*
X119263475Y-82873368D01*
X119131620Y-82741513D01*
X119204180Y-82719502D01*
X119314494Y-82660537D01*
X119411185Y-82581185D01*
X119490537Y-82484494D01*
X119549502Y-82374180D01*
X119557918Y-82346435D01*
X126468040Y-82346435D01*
X127254000Y-83132395D01*
X128039960Y-82346435D01*
X127972980Y-82106344D01*
X127723952Y-81989244D01*
X127456865Y-81922977D01*
X127181983Y-81910090D01*
X126909867Y-81951078D01*
X126650977Y-82044364D01*
X126535020Y-82106344D01*
X126468040Y-82346435D01*
X119557918Y-82346435D01*
X119585812Y-82254482D01*
X119598072Y-82130000D01*
X119598072Y-80430000D01*
X119585812Y-80305518D01*
X119549502Y-80185820D01*
X119490537Y-80075506D01*
X119411185Y-79978815D01*
X119314494Y-79899463D01*
X119204180Y-79840498D01*
X119084482Y-79804188D01*
X118960000Y-79791928D01*
X117260000Y-79791928D01*
X117135518Y-79804188D01*
X117015820Y-79840498D01*
X116905506Y-79899463D01*
X116808815Y-79978815D01*
X116729463Y-80075506D01*
X116670498Y-80185820D01*
X116634188Y-80305518D01*
X116621928Y-80430000D01*
X107340000Y-80430000D01*
X107340000Y-76620000D01*
X172501928Y-76620000D01*
X172501928Y-78320000D01*
X172514188Y-78444482D01*
X172550498Y-78564180D01*
X172609463Y-78674494D01*
X172688815Y-78771185D01*
X172785506Y-78850537D01*
X172895820Y-78909502D01*
X172968380Y-78931513D01*
X172836525Y-79063368D01*
X172674010Y-79306589D01*
X172562068Y-79576842D01*
X172505000Y-79863740D01*
X172505000Y-80156260D01*
X172562068Y-80443158D01*
X172674010Y-80713411D01*
X172836525Y-80956632D01*
X173043368Y-81163475D01*
X173217760Y-81280000D01*
X173043368Y-81396525D01*
X172836525Y-81603368D01*
X172674010Y-81846589D01*
X172562068Y-82116842D01*
X172505000Y-82403740D01*
X172505000Y-82696260D01*
X172562068Y-82983158D01*
X172674010Y-83253411D01*
X172836525Y-83496632D01*
X173043368Y-83703475D01*
X173217760Y-83820000D01*
X173043368Y-83936525D01*
X172836525Y-84143368D01*
X172674010Y-84386589D01*
X172562068Y-84656842D01*
X172505000Y-84943740D01*
X172505000Y-85236260D01*
X172562068Y-85523158D01*
X172674010Y-85793411D01*
X172836525Y-86036632D01*
X173043368Y-86243475D01*
X173217760Y-86360000D01*
X173043368Y-86476525D01*
X172836525Y-86683368D01*
X172674010Y-86926589D01*
X172562068Y-87196842D01*
X172505000Y-87483740D01*
X172505000Y-87776260D01*
X172562068Y-88063158D01*
X172674010Y-88333411D01*
X172836525Y-88576632D01*
X173043368Y-88783475D01*
X173217760Y-88900000D01*
X173043368Y-89016525D01*
X172836525Y-89223368D01*
X172674010Y-89466589D01*
X172562068Y-89736842D01*
X172505000Y-90023740D01*
X172505000Y-90316260D01*
X172562068Y-90603158D01*
X172674010Y-90873411D01*
X172836525Y-91116632D01*
X173043368Y-91323475D01*
X173217760Y-91440000D01*
X173043368Y-91556525D01*
X172836525Y-91763368D01*
X172674010Y-92006589D01*
X172562068Y-92276842D01*
X172505000Y-92563740D01*
X172505000Y-92856260D01*
X172562068Y-93143158D01*
X172674010Y-93413411D01*
X172836525Y-93656632D01*
X173043368Y-93863475D01*
X173217760Y-93980000D01*
X173043368Y-94096525D01*
X172836525Y-94303368D01*
X172674010Y-94546589D01*
X172562068Y-94816842D01*
X172505000Y-95103740D01*
X172505000Y-95396260D01*
X172562068Y-95683158D01*
X172674010Y-95953411D01*
X172836525Y-96196632D01*
X173043368Y-96403475D01*
X173217760Y-96520000D01*
X173043368Y-96636525D01*
X172836525Y-96843368D01*
X172674010Y-97086589D01*
X172562068Y-97356842D01*
X172505000Y-97643740D01*
X172505000Y-97936260D01*
X172562068Y-98223158D01*
X172674010Y-98493411D01*
X172836525Y-98736632D01*
X173043368Y-98943475D01*
X173217760Y-99060000D01*
X173043368Y-99176525D01*
X172836525Y-99383368D01*
X172674010Y-99626589D01*
X172562068Y-99896842D01*
X172505000Y-100183740D01*
X172505000Y-100476260D01*
X172562068Y-100763158D01*
X172674010Y-101033411D01*
X172836525Y-101276632D01*
X173043368Y-101483475D01*
X173217760Y-101600000D01*
X173043368Y-101716525D01*
X172836525Y-101923368D01*
X172674010Y-102166589D01*
X172562068Y-102436842D01*
X172505000Y-102723740D01*
X172505000Y-103016260D01*
X172562068Y-103303158D01*
X172674010Y-103573411D01*
X172836525Y-103816632D01*
X173043368Y-104023475D01*
X173217760Y-104140000D01*
X173043368Y-104256525D01*
X172836525Y-104463368D01*
X172674010Y-104706589D01*
X172562068Y-104976842D01*
X172505000Y-105263740D01*
X172505000Y-105556260D01*
X172562068Y-105843158D01*
X172674010Y-106113411D01*
X172836525Y-106356632D01*
X173043368Y-106563475D01*
X173217760Y-106680000D01*
X173043368Y-106796525D01*
X172836525Y-107003368D01*
X172674010Y-107246589D01*
X172562068Y-107516842D01*
X172505000Y-107803740D01*
X172505000Y-108096260D01*
X172562068Y-108383158D01*
X172674010Y-108653411D01*
X172836525Y-108896632D01*
X173043368Y-109103475D01*
X173217760Y-109220000D01*
X173043368Y-109336525D01*
X172836525Y-109543368D01*
X172674010Y-109786589D01*
X172562068Y-110056842D01*
X172505000Y-110343740D01*
X172505000Y-110636260D01*
X172562068Y-110923158D01*
X172674010Y-111193411D01*
X172836525Y-111436632D01*
X173043368Y-111643475D01*
X173217760Y-111760000D01*
X173043368Y-111876525D01*
X172836525Y-112083368D01*
X172674010Y-112326589D01*
X172562068Y-112596842D01*
X172505000Y-112883740D01*
X172505000Y-113176260D01*
X172562068Y-113463158D01*
X172674010Y-113733411D01*
X172836525Y-113976632D01*
X173043368Y-114183475D01*
X173217760Y-114300000D01*
X173043368Y-114416525D01*
X172836525Y-114623368D01*
X172674010Y-114866589D01*
X172562068Y-115136842D01*
X172505000Y-115423740D01*
X172505000Y-115716260D01*
X172562068Y-116003158D01*
X172674010Y-116273411D01*
X172836525Y-116516632D01*
X173043368Y-116723475D01*
X173217760Y-116840000D01*
X173043368Y-116956525D01*
X172836525Y-117163368D01*
X172674010Y-117406589D01*
X172562068Y-117676842D01*
X172505000Y-117963740D01*
X172505000Y-118256260D01*
X172562068Y-118543158D01*
X172674010Y-118813411D01*
X172836525Y-119056632D01*
X173043368Y-119263475D01*
X173216729Y-119379311D01*
X173141208Y-119621603D01*
X173990000Y-120470395D01*
X174838792Y-119621603D01*
X174763271Y-119379311D01*
X174936632Y-119263475D01*
X175143475Y-119056632D01*
X175305990Y-118813411D01*
X175417932Y-118543158D01*
X175475000Y-118256260D01*
X175475000Y-117963740D01*
X175417932Y-117676842D01*
X175305990Y-117406589D01*
X175143475Y-117163368D01*
X174936632Y-116956525D01*
X174762240Y-116840000D01*
X174936632Y-116723475D01*
X175143475Y-116516632D01*
X175305990Y-116273411D01*
X175417932Y-116003158D01*
X175475000Y-115716260D01*
X175475000Y-115423740D01*
X175417932Y-115136842D01*
X175305990Y-114866589D01*
X175143475Y-114623368D01*
X174936632Y-114416525D01*
X174762240Y-114300000D01*
X174936632Y-114183475D01*
X175143475Y-113976632D01*
X175305990Y-113733411D01*
X175417932Y-113463158D01*
X175475000Y-113176260D01*
X175475000Y-112883740D01*
X175417932Y-112596842D01*
X175305990Y-112326589D01*
X175143475Y-112083368D01*
X174936632Y-111876525D01*
X174762240Y-111760000D01*
X174936632Y-111643475D01*
X175143475Y-111436632D01*
X175305990Y-111193411D01*
X175417932Y-110923158D01*
X175475000Y-110636260D01*
X175475000Y-110343740D01*
X175417932Y-110056842D01*
X175305990Y-109786589D01*
X175143475Y-109543368D01*
X174936632Y-109336525D01*
X174762240Y-109220000D01*
X174936632Y-109103475D01*
X175143475Y-108896632D01*
X175305990Y-108653411D01*
X175417932Y-108383158D01*
X175475000Y-108096260D01*
X175475000Y-107803740D01*
X175417932Y-107516842D01*
X175305990Y-107246589D01*
X175143475Y-107003368D01*
X174936632Y-106796525D01*
X174762240Y-106680000D01*
X174936632Y-106563475D01*
X175143475Y-106356632D01*
X175305990Y-106113411D01*
X175417932Y-105843158D01*
X175475000Y-105556260D01*
X175475000Y-105263740D01*
X175417932Y-104976842D01*
X175305990Y-104706589D01*
X175143475Y-104463368D01*
X174936632Y-104256525D01*
X174762240Y-104140000D01*
X174936632Y-104023475D01*
X175143475Y-103816632D01*
X175305990Y-103573411D01*
X175417932Y-103303158D01*
X175475000Y-103016260D01*
X175475000Y-102723740D01*
X175417932Y-102436842D01*
X175305990Y-102166589D01*
X175143475Y-101923368D01*
X174936632Y-101716525D01*
X174762240Y-101600000D01*
X174936632Y-101483475D01*
X175143475Y-101276632D01*
X175305990Y-101033411D01*
X175417932Y-100763158D01*
X175475000Y-100476260D01*
X175475000Y-100183740D01*
X175417932Y-99896842D01*
X175305990Y-99626589D01*
X175143475Y-99383368D01*
X174936632Y-99176525D01*
X174762240Y-99060000D01*
X174936632Y-98943475D01*
X175143475Y-98736632D01*
X175305990Y-98493411D01*
X175417932Y-98223158D01*
X175475000Y-97936260D01*
X175475000Y-97643740D01*
X175417932Y-97356842D01*
X175305990Y-97086589D01*
X175143475Y-96843368D01*
X174936632Y-96636525D01*
X174762240Y-96520000D01*
X174936632Y-96403475D01*
X175143475Y-96196632D01*
X175305990Y-95953411D01*
X175417932Y-95683158D01*
X175475000Y-95396260D01*
X175475000Y-95103740D01*
X175417932Y-94816842D01*
X175305990Y-94546589D01*
X175143475Y-94303368D01*
X174936632Y-94096525D01*
X174762240Y-93980000D01*
X174936632Y-93863475D01*
X175143475Y-93656632D01*
X175305990Y-93413411D01*
X175417932Y-93143158D01*
X175475000Y-92856260D01*
X175475000Y-92563740D01*
X175417932Y-92276842D01*
X175305990Y-92006589D01*
X175143475Y-91763368D01*
X174936632Y-91556525D01*
X174762240Y-91440000D01*
X174936632Y-91323475D01*
X175143475Y-91116632D01*
X175305990Y-90873411D01*
X175417932Y-90603158D01*
X175475000Y-90316260D01*
X175475000Y-90023740D01*
X175417932Y-89736842D01*
X175305990Y-89466589D01*
X175143475Y-89223368D01*
X174936632Y-89016525D01*
X174762240Y-88900000D01*
X174936632Y-88783475D01*
X175143475Y-88576632D01*
X175305990Y-88333411D01*
X175417932Y-88063158D01*
X175475000Y-87776260D01*
X175475000Y-87483740D01*
X175417932Y-87196842D01*
X175305990Y-86926589D01*
X175143475Y-86683368D01*
X174936632Y-86476525D01*
X174762240Y-86360000D01*
X174936632Y-86243475D01*
X175143475Y-86036632D01*
X175305990Y-85793411D01*
X175417932Y-85523158D01*
X175475000Y-85236260D01*
X175475000Y-84943740D01*
X175417932Y-84656842D01*
X175305990Y-84386589D01*
X175143475Y-84143368D01*
X174936632Y-83936525D01*
X174762240Y-83820000D01*
X174936632Y-83703475D01*
X175143475Y-83496632D01*
X175305990Y-83253411D01*
X175417932Y-82983158D01*
X175475000Y-82696260D01*
X175475000Y-82403740D01*
X175417932Y-82116842D01*
X175305990Y-81846589D01*
X175143475Y-81603368D01*
X174936632Y-81396525D01*
X174762240Y-81280000D01*
X174936632Y-81163475D01*
X175143475Y-80956632D01*
X175305990Y-80713411D01*
X175417932Y-80443158D01*
X175475000Y-80156260D01*
X175475000Y-79863740D01*
X175417932Y-79576842D01*
X175305990Y-79306589D01*
X175143475Y-79063368D01*
X175011620Y-78931513D01*
X175084180Y-78909502D01*
X175194494Y-78850537D01*
X175291185Y-78771185D01*
X175370537Y-78674494D01*
X175429502Y-78564180D01*
X175465812Y-78444482D01*
X175478072Y-78320000D01*
X175478072Y-77323740D01*
X187745000Y-77323740D01*
X187745000Y-77616260D01*
X187802068Y-77903158D01*
X187914010Y-78173411D01*
X188076525Y-78416632D01*
X188283368Y-78623475D01*
X188457760Y-78740000D01*
X188283368Y-78856525D01*
X188076525Y-79063368D01*
X187914010Y-79306589D01*
X187802068Y-79576842D01*
X187745000Y-79863740D01*
X187745000Y-80156260D01*
X187802068Y-80443158D01*
X187914010Y-80713411D01*
X188076525Y-80956632D01*
X188283368Y-81163475D01*
X188457760Y-81280000D01*
X188283368Y-81396525D01*
X188076525Y-81603368D01*
X187914010Y-81846589D01*
X187802068Y-82116842D01*
X187745000Y-82403740D01*
X187745000Y-82696260D01*
X187802068Y-82983158D01*
X187914010Y-83253411D01*
X188076525Y-83496632D01*
X188283368Y-83703475D01*
X188457760Y-83820000D01*
X188283368Y-83936525D01*
X188076525Y-84143368D01*
X187914010Y-84386589D01*
X187802068Y-84656842D01*
X187745000Y-84943740D01*
X187745000Y-85236260D01*
X187802068Y-85523158D01*
X187914010Y-85793411D01*
X188076525Y-86036632D01*
X188283368Y-86243475D01*
X188457760Y-86360000D01*
X188283368Y-86476525D01*
X188076525Y-86683368D01*
X187914010Y-86926589D01*
X187802068Y-87196842D01*
X187745000Y-87483740D01*
X187745000Y-87776260D01*
X187802068Y-88063158D01*
X187914010Y-88333411D01*
X188076525Y-88576632D01*
X188283368Y-88783475D01*
X188457760Y-88900000D01*
X188283368Y-89016525D01*
X188076525Y-89223368D01*
X187914010Y-89466589D01*
X187802068Y-89736842D01*
X187745000Y-90023740D01*
X187745000Y-90316260D01*
X187802068Y-90603158D01*
X187914010Y-90873411D01*
X188076525Y-91116632D01*
X188283368Y-91323475D01*
X188457760Y-91440000D01*
X188283368Y-91556525D01*
X188076525Y-91763368D01*
X187914010Y-92006589D01*
X187802068Y-92276842D01*
X187745000Y-92563740D01*
X187745000Y-92856260D01*
X187802068Y-93143158D01*
X187914010Y-93413411D01*
X188076525Y-93656632D01*
X188283368Y-93863475D01*
X188457760Y-93980000D01*
X188283368Y-94096525D01*
X188076525Y-94303368D01*
X187914010Y-94546589D01*
X187802068Y-94816842D01*
X187745000Y-95103740D01*
X187745000Y-95396260D01*
X187802068Y-95683158D01*
X187914010Y-95953411D01*
X188076525Y-96196632D01*
X188283368Y-96403475D01*
X188457760Y-96520000D01*
X188283368Y-96636525D01*
X188076525Y-96843368D01*
X187914010Y-97086589D01*
X187802068Y-97356842D01*
X187745000Y-97643740D01*
X187745000Y-97936260D01*
X187802068Y-98223158D01*
X187914010Y-98493411D01*
X188076525Y-98736632D01*
X188283368Y-98943475D01*
X188457760Y-99060000D01*
X188283368Y-99176525D01*
X188076525Y-99383368D01*
X187914010Y-99626589D01*
X187802068Y-99896842D01*
X187745000Y-100183740D01*
X187745000Y-100476260D01*
X187802068Y-100763158D01*
X187914010Y-101033411D01*
X188076525Y-101276632D01*
X188283368Y-101483475D01*
X188457760Y-101600000D01*
X188283368Y-101716525D01*
X188076525Y-101923368D01*
X187914010Y-102166589D01*
X187802068Y-102436842D01*
X187745000Y-102723740D01*
X187745000Y-103016260D01*
X187802068Y-103303158D01*
X187914010Y-103573411D01*
X188076525Y-103816632D01*
X188283368Y-104023475D01*
X188457760Y-104140000D01*
X188283368Y-104256525D01*
X188076525Y-104463368D01*
X187914010Y-104706589D01*
X187802068Y-104976842D01*
X187745000Y-105263740D01*
X187745000Y-105556260D01*
X187802068Y-105843158D01*
X187914010Y-106113411D01*
X188076525Y-106356632D01*
X188283368Y-106563475D01*
X188457760Y-106680000D01*
X188283368Y-106796525D01*
X188076525Y-107003368D01*
X187914010Y-107246589D01*
X187802068Y-107516842D01*
X187745000Y-107803740D01*
X187745000Y-108096260D01*
X187802068Y-108383158D01*
X187914010Y-108653411D01*
X188076525Y-108896632D01*
X188283368Y-109103475D01*
X188457760Y-109220000D01*
X188283368Y-109336525D01*
X188076525Y-109543368D01*
X187914010Y-109786589D01*
X187802068Y-110056842D01*
X187745000Y-110343740D01*
X187745000Y-110636260D01*
X187802068Y-110923158D01*
X187914010Y-111193411D01*
X188076525Y-111436632D01*
X188283368Y-111643475D01*
X188457760Y-111760000D01*
X188283368Y-111876525D01*
X188076525Y-112083368D01*
X187914010Y-112326589D01*
X187802068Y-112596842D01*
X187745000Y-112883740D01*
X187745000Y-113176260D01*
X187802068Y-113463158D01*
X187914010Y-113733411D01*
X188076525Y-113976632D01*
X188283368Y-114183475D01*
X188457760Y-114300000D01*
X188283368Y-114416525D01*
X188076525Y-114623368D01*
X187914010Y-114866589D01*
X187802068Y-115136842D01*
X187745000Y-115423740D01*
X187745000Y-115716260D01*
X187802068Y-116003158D01*
X187914010Y-116273411D01*
X188076525Y-116516632D01*
X188283368Y-116723475D01*
X188457760Y-116840000D01*
X188283368Y-116956525D01*
X188076525Y-117163368D01*
X187914010Y-117406589D01*
X187802068Y-117676842D01*
X187745000Y-117963740D01*
X187745000Y-118256260D01*
X187802068Y-118543158D01*
X187914010Y-118813411D01*
X188076525Y-119056632D01*
X188283368Y-119263475D01*
X188457760Y-119380000D01*
X188283368Y-119496525D01*
X188076525Y-119703368D01*
X187914010Y-119946589D01*
X187802068Y-120216842D01*
X187745000Y-120503740D01*
X187745000Y-120796260D01*
X187802068Y-121083158D01*
X187914010Y-121353411D01*
X188076525Y-121596632D01*
X188283368Y-121803475D01*
X188457760Y-121920000D01*
X188283368Y-122036525D01*
X188076525Y-122243368D01*
X187914010Y-122486589D01*
X187802068Y-122756842D01*
X187745000Y-123043740D01*
X187745000Y-123336260D01*
X187802068Y-123623158D01*
X187914010Y-123893411D01*
X188076525Y-124136632D01*
X188283368Y-124343475D01*
X188457760Y-124460000D01*
X188283368Y-124576525D01*
X188076525Y-124783368D01*
X187914010Y-125026589D01*
X187802068Y-125296842D01*
X187745000Y-125583740D01*
X187745000Y-125876260D01*
X187802068Y-126163158D01*
X187914010Y-126433411D01*
X188076525Y-126676632D01*
X188283368Y-126883475D01*
X188526589Y-127045990D01*
X188796842Y-127157932D01*
X189083740Y-127215000D01*
X189376260Y-127215000D01*
X189663158Y-127157932D01*
X189933411Y-127045990D01*
X190176632Y-126883475D01*
X190383475Y-126676632D01*
X190545990Y-126433411D01*
X190657932Y-126163158D01*
X190715000Y-125876260D01*
X190715000Y-125583740D01*
X190657932Y-125296842D01*
X190545990Y-125026589D01*
X190383475Y-124783368D01*
X190176632Y-124576525D01*
X190002240Y-124460000D01*
X190176632Y-124343475D01*
X190383475Y-124136632D01*
X190545990Y-123893411D01*
X190657932Y-123623158D01*
X190715000Y-123336260D01*
X190715000Y-123043740D01*
X190657932Y-122756842D01*
X190545990Y-122486589D01*
X190383475Y-122243368D01*
X190176632Y-122036525D01*
X190002240Y-121920000D01*
X190176632Y-121803475D01*
X190383475Y-121596632D01*
X190545990Y-121353411D01*
X190657932Y-121083158D01*
X190715000Y-120796260D01*
X190715000Y-120503740D01*
X190657932Y-120216842D01*
X190545990Y-119946589D01*
X190383475Y-119703368D01*
X190176632Y-119496525D01*
X190002240Y-119380000D01*
X190176632Y-119263475D01*
X190383475Y-119056632D01*
X190545990Y-118813411D01*
X190657932Y-118543158D01*
X190715000Y-118256260D01*
X190715000Y-117963740D01*
X190657932Y-117676842D01*
X190545990Y-117406589D01*
X190383475Y-117163368D01*
X190176632Y-116956525D01*
X190002240Y-116840000D01*
X190176632Y-116723475D01*
X190383475Y-116516632D01*
X190545990Y-116273411D01*
X190657932Y-116003158D01*
X190715000Y-115716260D01*
X190715000Y-115423740D01*
X190657932Y-115136842D01*
X190545990Y-114866589D01*
X190383475Y-114623368D01*
X190176632Y-114416525D01*
X190002240Y-114300000D01*
X190176632Y-114183475D01*
X190383475Y-113976632D01*
X190545990Y-113733411D01*
X190657932Y-113463158D01*
X190715000Y-113176260D01*
X190715000Y-112883740D01*
X190657932Y-112596842D01*
X190545990Y-112326589D01*
X190383475Y-112083368D01*
X190176632Y-111876525D01*
X190002240Y-111760000D01*
X190176632Y-111643475D01*
X190383475Y-111436632D01*
X190545990Y-111193411D01*
X190657932Y-110923158D01*
X190715000Y-110636260D01*
X190715000Y-110343740D01*
X190657932Y-110056842D01*
X190545990Y-109786589D01*
X190383475Y-109543368D01*
X190176632Y-109336525D01*
X190002240Y-109220000D01*
X190176632Y-109103475D01*
X190383475Y-108896632D01*
X190545990Y-108653411D01*
X190657932Y-108383158D01*
X190715000Y-108096260D01*
X190715000Y-107803740D01*
X190657932Y-107516842D01*
X190545990Y-107246589D01*
X190383475Y-107003368D01*
X190176632Y-106796525D01*
X190002240Y-106680000D01*
X190176632Y-106563475D01*
X190383475Y-106356632D01*
X190545990Y-106113411D01*
X190657932Y-105843158D01*
X190715000Y-105556260D01*
X190715000Y-105263740D01*
X190657932Y-104976842D01*
X190545990Y-104706589D01*
X190383475Y-104463368D01*
X190176632Y-104256525D01*
X190002240Y-104140000D01*
X190176632Y-104023475D01*
X190383475Y-103816632D01*
X190545990Y-103573411D01*
X190657932Y-103303158D01*
X190715000Y-103016260D01*
X190715000Y-102723740D01*
X190657932Y-102436842D01*
X190545990Y-102166589D01*
X190383475Y-101923368D01*
X190176632Y-101716525D01*
X190002240Y-101600000D01*
X190176632Y-101483475D01*
X190383475Y-101276632D01*
X190545990Y-101033411D01*
X190657932Y-100763158D01*
X190715000Y-100476260D01*
X190715000Y-100183740D01*
X190657932Y-99896842D01*
X190545990Y-99626589D01*
X190383475Y-99383368D01*
X190176632Y-99176525D01*
X190002240Y-99060000D01*
X190176632Y-98943475D01*
X190383475Y-98736632D01*
X190545990Y-98493411D01*
X190657932Y-98223158D01*
X190715000Y-97936260D01*
X190715000Y-97643740D01*
X190657932Y-97356842D01*
X190545990Y-97086589D01*
X190383475Y-96843368D01*
X190176632Y-96636525D01*
X190002240Y-96520000D01*
X190176632Y-96403475D01*
X190383475Y-96196632D01*
X190545990Y-95953411D01*
X190657932Y-95683158D01*
X190715000Y-95396260D01*
X190715000Y-95103740D01*
X190657932Y-94816842D01*
X190545990Y-94546589D01*
X190383475Y-94303368D01*
X190176632Y-94096525D01*
X190002240Y-93980000D01*
X190176632Y-93863475D01*
X190383475Y-93656632D01*
X190545990Y-93413411D01*
X190657932Y-93143158D01*
X190715000Y-92856260D01*
X190715000Y-92563740D01*
X190657932Y-92276842D01*
X190545990Y-92006589D01*
X190383475Y-91763368D01*
X190176632Y-91556525D01*
X190002240Y-91440000D01*
X190176632Y-91323475D01*
X190383475Y-91116632D01*
X190545990Y-90873411D01*
X190657932Y-90603158D01*
X190715000Y-90316260D01*
X190715000Y-90023740D01*
X190657932Y-89736842D01*
X190545990Y-89466589D01*
X190383475Y-89223368D01*
X190176632Y-89016525D01*
X190002240Y-88900000D01*
X190176632Y-88783475D01*
X190383475Y-88576632D01*
X190545990Y-88333411D01*
X190657932Y-88063158D01*
X190715000Y-87776260D01*
X190715000Y-87483740D01*
X190657932Y-87196842D01*
X190545990Y-86926589D01*
X190383475Y-86683368D01*
X190176632Y-86476525D01*
X190002240Y-86360000D01*
X190176632Y-86243475D01*
X190383475Y-86036632D01*
X190545990Y-85793411D01*
X190657932Y-85523158D01*
X190715000Y-85236260D01*
X190715000Y-84943740D01*
X190657932Y-84656842D01*
X190545990Y-84386589D01*
X190383475Y-84143368D01*
X190176632Y-83936525D01*
X190002240Y-83820000D01*
X190176632Y-83703475D01*
X190383475Y-83496632D01*
X190545990Y-83253411D01*
X190657932Y-82983158D01*
X190715000Y-82696260D01*
X190715000Y-82403740D01*
X190657932Y-82116842D01*
X190545990Y-81846589D01*
X190383475Y-81603368D01*
X190176632Y-81396525D01*
X190002240Y-81280000D01*
X190176632Y-81163475D01*
X190383475Y-80956632D01*
X190545990Y-80713411D01*
X190657932Y-80443158D01*
X190715000Y-80156260D01*
X190715000Y-79863740D01*
X190657932Y-79576842D01*
X190545990Y-79306589D01*
X190383475Y-79063368D01*
X190176632Y-78856525D01*
X190002240Y-78740000D01*
X190176632Y-78623475D01*
X190383475Y-78416632D01*
X190545990Y-78173411D01*
X190657932Y-77903158D01*
X190715000Y-77616260D01*
X190715000Y-77323740D01*
X190657932Y-77036842D01*
X190545990Y-76766589D01*
X190383475Y-76523368D01*
X190176632Y-76316525D01*
X189933411Y-76154010D01*
X189663158Y-76042068D01*
X189376260Y-75985000D01*
X189083740Y-75985000D01*
X188796842Y-76042068D01*
X188526589Y-76154010D01*
X188283368Y-76316525D01*
X188076525Y-76523368D01*
X187914010Y-76766589D01*
X187802068Y-77036842D01*
X187745000Y-77323740D01*
X175478072Y-77323740D01*
X175478072Y-76620000D01*
X175465812Y-76495518D01*
X175429502Y-76375820D01*
X175370537Y-76265506D01*
X175291185Y-76168815D01*
X175194494Y-76089463D01*
X175084180Y-76030498D01*
X174964482Y-75994188D01*
X174840000Y-75981928D01*
X173140000Y-75981928D01*
X173015518Y-75994188D01*
X172895820Y-76030498D01*
X172785506Y-76089463D01*
X172688815Y-76168815D01*
X172609463Y-76265506D01*
X172550498Y-76375820D01*
X172514188Y-76495518D01*
X172501928Y-76620000D01*
X107340000Y-76620000D01*
X107340000Y-73479268D01*
X148025000Y-73479268D01*
X148025000Y-73840732D01*
X148095518Y-74195250D01*
X148233844Y-74529199D01*
X148434662Y-74829744D01*
X148690256Y-75085338D01*
X148990801Y-75286156D01*
X149324750Y-75424482D01*
X149679268Y-75495000D01*
X150040732Y-75495000D01*
X150395250Y-75424482D01*
X150729199Y-75286156D01*
X151029744Y-75085338D01*
X151285338Y-74829744D01*
X151486156Y-74529199D01*
X151624482Y-74195250D01*
X151695000Y-73840732D01*
X151695000Y-73479268D01*
X160725000Y-73479268D01*
X160725000Y-73840732D01*
X160795518Y-74195250D01*
X160933844Y-74529199D01*
X161134662Y-74829744D01*
X161390256Y-75085338D01*
X161690801Y-75286156D01*
X162024750Y-75424482D01*
X162379268Y-75495000D01*
X162740732Y-75495000D01*
X163095250Y-75424482D01*
X163429199Y-75286156D01*
X163729744Y-75085338D01*
X163985338Y-74829744D01*
X164186156Y-74529199D01*
X164324482Y-74195250D01*
X164395000Y-73840732D01*
X164395000Y-73479268D01*
X164324482Y-73124750D01*
X164186156Y-72790801D01*
X163985338Y-72490256D01*
X163729744Y-72234662D01*
X163429199Y-72033844D01*
X163095250Y-71895518D01*
X162740732Y-71825000D01*
X162379268Y-71825000D01*
X162024750Y-71895518D01*
X161690801Y-72033844D01*
X161390256Y-72234662D01*
X161134662Y-72490256D01*
X160933844Y-72790801D01*
X160795518Y-73124750D01*
X160725000Y-73479268D01*
X151695000Y-73479268D01*
X151624482Y-73124750D01*
X151486156Y-72790801D01*
X151285338Y-72490256D01*
X151029744Y-72234662D01*
X150729199Y-72033844D01*
X150395250Y-71895518D01*
X150040732Y-71825000D01*
X149679268Y-71825000D01*
X149324750Y-71895518D01*
X148990801Y-72033844D01*
X148690256Y-72234662D01*
X148434662Y-72490256D01*
X148233844Y-72790801D01*
X148095518Y-73124750D01*
X148025000Y-73479268D01*
X107340000Y-73479268D01*
X107340000Y-67730000D01*
X112811928Y-67730000D01*
X112811928Y-69430000D01*
X112824188Y-69554482D01*
X112860498Y-69674180D01*
X112919463Y-69784494D01*
X112998815Y-69881185D01*
X113095506Y-69960537D01*
X113205820Y-70019502D01*
X113325518Y-70055812D01*
X113450000Y-70068072D01*
X115150000Y-70068072D01*
X115274482Y-70055812D01*
X115394180Y-70019502D01*
X115504494Y-69960537D01*
X115601185Y-69881185D01*
X115680537Y-69784494D01*
X115739502Y-69674180D01*
X115761513Y-69601620D01*
X115893368Y-69733475D01*
X116136589Y-69895990D01*
X116406842Y-70007932D01*
X116693740Y-70065000D01*
X116986260Y-70065000D01*
X117273158Y-70007932D01*
X117543411Y-69895990D01*
X117786632Y-69733475D01*
X117993475Y-69526632D01*
X118110000Y-69352240D01*
X118226525Y-69526632D01*
X118433368Y-69733475D01*
X118676589Y-69895990D01*
X118946842Y-70007932D01*
X119233740Y-70065000D01*
X119526260Y-70065000D01*
X119813158Y-70007932D01*
X120083411Y-69895990D01*
X120326632Y-69733475D01*
X120533475Y-69526632D01*
X120695990Y-69283411D01*
X120807932Y-69013158D01*
X120865000Y-68726260D01*
X120865000Y-68433740D01*
X120811544Y-68164999D01*
X122971928Y-68164999D01*
X122971928Y-69430000D01*
X122984188Y-69554482D01*
X123020498Y-69674180D01*
X123079463Y-69784494D01*
X123158815Y-69881185D01*
X123255506Y-69960537D01*
X123365820Y-70019502D01*
X123485518Y-70055812D01*
X123610000Y-70068072D01*
X125310000Y-70068072D01*
X125434482Y-70055812D01*
X125554180Y-70019502D01*
X125664494Y-69960537D01*
X125761185Y-69881185D01*
X125840537Y-69784494D01*
X125899502Y-69674180D01*
X125921513Y-69601620D01*
X126053368Y-69733475D01*
X126296589Y-69895990D01*
X126566842Y-70007932D01*
X126853740Y-70065000D01*
X127146260Y-70065000D01*
X127433158Y-70007932D01*
X127703411Y-69895990D01*
X127946632Y-69733475D01*
X128054217Y-69625890D01*
X129125010Y-69625890D01*
X129125010Y-70074110D01*
X129212453Y-70513718D01*
X129383980Y-70927819D01*
X129632997Y-71300500D01*
X129949937Y-71617440D01*
X130322618Y-71866457D01*
X130736719Y-72037984D01*
X131176327Y-72125427D01*
X131624547Y-72125427D01*
X132064155Y-72037984D01*
X132478256Y-71866457D01*
X132850937Y-71617440D01*
X133167877Y-71300500D01*
X133416894Y-70927819D01*
X133588421Y-70513718D01*
X133675864Y-70074110D01*
X133675864Y-69625890D01*
X133588421Y-69186282D01*
X133416894Y-68772181D01*
X133167877Y-68399500D01*
X132850937Y-68082560D01*
X132478256Y-67833543D01*
X132228283Y-67730000D01*
X142021928Y-67730000D01*
X142021928Y-69430000D01*
X142034188Y-69554482D01*
X142070498Y-69674180D01*
X142129463Y-69784494D01*
X142208815Y-69881185D01*
X142305506Y-69960537D01*
X142415820Y-70019502D01*
X142535518Y-70055812D01*
X142660000Y-70068072D01*
X144360000Y-70068072D01*
X144484482Y-70055812D01*
X144604180Y-70019502D01*
X144714494Y-69960537D01*
X144811185Y-69881185D01*
X144890537Y-69784494D01*
X144949502Y-69674180D01*
X144985812Y-69554482D01*
X144998072Y-69430000D01*
X144998072Y-68399268D01*
X148025000Y-68399268D01*
X148025000Y-68760732D01*
X148095518Y-69115250D01*
X148233844Y-69449199D01*
X148434662Y-69749744D01*
X148690256Y-70005338D01*
X148990801Y-70206156D01*
X149324750Y-70344482D01*
X149679268Y-70415000D01*
X150040732Y-70415000D01*
X150395250Y-70344482D01*
X150729199Y-70206156D01*
X151029744Y-70005338D01*
X151285338Y-69749744D01*
X151486156Y-69449199D01*
X151624482Y-69115250D01*
X151695000Y-68760732D01*
X151695000Y-68399268D01*
X160725000Y-68399268D01*
X160725000Y-68760732D01*
X160795518Y-69115250D01*
X160933844Y-69449199D01*
X161134662Y-69749744D01*
X161390256Y-70005338D01*
X161690801Y-70206156D01*
X162024750Y-70344482D01*
X162379268Y-70415000D01*
X162740732Y-70415000D01*
X163095250Y-70344482D01*
X163429199Y-70206156D01*
X163729744Y-70005338D01*
X163985338Y-69749744D01*
X164068094Y-69625890D01*
X169257010Y-69625890D01*
X169257010Y-70074110D01*
X169344453Y-70513718D01*
X169515980Y-70927819D01*
X169764997Y-71300500D01*
X170081937Y-71617440D01*
X170454618Y-71866457D01*
X170868719Y-72037984D01*
X171308327Y-72125427D01*
X171756547Y-72125427D01*
X172196155Y-72037984D01*
X172610256Y-71866457D01*
X172982937Y-71617440D01*
X173299877Y-71300500D01*
X173548894Y-70927819D01*
X173720421Y-70513718D01*
X173807864Y-70074110D01*
X173807864Y-69625890D01*
X173720421Y-69186282D01*
X173548894Y-68772181D01*
X173299877Y-68399500D01*
X172982937Y-68082560D01*
X172610256Y-67833543D01*
X172360283Y-67730000D01*
X175041928Y-67730000D01*
X175041928Y-69430000D01*
X175054188Y-69554482D01*
X175090498Y-69674180D01*
X175149463Y-69784494D01*
X175228815Y-69881185D01*
X175325506Y-69960537D01*
X175435820Y-70019502D01*
X175555518Y-70055812D01*
X175680000Y-70068072D01*
X177380000Y-70068072D01*
X177504482Y-70055812D01*
X177624180Y-70019502D01*
X177734494Y-69960537D01*
X177831185Y-69881185D01*
X177910537Y-69784494D01*
X177969502Y-69674180D01*
X177993966Y-69593534D01*
X178069731Y-69677588D01*
X178303080Y-69851641D01*
X178565901Y-69976825D01*
X178713110Y-70021476D01*
X178943000Y-69900155D01*
X178943000Y-68707000D01*
X179197000Y-68707000D01*
X179197000Y-69900155D01*
X179426890Y-70021476D01*
X179574099Y-69976825D01*
X179836920Y-69851641D01*
X180070269Y-69677588D01*
X180265178Y-69461355D01*
X180414157Y-69211252D01*
X180511481Y-68936891D01*
X180390814Y-68707000D01*
X179197000Y-68707000D01*
X178943000Y-68707000D01*
X178923000Y-68707000D01*
X178923000Y-68453000D01*
X178943000Y-68453000D01*
X178943000Y-67259845D01*
X179197000Y-67259845D01*
X179197000Y-68453000D01*
X180390814Y-68453000D01*
X180511481Y-68223109D01*
X180414157Y-67948748D01*
X180283856Y-67730000D01*
X182661928Y-67730000D01*
X182661928Y-69430000D01*
X182674188Y-69554482D01*
X182710498Y-69674180D01*
X182769463Y-69784494D01*
X182848815Y-69881185D01*
X182945506Y-69960537D01*
X183055820Y-70019502D01*
X183175518Y-70055812D01*
X183300000Y-70068072D01*
X185000000Y-70068072D01*
X185124482Y-70055812D01*
X185244180Y-70019502D01*
X185354494Y-69960537D01*
X185451185Y-69881185D01*
X185530537Y-69784494D01*
X185589502Y-69674180D01*
X185613966Y-69593534D01*
X185689731Y-69677588D01*
X185923080Y-69851641D01*
X186185901Y-69976825D01*
X186333110Y-70021476D01*
X186563000Y-69900155D01*
X186563000Y-68707000D01*
X186543000Y-68707000D01*
X186543000Y-68453000D01*
X186563000Y-68453000D01*
X186563000Y-67259845D01*
X186817000Y-67259845D01*
X186817000Y-68453000D01*
X186837000Y-68453000D01*
X186837000Y-68707000D01*
X186817000Y-68707000D01*
X186817000Y-69900155D01*
X187046890Y-70021476D01*
X187194099Y-69976825D01*
X187456920Y-69851641D01*
X187690269Y-69677588D01*
X187885178Y-69461355D01*
X187954805Y-69344466D01*
X188076525Y-69526632D01*
X188283368Y-69733475D01*
X188526589Y-69895990D01*
X188796842Y-70007932D01*
X189083740Y-70065000D01*
X189376260Y-70065000D01*
X189663158Y-70007932D01*
X189933411Y-69895990D01*
X190176632Y-69733475D01*
X190383475Y-69526632D01*
X190545990Y-69283411D01*
X190657932Y-69013158D01*
X190715000Y-68726260D01*
X190715000Y-68433740D01*
X190657932Y-68146842D01*
X190545990Y-67876589D01*
X190383475Y-67633368D01*
X190176632Y-67426525D01*
X189933411Y-67264010D01*
X189663158Y-67152068D01*
X189376260Y-67095000D01*
X189083740Y-67095000D01*
X188796842Y-67152068D01*
X188526589Y-67264010D01*
X188283368Y-67426525D01*
X188076525Y-67633368D01*
X187954805Y-67815534D01*
X187885178Y-67698645D01*
X187690269Y-67482412D01*
X187456920Y-67308359D01*
X187194099Y-67183175D01*
X187046890Y-67138524D01*
X186817000Y-67259845D01*
X186563000Y-67259845D01*
X186333110Y-67138524D01*
X186185901Y-67183175D01*
X185923080Y-67308359D01*
X185689731Y-67482412D01*
X185613966Y-67566466D01*
X185589502Y-67485820D01*
X185530537Y-67375506D01*
X185451185Y-67278815D01*
X185354494Y-67199463D01*
X185244180Y-67140498D01*
X185124482Y-67104188D01*
X185000000Y-67091928D01*
X183300000Y-67091928D01*
X183175518Y-67104188D01*
X183055820Y-67140498D01*
X182945506Y-67199463D01*
X182848815Y-67278815D01*
X182769463Y-67375506D01*
X182710498Y-67485820D01*
X182674188Y-67605518D01*
X182661928Y-67730000D01*
X180283856Y-67730000D01*
X180265178Y-67698645D01*
X180070269Y-67482412D01*
X179836920Y-67308359D01*
X179574099Y-67183175D01*
X179426890Y-67138524D01*
X179197000Y-67259845D01*
X178943000Y-67259845D01*
X178713110Y-67138524D01*
X178565901Y-67183175D01*
X178303080Y-67308359D01*
X178069731Y-67482412D01*
X177993966Y-67566466D01*
X177969502Y-67485820D01*
X177910537Y-67375506D01*
X177831185Y-67278815D01*
X177734494Y-67199463D01*
X177624180Y-67140498D01*
X177504482Y-67104188D01*
X177380000Y-67091928D01*
X175680000Y-67091928D01*
X175555518Y-67104188D01*
X175435820Y-67140498D01*
X175325506Y-67199463D01*
X175228815Y-67278815D01*
X175149463Y-67375506D01*
X175090498Y-67485820D01*
X175054188Y-67605518D01*
X175041928Y-67730000D01*
X172360283Y-67730000D01*
X172196155Y-67662016D01*
X171756547Y-67574573D01*
X171308327Y-67574573D01*
X170868719Y-67662016D01*
X170454618Y-67833543D01*
X170081937Y-68082560D01*
X169764997Y-68399500D01*
X169515980Y-68772181D01*
X169344453Y-69186282D01*
X169257010Y-69625890D01*
X164068094Y-69625890D01*
X164186156Y-69449199D01*
X164324482Y-69115250D01*
X164395000Y-68760732D01*
X164395000Y-68399268D01*
X164324482Y-68044750D01*
X164186156Y-67710801D01*
X163985338Y-67410256D01*
X163729744Y-67154662D01*
X163429199Y-66953844D01*
X163095250Y-66815518D01*
X162740732Y-66745000D01*
X162379268Y-66745000D01*
X162024750Y-66815518D01*
X161690801Y-66953844D01*
X161390256Y-67154662D01*
X161134662Y-67410256D01*
X160933844Y-67710801D01*
X160795518Y-68044750D01*
X160725000Y-68399268D01*
X151695000Y-68399268D01*
X151624482Y-68044750D01*
X151486156Y-67710801D01*
X151285338Y-67410256D01*
X151029744Y-67154662D01*
X150729199Y-66953844D01*
X150395250Y-66815518D01*
X150040732Y-66745000D01*
X149679268Y-66745000D01*
X149324750Y-66815518D01*
X148990801Y-66953844D01*
X148690256Y-67154662D01*
X148434662Y-67410256D01*
X148233844Y-67710801D01*
X148095518Y-68044750D01*
X148025000Y-68399268D01*
X144998072Y-68399268D01*
X144998072Y-67730000D01*
X144985812Y-67605518D01*
X144949502Y-67485820D01*
X144890537Y-67375506D01*
X144811185Y-67278815D01*
X144714494Y-67199463D01*
X144604180Y-67140498D01*
X144484482Y-67104188D01*
X144360000Y-67091928D01*
X142660000Y-67091928D01*
X142535518Y-67104188D01*
X142415820Y-67140498D01*
X142305506Y-67199463D01*
X142208815Y-67278815D01*
X142129463Y-67375506D01*
X142070498Y-67485820D01*
X142034188Y-67605518D01*
X142021928Y-67730000D01*
X132228283Y-67730000D01*
X132064155Y-67662016D01*
X131624547Y-67574573D01*
X131176327Y-67574573D01*
X130736719Y-67662016D01*
X130322618Y-67833543D01*
X129949937Y-68082560D01*
X129632997Y-68399500D01*
X129383980Y-68772181D01*
X129212453Y-69186282D01*
X129125010Y-69625890D01*
X128054217Y-69625890D01*
X128153475Y-69526632D01*
X128315990Y-69283411D01*
X128427932Y-69013158D01*
X128485000Y-68726260D01*
X128485000Y-68433740D01*
X128427932Y-68146842D01*
X128315990Y-67876589D01*
X128153475Y-67633368D01*
X127946632Y-67426525D01*
X127703411Y-67264010D01*
X127433158Y-67152068D01*
X127146260Y-67095000D01*
X126853740Y-67095000D01*
X126633592Y-67138791D01*
X126388803Y-66894002D01*
X126365000Y-66864998D01*
X126249275Y-66770025D01*
X126117246Y-66699453D01*
X125973985Y-66655996D01*
X125862332Y-66644999D01*
X125862321Y-66644999D01*
X125824999Y-66641323D01*
X125787677Y-66644999D01*
X118052323Y-66644999D01*
X118015000Y-66641323D01*
X117977677Y-66644999D01*
X117977668Y-66644999D01*
X117866015Y-66655996D01*
X117722754Y-66699453D01*
X117590725Y-66770025D01*
X117475000Y-66864998D01*
X117451202Y-66893996D01*
X117206408Y-67138790D01*
X116986260Y-67095000D01*
X116693740Y-67095000D01*
X116406842Y-67152068D01*
X116136589Y-67264010D01*
X115893368Y-67426525D01*
X115761513Y-67558380D01*
X115739502Y-67485820D01*
X115680537Y-67375506D01*
X115601185Y-67278815D01*
X115504494Y-67199463D01*
X115394180Y-67140498D01*
X115274482Y-67104188D01*
X115150000Y-67091928D01*
X113450000Y-67091928D01*
X113325518Y-67104188D01*
X113205820Y-67140498D01*
X113095506Y-67199463D01*
X112998815Y-67278815D01*
X112919463Y-67375506D01*
X112860498Y-67485820D01*
X112824188Y-67605518D01*
X112811928Y-67730000D01*
X107340000Y-67730000D01*
X107340000Y-61233380D01*
X110763381Y-57810000D01*
X191496620Y-57810000D01*
X194920000Y-61233381D01*
%TA.AperFunction,Conductor*%
D21*
G36*
X194920000Y-61233381D02*
G01*
X194920001Y-141966618D01*
X191496620Y-145390000D01*
X110763381Y-145390000D01*
X107983381Y-142610000D01*
X140701928Y-142610000D01*
X140701928Y-144410000D01*
X140714188Y-144534482D01*
X140750498Y-144654180D01*
X140809463Y-144764494D01*
X140888815Y-144861185D01*
X140985506Y-144940537D01*
X141095820Y-144999502D01*
X141215518Y-145035812D01*
X141340000Y-145048072D01*
X143140000Y-145048072D01*
X143264482Y-145035812D01*
X143384180Y-144999502D01*
X143494494Y-144940537D01*
X143591185Y-144861185D01*
X143670537Y-144764494D01*
X143729502Y-144654180D01*
X143765812Y-144534482D01*
X143778072Y-144410000D01*
X143778072Y-142610000D01*
X147051928Y-142610000D01*
X147051928Y-144410000D01*
X147064188Y-144534482D01*
X147100498Y-144654180D01*
X147159463Y-144764494D01*
X147238815Y-144861185D01*
X147335506Y-144940537D01*
X147445820Y-144999502D01*
X147565518Y-145035812D01*
X147690000Y-145048072D01*
X149490000Y-145048072D01*
X149614482Y-145035812D01*
X149734180Y-144999502D01*
X149844494Y-144940537D01*
X149941185Y-144861185D01*
X150020537Y-144764494D01*
X150079502Y-144654180D01*
X150115812Y-144534482D01*
X150128072Y-144410000D01*
X150128072Y-142610000D01*
X153401928Y-142610000D01*
X153401928Y-144410000D01*
X153414188Y-144534482D01*
X153450498Y-144654180D01*
X153509463Y-144764494D01*
X153588815Y-144861185D01*
X153685506Y-144940537D01*
X153795820Y-144999502D01*
X153915518Y-145035812D01*
X154040000Y-145048072D01*
X155840000Y-145048072D01*
X155964482Y-145035812D01*
X156084180Y-144999502D01*
X156194494Y-144940537D01*
X156291185Y-144861185D01*
X156370537Y-144764494D01*
X156429502Y-144654180D01*
X156465812Y-144534482D01*
X156478072Y-144410000D01*
X156478072Y-142610000D01*
X159751928Y-142610000D01*
X159751928Y-144410000D01*
X159764188Y-144534482D01*
X159800498Y-144654180D01*
X159859463Y-144764494D01*
X159938815Y-144861185D01*
X160035506Y-144940537D01*
X160145820Y-144999502D01*
X160265518Y-145035812D01*
X160390000Y-145048072D01*
X162190000Y-145048072D01*
X162314482Y-145035812D01*
X162434180Y-144999502D01*
X162544494Y-144940537D01*
X162641185Y-144861185D01*
X162720537Y-144764494D01*
X162779502Y-144654180D01*
X162815812Y-144534482D01*
X162828072Y-144410000D01*
X162828072Y-142610000D01*
X162815812Y-142485518D01*
X162779502Y-142365820D01*
X162720537Y-142255506D01*
X162641185Y-142158815D01*
X162544494Y-142079463D01*
X162434180Y-142020498D01*
X162415873Y-142014944D01*
X162482312Y-141948505D01*
X162650299Y-141697095D01*
X162766011Y-141417743D01*
X162825000Y-141121184D01*
X162825000Y-140818816D01*
X162766011Y-140522257D01*
X162650299Y-140242905D01*
X162482312Y-139991495D01*
X162268505Y-139777688D01*
X162017095Y-139609701D01*
X161737743Y-139493989D01*
X161441184Y-139435000D01*
X161138816Y-139435000D01*
X160842257Y-139493989D01*
X160562905Y-139609701D01*
X160311495Y-139777688D01*
X160097688Y-139991495D01*
X159929701Y-140242905D01*
X159813989Y-140522257D01*
X159755000Y-140818816D01*
X159755000Y-141121184D01*
X159813989Y-141417743D01*
X159929701Y-141697095D01*
X160097688Y-141948505D01*
X160164127Y-142014944D01*
X160145820Y-142020498D01*
X160035506Y-142079463D01*
X159938815Y-142158815D01*
X159859463Y-142255506D01*
X159800498Y-142365820D01*
X159764188Y-142485518D01*
X159751928Y-142610000D01*
X156478072Y-142610000D01*
X156465812Y-142485518D01*
X156429502Y-142365820D01*
X156370537Y-142255506D01*
X156291185Y-142158815D01*
X156194494Y-142079463D01*
X156084180Y-142020498D01*
X156065873Y-142014944D01*
X156132312Y-141948505D01*
X156300299Y-141697095D01*
X156416011Y-141417743D01*
X156475000Y-141121184D01*
X156475000Y-140818816D01*
X156416011Y-140522257D01*
X156300299Y-140242905D01*
X156132312Y-139991495D01*
X155918505Y-139777688D01*
X155667095Y-139609701D01*
X155387743Y-139493989D01*
X155091184Y-139435000D01*
X154788816Y-139435000D01*
X154492257Y-139493989D01*
X154212905Y-139609701D01*
X153961495Y-139777688D01*
X153747688Y-139991495D01*
X153579701Y-140242905D01*
X153463989Y-140522257D01*
X153405000Y-140818816D01*
X153405000Y-141121184D01*
X153463989Y-141417743D01*
X153579701Y-141697095D01*
X153747688Y-141948505D01*
X153814127Y-142014944D01*
X153795820Y-142020498D01*
X153685506Y-142079463D01*
X153588815Y-142158815D01*
X153509463Y-142255506D01*
X153450498Y-142365820D01*
X153414188Y-142485518D01*
X153401928Y-142610000D01*
X150128072Y-142610000D01*
X150115812Y-142485518D01*
X150079502Y-142365820D01*
X150020537Y-142255506D01*
X149941185Y-142158815D01*
X149844494Y-142079463D01*
X149734180Y-142020498D01*
X149715873Y-142014944D01*
X149782312Y-141948505D01*
X149950299Y-141697095D01*
X150066011Y-141417743D01*
X150125000Y-141121184D01*
X150125000Y-140818816D01*
X150066011Y-140522257D01*
X149950299Y-140242905D01*
X149782312Y-139991495D01*
X149568505Y-139777688D01*
X149317095Y-139609701D01*
X149037743Y-139493989D01*
X148741184Y-139435000D01*
X148438816Y-139435000D01*
X148142257Y-139493989D01*
X147862905Y-139609701D01*
X147611495Y-139777688D01*
X147397688Y-139991495D01*
X147229701Y-140242905D01*
X147113989Y-140522257D01*
X147055000Y-140818816D01*
X147055000Y-141121184D01*
X147113989Y-141417743D01*
X147229701Y-141697095D01*
X147397688Y-141948505D01*
X147464127Y-142014944D01*
X147445820Y-142020498D01*
X147335506Y-142079463D01*
X147238815Y-142158815D01*
X147159463Y-142255506D01*
X147100498Y-142365820D01*
X147064188Y-142485518D01*
X147051928Y-142610000D01*
X143778072Y-142610000D01*
X143765812Y-142485518D01*
X143729502Y-142365820D01*
X143670537Y-142255506D01*
X143591185Y-142158815D01*
X143494494Y-142079463D01*
X143384180Y-142020498D01*
X143365873Y-142014944D01*
X143432312Y-141948505D01*
X143600299Y-141697095D01*
X143716011Y-141417743D01*
X143775000Y-141121184D01*
X143775000Y-140818816D01*
X143716011Y-140522257D01*
X143600299Y-140242905D01*
X143432312Y-139991495D01*
X143218505Y-139777688D01*
X142967095Y-139609701D01*
X142687743Y-139493989D01*
X142391184Y-139435000D01*
X142088816Y-139435000D01*
X141792257Y-139493989D01*
X141512905Y-139609701D01*
X141261495Y-139777688D01*
X141047688Y-139991495D01*
X140879701Y-140242905D01*
X140763989Y-140522257D01*
X140705000Y-140818816D01*
X140705000Y-141121184D01*
X140763989Y-141417743D01*
X140879701Y-141697095D01*
X141047688Y-141948505D01*
X141114127Y-142014944D01*
X141095820Y-142020498D01*
X140985506Y-142079463D01*
X140888815Y-142158815D01*
X140809463Y-142255506D01*
X140750498Y-142365820D01*
X140714188Y-142485518D01*
X140701928Y-142610000D01*
X107983381Y-142610000D01*
X107340000Y-141966620D01*
X107340000Y-136979268D01*
X140405000Y-136979268D01*
X140405000Y-137340732D01*
X140475518Y-137695250D01*
X140613844Y-138029199D01*
X140814662Y-138329744D01*
X141070256Y-138585338D01*
X141370801Y-138786156D01*
X141704750Y-138924482D01*
X142059268Y-138995000D01*
X142420732Y-138995000D01*
X142775250Y-138924482D01*
X143109199Y-138786156D01*
X143409744Y-138585338D01*
X143665338Y-138329744D01*
X143866156Y-138029199D01*
X144004482Y-137695250D01*
X144075000Y-137340732D01*
X144075000Y-136979268D01*
X146755000Y-136979268D01*
X146755000Y-137340732D01*
X146825518Y-137695250D01*
X146963844Y-138029199D01*
X147164662Y-138329744D01*
X147420256Y-138585338D01*
X147720801Y-138786156D01*
X148054750Y-138924482D01*
X148409268Y-138995000D01*
X148770732Y-138995000D01*
X149125250Y-138924482D01*
X149459199Y-138786156D01*
X149759744Y-138585338D01*
X150015338Y-138329744D01*
X150216156Y-138029199D01*
X150354482Y-137695250D01*
X150425000Y-137340732D01*
X150425000Y-136979268D01*
X153105000Y-136979268D01*
X153105000Y-137340732D01*
X153175518Y-137695250D01*
X153313844Y-138029199D01*
X153514662Y-138329744D01*
X153770256Y-138585338D01*
X154070801Y-138786156D01*
X154404750Y-138924482D01*
X154759268Y-138995000D01*
X155120732Y-138995000D01*
X155475250Y-138924482D01*
X155809199Y-138786156D01*
X156109744Y-138585338D01*
X156365338Y-138329744D01*
X156566156Y-138029199D01*
X156704482Y-137695250D01*
X156775000Y-137340732D01*
X156775000Y-136979268D01*
X159455000Y-136979268D01*
X159455000Y-137340732D01*
X159525518Y-137695250D01*
X159663844Y-138029199D01*
X159864662Y-138329744D01*
X160120256Y-138585338D01*
X160420801Y-138786156D01*
X160754750Y-138924482D01*
X161109268Y-138995000D01*
X161470732Y-138995000D01*
X161825250Y-138924482D01*
X162159199Y-138786156D01*
X162459744Y-138585338D01*
X162715338Y-138329744D01*
X162916156Y-138029199D01*
X163054482Y-137695250D01*
X163125000Y-137340732D01*
X163125000Y-136979268D01*
X163054482Y-136624750D01*
X162916156Y-136290801D01*
X162715338Y-135990256D01*
X162459744Y-135734662D01*
X162159199Y-135533844D01*
X161825250Y-135395518D01*
X161470732Y-135325000D01*
X161109268Y-135325000D01*
X160754750Y-135395518D01*
X160420801Y-135533844D01*
X160120256Y-135734662D01*
X159864662Y-135990256D01*
X159663844Y-136290801D01*
X159525518Y-136624750D01*
X159455000Y-136979268D01*
X156775000Y-136979268D01*
X156704482Y-136624750D01*
X156566156Y-136290801D01*
X156365338Y-135990256D01*
X156109744Y-135734662D01*
X155809199Y-135533844D01*
X155475250Y-135395518D01*
X155120732Y-135325000D01*
X154759268Y-135325000D01*
X154404750Y-135395518D01*
X154070801Y-135533844D01*
X153770256Y-135734662D01*
X153514662Y-135990256D01*
X153313844Y-136290801D01*
X153175518Y-136624750D01*
X153105000Y-136979268D01*
X150425000Y-136979268D01*
X150354482Y-136624750D01*
X150216156Y-136290801D01*
X150015338Y-135990256D01*
X149759744Y-135734662D01*
X149459199Y-135533844D01*
X149125250Y-135395518D01*
X148770732Y-135325000D01*
X148409268Y-135325000D01*
X148054750Y-135395518D01*
X147720801Y-135533844D01*
X147420256Y-135734662D01*
X147164662Y-135990256D01*
X146963844Y-136290801D01*
X146825518Y-136624750D01*
X146755000Y-136979268D01*
X144075000Y-136979268D01*
X144004482Y-136624750D01*
X143866156Y-136290801D01*
X143665338Y-135990256D01*
X143409744Y-135734662D01*
X143109199Y-135533844D01*
X142775250Y-135395518D01*
X142420732Y-135325000D01*
X142059268Y-135325000D01*
X141704750Y-135395518D01*
X141370801Y-135533844D01*
X141070256Y-135734662D01*
X140814662Y-135990256D01*
X140613844Y-136290801D01*
X140475518Y-136624750D01*
X140405000Y-136979268D01*
X107340000Y-136979268D01*
X107340000Y-134473740D01*
X111545000Y-134473740D01*
X111545000Y-134766260D01*
X111602068Y-135053158D01*
X111714010Y-135323411D01*
X111876525Y-135566632D01*
X112083368Y-135773475D01*
X112326589Y-135935990D01*
X112596842Y-136047932D01*
X112883740Y-136105000D01*
X113176260Y-136105000D01*
X113463158Y-136047932D01*
X113733411Y-135935990D01*
X113976632Y-135773475D01*
X114183475Y-135566632D01*
X114300000Y-135392240D01*
X114416525Y-135566632D01*
X114623368Y-135773475D01*
X114866589Y-135935990D01*
X115136842Y-136047932D01*
X115423740Y-136105000D01*
X115716260Y-136105000D01*
X115936408Y-136061210D01*
X116181202Y-136306004D01*
X116205000Y-136335002D01*
X116320725Y-136429975D01*
X116452754Y-136500547D01*
X116596015Y-136544004D01*
X116707668Y-136555001D01*
X116707677Y-136555001D01*
X116745000Y-136558677D01*
X116782323Y-136555001D01*
X121977677Y-136555001D01*
X122014999Y-136558677D01*
X122052321Y-136555001D01*
X122052332Y-136555001D01*
X122163985Y-136544004D01*
X122307246Y-136500547D01*
X122439275Y-136429975D01*
X122555000Y-136335002D01*
X122578803Y-136305998D01*
X122823592Y-136061209D01*
X123043740Y-136105000D01*
X123336260Y-136105000D01*
X123623158Y-136047932D01*
X123893411Y-135935990D01*
X124136632Y-135773475D01*
X124268487Y-135641620D01*
X124290498Y-135714180D01*
X124349463Y-135824494D01*
X124428815Y-135921185D01*
X124525506Y-136000537D01*
X124635820Y-136059502D01*
X124755518Y-136095812D01*
X124880000Y-136108072D01*
X126580000Y-136108072D01*
X126704482Y-136095812D01*
X126824180Y-136059502D01*
X126934494Y-136000537D01*
X127031185Y-135921185D01*
X127110537Y-135824494D01*
X127169502Y-135714180D01*
X127205812Y-135594482D01*
X127218072Y-135470000D01*
X127218072Y-133770000D01*
X127205812Y-133645518D01*
X127169502Y-133525820D01*
X127110537Y-133415506D01*
X127031185Y-133318815D01*
X126934494Y-133239463D01*
X126824180Y-133180498D01*
X126704482Y-133144188D01*
X126580000Y-133131928D01*
X124880000Y-133131928D01*
X124755518Y-133144188D01*
X124635820Y-133180498D01*
X124525506Y-133239463D01*
X124428815Y-133318815D01*
X124349463Y-133415506D01*
X124290498Y-133525820D01*
X124268487Y-133598380D01*
X124136632Y-133466525D01*
X123893411Y-133304010D01*
X123623158Y-133192068D01*
X123336260Y-133135000D01*
X123043740Y-133135000D01*
X122756842Y-133192068D01*
X122486589Y-133304010D01*
X122243368Y-133466525D01*
X122036525Y-133673368D01*
X121874010Y-133916589D01*
X121762068Y-134186842D01*
X121705000Y-134473740D01*
X121705000Y-134766260D01*
X121748791Y-134986408D01*
X121700198Y-135035001D01*
X119598072Y-135035001D01*
X119598072Y-133770000D01*
X119585812Y-133645518D01*
X119549502Y-133525820D01*
X119490537Y-133415506D01*
X119411185Y-133318815D01*
X119314494Y-133239463D01*
X119204180Y-133180498D01*
X119084482Y-133144188D01*
X118960000Y-133131928D01*
X117260000Y-133131928D01*
X117135518Y-133144188D01*
X117015820Y-133180498D01*
X116905506Y-133239463D01*
X116808815Y-133318815D01*
X116729463Y-133415506D01*
X116670498Y-133525820D01*
X116648487Y-133598380D01*
X116516632Y-133466525D01*
X116273411Y-133304010D01*
X116003158Y-133192068D01*
X115716260Y-133135000D01*
X115423740Y-133135000D01*
X115136842Y-133192068D01*
X114866589Y-133304010D01*
X114623368Y-133466525D01*
X114416525Y-133673368D01*
X114300000Y-133847760D01*
X114183475Y-133673368D01*
X113976632Y-133466525D01*
X113733411Y-133304010D01*
X113463158Y-133192068D01*
X113176260Y-133135000D01*
X112883740Y-133135000D01*
X112596842Y-133192068D01*
X112326589Y-133304010D01*
X112083368Y-133466525D01*
X111876525Y-133673368D01*
X111714010Y-133916589D01*
X111602068Y-134186842D01*
X111545000Y-134473740D01*
X107340000Y-134473740D01*
X107340000Y-132617890D01*
X129125010Y-132617890D01*
X129125010Y-133066110D01*
X129212453Y-133505718D01*
X129383980Y-133919819D01*
X129632997Y-134292500D01*
X129949937Y-134609440D01*
X130322618Y-134858457D01*
X130736719Y-135029984D01*
X131176327Y-135117427D01*
X131624547Y-135117427D01*
X132064155Y-135029984D01*
X132478256Y-134858457D01*
X132850937Y-134609440D01*
X133167877Y-134292500D01*
X133416894Y-133919819D01*
X133588421Y-133505718D01*
X133675864Y-133066110D01*
X133675864Y-132617890D01*
X169257010Y-132617890D01*
X169257010Y-133066110D01*
X169344453Y-133505718D01*
X169515980Y-133919819D01*
X169764997Y-134292500D01*
X170081937Y-134609440D01*
X170454618Y-134858457D01*
X170868719Y-135029984D01*
X171308327Y-135117427D01*
X171756547Y-135117427D01*
X172196155Y-135029984D01*
X172610256Y-134858457D01*
X172982937Y-134609440D01*
X173118637Y-134473740D01*
X175045000Y-134473740D01*
X175045000Y-134766260D01*
X175102068Y-135053158D01*
X175214010Y-135323411D01*
X175376525Y-135566632D01*
X175583368Y-135773475D01*
X175826589Y-135935990D01*
X176096842Y-136047932D01*
X176383740Y-136105000D01*
X176676260Y-136105000D01*
X176896408Y-136061210D01*
X177141202Y-136306004D01*
X177165000Y-136335002D01*
X177280725Y-136429975D01*
X177412754Y-136500547D01*
X177556015Y-136544004D01*
X177667668Y-136555001D01*
X177667677Y-136555001D01*
X177705000Y-136558677D01*
X177742323Y-136555001D01*
X185477677Y-136555001D01*
X185514999Y-136558677D01*
X185552321Y-136555001D01*
X185552332Y-136555001D01*
X185663985Y-136544004D01*
X185807246Y-136500547D01*
X185939275Y-136429975D01*
X186055000Y-136335002D01*
X186078803Y-136305998D01*
X186323592Y-136061209D01*
X186543740Y-136105000D01*
X186836260Y-136105000D01*
X187123158Y-136047932D01*
X187393411Y-135935990D01*
X187636632Y-135773475D01*
X187768487Y-135641620D01*
X187790498Y-135714180D01*
X187849463Y-135824494D01*
X187928815Y-135921185D01*
X188025506Y-136000537D01*
X188135820Y-136059502D01*
X188255518Y-136095812D01*
X188380000Y-136108072D01*
X190080000Y-136108072D01*
X190204482Y-136095812D01*
X190324180Y-136059502D01*
X190434494Y-136000537D01*
X190531185Y-135921185D01*
X190610537Y-135824494D01*
X190669502Y-135714180D01*
X190705812Y-135594482D01*
X190718072Y-135470000D01*
X190718072Y-133770000D01*
X190705812Y-133645518D01*
X190669502Y-133525820D01*
X190610537Y-133415506D01*
X190531185Y-133318815D01*
X190434494Y-133239463D01*
X190324180Y-133180498D01*
X190204482Y-133144188D01*
X190080000Y-133131928D01*
X188380000Y-133131928D01*
X188255518Y-133144188D01*
X188135820Y-133180498D01*
X188025506Y-133239463D01*
X187928815Y-133318815D01*
X187849463Y-133415506D01*
X187790498Y-133525820D01*
X187768487Y-133598380D01*
X187636632Y-133466525D01*
X187393411Y-133304010D01*
X187123158Y-133192068D01*
X186836260Y-133135000D01*
X186543740Y-133135000D01*
X186256842Y-133192068D01*
X185986589Y-133304010D01*
X185743368Y-133466525D01*
X185536525Y-133673368D01*
X185420000Y-133847760D01*
X185303475Y-133673368D01*
X185096632Y-133466525D01*
X184853411Y-133304010D01*
X184583158Y-133192068D01*
X184296260Y-133135000D01*
X184003740Y-133135000D01*
X183716842Y-133192068D01*
X183446589Y-133304010D01*
X183203368Y-133466525D01*
X182996525Y-133673368D01*
X182834010Y-133916589D01*
X182722068Y-134186842D01*
X182665000Y-134473740D01*
X182665000Y-134766260D01*
X182718456Y-135035001D01*
X180558072Y-135035001D01*
X180558072Y-133770000D01*
X180545812Y-133645518D01*
X180509502Y-133525820D01*
X180450537Y-133415506D01*
X180371185Y-133318815D01*
X180274494Y-133239463D01*
X180164180Y-133180498D01*
X180044482Y-133144188D01*
X179920000Y-133131928D01*
X178220000Y-133131928D01*
X178095518Y-133144188D01*
X177975820Y-133180498D01*
X177865506Y-133239463D01*
X177768815Y-133318815D01*
X177689463Y-133415506D01*
X177630498Y-133525820D01*
X177608487Y-133598380D01*
X177476632Y-133466525D01*
X177233411Y-133304010D01*
X176963158Y-133192068D01*
X176676260Y-133135000D01*
X176383740Y-133135000D01*
X176096842Y-133192068D01*
X175826589Y-133304010D01*
X175583368Y-133466525D01*
X175376525Y-133673368D01*
X175214010Y-133916589D01*
X175102068Y-134186842D01*
X175045000Y-134473740D01*
X173118637Y-134473740D01*
X173299877Y-134292500D01*
X173548894Y-133919819D01*
X173720421Y-133505718D01*
X173807864Y-133066110D01*
X173807864Y-132617890D01*
X173720421Y-132178282D01*
X173548894Y-131764181D01*
X173299877Y-131391500D01*
X172982937Y-131074560D01*
X172610256Y-130825543D01*
X172196155Y-130654016D01*
X171756547Y-130566573D01*
X171308327Y-130566573D01*
X170868719Y-130654016D01*
X170454618Y-130825543D01*
X170081937Y-131074560D01*
X169764997Y-131391500D01*
X169515980Y-131764181D01*
X169344453Y-132178282D01*
X169257010Y-132617890D01*
X133675864Y-132617890D01*
X133588421Y-132178282D01*
X133416894Y-131764181D01*
X133167877Y-131391500D01*
X132850937Y-131074560D01*
X132478256Y-130825543D01*
X132064155Y-130654016D01*
X131624547Y-130566573D01*
X131176327Y-130566573D01*
X130736719Y-130654016D01*
X130322618Y-130825543D01*
X129949937Y-131074560D01*
X129632997Y-131391500D01*
X129383980Y-131764181D01*
X129212453Y-132178282D01*
X129125010Y-132617890D01*
X107340000Y-132617890D01*
X107340000Y-124880000D01*
X116621928Y-124880000D01*
X116621928Y-126580000D01*
X116634188Y-126704482D01*
X116670498Y-126824180D01*
X116729463Y-126934494D01*
X116808815Y-127031185D01*
X116905506Y-127110537D01*
X117015820Y-127169502D01*
X117135518Y-127205812D01*
X117260000Y-127218072D01*
X118960000Y-127218072D01*
X119084482Y-127205812D01*
X119204180Y-127169502D01*
X119314494Y-127110537D01*
X119411185Y-127031185D01*
X119490537Y-126934494D01*
X119549502Y-126824180D01*
X119585812Y-126704482D01*
X119598072Y-126580000D01*
X119598072Y-124880000D01*
X119585812Y-124755518D01*
X119549502Y-124635820D01*
X119490537Y-124525506D01*
X119411185Y-124428815D01*
X119314494Y-124349463D01*
X119204180Y-124290498D01*
X119167161Y-124279268D01*
X140405000Y-124279268D01*
X140405000Y-124640732D01*
X140475518Y-124995250D01*
X140613844Y-125329199D01*
X140814662Y-125629744D01*
X141070256Y-125885338D01*
X141370801Y-126086156D01*
X141704750Y-126224482D01*
X142059268Y-126295000D01*
X142420732Y-126295000D01*
X142775250Y-126224482D01*
X143109199Y-126086156D01*
X143409744Y-125885338D01*
X143665338Y-125629744D01*
X143866156Y-125329199D01*
X144004482Y-124995250D01*
X144075000Y-124640732D01*
X144075000Y-124279268D01*
X146755000Y-124279268D01*
X146755000Y-124640732D01*
X146825518Y-124995250D01*
X146963844Y-125329199D01*
X147164662Y-125629744D01*
X147420256Y-125885338D01*
X147720801Y-126086156D01*
X148054750Y-126224482D01*
X148409268Y-126295000D01*
X148770732Y-126295000D01*
X149125250Y-126224482D01*
X149459199Y-126086156D01*
X149759744Y-125885338D01*
X150015338Y-125629744D01*
X150216156Y-125329199D01*
X150354482Y-124995250D01*
X150425000Y-124640732D01*
X150425000Y-124279268D01*
X153105000Y-124279268D01*
X153105000Y-124640732D01*
X153175518Y-124995250D01*
X153313844Y-125329199D01*
X153514662Y-125629744D01*
X153770256Y-125885338D01*
X154070801Y-126086156D01*
X154404750Y-126224482D01*
X154759268Y-126295000D01*
X155120732Y-126295000D01*
X155475250Y-126224482D01*
X155809199Y-126086156D01*
X156109744Y-125885338D01*
X156365338Y-125629744D01*
X156566156Y-125329199D01*
X156704482Y-124995250D01*
X156775000Y-124640732D01*
X156775000Y-124279268D01*
X159455000Y-124279268D01*
X159455000Y-124640732D01*
X159525518Y-124995250D01*
X159663844Y-125329199D01*
X159864662Y-125629744D01*
X160120256Y-125885338D01*
X160420801Y-126086156D01*
X160754750Y-126224482D01*
X161109268Y-126295000D01*
X161470732Y-126295000D01*
X161825250Y-126224482D01*
X162159199Y-126086156D01*
X162459744Y-125885338D01*
X162715338Y-125629744D01*
X162916156Y-125329199D01*
X163054482Y-124995250D01*
X163125000Y-124640732D01*
X163125000Y-124279268D01*
X163054482Y-123924750D01*
X162916156Y-123590801D01*
X162715338Y-123290256D01*
X162459744Y-123034662D01*
X162159199Y-122833844D01*
X161825250Y-122695518D01*
X161470732Y-122625000D01*
X161109268Y-122625000D01*
X160754750Y-122695518D01*
X160420801Y-122833844D01*
X160120256Y-123034662D01*
X159864662Y-123290256D01*
X159663844Y-123590801D01*
X159525518Y-123924750D01*
X159455000Y-124279268D01*
X156775000Y-124279268D01*
X156704482Y-123924750D01*
X156566156Y-123590801D01*
X156365338Y-123290256D01*
X156109744Y-123034662D01*
X155809199Y-122833844D01*
X155475250Y-122695518D01*
X155120732Y-122625000D01*
X154759268Y-122625000D01*
X154404750Y-122695518D01*
X154070801Y-122833844D01*
X153770256Y-123034662D01*
X153514662Y-123290256D01*
X153313844Y-123590801D01*
X153175518Y-123924750D01*
X153105000Y-124279268D01*
X150425000Y-124279268D01*
X150354482Y-123924750D01*
X150216156Y-123590801D01*
X150015338Y-123290256D01*
X149759744Y-123034662D01*
X149459199Y-122833844D01*
X149125250Y-122695518D01*
X148770732Y-122625000D01*
X148409268Y-122625000D01*
X148054750Y-122695518D01*
X147720801Y-122833844D01*
X147420256Y-123034662D01*
X147164662Y-123290256D01*
X146963844Y-123590801D01*
X146825518Y-123924750D01*
X146755000Y-124279268D01*
X144075000Y-124279268D01*
X144004482Y-123924750D01*
X143866156Y-123590801D01*
X143665338Y-123290256D01*
X143409744Y-123034662D01*
X143109199Y-122833844D01*
X142775250Y-122695518D01*
X142420732Y-122625000D01*
X142059268Y-122625000D01*
X141704750Y-122695518D01*
X141370801Y-122833844D01*
X141070256Y-123034662D01*
X140814662Y-123290256D01*
X140613844Y-123590801D01*
X140475518Y-123924750D01*
X140405000Y-124279268D01*
X119167161Y-124279268D01*
X119123534Y-124266034D01*
X119207588Y-124190269D01*
X119381641Y-123956920D01*
X119506825Y-123694099D01*
X119551476Y-123546890D01*
X119430155Y-123317000D01*
X118237000Y-123317000D01*
X118237000Y-123337000D01*
X117983000Y-123337000D01*
X117983000Y-123317000D01*
X116789845Y-123317000D01*
X116668524Y-123546890D01*
X116713175Y-123694099D01*
X116838359Y-123956920D01*
X117012412Y-124190269D01*
X117096466Y-124266034D01*
X117015820Y-124290498D01*
X116905506Y-124349463D01*
X116808815Y-124428815D01*
X116729463Y-124525506D01*
X116670498Y-124635820D01*
X116634188Y-124755518D01*
X116621928Y-124880000D01*
X107340000Y-124880000D01*
X107340000Y-120503740D01*
X116625000Y-120503740D01*
X116625000Y-120796260D01*
X116682068Y-121083158D01*
X116794010Y-121353411D01*
X116956525Y-121596632D01*
X117163368Y-121803475D01*
X117345534Y-121925195D01*
X117228645Y-121994822D01*
X117012412Y-122189731D01*
X116838359Y-122423080D01*
X116713175Y-122685901D01*
X116668524Y-122833110D01*
X116789845Y-123063000D01*
X117983000Y-123063000D01*
X117983000Y-123043000D01*
X118237000Y-123043000D01*
X118237000Y-123063000D01*
X119430155Y-123063000D01*
X119551476Y-122833110D01*
X119506825Y-122685901D01*
X119381641Y-122423080D01*
X119207588Y-122189731D01*
X118991355Y-121994822D01*
X118874466Y-121925195D01*
X119056632Y-121803475D01*
X119263475Y-121596632D01*
X119425990Y-121353411D01*
X119537932Y-121083158D01*
X119595000Y-120796260D01*
X119595000Y-120503740D01*
X119537932Y-120216842D01*
X119425990Y-119946589D01*
X119263475Y-119703368D01*
X119056632Y-119496525D01*
X118813411Y-119334010D01*
X118543158Y-119222068D01*
X118256260Y-119165000D01*
X117963740Y-119165000D01*
X117676842Y-119222068D01*
X117406589Y-119334010D01*
X117163368Y-119496525D01*
X116956525Y-119703368D01*
X116794010Y-119946589D01*
X116682068Y-120216842D01*
X116625000Y-120503740D01*
X107340000Y-120503740D01*
X107340000Y-112180000D01*
X116621928Y-112180000D01*
X116621928Y-113880000D01*
X116634188Y-114004482D01*
X116670498Y-114124180D01*
X116729463Y-114234494D01*
X116808815Y-114331185D01*
X116905506Y-114410537D01*
X117015820Y-114469502D01*
X117135518Y-114505812D01*
X117260000Y-114518072D01*
X118960000Y-114518072D01*
X119084482Y-114505812D01*
X119204180Y-114469502D01*
X119314494Y-114410537D01*
X119411185Y-114331185D01*
X119490537Y-114234494D01*
X119549502Y-114124180D01*
X119585812Y-114004482D01*
X119598072Y-113880000D01*
X119598072Y-112180000D01*
X119585812Y-112055518D01*
X119549502Y-111935820D01*
X119490537Y-111825506D01*
X119411185Y-111728815D01*
X119314494Y-111649463D01*
X119204180Y-111590498D01*
X119123534Y-111566034D01*
X119207588Y-111490269D01*
X119381641Y-111256920D01*
X119506825Y-110994099D01*
X119551476Y-110846890D01*
X119430155Y-110617000D01*
X118237000Y-110617000D01*
X118237000Y-110637000D01*
X117983000Y-110637000D01*
X117983000Y-110617000D01*
X116789845Y-110617000D01*
X116668524Y-110846890D01*
X116713175Y-110994099D01*
X116838359Y-111256920D01*
X117012412Y-111490269D01*
X117096466Y-111566034D01*
X117015820Y-111590498D01*
X116905506Y-111649463D01*
X116808815Y-111728815D01*
X116729463Y-111825506D01*
X116670498Y-111935820D01*
X116634188Y-112055518D01*
X116621928Y-112180000D01*
X107340000Y-112180000D01*
X107340000Y-105263740D01*
X116625000Y-105263740D01*
X116625000Y-105556260D01*
X116682068Y-105843158D01*
X116794010Y-106113411D01*
X116956525Y-106356632D01*
X117163368Y-106563475D01*
X117337760Y-106680000D01*
X117163368Y-106796525D01*
X116956525Y-107003368D01*
X116794010Y-107246589D01*
X116682068Y-107516842D01*
X116625000Y-107803740D01*
X116625000Y-108096260D01*
X116682068Y-108383158D01*
X116794010Y-108653411D01*
X116956525Y-108896632D01*
X117163368Y-109103475D01*
X117345534Y-109225195D01*
X117228645Y-109294822D01*
X117012412Y-109489731D01*
X116838359Y-109723080D01*
X116713175Y-109985901D01*
X116668524Y-110133110D01*
X116789845Y-110363000D01*
X117983000Y-110363000D01*
X117983000Y-110343000D01*
X118237000Y-110343000D01*
X118237000Y-110363000D01*
X119430155Y-110363000D01*
X119551476Y-110133110D01*
X119506825Y-109985901D01*
X119381641Y-109723080D01*
X119207588Y-109489731D01*
X118991355Y-109294822D01*
X118874466Y-109225195D01*
X119056632Y-109103475D01*
X119263475Y-108896632D01*
X119425990Y-108653411D01*
X119537932Y-108383158D01*
X119595000Y-108096260D01*
X119595000Y-107803740D01*
X119537932Y-107516842D01*
X119425990Y-107246589D01*
X119263475Y-107003368D01*
X119056632Y-106796525D01*
X118882240Y-106680000D01*
X119056632Y-106563475D01*
X119263475Y-106356632D01*
X119425990Y-106113411D01*
X119537932Y-105843158D01*
X119550413Y-105780408D01*
X128270000Y-105780408D01*
X128270000Y-106055592D01*
X128323686Y-106325490D01*
X128428995Y-106579727D01*
X128581880Y-106808535D01*
X128776465Y-107003120D01*
X129005273Y-107156005D01*
X129259510Y-107261314D01*
X129529408Y-107315000D01*
X129804592Y-107315000D01*
X130074490Y-107261314D01*
X130328727Y-107156005D01*
X130557535Y-107003120D01*
X130752120Y-106808535D01*
X130905005Y-106579727D01*
X130937000Y-106502485D01*
X130968995Y-106579727D01*
X131121880Y-106808535D01*
X131316465Y-107003120D01*
X131545273Y-107156005D01*
X131799510Y-107261314D01*
X132069408Y-107315000D01*
X132344592Y-107315000D01*
X132614490Y-107261314D01*
X132868727Y-107156005D01*
X133097535Y-107003120D01*
X133292120Y-106808535D01*
X133445005Y-106579727D01*
X133477000Y-106502485D01*
X133508995Y-106579727D01*
X133661880Y-106808535D01*
X133856465Y-107003120D01*
X133944465Y-107061920D01*
X133860518Y-107070188D01*
X133740820Y-107106498D01*
X133630506Y-107165463D01*
X133533815Y-107244815D01*
X133454463Y-107341506D01*
X133395498Y-107451820D01*
X133359188Y-107571518D01*
X133346928Y-107696000D01*
X133346928Y-109220000D01*
X133359188Y-109344482D01*
X133395498Y-109464180D01*
X133454463Y-109574494D01*
X133533815Y-109671185D01*
X133630506Y-109750537D01*
X133740820Y-109809502D01*
X133860518Y-109845812D01*
X133985000Y-109858072D01*
X135509000Y-109858072D01*
X135633482Y-109845812D01*
X135753180Y-109809502D01*
X135863494Y-109750537D01*
X135960185Y-109671185D01*
X136039537Y-109574494D01*
X136098502Y-109464180D01*
X136134812Y-109344482D01*
X136147072Y-109220000D01*
X136147072Y-107696000D01*
X136134812Y-107571518D01*
X136098502Y-107451820D01*
X136039537Y-107341506D01*
X135960185Y-107244815D01*
X135863494Y-107165463D01*
X135753180Y-107106498D01*
X135633482Y-107070188D01*
X135549535Y-107061920D01*
X135637535Y-107003120D01*
X135832120Y-106808535D01*
X135919341Y-106678000D01*
X141694678Y-106678000D01*
X141732000Y-106681676D01*
X141769322Y-106678000D01*
X141769333Y-106678000D01*
X141880986Y-106667003D01*
X142024247Y-106623546D01*
X142156276Y-106552974D01*
X142272001Y-106458001D01*
X142295804Y-106428997D01*
X144488430Y-104236372D01*
X144642408Y-104267000D01*
X144917592Y-104267000D01*
X145071571Y-104236372D01*
X167076201Y-126241003D01*
X167099999Y-126270001D01*
X167128997Y-126293799D01*
X167215723Y-126364974D01*
X167343759Y-126433411D01*
X167347753Y-126435546D01*
X167491014Y-126479003D01*
X167602667Y-126490000D01*
X167602676Y-126490000D01*
X167639999Y-126493676D01*
X167677322Y-126490000D01*
X172711822Y-126490000D01*
X172836525Y-126676632D01*
X173043368Y-126883475D01*
X173286589Y-127045990D01*
X173556842Y-127157932D01*
X173843740Y-127215000D01*
X174136260Y-127215000D01*
X174423158Y-127157932D01*
X174693411Y-127045990D01*
X174936632Y-126883475D01*
X175143475Y-126676632D01*
X175305990Y-126433411D01*
X175417932Y-126163158D01*
X175475000Y-125876260D01*
X175475000Y-125583740D01*
X175417932Y-125296842D01*
X175305990Y-125026589D01*
X175143475Y-124783368D01*
X174936632Y-124576525D01*
X174762240Y-124460000D01*
X174936632Y-124343475D01*
X175143475Y-124136632D01*
X175305990Y-123893411D01*
X175417932Y-123623158D01*
X175475000Y-123336260D01*
X175475000Y-123043740D01*
X175417932Y-122756842D01*
X175305990Y-122486589D01*
X175143475Y-122243368D01*
X174936632Y-122036525D01*
X174763271Y-121920689D01*
X174838792Y-121678397D01*
X173990000Y-120829605D01*
X173141208Y-121678397D01*
X173216729Y-121920689D01*
X173043368Y-122036525D01*
X172836525Y-122243368D01*
X172674010Y-122486589D01*
X172562068Y-122756842D01*
X172505000Y-123043740D01*
X172505000Y-123336260D01*
X172562068Y-123623158D01*
X172674010Y-123893411D01*
X172836525Y-124136632D01*
X173043368Y-124343475D01*
X173217760Y-124460000D01*
X173043368Y-124576525D01*
X172836525Y-124783368D01*
X172711822Y-124970000D01*
X167954802Y-124970000D01*
X163703333Y-120718531D01*
X172499389Y-120718531D01*
X172541401Y-121008019D01*
X172639081Y-121283747D01*
X172712528Y-121421157D01*
X172961603Y-121498792D01*
X173810395Y-120650000D01*
X174169605Y-120650000D01*
X175018397Y-121498792D01*
X175267472Y-121421157D01*
X175393371Y-121157117D01*
X175465339Y-120873589D01*
X175480611Y-120581469D01*
X175438599Y-120291981D01*
X175340919Y-120016253D01*
X175267472Y-119878843D01*
X175018397Y-119801208D01*
X174169605Y-120650000D01*
X173810395Y-120650000D01*
X172961603Y-119801208D01*
X172712528Y-119878843D01*
X172586629Y-120142883D01*
X172514661Y-120426411D01*
X172499389Y-120718531D01*
X163703333Y-120718531D01*
X147251801Y-104267000D01*
X147457592Y-104267000D01*
X147727490Y-104213314D01*
X147981727Y-104108005D01*
X148210535Y-103955120D01*
X148405120Y-103760535D01*
X148558005Y-103531727D01*
X148590000Y-103454485D01*
X148621995Y-103531727D01*
X148774880Y-103760535D01*
X148969465Y-103955120D01*
X149198273Y-104108005D01*
X149452510Y-104213314D01*
X149722408Y-104267000D01*
X149997592Y-104267000D01*
X150267490Y-104213314D01*
X150521727Y-104108005D01*
X150750535Y-103955120D01*
X150945120Y-103760535D01*
X151098005Y-103531727D01*
X151130000Y-103454485D01*
X151161995Y-103531727D01*
X151314880Y-103760535D01*
X151509465Y-103955120D01*
X151738273Y-104108005D01*
X151992510Y-104213314D01*
X152262408Y-104267000D01*
X152537592Y-104267000D01*
X152807490Y-104213314D01*
X153061727Y-104108005D01*
X153290535Y-103955120D01*
X153485120Y-103760535D01*
X153638005Y-103531727D01*
X153670000Y-103454485D01*
X153701995Y-103531727D01*
X153854880Y-103760535D01*
X154049465Y-103955120D01*
X154278273Y-104108005D01*
X154532510Y-104213314D01*
X154802408Y-104267000D01*
X155077592Y-104267000D01*
X155347490Y-104213314D01*
X155601727Y-104108005D01*
X155830535Y-103955120D01*
X156025120Y-103760535D01*
X156083920Y-103672535D01*
X156092188Y-103756482D01*
X156128498Y-103876180D01*
X156187463Y-103986494D01*
X156266815Y-104083185D01*
X156363506Y-104162537D01*
X156473820Y-104221502D01*
X156593518Y-104257812D01*
X156718000Y-104270072D01*
X158242000Y-104270072D01*
X158366482Y-104257812D01*
X158486180Y-104221502D01*
X158596494Y-104162537D01*
X158693185Y-104083185D01*
X158772537Y-103986494D01*
X158831502Y-103876180D01*
X158843822Y-103835565D01*
X159234040Y-103835565D01*
X159301020Y-104075656D01*
X159550048Y-104192756D01*
X159817135Y-104259023D01*
X160092017Y-104271910D01*
X160364133Y-104230922D01*
X160623023Y-104137636D01*
X160738980Y-104075656D01*
X160805960Y-103835565D01*
X160020000Y-103049605D01*
X159234040Y-103835565D01*
X158843822Y-103835565D01*
X158867812Y-103756482D01*
X158880072Y-103632000D01*
X158880072Y-103607317D01*
X159054435Y-103655960D01*
X159840395Y-102870000D01*
X160199605Y-102870000D01*
X160985565Y-103655960D01*
X161225656Y-103588980D01*
X161342756Y-103339952D01*
X161409023Y-103072865D01*
X161421910Y-102797983D01*
X161380922Y-102525867D01*
X161287636Y-102266977D01*
X161225656Y-102151020D01*
X160985565Y-102084040D01*
X160199605Y-102870000D01*
X159840395Y-102870000D01*
X159054435Y-102084040D01*
X158880072Y-102132683D01*
X158880072Y-102108000D01*
X158867812Y-101983518D01*
X158843823Y-101904435D01*
X159234040Y-101904435D01*
X160020000Y-102690395D01*
X160805960Y-101904435D01*
X160738980Y-101664344D01*
X160489952Y-101547244D01*
X160222865Y-101480977D01*
X159947983Y-101468090D01*
X159675867Y-101509078D01*
X159416977Y-101602364D01*
X159301020Y-101664344D01*
X159234040Y-101904435D01*
X158843823Y-101904435D01*
X158831502Y-101863820D01*
X158772537Y-101753506D01*
X158693185Y-101656815D01*
X158596494Y-101577463D01*
X158486180Y-101518498D01*
X158366482Y-101482188D01*
X158242000Y-101469928D01*
X156718000Y-101469928D01*
X156593518Y-101482188D01*
X156473820Y-101518498D01*
X156363506Y-101577463D01*
X156266815Y-101656815D01*
X156187463Y-101753506D01*
X156128498Y-101863820D01*
X156092188Y-101983518D01*
X156083920Y-102067465D01*
X156025120Y-101979465D01*
X155830535Y-101784880D01*
X155601727Y-101631995D01*
X155347490Y-101526686D01*
X155077592Y-101473000D01*
X154802408Y-101473000D01*
X154532510Y-101526686D01*
X154278273Y-101631995D01*
X154049465Y-101784880D01*
X153854880Y-101979465D01*
X153701995Y-102208273D01*
X153670000Y-102285515D01*
X153638005Y-102208273D01*
X153485120Y-101979465D01*
X153290535Y-101784880D01*
X153061727Y-101631995D01*
X152807490Y-101526686D01*
X152537592Y-101473000D01*
X152262408Y-101473000D01*
X151992510Y-101526686D01*
X151738273Y-101631995D01*
X151509465Y-101784880D01*
X151314880Y-101979465D01*
X151161995Y-102208273D01*
X151130000Y-102285515D01*
X151098005Y-102208273D01*
X150945120Y-101979465D01*
X150750535Y-101784880D01*
X150521727Y-101631995D01*
X150267490Y-101526686D01*
X149997592Y-101473000D01*
X149722408Y-101473000D01*
X149452510Y-101526686D01*
X149198273Y-101631995D01*
X148969465Y-101784880D01*
X148774880Y-101979465D01*
X148621995Y-102208273D01*
X148590000Y-102285515D01*
X148558005Y-102208273D01*
X148405120Y-101979465D01*
X148210535Y-101784880D01*
X147981727Y-101631995D01*
X147727490Y-101526686D01*
X147457592Y-101473000D01*
X147182408Y-101473000D01*
X146912510Y-101526686D01*
X146658273Y-101631995D01*
X146429465Y-101784880D01*
X146234880Y-101979465D01*
X146081995Y-102208273D01*
X146050000Y-102285515D01*
X146018005Y-102208273D01*
X145865120Y-101979465D01*
X145670535Y-101784880D01*
X145441727Y-101631995D01*
X145187490Y-101526686D01*
X144917592Y-101473000D01*
X144642408Y-101473000D01*
X144372510Y-101526686D01*
X144118273Y-101631995D01*
X143889465Y-101784880D01*
X143694880Y-101979465D01*
X143541995Y-102208273D01*
X143510000Y-102285515D01*
X143478005Y-102208273D01*
X143325120Y-101979465D01*
X143130535Y-101784880D01*
X142901727Y-101631995D01*
X142647490Y-101526686D01*
X142377592Y-101473000D01*
X142102408Y-101473000D01*
X141832510Y-101526686D01*
X141578273Y-101631995D01*
X141349465Y-101784880D01*
X141154880Y-101979465D01*
X141001995Y-102208273D01*
X140896686Y-102462510D01*
X140843000Y-102732408D01*
X140843000Y-103007592D01*
X140896686Y-103277490D01*
X141001995Y-103531727D01*
X141154880Y-103760535D01*
X141349465Y-103955120D01*
X141578273Y-104108005D01*
X141832510Y-104213314D01*
X142102408Y-104267000D01*
X142308199Y-104267000D01*
X141417199Y-105158000D01*
X135919341Y-105158000D01*
X135832120Y-105027465D01*
X135637535Y-104832880D01*
X135408727Y-104679995D01*
X135154490Y-104574686D01*
X134884592Y-104521000D01*
X134609408Y-104521000D01*
X134339510Y-104574686D01*
X134085273Y-104679995D01*
X133856465Y-104832880D01*
X133661880Y-105027465D01*
X133508995Y-105256273D01*
X133477000Y-105333515D01*
X133445005Y-105256273D01*
X133292120Y-105027465D01*
X133097535Y-104832880D01*
X132868727Y-104679995D01*
X132614490Y-104574686D01*
X132344592Y-104521000D01*
X132069408Y-104521000D01*
X131799510Y-104574686D01*
X131545273Y-104679995D01*
X131316465Y-104832880D01*
X131121880Y-105027465D01*
X130968995Y-105256273D01*
X130937000Y-105333515D01*
X130905005Y-105256273D01*
X130752120Y-105027465D01*
X130557535Y-104832880D01*
X130328727Y-104679995D01*
X130074490Y-104574686D01*
X129804592Y-104521000D01*
X129529408Y-104521000D01*
X129259510Y-104574686D01*
X129005273Y-104679995D01*
X128776465Y-104832880D01*
X128581880Y-105027465D01*
X128428995Y-105256273D01*
X128323686Y-105510510D01*
X128270000Y-105780408D01*
X119550413Y-105780408D01*
X119595000Y-105556260D01*
X119595000Y-105263740D01*
X119537932Y-104976842D01*
X119425990Y-104706589D01*
X119263475Y-104463368D01*
X119056632Y-104256525D01*
X118813411Y-104094010D01*
X118543158Y-103982068D01*
X118256260Y-103925000D01*
X117963740Y-103925000D01*
X117676842Y-103982068D01*
X117406589Y-104094010D01*
X117163368Y-104256525D01*
X116956525Y-104463368D01*
X116794010Y-104706589D01*
X116682068Y-104976842D01*
X116625000Y-105263740D01*
X107340000Y-105263740D01*
X107340000Y-95707565D01*
X126341040Y-95707565D01*
X126408020Y-95947656D01*
X126657048Y-96064756D01*
X126924135Y-96131023D01*
X127199017Y-96143910D01*
X127471133Y-96102922D01*
X127730023Y-96009636D01*
X127845980Y-95947656D01*
X127912960Y-95707565D01*
X127127000Y-94921605D01*
X126341040Y-95707565D01*
X107340000Y-95707565D01*
X107340000Y-88753740D01*
X116625000Y-88753740D01*
X116625000Y-89046260D01*
X116682068Y-89333158D01*
X116794010Y-89603411D01*
X116956525Y-89846632D01*
X117163368Y-90053475D01*
X117337760Y-90170000D01*
X117163368Y-90286525D01*
X116956525Y-90493368D01*
X116794010Y-90736589D01*
X116682068Y-91006842D01*
X116625000Y-91293740D01*
X116625000Y-91586260D01*
X116682068Y-91873158D01*
X116794010Y-92143411D01*
X116956525Y-92386632D01*
X117163368Y-92593475D01*
X117337760Y-92710000D01*
X117163368Y-92826525D01*
X116956525Y-93033368D01*
X116794010Y-93276589D01*
X116682068Y-93546842D01*
X116625000Y-93833740D01*
X116625000Y-94126260D01*
X116682068Y-94413158D01*
X116794010Y-94683411D01*
X116956525Y-94926632D01*
X117163368Y-95133475D01*
X117406589Y-95295990D01*
X117676842Y-95407932D01*
X117963740Y-95465000D01*
X118256260Y-95465000D01*
X118543158Y-95407932D01*
X118813411Y-95295990D01*
X119056632Y-95133475D01*
X119263475Y-94926632D01*
X119338721Y-94814017D01*
X125725090Y-94814017D01*
X125766078Y-95086133D01*
X125859364Y-95345023D01*
X125921344Y-95460980D01*
X126161435Y-95527960D01*
X126947395Y-94742000D01*
X127306605Y-94742000D01*
X128092565Y-95527960D01*
X128332656Y-95460980D01*
X128396485Y-95325240D01*
X128428995Y-95403727D01*
X128581880Y-95632535D01*
X128776465Y-95827120D01*
X129005273Y-95980005D01*
X129082515Y-96012000D01*
X129005273Y-96043995D01*
X128776465Y-96196880D01*
X128581880Y-96391465D01*
X128428995Y-96620273D01*
X128323686Y-96874510D01*
X128270000Y-97144408D01*
X128270000Y-97419592D01*
X128323686Y-97689490D01*
X128428995Y-97943727D01*
X128581880Y-98172535D01*
X128776465Y-98367120D01*
X129005273Y-98520005D01*
X129259510Y-98625314D01*
X129529408Y-98679000D01*
X129804592Y-98679000D01*
X130074490Y-98625314D01*
X130328727Y-98520005D01*
X130557535Y-98367120D01*
X130752120Y-98172535D01*
X130905005Y-97943727D01*
X130937000Y-97866485D01*
X130968995Y-97943727D01*
X131121880Y-98172535D01*
X131316465Y-98367120D01*
X131545273Y-98520005D01*
X131799510Y-98625314D01*
X132069408Y-98679000D01*
X132344592Y-98679000D01*
X132614490Y-98625314D01*
X132868727Y-98520005D01*
X133097535Y-98367120D01*
X133292120Y-98172535D01*
X133445005Y-97943727D01*
X133550314Y-97689490D01*
X133604000Y-97419592D01*
X133604000Y-97144408D01*
X133550314Y-96874510D01*
X133445005Y-96620273D01*
X133292120Y-96391465D01*
X133097535Y-96196880D01*
X132868727Y-96043995D01*
X132791485Y-96012000D01*
X132868727Y-95980005D01*
X133097535Y-95827120D01*
X133292120Y-95632535D01*
X133350920Y-95544535D01*
X133359188Y-95628482D01*
X133395498Y-95748180D01*
X133454463Y-95858494D01*
X133533815Y-95955185D01*
X133630506Y-96034537D01*
X133740820Y-96093502D01*
X133860518Y-96129812D01*
X133985000Y-96142072D01*
X135509000Y-96142072D01*
X135633482Y-96129812D01*
X135753180Y-96093502D01*
X135863494Y-96034537D01*
X135960185Y-95955185D01*
X136039537Y-95858494D01*
X136098502Y-95748180D01*
X136134812Y-95628482D01*
X136147072Y-95504000D01*
X136147072Y-93980000D01*
X136134812Y-93855518D01*
X136098502Y-93735820D01*
X136039537Y-93625506D01*
X135960185Y-93528815D01*
X135863494Y-93449463D01*
X135753180Y-93390498D01*
X135633482Y-93354188D01*
X135509000Y-93341928D01*
X133985000Y-93341928D01*
X133860518Y-93354188D01*
X133740820Y-93390498D01*
X133630506Y-93449463D01*
X133533815Y-93528815D01*
X133454463Y-93625506D01*
X133395498Y-93735820D01*
X133359188Y-93855518D01*
X133350920Y-93939465D01*
X133292120Y-93851465D01*
X133097535Y-93656880D01*
X132868727Y-93503995D01*
X132614490Y-93398686D01*
X132344592Y-93345000D01*
X132069408Y-93345000D01*
X131799510Y-93398686D01*
X131545273Y-93503995D01*
X131316465Y-93656880D01*
X131121880Y-93851465D01*
X130968995Y-94080273D01*
X130937000Y-94157515D01*
X130905005Y-94080273D01*
X130752120Y-93851465D01*
X130557535Y-93656880D01*
X130328727Y-93503995D01*
X130074490Y-93398686D01*
X129804592Y-93345000D01*
X129529408Y-93345000D01*
X129259510Y-93398686D01*
X129005273Y-93503995D01*
X128776465Y-93656880D01*
X128581880Y-93851465D01*
X128428995Y-94080273D01*
X128399308Y-94151943D01*
X128394636Y-94138977D01*
X128332656Y-94023020D01*
X128092565Y-93956040D01*
X127306605Y-94742000D01*
X126947395Y-94742000D01*
X126161435Y-93956040D01*
X125921344Y-94023020D01*
X125804244Y-94272048D01*
X125737977Y-94539135D01*
X125725090Y-94814017D01*
X119338721Y-94814017D01*
X119425990Y-94683411D01*
X119537932Y-94413158D01*
X119595000Y-94126260D01*
X119595000Y-93833740D01*
X119583602Y-93776435D01*
X126341040Y-93776435D01*
X127127000Y-94562395D01*
X127912960Y-93776435D01*
X127845980Y-93536344D01*
X127596952Y-93419244D01*
X127329865Y-93352977D01*
X127054983Y-93340090D01*
X126782867Y-93381078D01*
X126523977Y-93474364D01*
X126408020Y-93536344D01*
X126341040Y-93776435D01*
X119583602Y-93776435D01*
X119537932Y-93546842D01*
X119425990Y-93276589D01*
X119263475Y-93033368D01*
X119056632Y-92826525D01*
X118882240Y-92710000D01*
X119056632Y-92593475D01*
X119263475Y-92386632D01*
X119425990Y-92143411D01*
X119537932Y-91873158D01*
X119595000Y-91586260D01*
X119595000Y-91293740D01*
X119537932Y-91006842D01*
X119425990Y-90736589D01*
X119263475Y-90493368D01*
X119056632Y-90286525D01*
X118882240Y-90170000D01*
X119056632Y-90053475D01*
X119263475Y-89846632D01*
X119425990Y-89603411D01*
X119537932Y-89333158D01*
X119595000Y-89046260D01*
X119595000Y-88753740D01*
X119537932Y-88466842D01*
X119425990Y-88196589D01*
X119263475Y-87953368D01*
X119056632Y-87746525D01*
X118874466Y-87624805D01*
X118991355Y-87555178D01*
X119207588Y-87360269D01*
X119381641Y-87126920D01*
X119506825Y-86864099D01*
X119551476Y-86716890D01*
X119430155Y-86487000D01*
X118237000Y-86487000D01*
X118237000Y-86507000D01*
X117983000Y-86507000D01*
X117983000Y-86487000D01*
X116789845Y-86487000D01*
X116668524Y-86716890D01*
X116713175Y-86864099D01*
X116838359Y-87126920D01*
X117012412Y-87360269D01*
X117228645Y-87555178D01*
X117345534Y-87624805D01*
X117163368Y-87746525D01*
X116956525Y-87953368D01*
X116794010Y-88196589D01*
X116682068Y-88466842D01*
X116625000Y-88753740D01*
X107340000Y-88753740D01*
X107340000Y-80430000D01*
X116621928Y-80430000D01*
X116621928Y-82130000D01*
X116634188Y-82254482D01*
X116670498Y-82374180D01*
X116729463Y-82484494D01*
X116808815Y-82581185D01*
X116905506Y-82660537D01*
X117015820Y-82719502D01*
X117088380Y-82741513D01*
X116956525Y-82873368D01*
X116794010Y-83116589D01*
X116682068Y-83386842D01*
X116625000Y-83673740D01*
X116625000Y-83966260D01*
X116682068Y-84253158D01*
X116794010Y-84523411D01*
X116956525Y-84766632D01*
X117163368Y-84973475D01*
X117345534Y-85095195D01*
X117228645Y-85164822D01*
X117012412Y-85359731D01*
X116838359Y-85593080D01*
X116713175Y-85855901D01*
X116668524Y-86003110D01*
X116789845Y-86233000D01*
X117983000Y-86233000D01*
X117983000Y-86213000D01*
X118237000Y-86213000D01*
X118237000Y-86233000D01*
X119430155Y-86233000D01*
X119551476Y-86003110D01*
X119506825Y-85855901D01*
X119381641Y-85593080D01*
X119207588Y-85359731D01*
X118991355Y-85164822D01*
X118874466Y-85095195D01*
X119056632Y-84973475D01*
X119263475Y-84766632D01*
X119425990Y-84523411D01*
X119527822Y-84277565D01*
X126468040Y-84277565D01*
X126535020Y-84517656D01*
X126784048Y-84634756D01*
X127051135Y-84701023D01*
X127326017Y-84713910D01*
X127598133Y-84672922D01*
X127857023Y-84579636D01*
X127972980Y-84517656D01*
X128039960Y-84277565D01*
X127254000Y-83491605D01*
X126468040Y-84277565D01*
X119527822Y-84277565D01*
X119537932Y-84253158D01*
X119595000Y-83966260D01*
X119595000Y-83673740D01*
X119537932Y-83386842D01*
X119536762Y-83384017D01*
X125852090Y-83384017D01*
X125893078Y-83656133D01*
X125986364Y-83915023D01*
X126048344Y-84030980D01*
X126288435Y-84097960D01*
X127074395Y-83312000D01*
X127433605Y-83312000D01*
X128219565Y-84097960D01*
X128459656Y-84030980D01*
X128523485Y-83895240D01*
X128555995Y-83973727D01*
X128708880Y-84202535D01*
X128903465Y-84397120D01*
X129132273Y-84550005D01*
X129209515Y-84582000D01*
X129132273Y-84613995D01*
X128903465Y-84766880D01*
X128708880Y-84961465D01*
X128555995Y-85190273D01*
X128450686Y-85444510D01*
X128397000Y-85714408D01*
X128397000Y-85989592D01*
X128450686Y-86259490D01*
X128555995Y-86513727D01*
X128708880Y-86742535D01*
X128903465Y-86937120D01*
X129132273Y-87090005D01*
X129386510Y-87195314D01*
X129656408Y-87249000D01*
X129931592Y-87249000D01*
X130201490Y-87195314D01*
X130455727Y-87090005D01*
X130684535Y-86937120D01*
X130879120Y-86742535D01*
X131032005Y-86513727D01*
X131064000Y-86436485D01*
X131095995Y-86513727D01*
X131248880Y-86742535D01*
X131443465Y-86937120D01*
X131672273Y-87090005D01*
X131926510Y-87195314D01*
X132196408Y-87249000D01*
X132471592Y-87249000D01*
X132741490Y-87195314D01*
X132995727Y-87090005D01*
X133224535Y-86937120D01*
X133419120Y-86742535D01*
X133572005Y-86513727D01*
X133677314Y-86259490D01*
X133731000Y-85989592D01*
X133731000Y-85714408D01*
X133677314Y-85444510D01*
X133572005Y-85190273D01*
X133419120Y-84961465D01*
X133224535Y-84766880D01*
X132995727Y-84613995D01*
X132918485Y-84582000D01*
X132995727Y-84550005D01*
X133224535Y-84397120D01*
X133419120Y-84202535D01*
X133477920Y-84114535D01*
X133486188Y-84198482D01*
X133522498Y-84318180D01*
X133581463Y-84428494D01*
X133660815Y-84525185D01*
X133757506Y-84604537D01*
X133867820Y-84663502D01*
X133987518Y-84699812D01*
X134112000Y-84712072D01*
X135636000Y-84712072D01*
X135760482Y-84699812D01*
X135880180Y-84663502D01*
X135990494Y-84604537D01*
X136087185Y-84525185D01*
X136166537Y-84428494D01*
X136225502Y-84318180D01*
X136261812Y-84198482D01*
X136274072Y-84074000D01*
X136274072Y-82550000D01*
X136261812Y-82425518D01*
X136257836Y-82412408D01*
X140843000Y-82412408D01*
X140843000Y-82687592D01*
X140896686Y-82957490D01*
X141001995Y-83211727D01*
X141154880Y-83440535D01*
X141349465Y-83635120D01*
X141578273Y-83788005D01*
X141832510Y-83893314D01*
X142102408Y-83947000D01*
X142377592Y-83947000D01*
X142647490Y-83893314D01*
X142901727Y-83788005D01*
X143130535Y-83635120D01*
X143325120Y-83440535D01*
X143478005Y-83211727D01*
X143510000Y-83134485D01*
X143541995Y-83211727D01*
X143694880Y-83440535D01*
X143889465Y-83635120D01*
X144118273Y-83788005D01*
X144372510Y-83893314D01*
X144642408Y-83947000D01*
X144917592Y-83947000D01*
X145187490Y-83893314D01*
X145441727Y-83788005D01*
X145670535Y-83635120D01*
X145865120Y-83440535D01*
X146018005Y-83211727D01*
X146050000Y-83134485D01*
X146081995Y-83211727D01*
X146234880Y-83440535D01*
X146429465Y-83635120D01*
X146658273Y-83788005D01*
X146912510Y-83893314D01*
X147182408Y-83947000D01*
X147457592Y-83947000D01*
X147727490Y-83893314D01*
X147981727Y-83788005D01*
X148210535Y-83635120D01*
X148405120Y-83440535D01*
X148558005Y-83211727D01*
X148590000Y-83134485D01*
X148621995Y-83211727D01*
X148774880Y-83440535D01*
X148969465Y-83635120D01*
X149198273Y-83788005D01*
X149452510Y-83893314D01*
X149722408Y-83947000D01*
X149997592Y-83947000D01*
X150267490Y-83893314D01*
X150521727Y-83788005D01*
X150750535Y-83635120D01*
X150945120Y-83440535D01*
X151098005Y-83211727D01*
X151130000Y-83134485D01*
X151161995Y-83211727D01*
X151314880Y-83440535D01*
X151509465Y-83635120D01*
X151738273Y-83788005D01*
X151992510Y-83893314D01*
X152262408Y-83947000D01*
X152537592Y-83947000D01*
X152807490Y-83893314D01*
X153061727Y-83788005D01*
X153290535Y-83635120D01*
X153485120Y-83440535D01*
X153638005Y-83211727D01*
X153670000Y-83134485D01*
X153701995Y-83211727D01*
X153854880Y-83440535D01*
X154049465Y-83635120D01*
X154278273Y-83788005D01*
X154532510Y-83893314D01*
X154802408Y-83947000D01*
X155077592Y-83947000D01*
X155347490Y-83893314D01*
X155601727Y-83788005D01*
X155830535Y-83635120D01*
X156025120Y-83440535D01*
X156083920Y-83352535D01*
X156092188Y-83436482D01*
X156128498Y-83556180D01*
X156187463Y-83666494D01*
X156266815Y-83763185D01*
X156363506Y-83842537D01*
X156473820Y-83901502D01*
X156593518Y-83937812D01*
X156718000Y-83950072D01*
X158242000Y-83950072D01*
X158366482Y-83937812D01*
X158486180Y-83901502D01*
X158596494Y-83842537D01*
X158693185Y-83763185D01*
X158772537Y-83666494D01*
X158831502Y-83556180D01*
X158843822Y-83515565D01*
X159234040Y-83515565D01*
X159301020Y-83755656D01*
X159550048Y-83872756D01*
X159817135Y-83939023D01*
X160092017Y-83951910D01*
X160364133Y-83910922D01*
X160623023Y-83817636D01*
X160738980Y-83755656D01*
X160805960Y-83515565D01*
X160020000Y-82729605D01*
X159234040Y-83515565D01*
X158843822Y-83515565D01*
X158867812Y-83436482D01*
X158880072Y-83312000D01*
X158880072Y-83287317D01*
X159054435Y-83335960D01*
X159840395Y-82550000D01*
X160199605Y-82550000D01*
X160985565Y-83335960D01*
X161225656Y-83268980D01*
X161342756Y-83019952D01*
X161409023Y-82752865D01*
X161421910Y-82477983D01*
X161380922Y-82205867D01*
X161287636Y-81946977D01*
X161225656Y-81831020D01*
X160985565Y-81764040D01*
X160199605Y-82550000D01*
X159840395Y-82550000D01*
X159054435Y-81764040D01*
X158880072Y-81812683D01*
X158880072Y-81788000D01*
X158867812Y-81663518D01*
X158843823Y-81584435D01*
X159234040Y-81584435D01*
X160020000Y-82370395D01*
X160805960Y-81584435D01*
X160738980Y-81344344D01*
X160489952Y-81227244D01*
X160222865Y-81160977D01*
X159947983Y-81148090D01*
X159675867Y-81189078D01*
X159416977Y-81282364D01*
X159301020Y-81344344D01*
X159234040Y-81584435D01*
X158843823Y-81584435D01*
X158831502Y-81543820D01*
X158772537Y-81433506D01*
X158693185Y-81336815D01*
X158596494Y-81257463D01*
X158486180Y-81198498D01*
X158366482Y-81162188D01*
X158242000Y-81149928D01*
X156718000Y-81149928D01*
X156593518Y-81162188D01*
X156473820Y-81198498D01*
X156363506Y-81257463D01*
X156266815Y-81336815D01*
X156187463Y-81433506D01*
X156128498Y-81543820D01*
X156092188Y-81663518D01*
X156083920Y-81747465D01*
X156025120Y-81659465D01*
X155830535Y-81464880D01*
X155601727Y-81311995D01*
X155347490Y-81206686D01*
X155077592Y-81153000D01*
X154802408Y-81153000D01*
X154532510Y-81206686D01*
X154278273Y-81311995D01*
X154049465Y-81464880D01*
X153854880Y-81659465D01*
X153701995Y-81888273D01*
X153670000Y-81965515D01*
X153638005Y-81888273D01*
X153485120Y-81659465D01*
X153290535Y-81464880D01*
X153061727Y-81311995D01*
X152807490Y-81206686D01*
X152537592Y-81153000D01*
X152262408Y-81153000D01*
X151992510Y-81206686D01*
X151738273Y-81311995D01*
X151509465Y-81464880D01*
X151314880Y-81659465D01*
X151161995Y-81888273D01*
X151130000Y-81965515D01*
X151098005Y-81888273D01*
X150945120Y-81659465D01*
X150750535Y-81464880D01*
X150521727Y-81311995D01*
X150267490Y-81206686D01*
X149997592Y-81153000D01*
X149722408Y-81153000D01*
X149452510Y-81206686D01*
X149198273Y-81311995D01*
X148969465Y-81464880D01*
X148774880Y-81659465D01*
X148621995Y-81888273D01*
X148590000Y-81965515D01*
X148558005Y-81888273D01*
X148405120Y-81659465D01*
X148210535Y-81464880D01*
X147981727Y-81311995D01*
X147727490Y-81206686D01*
X147457592Y-81153000D01*
X147182408Y-81153000D01*
X146912510Y-81206686D01*
X146658273Y-81311995D01*
X146429465Y-81464880D01*
X146234880Y-81659465D01*
X146081995Y-81888273D01*
X146050000Y-81965515D01*
X146018005Y-81888273D01*
X145865120Y-81659465D01*
X145670535Y-81464880D01*
X145441727Y-81311995D01*
X145187490Y-81206686D01*
X144917592Y-81153000D01*
X144642408Y-81153000D01*
X144372510Y-81206686D01*
X144118273Y-81311995D01*
X143889465Y-81464880D01*
X143694880Y-81659465D01*
X143541995Y-81888273D01*
X143510000Y-81965515D01*
X143478005Y-81888273D01*
X143325120Y-81659465D01*
X143130535Y-81464880D01*
X142901727Y-81311995D01*
X142647490Y-81206686D01*
X142377592Y-81153000D01*
X142102408Y-81153000D01*
X141832510Y-81206686D01*
X141578273Y-81311995D01*
X141349465Y-81464880D01*
X141154880Y-81659465D01*
X141001995Y-81888273D01*
X140896686Y-82142510D01*
X140843000Y-82412408D01*
X136257836Y-82412408D01*
X136225502Y-82305820D01*
X136166537Y-82195506D01*
X136087185Y-82098815D01*
X135990494Y-82019463D01*
X135880180Y-81960498D01*
X135760482Y-81924188D01*
X135636000Y-81911928D01*
X134112000Y-81911928D01*
X133987518Y-81924188D01*
X133867820Y-81960498D01*
X133757506Y-82019463D01*
X133660815Y-82098815D01*
X133581463Y-82195506D01*
X133522498Y-82305820D01*
X133486188Y-82425518D01*
X133477920Y-82509465D01*
X133419120Y-82421465D01*
X133224535Y-82226880D01*
X132995727Y-82073995D01*
X132741490Y-81968686D01*
X132471592Y-81915000D01*
X132196408Y-81915000D01*
X131926510Y-81968686D01*
X131672273Y-82073995D01*
X131443465Y-82226880D01*
X131248880Y-82421465D01*
X131095995Y-82650273D01*
X131064000Y-82727515D01*
X131032005Y-82650273D01*
X130879120Y-82421465D01*
X130684535Y-82226880D01*
X130455727Y-82073995D01*
X130201490Y-81968686D01*
X129931592Y-81915000D01*
X129656408Y-81915000D01*
X129386510Y-81968686D01*
X129132273Y-82073995D01*
X128903465Y-82226880D01*
X128708880Y-82421465D01*
X128555995Y-82650273D01*
X128526308Y-82721943D01*
X128521636Y-82708977D01*
X128459656Y-82593020D01*
X128219565Y-82526040D01*
X127433605Y-83312000D01*
X127074395Y-83312000D01*
X126288435Y-82526040D01*
X126048344Y-82593020D01*
X125931244Y-82842048D01*
X125864977Y-83109135D01*
X125852090Y-83384017D01*
X119536762Y-83384017D01*
X119425990Y-83116589D01*
X119263475Y-82873368D01*
X119131620Y-82741513D01*
X119204180Y-82719502D01*
X119314494Y-82660537D01*
X119411185Y-82581185D01*
X119490537Y-82484494D01*
X119549502Y-82374180D01*
X119557918Y-82346435D01*
X126468040Y-82346435D01*
X127254000Y-83132395D01*
X128039960Y-82346435D01*
X127972980Y-82106344D01*
X127723952Y-81989244D01*
X127456865Y-81922977D01*
X127181983Y-81910090D01*
X126909867Y-81951078D01*
X126650977Y-82044364D01*
X126535020Y-82106344D01*
X126468040Y-82346435D01*
X119557918Y-82346435D01*
X119585812Y-82254482D01*
X119598072Y-82130000D01*
X119598072Y-80430000D01*
X119585812Y-80305518D01*
X119549502Y-80185820D01*
X119490537Y-80075506D01*
X119411185Y-79978815D01*
X119314494Y-79899463D01*
X119204180Y-79840498D01*
X119084482Y-79804188D01*
X118960000Y-79791928D01*
X117260000Y-79791928D01*
X117135518Y-79804188D01*
X117015820Y-79840498D01*
X116905506Y-79899463D01*
X116808815Y-79978815D01*
X116729463Y-80075506D01*
X116670498Y-80185820D01*
X116634188Y-80305518D01*
X116621928Y-80430000D01*
X107340000Y-80430000D01*
X107340000Y-76620000D01*
X172501928Y-76620000D01*
X172501928Y-78320000D01*
X172514188Y-78444482D01*
X172550498Y-78564180D01*
X172609463Y-78674494D01*
X172688815Y-78771185D01*
X172785506Y-78850537D01*
X172895820Y-78909502D01*
X172968380Y-78931513D01*
X172836525Y-79063368D01*
X172674010Y-79306589D01*
X172562068Y-79576842D01*
X172505000Y-79863740D01*
X172505000Y-80156260D01*
X172562068Y-80443158D01*
X172674010Y-80713411D01*
X172836525Y-80956632D01*
X173043368Y-81163475D01*
X173217760Y-81280000D01*
X173043368Y-81396525D01*
X172836525Y-81603368D01*
X172674010Y-81846589D01*
X172562068Y-82116842D01*
X172505000Y-82403740D01*
X172505000Y-82696260D01*
X172562068Y-82983158D01*
X172674010Y-83253411D01*
X172836525Y-83496632D01*
X173043368Y-83703475D01*
X173217760Y-83820000D01*
X173043368Y-83936525D01*
X172836525Y-84143368D01*
X172674010Y-84386589D01*
X172562068Y-84656842D01*
X172505000Y-84943740D01*
X172505000Y-85236260D01*
X172562068Y-85523158D01*
X172674010Y-85793411D01*
X172836525Y-86036632D01*
X173043368Y-86243475D01*
X173217760Y-86360000D01*
X173043368Y-86476525D01*
X172836525Y-86683368D01*
X172674010Y-86926589D01*
X172562068Y-87196842D01*
X172505000Y-87483740D01*
X172505000Y-87776260D01*
X172562068Y-88063158D01*
X172674010Y-88333411D01*
X172836525Y-88576632D01*
X173043368Y-88783475D01*
X173217760Y-88900000D01*
X173043368Y-89016525D01*
X172836525Y-89223368D01*
X172674010Y-89466589D01*
X172562068Y-89736842D01*
X172505000Y-90023740D01*
X172505000Y-90316260D01*
X172562068Y-90603158D01*
X172674010Y-90873411D01*
X172836525Y-91116632D01*
X173043368Y-91323475D01*
X173217760Y-91440000D01*
X173043368Y-91556525D01*
X172836525Y-91763368D01*
X172674010Y-92006589D01*
X172562068Y-92276842D01*
X172505000Y-92563740D01*
X172505000Y-92856260D01*
X172562068Y-93143158D01*
X172674010Y-93413411D01*
X172836525Y-93656632D01*
X173043368Y-93863475D01*
X173217760Y-93980000D01*
X173043368Y-94096525D01*
X172836525Y-94303368D01*
X172674010Y-94546589D01*
X172562068Y-94816842D01*
X172505000Y-95103740D01*
X172505000Y-95396260D01*
X172562068Y-95683158D01*
X172674010Y-95953411D01*
X172836525Y-96196632D01*
X173043368Y-96403475D01*
X173217760Y-96520000D01*
X173043368Y-96636525D01*
X172836525Y-96843368D01*
X172674010Y-97086589D01*
X172562068Y-97356842D01*
X172505000Y-97643740D01*
X172505000Y-97936260D01*
X172562068Y-98223158D01*
X172674010Y-98493411D01*
X172836525Y-98736632D01*
X173043368Y-98943475D01*
X173217760Y-99060000D01*
X173043368Y-99176525D01*
X172836525Y-99383368D01*
X172674010Y-99626589D01*
X172562068Y-99896842D01*
X172505000Y-100183740D01*
X172505000Y-100476260D01*
X172562068Y-100763158D01*
X172674010Y-101033411D01*
X172836525Y-101276632D01*
X173043368Y-101483475D01*
X173217760Y-101600000D01*
X173043368Y-101716525D01*
X172836525Y-101923368D01*
X172674010Y-102166589D01*
X172562068Y-102436842D01*
X172505000Y-102723740D01*
X172505000Y-103016260D01*
X172562068Y-103303158D01*
X172674010Y-103573411D01*
X172836525Y-103816632D01*
X173043368Y-104023475D01*
X173217760Y-104140000D01*
X173043368Y-104256525D01*
X172836525Y-104463368D01*
X172674010Y-104706589D01*
X172562068Y-104976842D01*
X172505000Y-105263740D01*
X172505000Y-105556260D01*
X172562068Y-105843158D01*
X172674010Y-106113411D01*
X172836525Y-106356632D01*
X173043368Y-106563475D01*
X173217760Y-106680000D01*
X173043368Y-106796525D01*
X172836525Y-107003368D01*
X172674010Y-107246589D01*
X172562068Y-107516842D01*
X172505000Y-107803740D01*
X172505000Y-108096260D01*
X172562068Y-108383158D01*
X172674010Y-108653411D01*
X172836525Y-108896632D01*
X173043368Y-109103475D01*
X173217760Y-109220000D01*
X173043368Y-109336525D01*
X172836525Y-109543368D01*
X172674010Y-109786589D01*
X172562068Y-110056842D01*
X172505000Y-110343740D01*
X172505000Y-110636260D01*
X172562068Y-110923158D01*
X172674010Y-111193411D01*
X172836525Y-111436632D01*
X173043368Y-111643475D01*
X173217760Y-111760000D01*
X173043368Y-111876525D01*
X172836525Y-112083368D01*
X172674010Y-112326589D01*
X172562068Y-112596842D01*
X172505000Y-112883740D01*
X172505000Y-113176260D01*
X172562068Y-113463158D01*
X172674010Y-113733411D01*
X172836525Y-113976632D01*
X173043368Y-114183475D01*
X173217760Y-114300000D01*
X173043368Y-114416525D01*
X172836525Y-114623368D01*
X172674010Y-114866589D01*
X172562068Y-115136842D01*
X172505000Y-115423740D01*
X172505000Y-115716260D01*
X172562068Y-116003158D01*
X172674010Y-116273411D01*
X172836525Y-116516632D01*
X173043368Y-116723475D01*
X173217760Y-116840000D01*
X173043368Y-116956525D01*
X172836525Y-117163368D01*
X172674010Y-117406589D01*
X172562068Y-117676842D01*
X172505000Y-117963740D01*
X172505000Y-118256260D01*
X172562068Y-118543158D01*
X172674010Y-118813411D01*
X172836525Y-119056632D01*
X173043368Y-119263475D01*
X173216729Y-119379311D01*
X173141208Y-119621603D01*
X173990000Y-120470395D01*
X174838792Y-119621603D01*
X174763271Y-119379311D01*
X174936632Y-119263475D01*
X175143475Y-119056632D01*
X175305990Y-118813411D01*
X175417932Y-118543158D01*
X175475000Y-118256260D01*
X175475000Y-117963740D01*
X175417932Y-117676842D01*
X175305990Y-117406589D01*
X175143475Y-117163368D01*
X174936632Y-116956525D01*
X174762240Y-116840000D01*
X174936632Y-116723475D01*
X175143475Y-116516632D01*
X175305990Y-116273411D01*
X175417932Y-116003158D01*
X175475000Y-115716260D01*
X175475000Y-115423740D01*
X175417932Y-115136842D01*
X175305990Y-114866589D01*
X175143475Y-114623368D01*
X174936632Y-114416525D01*
X174762240Y-114300000D01*
X174936632Y-114183475D01*
X175143475Y-113976632D01*
X175305990Y-113733411D01*
X175417932Y-113463158D01*
X175475000Y-113176260D01*
X175475000Y-112883740D01*
X175417932Y-112596842D01*
X175305990Y-112326589D01*
X175143475Y-112083368D01*
X174936632Y-111876525D01*
X174762240Y-111760000D01*
X174936632Y-111643475D01*
X175143475Y-111436632D01*
X175305990Y-111193411D01*
X175417932Y-110923158D01*
X175475000Y-110636260D01*
X175475000Y-110343740D01*
X175417932Y-110056842D01*
X175305990Y-109786589D01*
X175143475Y-109543368D01*
X174936632Y-109336525D01*
X174762240Y-109220000D01*
X174936632Y-109103475D01*
X175143475Y-108896632D01*
X175305990Y-108653411D01*
X175417932Y-108383158D01*
X175475000Y-108096260D01*
X175475000Y-107803740D01*
X175417932Y-107516842D01*
X175305990Y-107246589D01*
X175143475Y-107003368D01*
X174936632Y-106796525D01*
X174762240Y-106680000D01*
X174936632Y-106563475D01*
X175143475Y-106356632D01*
X175305990Y-106113411D01*
X175417932Y-105843158D01*
X175475000Y-105556260D01*
X175475000Y-105263740D01*
X175417932Y-104976842D01*
X175305990Y-104706589D01*
X175143475Y-104463368D01*
X174936632Y-104256525D01*
X174762240Y-104140000D01*
X174936632Y-104023475D01*
X175143475Y-103816632D01*
X175305990Y-103573411D01*
X175417932Y-103303158D01*
X175475000Y-103016260D01*
X175475000Y-102723740D01*
X175417932Y-102436842D01*
X175305990Y-102166589D01*
X175143475Y-101923368D01*
X174936632Y-101716525D01*
X174762240Y-101600000D01*
X174936632Y-101483475D01*
X175143475Y-101276632D01*
X175305990Y-101033411D01*
X175417932Y-100763158D01*
X175475000Y-100476260D01*
X175475000Y-100183740D01*
X175417932Y-99896842D01*
X175305990Y-99626589D01*
X175143475Y-99383368D01*
X174936632Y-99176525D01*
X174762240Y-99060000D01*
X174936632Y-98943475D01*
X175143475Y-98736632D01*
X175305990Y-98493411D01*
X175417932Y-98223158D01*
X175475000Y-97936260D01*
X175475000Y-97643740D01*
X175417932Y-97356842D01*
X175305990Y-97086589D01*
X175143475Y-96843368D01*
X174936632Y-96636525D01*
X174762240Y-96520000D01*
X174936632Y-96403475D01*
X175143475Y-96196632D01*
X175305990Y-95953411D01*
X175417932Y-95683158D01*
X175475000Y-95396260D01*
X175475000Y-95103740D01*
X175417932Y-94816842D01*
X175305990Y-94546589D01*
X175143475Y-94303368D01*
X174936632Y-94096525D01*
X174762240Y-93980000D01*
X174936632Y-93863475D01*
X175143475Y-93656632D01*
X175305990Y-93413411D01*
X175417932Y-93143158D01*
X175475000Y-92856260D01*
X175475000Y-92563740D01*
X175417932Y-92276842D01*
X175305990Y-92006589D01*
X175143475Y-91763368D01*
X174936632Y-91556525D01*
X174762240Y-91440000D01*
X174936632Y-91323475D01*
X175143475Y-91116632D01*
X175305990Y-90873411D01*
X175417932Y-90603158D01*
X175475000Y-90316260D01*
X175475000Y-90023740D01*
X175417932Y-89736842D01*
X175305990Y-89466589D01*
X175143475Y-89223368D01*
X174936632Y-89016525D01*
X174762240Y-88900000D01*
X174936632Y-88783475D01*
X175143475Y-88576632D01*
X175305990Y-88333411D01*
X175417932Y-88063158D01*
X175475000Y-87776260D01*
X175475000Y-87483740D01*
X175417932Y-87196842D01*
X175305990Y-86926589D01*
X175143475Y-86683368D01*
X174936632Y-86476525D01*
X174762240Y-86360000D01*
X174936632Y-86243475D01*
X175143475Y-86036632D01*
X175305990Y-85793411D01*
X175417932Y-85523158D01*
X175475000Y-85236260D01*
X175475000Y-84943740D01*
X175417932Y-84656842D01*
X175305990Y-84386589D01*
X175143475Y-84143368D01*
X174936632Y-83936525D01*
X174762240Y-83820000D01*
X174936632Y-83703475D01*
X175143475Y-83496632D01*
X175305990Y-83253411D01*
X175417932Y-82983158D01*
X175475000Y-82696260D01*
X175475000Y-82403740D01*
X175417932Y-82116842D01*
X175305990Y-81846589D01*
X175143475Y-81603368D01*
X174936632Y-81396525D01*
X174762240Y-81280000D01*
X174936632Y-81163475D01*
X175143475Y-80956632D01*
X175305990Y-80713411D01*
X175417932Y-80443158D01*
X175475000Y-80156260D01*
X175475000Y-79863740D01*
X175417932Y-79576842D01*
X175305990Y-79306589D01*
X175143475Y-79063368D01*
X175011620Y-78931513D01*
X175084180Y-78909502D01*
X175194494Y-78850537D01*
X175291185Y-78771185D01*
X175370537Y-78674494D01*
X175429502Y-78564180D01*
X175465812Y-78444482D01*
X175478072Y-78320000D01*
X175478072Y-77323740D01*
X187745000Y-77323740D01*
X187745000Y-77616260D01*
X187802068Y-77903158D01*
X187914010Y-78173411D01*
X188076525Y-78416632D01*
X188283368Y-78623475D01*
X188457760Y-78740000D01*
X188283368Y-78856525D01*
X188076525Y-79063368D01*
X187914010Y-79306589D01*
X187802068Y-79576842D01*
X187745000Y-79863740D01*
X187745000Y-80156260D01*
X187802068Y-80443158D01*
X187914010Y-80713411D01*
X188076525Y-80956632D01*
X188283368Y-81163475D01*
X188457760Y-81280000D01*
X188283368Y-81396525D01*
X188076525Y-81603368D01*
X187914010Y-81846589D01*
X187802068Y-82116842D01*
X187745000Y-82403740D01*
X187745000Y-82696260D01*
X187802068Y-82983158D01*
X187914010Y-83253411D01*
X188076525Y-83496632D01*
X188283368Y-83703475D01*
X188457760Y-83820000D01*
X188283368Y-83936525D01*
X188076525Y-84143368D01*
X187914010Y-84386589D01*
X187802068Y-84656842D01*
X187745000Y-84943740D01*
X187745000Y-85236260D01*
X187802068Y-85523158D01*
X187914010Y-85793411D01*
X188076525Y-86036632D01*
X188283368Y-86243475D01*
X188457760Y-86360000D01*
X188283368Y-86476525D01*
X188076525Y-86683368D01*
X187914010Y-86926589D01*
X187802068Y-87196842D01*
X187745000Y-87483740D01*
X187745000Y-87776260D01*
X187802068Y-88063158D01*
X187914010Y-88333411D01*
X188076525Y-88576632D01*
X188283368Y-88783475D01*
X188457760Y-88900000D01*
X188283368Y-89016525D01*
X188076525Y-89223368D01*
X187914010Y-89466589D01*
X187802068Y-89736842D01*
X187745000Y-90023740D01*
X187745000Y-90316260D01*
X187802068Y-90603158D01*
X187914010Y-90873411D01*
X188076525Y-91116632D01*
X188283368Y-91323475D01*
X188457760Y-91440000D01*
X188283368Y-91556525D01*
X188076525Y-91763368D01*
X187914010Y-92006589D01*
X187802068Y-92276842D01*
X187745000Y-92563740D01*
X187745000Y-92856260D01*
X187802068Y-93143158D01*
X187914010Y-93413411D01*
X188076525Y-93656632D01*
X188283368Y-93863475D01*
X188457760Y-93980000D01*
X188283368Y-94096525D01*
X188076525Y-94303368D01*
X187914010Y-94546589D01*
X187802068Y-94816842D01*
X187745000Y-95103740D01*
X187745000Y-95396260D01*
X187802068Y-95683158D01*
X187914010Y-95953411D01*
X188076525Y-96196632D01*
X188283368Y-96403475D01*
X188457760Y-96520000D01*
X188283368Y-96636525D01*
X188076525Y-96843368D01*
X187914010Y-97086589D01*
X187802068Y-97356842D01*
X187745000Y-97643740D01*
X187745000Y-97936260D01*
X187802068Y-98223158D01*
X187914010Y-98493411D01*
X188076525Y-98736632D01*
X188283368Y-98943475D01*
X188457760Y-99060000D01*
X188283368Y-99176525D01*
X188076525Y-99383368D01*
X187914010Y-99626589D01*
X187802068Y-99896842D01*
X187745000Y-100183740D01*
X187745000Y-100476260D01*
X187802068Y-100763158D01*
X187914010Y-101033411D01*
X188076525Y-101276632D01*
X188283368Y-101483475D01*
X188457760Y-101600000D01*
X188283368Y-101716525D01*
X188076525Y-101923368D01*
X187914010Y-102166589D01*
X187802068Y-102436842D01*
X187745000Y-102723740D01*
X187745000Y-103016260D01*
X187802068Y-103303158D01*
X187914010Y-103573411D01*
X188076525Y-103816632D01*
X188283368Y-104023475D01*
X188457760Y-104140000D01*
X188283368Y-104256525D01*
X188076525Y-104463368D01*
X187914010Y-104706589D01*
X187802068Y-104976842D01*
X187745000Y-105263740D01*
X187745000Y-105556260D01*
X187802068Y-105843158D01*
X187914010Y-106113411D01*
X188076525Y-106356632D01*
X188283368Y-106563475D01*
X188457760Y-106680000D01*
X188283368Y-106796525D01*
X188076525Y-107003368D01*
X187914010Y-107246589D01*
X187802068Y-107516842D01*
X187745000Y-107803740D01*
X187745000Y-108096260D01*
X187802068Y-108383158D01*
X187914010Y-108653411D01*
X188076525Y-108896632D01*
X188283368Y-109103475D01*
X188457760Y-109220000D01*
X188283368Y-109336525D01*
X188076525Y-109543368D01*
X187914010Y-109786589D01*
X187802068Y-110056842D01*
X187745000Y-110343740D01*
X187745000Y-110636260D01*
X187802068Y-110923158D01*
X187914010Y-111193411D01*
X188076525Y-111436632D01*
X188283368Y-111643475D01*
X188457760Y-111760000D01*
X188283368Y-111876525D01*
X188076525Y-112083368D01*
X187914010Y-112326589D01*
X187802068Y-112596842D01*
X187745000Y-112883740D01*
X187745000Y-113176260D01*
X187802068Y-113463158D01*
X187914010Y-113733411D01*
X188076525Y-113976632D01*
X188283368Y-114183475D01*
X188457760Y-114300000D01*
X188283368Y-114416525D01*
X188076525Y-114623368D01*
X187914010Y-114866589D01*
X187802068Y-115136842D01*
X187745000Y-115423740D01*
X187745000Y-115716260D01*
X187802068Y-116003158D01*
X187914010Y-116273411D01*
X188076525Y-116516632D01*
X188283368Y-116723475D01*
X188457760Y-116840000D01*
X188283368Y-116956525D01*
X188076525Y-117163368D01*
X187914010Y-117406589D01*
X187802068Y-117676842D01*
X187745000Y-117963740D01*
X187745000Y-118256260D01*
X187802068Y-118543158D01*
X187914010Y-118813411D01*
X188076525Y-119056632D01*
X188283368Y-119263475D01*
X188457760Y-119380000D01*
X188283368Y-119496525D01*
X188076525Y-119703368D01*
X187914010Y-119946589D01*
X187802068Y-120216842D01*
X187745000Y-120503740D01*
X187745000Y-120796260D01*
X187802068Y-121083158D01*
X187914010Y-121353411D01*
X188076525Y-121596632D01*
X188283368Y-121803475D01*
X188457760Y-121920000D01*
X188283368Y-122036525D01*
X188076525Y-122243368D01*
X187914010Y-122486589D01*
X187802068Y-122756842D01*
X187745000Y-123043740D01*
X187745000Y-123336260D01*
X187802068Y-123623158D01*
X187914010Y-123893411D01*
X188076525Y-124136632D01*
X188283368Y-124343475D01*
X188457760Y-124460000D01*
X188283368Y-124576525D01*
X188076525Y-124783368D01*
X187914010Y-125026589D01*
X187802068Y-125296842D01*
X187745000Y-125583740D01*
X187745000Y-125876260D01*
X187802068Y-126163158D01*
X187914010Y-126433411D01*
X188076525Y-126676632D01*
X188283368Y-126883475D01*
X188526589Y-127045990D01*
X188796842Y-127157932D01*
X189083740Y-127215000D01*
X189376260Y-127215000D01*
X189663158Y-127157932D01*
X189933411Y-127045990D01*
X190176632Y-126883475D01*
X190383475Y-126676632D01*
X190545990Y-126433411D01*
X190657932Y-126163158D01*
X190715000Y-125876260D01*
X190715000Y-125583740D01*
X190657932Y-125296842D01*
X190545990Y-125026589D01*
X190383475Y-124783368D01*
X190176632Y-124576525D01*
X190002240Y-124460000D01*
X190176632Y-124343475D01*
X190383475Y-124136632D01*
X190545990Y-123893411D01*
X190657932Y-123623158D01*
X190715000Y-123336260D01*
X190715000Y-123043740D01*
X190657932Y-122756842D01*
X190545990Y-122486589D01*
X190383475Y-122243368D01*
X190176632Y-122036525D01*
X190002240Y-121920000D01*
X190176632Y-121803475D01*
X190383475Y-121596632D01*
X190545990Y-121353411D01*
X190657932Y-121083158D01*
X190715000Y-120796260D01*
X190715000Y-120503740D01*
X190657932Y-120216842D01*
X190545990Y-119946589D01*
X190383475Y-119703368D01*
X190176632Y-119496525D01*
X190002240Y-119380000D01*
X190176632Y-119263475D01*
X190383475Y-119056632D01*
X190545990Y-118813411D01*
X190657932Y-118543158D01*
X190715000Y-118256260D01*
X190715000Y-117963740D01*
X190657932Y-117676842D01*
X190545990Y-117406589D01*
X190383475Y-117163368D01*
X190176632Y-116956525D01*
X190002240Y-116840000D01*
X190176632Y-116723475D01*
X190383475Y-116516632D01*
X190545990Y-116273411D01*
X190657932Y-116003158D01*
X190715000Y-115716260D01*
X190715000Y-115423740D01*
X190657932Y-115136842D01*
X190545990Y-114866589D01*
X190383475Y-114623368D01*
X190176632Y-114416525D01*
X190002240Y-114300000D01*
X190176632Y-114183475D01*
X190383475Y-113976632D01*
X190545990Y-113733411D01*
X190657932Y-113463158D01*
X190715000Y-113176260D01*
X190715000Y-112883740D01*
X190657932Y-112596842D01*
X190545990Y-112326589D01*
X190383475Y-112083368D01*
X190176632Y-111876525D01*
X190002240Y-111760000D01*
X190176632Y-111643475D01*
X190383475Y-111436632D01*
X190545990Y-111193411D01*
X190657932Y-110923158D01*
X190715000Y-110636260D01*
X190715000Y-110343740D01*
X190657932Y-110056842D01*
X190545990Y-109786589D01*
X190383475Y-109543368D01*
X190176632Y-109336525D01*
X190002240Y-109220000D01*
X190176632Y-109103475D01*
X190383475Y-108896632D01*
X190545990Y-108653411D01*
X190657932Y-108383158D01*
X190715000Y-108096260D01*
X190715000Y-107803740D01*
X190657932Y-107516842D01*
X190545990Y-107246589D01*
X190383475Y-107003368D01*
X190176632Y-106796525D01*
X190002240Y-106680000D01*
X190176632Y-106563475D01*
X190383475Y-106356632D01*
X190545990Y-106113411D01*
X190657932Y-105843158D01*
X190715000Y-105556260D01*
X190715000Y-105263740D01*
X190657932Y-104976842D01*
X190545990Y-104706589D01*
X190383475Y-104463368D01*
X190176632Y-104256525D01*
X190002240Y-104140000D01*
X190176632Y-104023475D01*
X190383475Y-103816632D01*
X190545990Y-103573411D01*
X190657932Y-103303158D01*
X190715000Y-103016260D01*
X190715000Y-102723740D01*
X190657932Y-102436842D01*
X190545990Y-102166589D01*
X190383475Y-101923368D01*
X190176632Y-101716525D01*
X190002240Y-101600000D01*
X190176632Y-101483475D01*
X190383475Y-101276632D01*
X190545990Y-101033411D01*
X190657932Y-100763158D01*
X190715000Y-100476260D01*
X190715000Y-100183740D01*
X190657932Y-99896842D01*
X190545990Y-99626589D01*
X190383475Y-99383368D01*
X190176632Y-99176525D01*
X190002240Y-99060000D01*
X190176632Y-98943475D01*
X190383475Y-98736632D01*
X190545990Y-98493411D01*
X190657932Y-98223158D01*
X190715000Y-97936260D01*
X190715000Y-97643740D01*
X190657932Y-97356842D01*
X190545990Y-97086589D01*
X190383475Y-96843368D01*
X190176632Y-96636525D01*
X190002240Y-96520000D01*
X190176632Y-96403475D01*
X190383475Y-96196632D01*
X190545990Y-95953411D01*
X190657932Y-95683158D01*
X190715000Y-95396260D01*
X190715000Y-95103740D01*
X190657932Y-94816842D01*
X190545990Y-94546589D01*
X190383475Y-94303368D01*
X190176632Y-94096525D01*
X190002240Y-93980000D01*
X190176632Y-93863475D01*
X190383475Y-93656632D01*
X190545990Y-93413411D01*
X190657932Y-93143158D01*
X190715000Y-92856260D01*
X190715000Y-92563740D01*
X190657932Y-92276842D01*
X190545990Y-92006589D01*
X190383475Y-91763368D01*
X190176632Y-91556525D01*
X190002240Y-91440000D01*
X190176632Y-91323475D01*
X190383475Y-91116632D01*
X190545990Y-90873411D01*
X190657932Y-90603158D01*
X190715000Y-90316260D01*
X190715000Y-90023740D01*
X190657932Y-89736842D01*
X190545990Y-89466589D01*
X190383475Y-89223368D01*
X190176632Y-89016525D01*
X190002240Y-88900000D01*
X190176632Y-88783475D01*
X190383475Y-88576632D01*
X190545990Y-88333411D01*
X190657932Y-88063158D01*
X190715000Y-87776260D01*
X190715000Y-87483740D01*
X190657932Y-87196842D01*
X190545990Y-86926589D01*
X190383475Y-86683368D01*
X190176632Y-86476525D01*
X190002240Y-86360000D01*
X190176632Y-86243475D01*
X190383475Y-86036632D01*
X190545990Y-85793411D01*
X190657932Y-85523158D01*
X190715000Y-85236260D01*
X190715000Y-84943740D01*
X190657932Y-84656842D01*
X190545990Y-84386589D01*
X190383475Y-84143368D01*
X190176632Y-83936525D01*
X190002240Y-83820000D01*
X190176632Y-83703475D01*
X190383475Y-83496632D01*
X190545990Y-83253411D01*
X190657932Y-82983158D01*
X190715000Y-82696260D01*
X190715000Y-82403740D01*
X190657932Y-82116842D01*
X190545990Y-81846589D01*
X190383475Y-81603368D01*
X190176632Y-81396525D01*
X190002240Y-81280000D01*
X190176632Y-81163475D01*
X190383475Y-80956632D01*
X190545990Y-80713411D01*
X190657932Y-80443158D01*
X190715000Y-80156260D01*
X190715000Y-79863740D01*
X190657932Y-79576842D01*
X190545990Y-79306589D01*
X190383475Y-79063368D01*
X190176632Y-78856525D01*
X190002240Y-78740000D01*
X190176632Y-78623475D01*
X190383475Y-78416632D01*
X190545990Y-78173411D01*
X190657932Y-77903158D01*
X190715000Y-77616260D01*
X190715000Y-77323740D01*
X190657932Y-77036842D01*
X190545990Y-76766589D01*
X190383475Y-76523368D01*
X190176632Y-76316525D01*
X189933411Y-76154010D01*
X189663158Y-76042068D01*
X189376260Y-75985000D01*
X189083740Y-75985000D01*
X188796842Y-76042068D01*
X188526589Y-76154010D01*
X188283368Y-76316525D01*
X188076525Y-76523368D01*
X187914010Y-76766589D01*
X187802068Y-77036842D01*
X187745000Y-77323740D01*
X175478072Y-77323740D01*
X175478072Y-76620000D01*
X175465812Y-76495518D01*
X175429502Y-76375820D01*
X175370537Y-76265506D01*
X175291185Y-76168815D01*
X175194494Y-76089463D01*
X175084180Y-76030498D01*
X174964482Y-75994188D01*
X174840000Y-75981928D01*
X173140000Y-75981928D01*
X173015518Y-75994188D01*
X172895820Y-76030498D01*
X172785506Y-76089463D01*
X172688815Y-76168815D01*
X172609463Y-76265506D01*
X172550498Y-76375820D01*
X172514188Y-76495518D01*
X172501928Y-76620000D01*
X107340000Y-76620000D01*
X107340000Y-73479268D01*
X148025000Y-73479268D01*
X148025000Y-73840732D01*
X148095518Y-74195250D01*
X148233844Y-74529199D01*
X148434662Y-74829744D01*
X148690256Y-75085338D01*
X148990801Y-75286156D01*
X149324750Y-75424482D01*
X149679268Y-75495000D01*
X150040732Y-75495000D01*
X150395250Y-75424482D01*
X150729199Y-75286156D01*
X151029744Y-75085338D01*
X151285338Y-74829744D01*
X151486156Y-74529199D01*
X151624482Y-74195250D01*
X151695000Y-73840732D01*
X151695000Y-73479268D01*
X160725000Y-73479268D01*
X160725000Y-73840732D01*
X160795518Y-74195250D01*
X160933844Y-74529199D01*
X161134662Y-74829744D01*
X161390256Y-75085338D01*
X161690801Y-75286156D01*
X162024750Y-75424482D01*
X162379268Y-75495000D01*
X162740732Y-75495000D01*
X163095250Y-75424482D01*
X163429199Y-75286156D01*
X163729744Y-75085338D01*
X163985338Y-74829744D01*
X164186156Y-74529199D01*
X164324482Y-74195250D01*
X164395000Y-73840732D01*
X164395000Y-73479268D01*
X164324482Y-73124750D01*
X164186156Y-72790801D01*
X163985338Y-72490256D01*
X163729744Y-72234662D01*
X163429199Y-72033844D01*
X163095250Y-71895518D01*
X162740732Y-71825000D01*
X162379268Y-71825000D01*
X162024750Y-71895518D01*
X161690801Y-72033844D01*
X161390256Y-72234662D01*
X161134662Y-72490256D01*
X160933844Y-72790801D01*
X160795518Y-73124750D01*
X160725000Y-73479268D01*
X151695000Y-73479268D01*
X151624482Y-73124750D01*
X151486156Y-72790801D01*
X151285338Y-72490256D01*
X151029744Y-72234662D01*
X150729199Y-72033844D01*
X150395250Y-71895518D01*
X150040732Y-71825000D01*
X149679268Y-71825000D01*
X149324750Y-71895518D01*
X148990801Y-72033844D01*
X148690256Y-72234662D01*
X148434662Y-72490256D01*
X148233844Y-72790801D01*
X148095518Y-73124750D01*
X148025000Y-73479268D01*
X107340000Y-73479268D01*
X107340000Y-67730000D01*
X112811928Y-67730000D01*
X112811928Y-69430000D01*
X112824188Y-69554482D01*
X112860498Y-69674180D01*
X112919463Y-69784494D01*
X112998815Y-69881185D01*
X113095506Y-69960537D01*
X113205820Y-70019502D01*
X113325518Y-70055812D01*
X113450000Y-70068072D01*
X115150000Y-70068072D01*
X115274482Y-70055812D01*
X115394180Y-70019502D01*
X115504494Y-69960537D01*
X115601185Y-69881185D01*
X115680537Y-69784494D01*
X115739502Y-69674180D01*
X115761513Y-69601620D01*
X115893368Y-69733475D01*
X116136589Y-69895990D01*
X116406842Y-70007932D01*
X116693740Y-70065000D01*
X116986260Y-70065000D01*
X117273158Y-70007932D01*
X117543411Y-69895990D01*
X117786632Y-69733475D01*
X117993475Y-69526632D01*
X118110000Y-69352240D01*
X118226525Y-69526632D01*
X118433368Y-69733475D01*
X118676589Y-69895990D01*
X118946842Y-70007932D01*
X119233740Y-70065000D01*
X119526260Y-70065000D01*
X119813158Y-70007932D01*
X120083411Y-69895990D01*
X120326632Y-69733475D01*
X120533475Y-69526632D01*
X120695990Y-69283411D01*
X120807932Y-69013158D01*
X120865000Y-68726260D01*
X120865000Y-68433740D01*
X120811544Y-68164999D01*
X122971928Y-68164999D01*
X122971928Y-69430000D01*
X122984188Y-69554482D01*
X123020498Y-69674180D01*
X123079463Y-69784494D01*
X123158815Y-69881185D01*
X123255506Y-69960537D01*
X123365820Y-70019502D01*
X123485518Y-70055812D01*
X123610000Y-70068072D01*
X125310000Y-70068072D01*
X125434482Y-70055812D01*
X125554180Y-70019502D01*
X125664494Y-69960537D01*
X125761185Y-69881185D01*
X125840537Y-69784494D01*
X125899502Y-69674180D01*
X125921513Y-69601620D01*
X126053368Y-69733475D01*
X126296589Y-69895990D01*
X126566842Y-70007932D01*
X126853740Y-70065000D01*
X127146260Y-70065000D01*
X127433158Y-70007932D01*
X127703411Y-69895990D01*
X127946632Y-69733475D01*
X128054217Y-69625890D01*
X129125010Y-69625890D01*
X129125010Y-70074110D01*
X129212453Y-70513718D01*
X129383980Y-70927819D01*
X129632997Y-71300500D01*
X129949937Y-71617440D01*
X130322618Y-71866457D01*
X130736719Y-72037984D01*
X131176327Y-72125427D01*
X131624547Y-72125427D01*
X132064155Y-72037984D01*
X132478256Y-71866457D01*
X132850937Y-71617440D01*
X133167877Y-71300500D01*
X133416894Y-70927819D01*
X133588421Y-70513718D01*
X133675864Y-70074110D01*
X133675864Y-69625890D01*
X133588421Y-69186282D01*
X133416894Y-68772181D01*
X133167877Y-68399500D01*
X132850937Y-68082560D01*
X132478256Y-67833543D01*
X132228283Y-67730000D01*
X142021928Y-67730000D01*
X142021928Y-69430000D01*
X142034188Y-69554482D01*
X142070498Y-69674180D01*
X142129463Y-69784494D01*
X142208815Y-69881185D01*
X142305506Y-69960537D01*
X142415820Y-70019502D01*
X142535518Y-70055812D01*
X142660000Y-70068072D01*
X144360000Y-70068072D01*
X144484482Y-70055812D01*
X144604180Y-70019502D01*
X144714494Y-69960537D01*
X144811185Y-69881185D01*
X144890537Y-69784494D01*
X144949502Y-69674180D01*
X144985812Y-69554482D01*
X144998072Y-69430000D01*
X144998072Y-68399268D01*
X148025000Y-68399268D01*
X148025000Y-68760732D01*
X148095518Y-69115250D01*
X148233844Y-69449199D01*
X148434662Y-69749744D01*
X148690256Y-70005338D01*
X148990801Y-70206156D01*
X149324750Y-70344482D01*
X149679268Y-70415000D01*
X150040732Y-70415000D01*
X150395250Y-70344482D01*
X150729199Y-70206156D01*
X151029744Y-70005338D01*
X151285338Y-69749744D01*
X151486156Y-69449199D01*
X151624482Y-69115250D01*
X151695000Y-68760732D01*
X151695000Y-68399268D01*
X160725000Y-68399268D01*
X160725000Y-68760732D01*
X160795518Y-69115250D01*
X160933844Y-69449199D01*
X161134662Y-69749744D01*
X161390256Y-70005338D01*
X161690801Y-70206156D01*
X162024750Y-70344482D01*
X162379268Y-70415000D01*
X162740732Y-70415000D01*
X163095250Y-70344482D01*
X163429199Y-70206156D01*
X163729744Y-70005338D01*
X163985338Y-69749744D01*
X164068094Y-69625890D01*
X169257010Y-69625890D01*
X169257010Y-70074110D01*
X169344453Y-70513718D01*
X169515980Y-70927819D01*
X169764997Y-71300500D01*
X170081937Y-71617440D01*
X170454618Y-71866457D01*
X170868719Y-72037984D01*
X171308327Y-72125427D01*
X171756547Y-72125427D01*
X172196155Y-72037984D01*
X172610256Y-71866457D01*
X172982937Y-71617440D01*
X173299877Y-71300500D01*
X173548894Y-70927819D01*
X173720421Y-70513718D01*
X173807864Y-70074110D01*
X173807864Y-69625890D01*
X173720421Y-69186282D01*
X173548894Y-68772181D01*
X173299877Y-68399500D01*
X172982937Y-68082560D01*
X172610256Y-67833543D01*
X172360283Y-67730000D01*
X175041928Y-67730000D01*
X175041928Y-69430000D01*
X175054188Y-69554482D01*
X175090498Y-69674180D01*
X175149463Y-69784494D01*
X175228815Y-69881185D01*
X175325506Y-69960537D01*
X175435820Y-70019502D01*
X175555518Y-70055812D01*
X175680000Y-70068072D01*
X177380000Y-70068072D01*
X177504482Y-70055812D01*
X177624180Y-70019502D01*
X177734494Y-69960537D01*
X177831185Y-69881185D01*
X177910537Y-69784494D01*
X177969502Y-69674180D01*
X177993966Y-69593534D01*
X178069731Y-69677588D01*
X178303080Y-69851641D01*
X178565901Y-69976825D01*
X178713110Y-70021476D01*
X178943000Y-69900155D01*
X178943000Y-68707000D01*
X179197000Y-68707000D01*
X179197000Y-69900155D01*
X179426890Y-70021476D01*
X179574099Y-69976825D01*
X179836920Y-69851641D01*
X180070269Y-69677588D01*
X180265178Y-69461355D01*
X180414157Y-69211252D01*
X180511481Y-68936891D01*
X180390814Y-68707000D01*
X179197000Y-68707000D01*
X178943000Y-68707000D01*
X178923000Y-68707000D01*
X178923000Y-68453000D01*
X178943000Y-68453000D01*
X178943000Y-67259845D01*
X179197000Y-67259845D01*
X179197000Y-68453000D01*
X180390814Y-68453000D01*
X180511481Y-68223109D01*
X180414157Y-67948748D01*
X180283856Y-67730000D01*
X182661928Y-67730000D01*
X182661928Y-69430000D01*
X182674188Y-69554482D01*
X182710498Y-69674180D01*
X182769463Y-69784494D01*
X182848815Y-69881185D01*
X182945506Y-69960537D01*
X183055820Y-70019502D01*
X183175518Y-70055812D01*
X183300000Y-70068072D01*
X185000000Y-70068072D01*
X185124482Y-70055812D01*
X185244180Y-70019502D01*
X185354494Y-69960537D01*
X185451185Y-69881185D01*
X185530537Y-69784494D01*
X185589502Y-69674180D01*
X185613966Y-69593534D01*
X185689731Y-69677588D01*
X185923080Y-69851641D01*
X186185901Y-69976825D01*
X186333110Y-70021476D01*
X186563000Y-69900155D01*
X186563000Y-68707000D01*
X186543000Y-68707000D01*
X186543000Y-68453000D01*
X186563000Y-68453000D01*
X186563000Y-67259845D01*
X186817000Y-67259845D01*
X186817000Y-68453000D01*
X186837000Y-68453000D01*
X186837000Y-68707000D01*
X186817000Y-68707000D01*
X186817000Y-69900155D01*
X187046890Y-70021476D01*
X187194099Y-69976825D01*
X187456920Y-69851641D01*
X187690269Y-69677588D01*
X187885178Y-69461355D01*
X187954805Y-69344466D01*
X188076525Y-69526632D01*
X188283368Y-69733475D01*
X188526589Y-69895990D01*
X188796842Y-70007932D01*
X189083740Y-70065000D01*
X189376260Y-70065000D01*
X189663158Y-70007932D01*
X189933411Y-69895990D01*
X190176632Y-69733475D01*
X190383475Y-69526632D01*
X190545990Y-69283411D01*
X190657932Y-69013158D01*
X190715000Y-68726260D01*
X190715000Y-68433740D01*
X190657932Y-68146842D01*
X190545990Y-67876589D01*
X190383475Y-67633368D01*
X190176632Y-67426525D01*
X189933411Y-67264010D01*
X189663158Y-67152068D01*
X189376260Y-67095000D01*
X189083740Y-67095000D01*
X188796842Y-67152068D01*
X188526589Y-67264010D01*
X188283368Y-67426525D01*
X188076525Y-67633368D01*
X187954805Y-67815534D01*
X187885178Y-67698645D01*
X187690269Y-67482412D01*
X187456920Y-67308359D01*
X187194099Y-67183175D01*
X187046890Y-67138524D01*
X186817000Y-67259845D01*
X186563000Y-67259845D01*
X186333110Y-67138524D01*
X186185901Y-67183175D01*
X185923080Y-67308359D01*
X185689731Y-67482412D01*
X185613966Y-67566466D01*
X185589502Y-67485820D01*
X185530537Y-67375506D01*
X185451185Y-67278815D01*
X185354494Y-67199463D01*
X185244180Y-67140498D01*
X185124482Y-67104188D01*
X185000000Y-67091928D01*
X183300000Y-67091928D01*
X183175518Y-67104188D01*
X183055820Y-67140498D01*
X182945506Y-67199463D01*
X182848815Y-67278815D01*
X182769463Y-67375506D01*
X182710498Y-67485820D01*
X182674188Y-67605518D01*
X182661928Y-67730000D01*
X180283856Y-67730000D01*
X180265178Y-67698645D01*
X180070269Y-67482412D01*
X179836920Y-67308359D01*
X179574099Y-67183175D01*
X179426890Y-67138524D01*
X179197000Y-67259845D01*
X178943000Y-67259845D01*
X178713110Y-67138524D01*
X178565901Y-67183175D01*
X178303080Y-67308359D01*
X178069731Y-67482412D01*
X177993966Y-67566466D01*
X177969502Y-67485820D01*
X177910537Y-67375506D01*
X177831185Y-67278815D01*
X177734494Y-67199463D01*
X177624180Y-67140498D01*
X177504482Y-67104188D01*
X177380000Y-67091928D01*
X175680000Y-67091928D01*
X175555518Y-67104188D01*
X175435820Y-67140498D01*
X175325506Y-67199463D01*
X175228815Y-67278815D01*
X175149463Y-67375506D01*
X175090498Y-67485820D01*
X175054188Y-67605518D01*
X175041928Y-67730000D01*
X172360283Y-67730000D01*
X172196155Y-67662016D01*
X171756547Y-67574573D01*
X171308327Y-67574573D01*
X170868719Y-67662016D01*
X170454618Y-67833543D01*
X170081937Y-68082560D01*
X169764997Y-68399500D01*
X169515980Y-68772181D01*
X169344453Y-69186282D01*
X169257010Y-69625890D01*
X164068094Y-69625890D01*
X164186156Y-69449199D01*
X164324482Y-69115250D01*
X164395000Y-68760732D01*
X164395000Y-68399268D01*
X164324482Y-68044750D01*
X164186156Y-67710801D01*
X163985338Y-67410256D01*
X163729744Y-67154662D01*
X163429199Y-66953844D01*
X163095250Y-66815518D01*
X162740732Y-66745000D01*
X162379268Y-66745000D01*
X162024750Y-66815518D01*
X161690801Y-66953844D01*
X161390256Y-67154662D01*
X161134662Y-67410256D01*
X160933844Y-67710801D01*
X160795518Y-68044750D01*
X160725000Y-68399268D01*
X151695000Y-68399268D01*
X151624482Y-68044750D01*
X151486156Y-67710801D01*
X151285338Y-67410256D01*
X151029744Y-67154662D01*
X150729199Y-66953844D01*
X150395250Y-66815518D01*
X150040732Y-66745000D01*
X149679268Y-66745000D01*
X149324750Y-66815518D01*
X148990801Y-66953844D01*
X148690256Y-67154662D01*
X148434662Y-67410256D01*
X148233844Y-67710801D01*
X148095518Y-68044750D01*
X148025000Y-68399268D01*
X144998072Y-68399268D01*
X144998072Y-67730000D01*
X144985812Y-67605518D01*
X144949502Y-67485820D01*
X144890537Y-67375506D01*
X144811185Y-67278815D01*
X144714494Y-67199463D01*
X144604180Y-67140498D01*
X144484482Y-67104188D01*
X144360000Y-67091928D01*
X142660000Y-67091928D01*
X142535518Y-67104188D01*
X142415820Y-67140498D01*
X142305506Y-67199463D01*
X142208815Y-67278815D01*
X142129463Y-67375506D01*
X142070498Y-67485820D01*
X142034188Y-67605518D01*
X142021928Y-67730000D01*
X132228283Y-67730000D01*
X132064155Y-67662016D01*
X131624547Y-67574573D01*
X131176327Y-67574573D01*
X130736719Y-67662016D01*
X130322618Y-67833543D01*
X129949937Y-68082560D01*
X129632997Y-68399500D01*
X129383980Y-68772181D01*
X129212453Y-69186282D01*
X129125010Y-69625890D01*
X128054217Y-69625890D01*
X128153475Y-69526632D01*
X128315990Y-69283411D01*
X128427932Y-69013158D01*
X128485000Y-68726260D01*
X128485000Y-68433740D01*
X128427932Y-68146842D01*
X128315990Y-67876589D01*
X128153475Y-67633368D01*
X127946632Y-67426525D01*
X127703411Y-67264010D01*
X127433158Y-67152068D01*
X127146260Y-67095000D01*
X126853740Y-67095000D01*
X126633592Y-67138791D01*
X126388803Y-66894002D01*
X126365000Y-66864998D01*
X126249275Y-66770025D01*
X126117246Y-66699453D01*
X125973985Y-66655996D01*
X125862332Y-66644999D01*
X125862321Y-66644999D01*
X125824999Y-66641323D01*
X125787677Y-66644999D01*
X118052323Y-66644999D01*
X118015000Y-66641323D01*
X117977677Y-66644999D01*
X117977668Y-66644999D01*
X117866015Y-66655996D01*
X117722754Y-66699453D01*
X117590725Y-66770025D01*
X117475000Y-66864998D01*
X117451202Y-66893996D01*
X117206408Y-67138790D01*
X116986260Y-67095000D01*
X116693740Y-67095000D01*
X116406842Y-67152068D01*
X116136589Y-67264010D01*
X115893368Y-67426525D01*
X115761513Y-67558380D01*
X115739502Y-67485820D01*
X115680537Y-67375506D01*
X115601185Y-67278815D01*
X115504494Y-67199463D01*
X115394180Y-67140498D01*
X115274482Y-67104188D01*
X115150000Y-67091928D01*
X113450000Y-67091928D01*
X113325518Y-67104188D01*
X113205820Y-67140498D01*
X113095506Y-67199463D01*
X112998815Y-67278815D01*
X112919463Y-67375506D01*
X112860498Y-67485820D01*
X112824188Y-67605518D01*
X112811928Y-67730000D01*
X107340000Y-67730000D01*
X107340000Y-61233380D01*
X110763381Y-57810000D01*
X191496620Y-57810000D01*
X194920000Y-61233381D01*
G37*
%TD.AperFunction*%
%TD*%
M02*
