%TF.GenerationSoftware,KiCad,Pcbnew,(5.1.10)-1*%
%TF.CreationDate,2021-12-09T02:28:18+01:00*%
%TF.ProjectId,flight controller,666c6967-6874-4206-936f-6e74726f6c6c,rev?*%
%TF.SameCoordinates,Original*%
%TF.FileFunction,Soldermask,Bot*%
%TF.FilePolarity,Negative*%
%FSLAX46Y46*%
G04 Gerber Fmt 4.6, Leading zero omitted, Abs format (unit mm)*
G04 Created by KiCad (PCBNEW (5.1.10)-1) date 2021-12-09 02:28:18*
%MOMM*%
%LPD*%
G01*
G04 APERTURE LIST*
%ADD10R,1.524000X1.524000*%
%ADD11C,1.524000*%
%ADD12C,1.800000*%
%ADD13R,1.800000X1.800000*%
%ADD14O,1.700000X1.700000*%
%ADD15R,1.700000X1.700000*%
%ADD16O,2.400000X2.400000*%
%ADD17C,2.400000*%
%ADD18C,1.700000*%
G04 APERTURE END LIST*
D10*
%TO.C,U6*%
X134747000Y-108458000D03*
D11*
X134747000Y-105918000D03*
X132207000Y-105918000D03*
X129667000Y-105918000D03*
%TD*%
D12*
%TO.C,D1*%
X148590000Y-140970000D03*
D13*
X148590000Y-143510000D03*
%TD*%
D12*
%TO.C,D2*%
X142240000Y-140970000D03*
D13*
X142240000Y-143510000D03*
%TD*%
D12*
%TO.C,D3*%
X154940000Y-140970000D03*
D13*
X154940000Y-143510000D03*
%TD*%
D12*
%TO.C,D4*%
X161290000Y-140970000D03*
D13*
X161290000Y-143510000D03*
%TD*%
D14*
%TO.C,J1*%
X113030000Y-134620000D03*
X115570000Y-134620000D03*
D15*
X118110000Y-134620000D03*
%TD*%
D14*
%TO.C,J2*%
X119380000Y-68580000D03*
X116840000Y-68580000D03*
D15*
X114300000Y-68580000D03*
%TD*%
D14*
%TO.C,J3*%
X127000000Y-68580000D03*
D15*
X124460000Y-68580000D03*
%TD*%
D14*
%TO.C,J4*%
X123190000Y-134620000D03*
D15*
X125730000Y-134620000D03*
%TD*%
D14*
%TO.C,J5*%
X179070000Y-68580000D03*
D15*
X176530000Y-68580000D03*
%TD*%
D14*
%TO.C,J6*%
X189230000Y-68580000D03*
X186690000Y-68580000D03*
D15*
X184150000Y-68580000D03*
%TD*%
D14*
%TO.C,J7*%
X176530000Y-134620000D03*
D15*
X179070000Y-134620000D03*
%TD*%
D14*
%TO.C,J8*%
X184150000Y-134620000D03*
X186690000Y-134620000D03*
D15*
X189230000Y-134620000D03*
%TD*%
D14*
%TO.C,J9*%
X118110000Y-105410000D03*
X118110000Y-107950000D03*
X118110000Y-110490000D03*
D15*
X118110000Y-113030000D03*
%TD*%
D14*
%TO.C,J10*%
X118110000Y-120650000D03*
X118110000Y-123190000D03*
D15*
X118110000Y-125730000D03*
%TD*%
%TO.C,J11*%
X143510000Y-68580000D03*
%TD*%
D16*
%TO.C,R1*%
X148590000Y-137160000D03*
D17*
X148590000Y-124460000D03*
%TD*%
D16*
%TO.C,R2*%
X142240000Y-137160000D03*
D17*
X142240000Y-124460000D03*
%TD*%
D16*
%TO.C,R3*%
X154940000Y-137160000D03*
D17*
X154940000Y-124460000D03*
%TD*%
D16*
%TO.C,R4*%
X161290000Y-137160000D03*
D17*
X161290000Y-124460000D03*
%TD*%
D16*
%TO.C,R5*%
X149860000Y-73660000D03*
D17*
X162560000Y-73660000D03*
%TD*%
D16*
%TO.C,R6*%
X149860000Y-68580000D03*
D17*
X162560000Y-68580000D03*
%TD*%
D18*
%TO.C,U1*%
X173990000Y-125730000D03*
X189230000Y-125730000D03*
X173990000Y-123190000D03*
X189230000Y-123190000D03*
X173990000Y-120650000D03*
X189230000Y-120650000D03*
X173990000Y-118110000D03*
X189230000Y-118110000D03*
X173990000Y-115570000D03*
X189230000Y-115570000D03*
X173990000Y-113030000D03*
X189230000Y-113030000D03*
X173990000Y-110490000D03*
X189230000Y-110490000D03*
X173990000Y-107950000D03*
X189230000Y-107950000D03*
X173990000Y-105410000D03*
X189230000Y-105410000D03*
X173990000Y-102870000D03*
X189230000Y-102870000D03*
X173990000Y-100330000D03*
X189230000Y-100330000D03*
X173990000Y-97790000D03*
X189230000Y-97790000D03*
X173990000Y-95250000D03*
X189230000Y-95250000D03*
X173990000Y-92710000D03*
X189230000Y-92710000D03*
X173990000Y-90170000D03*
X189230000Y-90170000D03*
X173990000Y-87630000D03*
X189230000Y-87630000D03*
X173990000Y-85090000D03*
X189230000Y-85090000D03*
X173990000Y-82550000D03*
X189230000Y-82550000D03*
X173990000Y-80010000D03*
X189230000Y-80010000D03*
D15*
X173990000Y-77470000D03*
D18*
X189230000Y-77470000D03*
%TD*%
D11*
%TO.C,U2*%
X160020000Y-82550000D03*
D10*
X157480000Y-82550000D03*
D11*
X154940000Y-82550000D03*
X142240000Y-82550000D03*
X144780000Y-82550000D03*
X147320000Y-82550000D03*
X149860000Y-82550000D03*
X152400000Y-82550000D03*
%TD*%
D14*
%TO.C,U3*%
X118110000Y-93980000D03*
X118110000Y-91440000D03*
X118110000Y-88900000D03*
X118110000Y-86360000D03*
X118110000Y-83820000D03*
D15*
X118110000Y-81280000D03*
%TD*%
D11*
%TO.C,U4*%
X129667000Y-97282000D03*
X132207000Y-97282000D03*
X127127000Y-94742000D03*
X129667000Y-94742000D03*
X132207000Y-94742000D03*
D10*
X134747000Y-94742000D03*
%TD*%
D11*
%TO.C,U5*%
X129794000Y-85852000D03*
X132334000Y-85852000D03*
X127254000Y-83312000D03*
X129794000Y-83312000D03*
X132334000Y-83312000D03*
D10*
X134874000Y-83312000D03*
%TD*%
D11*
%TO.C,U7*%
X160020000Y-102870000D03*
D10*
X157480000Y-102870000D03*
D11*
X154940000Y-102870000D03*
X142240000Y-102870000D03*
X144780000Y-102870000D03*
X147320000Y-102870000D03*
X149860000Y-102870000D03*
X152400000Y-102870000D03*
%TD*%
M02*
