M48
; DRILL file {KiCad (5.1.10)-1} date 12/09/21 02:28:01
; FORMAT={-:-/ absolute / inch / decimal}
; #@! TF.CreationDate,2021-12-09T02:28:01+01:00
; #@! TF.GenerationSoftware,Kicad,Pcbnew,(5.1.10)-1
; #@! TF.FileFunction,Plated,1,4,PTH
FMAT,2
INCH
T1C0.0300
T2C0.0354
T3C0.0394
T4C0.0472
%
G90
G05
T1
X5.005Y-3.73
X5.01Y-3.28
X5.105Y-3.73
X5.105Y-3.83
X5.105Y-4.17
X5.11Y-3.28
X5.11Y-3.38
X5.205Y-3.73
X5.205Y-3.83
X5.205Y-4.17
X5.21Y-3.28
X5.21Y-3.38
X5.305Y-3.73
X5.305Y-4.17
X5.305Y-4.27
X5.31Y-3.28
X5.6Y-3.25
X5.6Y-4.05
X5.7Y-3.25
X5.7Y-4.05
X5.8Y-3.25
X5.8Y-4.05
X5.9Y-3.25
X5.9Y-4.05
X6.0Y-3.25
X6.0Y-4.05
X6.1Y-3.25
X6.1Y-4.05
X6.2Y-3.25
X6.2Y-4.05
X6.3Y-3.25
X6.3Y-4.05
T2
X5.6Y-5.55
X5.6Y-5.65
X5.85Y-5.55
X5.85Y-5.65
X6.1Y-5.55
X6.1Y-5.65
X6.35Y-5.55
X6.35Y-5.65
T3
X4.45Y-5.3
X4.5Y-2.7
X4.55Y-5.3
X4.6Y-2.7
X4.65Y-3.2
X4.65Y-3.3
X4.65Y-3.4
X4.65Y-3.5
X4.65Y-3.6
X4.65Y-3.7
X4.65Y-4.15
X4.65Y-4.25
X4.65Y-4.35
X4.65Y-4.45
X4.65Y-4.75
X4.65Y-4.85
X4.65Y-4.95
X4.65Y-5.3
X4.7Y-2.7
X4.85Y-5.3
X4.9Y-2.7
X4.95Y-5.3
X5.0Y-2.7
X5.65Y-2.7
X6.85Y-3.05
X6.85Y-3.15
X6.85Y-3.25
X6.85Y-3.35
X6.85Y-3.45
X6.85Y-3.55
X6.85Y-3.65
X6.85Y-3.75
X6.85Y-3.85
X6.85Y-3.95
X6.85Y-4.05
X6.85Y-4.15
X6.85Y-4.25
X6.85Y-4.35
X6.85Y-4.45
X6.85Y-4.55
X6.85Y-4.65
X6.85Y-4.75
X6.85Y-4.85
X6.85Y-4.95
X6.95Y-2.7
X6.95Y-5.3
X7.05Y-2.7
X7.05Y-5.3
X7.25Y-2.7
X7.25Y-5.3
X7.35Y-2.7
X7.35Y-5.3
X7.45Y-2.7
X7.45Y-3.05
X7.45Y-3.15
X7.45Y-3.25
X7.45Y-3.35
X7.45Y-3.45
X7.45Y-3.55
X7.45Y-3.65
X7.45Y-3.75
X7.45Y-3.85
X7.45Y-3.95
X7.45Y-4.05
X7.45Y-4.15
X7.45Y-4.25
X7.45Y-4.35
X7.45Y-4.45
X7.45Y-4.55
X7.45Y-4.65
X7.45Y-4.75
X7.45Y-4.85
X7.45Y-4.95
X7.45Y-5.3
T4
X5.6Y-4.9
X5.6Y-5.4
X5.85Y-4.9
X5.85Y-5.4
X5.9Y-2.7
X5.9Y-2.9
X6.1Y-4.9
X6.1Y-5.4
X6.35Y-4.9
X6.35Y-5.4
X6.4Y-2.7
X6.4Y-2.9
T0
M30
